<svg width="130" height="130" viewBox="0 0 130 130" fill="none" xmlns="http://www.w3.org/2000/svg">
<path d="M127.832 47.6667H106.166V39C106.166 37.8035 105.197 36.8333 103.999 36.8333H67.647L36.8323 22.4527V13H45.4989C49.0896 13 51.9989 10.0896 51.9989 6.5C51.9989 2.9104 49.0896 0 45.4989 0H23.8323C20.2427 0 17.3323 2.9104 17.3323 6.5C17.3323 10.0896 20.2427 13 23.8323 13H32.4989V22.4527L1.24943 37.0375C0.487712 37.393 0 38.1589 0 39C0 39.8411 0.487712 40.607 1.24943 40.9625L32.4989 55.5473V65H10.8323C9.63574 65 8.66561 65.9701 8.66561 67.1667V80.1667C8.66561 81.3632 9.63574 82.3333 10.8323 82.3333H32.4989V91.3079C28.6766 92.2801 26.0011 95.7227 26.0011 99.6667C26.0011 103.611 28.6766 107.053 32.4989 108.025V117H23.8323C20.2427 117 17.3323 119.91 17.3323 123.5C17.3323 127.09 20.2427 130 23.8323 130H45.4989C49.0896 130 51.9989 127.09 51.9989 123.5C51.9989 119.91 49.0896 117 45.4989 117H36.8323V108.025C39.8643 107.233 42.232 104.865 43.0255 101.833H103.999C105.197 101.833 106.166 100.863 106.166 99.6667V65H127.832C129.03 65 129.999 64.0299 129.999 62.8333V49.8333C129.999 48.6368 129.03 47.6667 127.832 47.6667ZM21.6656 6.5C21.6656 5.30347 22.6357 4.33333 23.8323 4.33333H45.4989C46.6965 4.33333 47.6656 5.30347 47.6656 6.5C47.6656 7.69653 46.6965 8.66667 45.4989 8.66667H23.8323C22.6357 8.66667 21.6656 7.69653 21.6656 6.5ZM47.6656 123.5C47.6656 124.697 46.6965 125.667 45.4989 125.667H23.8323C22.6357 125.667 21.6656 124.697 21.6656 123.5C21.6656 122.303 22.6357 121.333 23.8323 121.333H45.4989C46.6965 121.333 47.6656 122.303 47.6656 123.5ZM34.6656 26.2169L62.042 39L34.6656 51.7831L7.29028 39L34.6656 26.2169ZM12.9989 69.3333H56.3323V78H12.9989V69.3333ZM34.6656 104C32.2725 104 30.3323 102.06 30.3323 99.6667C30.3323 97.2736 32.2725 95.3333 34.6656 95.3333C37.0597 95.3333 38.9989 97.2736 38.9989 99.6667C38.9989 102.06 37.0597 104 34.6656 104ZM101.832 97.5H43.0255C42.232 94.4679 39.8643 92.1003 36.8323 91.3079V82.3333H58.4989C59.6965 82.3333 60.6656 81.3632 60.6656 80.1667V67.1667C60.6656 65.9701 59.6965 65 58.4989 65H36.8323V55.5473L67.647 41.1667H101.832V47.6667H80.1656C78.9691 47.6667 77.9989 48.6368 77.9989 49.8333V62.8333C77.9989 64.0299 78.9691 65 80.1656 65H101.832V97.5ZM125.666 60.6667H82.3323V52H125.666V60.6667Z" fill="url(#paint0_linear)"/>
<path fill-rule="evenodd" clip-rule="evenodd" d="M105.166 48.6667V39C105.166 38.3554 104.644 37.8333 103.999 37.8333H67.4251L35.8323 23.0896V12H45.4989C48.5372 12 50.9989 9.53742 50.9989 6.5C50.9989 3.46258 48.5372 1 45.4989 1H23.8323C20.795 1 18.3323 3.46269 18.3323 6.5C18.3323 9.53732 20.795 12 23.8323 12H33.4989V23.0896L1.67236 37.9437C1.2629 38.1348 1 38.5473 1 39C1 39.4527 1.26286 39.8652 1.67232 40.0563L33.4989 54.9105V66H10.8323C10.188 66 9.66561 66.5224 9.66561 67.1667V80.1667C9.66561 80.8109 10.188 81.3333 10.8323 81.3333H33.4989V92.0854L32.7455 92.277C29.3665 93.1365 27.0011 96.1798 27.0011 99.6667C27.0011 103.154 29.3665 106.197 32.7455 107.056L33.4989 107.248V118H23.8323C20.795 118 18.3323 120.463 18.3323 123.5C18.3323 126.537 20.795 129 23.8323 129H45.4989C48.5372 129 50.9989 126.537 50.9989 123.5C50.9989 120.463 48.5372 118 45.4989 118H35.8323V107.253L36.5794 107.058C39.2615 106.357 41.3561 104.263 42.0581 101.58L42.2535 100.833H103.999C104.644 100.833 105.166 100.311 105.166 99.6667V64H127.832C128.477 64 128.999 63.4779 128.999 62.8333V49.8333C128.999 49.1888 128.477 48.6667 127.832 48.6667H105.166ZM34.6656 25.1132L64.4056 39L34.6656 52.8868L4.92679 39L34.6656 25.1132ZM11.9989 68.3333H57.3323V79H11.9989V68.3333ZM102.832 98.5H42.2535L42.0581 97.7532C41.3561 95.0707 39.2615 92.9763 36.5794 92.2754L35.8323 92.0801V81.3333H58.4989C59.1439 81.3333 59.6656 80.8112 59.6656 80.1667V67.1667C59.6656 66.5221 59.1439 66 58.4989 66H35.8323V54.9104L67.4251 40.1667H102.832V48.6667H80.1656C79.5214 48.6667 78.9989 49.1891 78.9989 49.8333V62.8333C78.9989 63.4776 79.5214 64 80.1656 64H102.832V98.5ZM126.666 61.6667H81.3323V51H126.666V61.6667ZM1.24943 37.0375C0.487711 37.393 0 38.1589 0 39C0 39.8411 0.487711 40.607 1.24943 40.9625L32.4989 55.5473V65H10.8323C9.63574 65 8.66561 65.9701 8.66561 67.1667V80.1667C8.66561 81.3632 9.63574 82.3333 10.8323 82.3333H32.4989V91.3079C28.6766 92.2801 26.0011 95.7227 26.0011 99.6667C26.0011 103.611 28.6766 107.053 32.4989 108.025V117H23.8323C20.2427 117 17.3323 119.91 17.3323 123.5C17.3323 127.09 20.2427 130 23.8323 130H45.4989C49.0896 130 51.9989 127.09 51.9989 123.5C51.9989 119.91 49.0896 117 45.4989 117H36.8323V108.025C39.8643 107.233 42.232 104.865 43.0255 101.833H103.999C105.197 101.833 106.166 100.863 106.166 99.6667V65H127.832C129.03 65 129.999 64.0299 129.999 62.8333V49.8333C129.999 48.6368 129.03 47.6667 127.832 47.6667H106.166V39C106.166 37.8035 105.197 36.8333 103.999 36.8333H67.647L36.8323 22.4527V13H45.4989C49.0896 13 51.9989 10.0896 51.9989 6.5C51.9989 2.9104 49.0896 0 45.4989 0H23.8323C20.2427 0 17.3323 2.9104 17.3323 6.5C17.3323 10.0896 20.2427 13 23.8323 13H32.4989V22.4527L1.24943 37.0375ZM20.6656 6.5C20.6656 4.75118 22.0835 3.33333 23.8323 3.33333H45.4989C47.2491 3.33333 48.6656 4.7515 48.6656 6.5C48.6656 8.2485 47.2491 9.66667 45.4989 9.66667H23.8323C22.0835 9.66667 20.6656 8.24882 20.6656 6.5ZM48.6656 123.5C48.6656 125.249 47.2491 126.667 45.4989 126.667H23.8323C22.0835 126.667 20.6656 125.249 20.6656 123.5C20.6656 121.751 22.0835 120.333 23.8323 120.333H45.4989C47.2491 120.333 48.6656 121.752 48.6656 123.5ZM34.6656 51.7831L7.29028 39L34.6656 26.2169L62.042 39L34.6656 51.7831ZM34.6656 105C31.7203 105 29.3323 102.612 29.3323 99.6667C29.3323 96.7213 31.7203 94.3333 34.6656 94.3333C37.6122 94.3333 39.9989 96.7215 39.9989 99.6667C39.9989 102.612 37.6122 105 34.6656 105ZM23.8323 4.33333C22.6357 4.33333 21.6656 5.30347 21.6656 6.5C21.6656 7.69653 22.6357 8.66667 23.8323 8.66667H45.4989C46.6965 8.66667 47.6656 7.69653 47.6656 6.5C47.6656 5.30347 46.6965 4.33333 45.4989 4.33333H23.8323ZM45.4989 125.667C46.6965 125.667 47.6656 124.697 47.6656 123.5C47.6656 122.303 46.6965 121.333 45.4989 121.333H23.8323C22.6357 121.333 21.6656 122.303 21.6656 123.5C21.6656 124.697 22.6357 125.667 23.8323 125.667H45.4989ZM12.9989 69.3333V78H56.3323V69.3333H12.9989ZM30.3323 99.6667C30.3323 102.06 32.2725 104 34.6656 104C37.0597 104 38.9989 102.06 38.9989 99.6667C38.9989 97.2736 37.0597 95.3333 34.6656 95.3333C32.2725 95.3333 30.3323 97.2736 30.3323 99.6667ZM101.832 97.5V65H80.1656C78.9691 65 77.9989 64.0299 77.9989 62.8333V49.8333C77.9989 48.6368 78.9691 47.6667 80.1656 47.6667H101.832V41.1667H67.647L36.8323 55.5473V65H58.4989C59.6965 65 60.6656 65.9701 60.6656 67.1667V80.1667C60.6656 81.3632 59.6965 82.3333 58.4989 82.3333H36.8323V91.3079C39.8643 92.1003 42.232 94.4679 43.0255 97.5H101.832ZM125.666 60.6667V52H82.3323V60.6667H125.666Z" fill="#343434"/>
<path fill-rule="evenodd" clip-rule="evenodd" d="M105.166 48.6667V39C105.166 38.3554 104.644 37.8333 103.999 37.8333H67.4251L35.8323 23.0896V12H45.4989C48.5372 12 50.9989 9.53742 50.9989 6.5C50.9989 3.46258 48.5372 1 45.4989 1H23.8323C20.795 1 18.3323 3.46269 18.3323 6.5C18.3323 9.53732 20.795 12 23.8323 12H33.4989V23.0896L1.67236 37.9437C1.2629 38.1348 1 38.5473 1 39C1 39.4527 1.26286 39.8652 1.67232 40.0563L33.4989 54.9105V66H10.8323C10.188 66 9.66561 66.5224 9.66561 67.1667V80.1667C9.66561 80.8109 10.188 81.3333 10.8323 81.3333H33.4989V92.0854L32.7455 92.277C29.3665 93.1365 27.0011 96.1798 27.0011 99.6667C27.0011 103.154 29.3665 106.197 32.7455 107.056L33.4989 107.248V118H23.8323C20.795 118 18.3323 120.463 18.3323 123.5C18.3323 126.537 20.795 129 23.8323 129H45.4989C48.5372 129 50.9989 126.537 50.9989 123.5C50.9989 120.463 48.5372 118 45.4989 118H35.8323V107.253L36.5794 107.058C39.2615 106.357 41.3561 104.263 42.0581 101.58L42.2535 100.833H103.999C104.644 100.833 105.166 100.311 105.166 99.6667V64H127.832C128.477 64 128.999 63.4779 128.999 62.8333V49.8333C128.999 49.1888 128.477 48.6667 127.832 48.6667H105.166ZM34.6656 25.1132L64.4056 39L34.6656 52.8868L4.92679 39L34.6656 25.1132ZM11.9989 68.3333H57.3323V79H11.9989V68.3333ZM102.832 98.5H42.2535L42.0581 97.7532C41.3561 95.0707 39.2615 92.9763 36.5794 92.2754L35.8323 92.0801V81.3333H58.4989C59.1439 81.3333 59.6656 80.8112 59.6656 80.1667V67.1667C59.6656 66.5221 59.1439 66 58.4989 66H35.8323V54.9104L67.4251 40.1667H102.832V48.6667H80.1656C79.5214 48.6667 78.9989 49.1891 78.9989 49.8333V62.8333C78.9989 63.4776 79.5214 64 80.1656 64H102.832V98.5ZM126.666 61.6667H81.3323V51H126.666V61.6667ZM1.24943 37.0375C0.487711 37.393 0 38.1589 0 39C0 39.8411 0.487711 40.607 1.24943 40.9625L32.4989 55.5473V65H10.8323C9.63574 65 8.66561 65.9701 8.66561 67.1667V80.1667C8.66561 81.3632 9.63574 82.3333 10.8323 82.3333H32.4989V91.3079C28.6766 92.2801 26.0011 95.7227 26.0011 99.6667C26.0011 103.611 28.6766 107.053 32.4989 108.025V117H23.8323C20.2427 117 17.3323 119.91 17.3323 123.5C17.3323 127.09 20.2427 130 23.8323 130H45.4989C49.0896 130 51.9989 127.09 51.9989 123.5C51.9989 119.91 49.0896 117 45.4989 117H36.8323V108.025C39.8643 107.233 42.232 104.865 43.0255 101.833H103.999C105.197 101.833 106.166 100.863 106.166 99.6667V65H127.832C129.03 65 129.999 64.0299 129.999 62.8333V49.8333C129.999 48.6368 129.03 47.6667 127.832 47.6667H106.166V39C106.166 37.8035 105.197 36.8333 103.999 36.8333H67.647L36.8323 22.4527V13H45.4989C49.0896 13 51.9989 10.0896 51.9989 6.5C51.9989 2.9104 49.0896 0 45.4989 0H23.8323C20.2427 0 17.3323 2.9104 17.3323 6.5C17.3323 10.0896 20.2427 13 23.8323 13H32.4989V22.4527L1.24943 37.0375ZM20.6656 6.5C20.6656 4.75118 22.0835 3.33333 23.8323 3.33333H45.4989C47.2491 3.33333 48.6656 4.7515 48.6656 6.5C48.6656 8.2485 47.2491 9.66667 45.4989 9.66667H23.8323C22.0835 9.66667 20.6656 8.24882 20.6656 6.5ZM48.6656 123.5C48.6656 125.249 47.2491 126.667 45.4989 126.667H23.8323C22.0835 126.667 20.6656 125.249 20.6656 123.5C20.6656 121.751 22.0835 120.333 23.8323 120.333H45.4989C47.2491 120.333 48.6656 121.752 48.6656 123.5ZM34.6656 51.7831L7.29028 39L34.6656 26.2169L62.042 39L34.6656 51.7831ZM34.6656 105C31.7203 105 29.3323 102.612 29.3323 99.6667C29.3323 96.7213 31.7203 94.3333 34.6656 94.3333C37.6122 94.3333 39.9989 96.7215 39.9989 99.6667C39.9989 102.612 37.6122 105 34.6656 105ZM23.8323 4.33333C22.6357 4.33333 21.6656 5.30347 21.6656 6.5C21.6656 7.69653 22.6357 8.66667 23.8323 8.66667H45.4989C46.6965 8.66667 47.6656 7.69653 47.6656 6.5C47.6656 5.30347 46.6965 4.33333 45.4989 4.33333H23.8323ZM45.4989 125.667C46.6965 125.667 47.6656 124.697 47.6656 123.5C47.6656 122.303 46.6965 121.333 45.4989 121.333H23.8323C22.6357 121.333 21.6656 122.303 21.6656 123.5C21.6656 124.697 22.6357 125.667 23.8323 125.667H45.4989ZM12.9989 69.3333V78H56.3323V69.3333H12.9989ZM30.3323 99.6667C30.3323 102.06 32.2725 104 34.6656 104C37.0597 104 38.9989 102.06 38.9989 99.6667C38.9989 97.2736 37.0597 95.3333 34.6656 95.3333C32.2725 95.3333 30.3323 97.2736 30.3323 99.6667ZM101.832 97.5V65H80.1656C78.9691 65 77.9989 64.0299 77.9989 62.8333V49.8333C77.9989 48.6368 78.9691 47.6667 80.1656 47.6667H101.832V41.1667H67.647L36.8323 55.5473V65H58.4989C59.6965 65 60.6656 65.9701 60.6656 67.1667V80.1667C60.6656 81.3632 59.6965 82.3333 58.4989 82.3333H36.8323V91.3079C39.8643 92.1003 42.232 94.4679 43.0255 97.5H101.832ZM125.666 60.6667V52H82.3323V60.6667H125.666Z" fill="url(#paint1_linear)" fill-opacity="0.4" style="mix-blend-mode:soft-light"/>
<defs>
<linearGradient id="paint0_linear" x1="38.6008" y1="-80.2941" x2="230.199" y2="51.5099" gradientUnits="userSpaceOnUse">
<stop stop-color="white"/>
<stop offset="1" stop-color="white" stop-opacity="0"/>
</linearGradient>
<linearGradient id="paint1_linear" x1="131.805" y1="125.175" x2="21.4198" y2="-18.9671" gradientUnits="userSpaceOnUse">
<stop/>
<stop offset="1" stop-color="#242424"/>
</linearGradient>
</defs>
</svg>
