<svg width="130" height="130" viewBox="0 0 130 130" fill="none" xmlns="http://www.w3.org/2000/svg">
<g clip-path="url(#clip0)">
<path d="M127.833 2.16667H84.5C83.3035 2.16667 82.3333 3.1368 82.3333 4.33333V10.8333H71.1012C70.4463 8.9978 69.0022 7.55371 67.1667 6.89884V2.16667C67.1667 0.970133 66.1965 0 65 0C63.8035 0 62.8333 0.970133 62.8333 2.16667V6.89884C60.2371 7.80339 58.4979 10.2515 58.4979 13C58.4979 15.7485 60.2371 18.1966 62.8333 19.1012V41.5655C60.9978 42.2204 59.5537 43.6645 58.8988 45.5H47.6667V30.3333C47.6667 29.1368 46.6965 28.1667 45.5 28.1667H2.16667C0.970133 28.1667 0 29.1368 0 30.3333V65C0 66.1965 0.970133 67.1667 2.16667 67.1667H45.5C46.6965 67.1667 47.6667 66.1965 47.6667 65V49.8333H58.8988C59.5537 51.6689 60.9978 53.113 62.8333 53.7678V76.2322C60.2371 77.1367 58.4979 79.5848 58.4979 82.3333C58.4979 85.0819 60.2371 87.53 62.8333 88.4345V110.899C60.9978 111.554 59.5537 112.998 58.8988 114.833H47.6667V91C47.6667 89.8035 46.6965 88.8333 45.5 88.8333H2.16667C0.970133 88.8333 0 89.8035 0 91V125.667C0 126.863 0.970133 127.833 2.16667 127.833H45.5C46.6965 127.833 47.6667 126.863 47.6667 125.667V119.167H58.8988C59.5537 121.002 60.9978 122.446 62.8333 123.101V127.833C62.8333 129.03 63.8035 130 65 130C66.1965 130 67.1667 129.03 67.1667 127.833V123.101C69.7629 122.197 71.5021 119.749 71.5021 117C71.5021 114.251 69.7629 111.803 67.1667 110.899V88.4345C69.0022 87.7796 70.4463 86.3355 71.1012 84.5H82.3333V99.6667C82.3333 100.863 83.3035 101.833 84.5 101.833H127.833C129.03 101.833 130 100.863 130 99.6667V65C130 63.8035 129.03 62.8333 127.833 62.8333H84.5C83.3035 62.8333 82.3333 63.8035 82.3333 65V80.1667H71.1012C70.4463 78.3311 69.0022 76.887 67.1667 76.2322V53.7678C69.7629 52.8633 71.5021 50.4152 71.5021 47.6667C71.5021 44.9181 69.7629 42.4701 67.1667 41.5655V19.1012C69.0022 18.4463 70.4463 17.0022 71.1012 15.1667H82.3333V39C82.3333 40.1965 83.3035 41.1667 84.5 41.1667H127.833C129.03 41.1667 130 40.1965 130 39V4.33333C130 3.1368 129.03 2.16667 127.833 2.16667ZM43.3333 62.8333H4.33333V32.5H43.3333V62.8333ZM43.3333 123.5H4.33333V93.1667H43.3333V123.5ZM86.6667 67.1667H125.667V97.5H86.6667V67.1667ZM65 119.167C63.8035 119.167 62.8333 118.197 62.8333 117C62.8333 115.803 63.8035 114.833 65 114.833C66.1965 114.833 67.1667 115.803 67.1667 117C67.1667 118.197 66.1965 119.167 65 119.167ZM65 84.5C63.8035 84.5 62.8333 83.5299 62.8333 82.3333C62.8333 81.1368 63.8035 80.1667 65 80.1667C66.1965 80.1667 67.1667 81.1368 67.1667 82.3333C67.1667 83.5299 66.1965 84.5 65 84.5ZM65 49.8333C63.8035 49.8333 62.8333 48.8632 62.8333 47.6667C62.8333 46.4701 63.8035 45.5 65 45.5C66.1965 45.5 67.1667 46.4701 67.1667 47.6667C67.1667 48.8632 66.1965 49.8333 65 49.8333ZM65 15.1667C63.8035 15.1667 62.8333 14.1965 62.8333 13C62.8333 11.8035 63.8035 10.8333 65 10.8333C66.1965 10.8333 67.1667 11.8035 67.1667 13C67.1667 14.1965 66.1965 15.1667 65 15.1667ZM125.667 36.8333H86.6667V6.5H125.667V36.8333Z" fill="url(#paint0_linear)"/>
<path fill-rule="evenodd" clip-rule="evenodd" d="M83.3333 11.8333H70.3962L70.1593 11.1694C69.6053 9.61643 68.3836 8.39474 66.8306 7.8407L66.1667 7.60381V2.16667C66.1667 1.52242 65.6442 1 65 1C64.3558 1 63.8333 1.52242 63.8333 2.16667V7.60939L63.1623 7.84317C60.9679 8.60773 59.4979 10.6769 59.4979 13C59.4979 15.3231 60.9679 17.3923 63.1623 18.1568L63.8333 18.3906V42.2705L63.1694 42.5074C61.6164 43.0614 60.3947 44.2831 59.8407 45.836L59.6038 46.5H46.6667V30.3333C46.6667 29.6891 46.1442 29.1667 45.5 29.1667H2.16667C1.52242 29.1667 1 29.6891 1 30.3333V65C1 65.6442 1.52242 66.1667 2.16667 66.1667H45.5C46.1442 66.1667 46.6667 65.6442 46.6667 65V48.8333H59.6038L59.8407 49.4973C60.3947 51.0502 61.6164 52.2719 63.1694 52.826L63.8333 53.0629V76.9427L63.1623 77.1765C60.9679 77.9411 59.4979 80.0103 59.4979 82.3333C59.4979 84.6564 60.9679 86.7256 63.1623 87.4902L63.8333 87.7239V111.604L63.1694 111.841C61.6164 112.395 60.3947 113.616 59.8407 115.169L59.6038 115.833H46.6667V91C46.6667 90.3558 46.1442 89.8333 45.5 89.8333H2.16667C1.52242 89.8333 1 90.3558 1 91V125.667C1 126.311 1.52242 126.833 2.16667 126.833H45.5C46.1442 126.833 46.6667 126.311 46.6667 125.667V118.167H59.6038L59.8407 118.831C60.3947 120.384 61.6164 121.605 63.1694 122.159L63.8333 122.396V127.833C63.8333 128.478 64.3558 129 65 129C65.6442 129 66.1667 128.478 66.1667 127.833V122.391L66.8377 122.157C69.0321 121.392 70.5021 119.323 70.5021 117C70.5021 114.677 69.0321 112.608 66.8377 111.843L66.1667 111.609V87.7295L66.8306 87.4926C68.3836 86.9386 69.6053 85.7169 70.1593 84.164L70.3962 83.5H83.3333V99.6667C83.3333 100.311 83.8558 100.833 84.5 100.833H127.833C128.478 100.833 129 100.311 129 99.6667V65C129 64.3558 128.478 63.8333 127.833 63.8333H84.5C83.8558 63.8333 83.3333 64.3558 83.3333 65V81.1667H70.3962L70.1593 80.5027C69.6053 78.9498 68.3836 77.7281 66.8306 77.174L66.1667 76.9371V53.0573L66.8377 52.8235C69.0321 52.0589 70.5021 49.9897 70.5021 47.6667C70.5021 45.3436 69.0321 43.2744 66.8377 42.5098L66.1667 42.2761V18.3962L66.8306 18.1593C68.3836 17.6053 69.6053 16.3836 70.1593 14.8306L70.3962 14.1667H83.3333V39C83.3333 39.6442 83.8558 40.1667 84.5 40.1667H127.833C128.478 40.1667 129 39.6442 129 39V4.33333C129 3.68908 128.478 3.16667 127.833 3.16667H84.5C83.8558 3.16667 83.3333 3.68908 83.3333 4.33333V11.8333ZM44.3333 63.8333H3.33333V31.5H44.3333V63.8333ZM44.3333 124.5H3.33333V92.1667H44.3333V124.5ZM85.6667 66.1667H126.667V98.5H85.6667V66.1667ZM126.667 37.8333H85.6667V5.5H126.667V37.8333ZM65 120.167C63.2512 120.167 61.8333 118.749 61.8333 117C61.8333 115.251 63.2512 113.833 65 113.833C66.7488 113.833 68.1667 115.251 68.1667 117C68.1667 118.749 66.7488 120.167 65 120.167ZM65 85.5C63.2512 85.5 61.8333 84.0822 61.8333 82.3333C61.8333 80.5845 63.2512 79.1667 65 79.1667C66.7488 79.1667 68.1667 80.5845 68.1667 82.3333C68.1667 84.0822 66.7488 85.5 65 85.5ZM65 50.8333C63.2512 50.8333 61.8333 49.4155 61.8333 47.6667C61.8333 45.9179 63.2512 44.5 65 44.5C66.7488 44.5 68.1667 45.9179 68.1667 47.6667C68.1667 49.4155 66.7488 50.8333 65 50.8333ZM65 16.1667C63.2512 16.1667 61.8333 14.7488 61.8333 13C61.8333 11.2512 63.2512 9.83333 65 9.83333C66.7488 9.83333 68.1667 11.2512 68.1667 13C68.1667 14.7488 66.7488 16.1667 65 16.1667ZM84.5 2.16667H127.833C129.03 2.16667 130 3.1368 130 4.33333V39C130 40.1965 129.03 41.1667 127.833 41.1667H84.5C83.3035 41.1667 82.3333 40.1965 82.3333 39V15.1667H71.1012C70.4463 17.0022 69.0022 18.4463 67.1667 19.1012V41.5655C69.7629 42.4701 71.5021 44.9181 71.5021 47.6667C71.5021 50.4152 69.7629 52.8633 67.1667 53.7678V76.2322C69.0022 76.887 70.4463 78.3311 71.1012 80.1667H82.3333V65C82.3333 63.8035 83.3035 62.8333 84.5 62.8333H127.833C129.03 62.8333 130 63.8035 130 65V99.6667C130 100.863 129.03 101.833 127.833 101.833H84.5C83.3035 101.833 82.3333 100.863 82.3333 99.6667V84.5H71.1012C70.4463 86.3355 69.0022 87.7796 67.1667 88.4345V110.899C69.7629 111.803 71.5021 114.251 71.5021 117C71.5021 119.749 69.7629 122.197 67.1667 123.101V127.833C67.1667 129.03 66.1965 130 65 130C63.8035 130 62.8333 129.03 62.8333 127.833V123.101C60.9978 122.446 59.5537 121.002 58.8988 119.167H47.6667V125.667C47.6667 126.863 46.6965 127.833 45.5 127.833H2.16667C0.970133 127.833 0 126.863 0 125.667V91C0 89.8035 0.970133 88.8333 2.16667 88.8333H45.5C46.6965 88.8333 47.6667 89.8035 47.6667 91V114.833H58.8988C59.5537 112.998 60.9978 111.554 62.8333 110.899V88.4345C60.2371 87.53 58.4979 85.0819 58.4979 82.3333C58.4979 79.5848 60.2371 77.1367 62.8333 76.2322V53.7678C60.9978 53.113 59.5537 51.6689 58.8988 49.8333H47.6667V65C47.6667 66.1965 46.6965 67.1667 45.5 67.1667H2.16667C0.970133 67.1667 0 66.1965 0 65V30.3333C0 29.1368 0.970133 28.1667 2.16667 28.1667H45.5C46.6965 28.1667 47.6667 29.1368 47.6667 30.3333V45.5H58.8988C59.5537 43.6645 60.9978 42.2204 62.8333 41.5655V19.1012C60.2371 18.1966 58.4979 15.7485 58.4979 13C58.4979 10.2515 60.2371 7.80339 62.8333 6.89884V2.16667C62.8333 0.970133 63.8035 0 65 0C66.1965 0 67.1667 0.970133 67.1667 2.16667V6.89884C69.0022 7.55371 70.4463 8.9978 71.1012 10.8333H82.3333V4.33333C82.3333 3.1368 83.3035 2.16667 84.5 2.16667ZM43.3333 62.8333V32.5H4.33333V62.8333H43.3333ZM43.3333 123.5V93.1667H4.33333V123.5H43.3333ZM86.6667 67.1667V97.5H125.667V67.1667H86.6667ZM62.8333 117C62.8333 118.197 63.8035 119.167 65 119.167C66.1965 119.167 67.1667 118.197 67.1667 117C67.1667 115.803 66.1965 114.833 65 114.833C63.8035 114.833 62.8333 115.803 62.8333 117ZM62.8333 82.3333C62.8333 83.5299 63.8035 84.5 65 84.5C66.1965 84.5 67.1667 83.5299 67.1667 82.3333C67.1667 81.1368 66.1965 80.1667 65 80.1667C63.8035 80.1667 62.8333 81.1368 62.8333 82.3333ZM62.8333 47.6667C62.8333 48.8632 63.8035 49.8333 65 49.8333C66.1965 49.8333 67.1667 48.8632 67.1667 47.6667C67.1667 46.4701 66.1965 45.5 65 45.5C63.8035 45.5 62.8333 46.4701 62.8333 47.6667ZM62.8333 13C62.8333 14.1965 63.8035 15.1667 65 15.1667C66.1965 15.1667 67.1667 14.1965 67.1667 13C67.1667 11.8035 66.1965 10.8333 65 10.8333C63.8035 10.8333 62.8333 11.8035 62.8333 13ZM125.667 36.8333V6.5H86.6667V36.8333H125.667Z" fill="url(#paint1_linear)"/>
</g>
<defs>
<linearGradient id="paint0_linear" x1="38.6011" y1="-80.2941" x2="230.2" y2="51.5114" gradientUnits="userSpaceOnUse">
<stop stop-color="white"/>
<stop offset="1" stop-color="white" stop-opacity="0"/>
</linearGradient>
<linearGradient id="paint1_linear" x1="-10.3819" y1="-19.8824" x2="170.789" y2="49.4312" gradientUnits="userSpaceOnUse">
<stop stop-color="#383838"/>
<stop offset="1" stop-color="#1B1B1B"/>
</linearGradient>
<clipPath id="clip0">
<rect width="130" height="130" fill="white"/>
</clipPath>
</defs>
</svg>
