<svg width="80" height="80" viewBox="0 0 80 80" fill="none" xmlns="http://www.w3.org/2000/svg">
<path d="M51.8588 25.1007C51.6669 24.6864 51.2519 24.4209 50.7952 24.4209C50.3385 24.4209 49.9235 24.6862 49.7316 25.1007L46.7982 31.4407C46.1628 32.814 48.2922 33.7931 48.9252 32.425L49.0158 32.229H52.5742L52.6649 32.425C52.9366 33.0123 53.633 33.2682 54.2205 32.9964C54.8078 32.7246 55.0636 32.0281 54.7919 31.4407L51.8588 25.1007ZM50.1005 29.8851L50.7953 28.3836L51.49 29.8851H50.1005Z" fill="url(#paint0_linear)"/>
<path d="M60.1761 24.3262H57.9995C57.3522 24.3262 56.8276 24.8509 56.8276 25.498V31.9327C56.8276 32.5799 57.3522 33.1046 57.9995 33.1046H60.1761C62.5962 33.1046 64.5653 31.1355 64.5653 28.7154C64.5653 26.2952 62.5962 24.3262 60.1761 24.3262ZM60.1761 30.7607H59.1714V26.6699H60.1761C61.304 26.6699 62.2215 27.5876 62.2215 28.7154C62.2215 29.8432 61.304 30.7607 60.1761 30.7607Z" fill="url(#paint1_linear)"/>
<path d="M69.0087 12.5117C69.0087 11.8645 68.4841 11.3398 67.8368 11.3398H8.12194C6.61039 11.3398 6.61039 13.6836 8.12194 13.6836H67.8368C68.4841 13.6836 69.0087 13.1589 69.0087 12.5117Z" fill="url(#paint2_linear)"/>
<path d="M37.3273 17.8213H8.12194C6.61039 17.8213 6.61039 20.165 8.12194 20.165H37.3273C38.8389 20.165 38.8389 17.8213 37.3273 17.8213Z" fill="url(#paint3_linear)"/>
<path d="M37.3273 24.3027H8.12194C6.61039 24.3027 6.61039 26.6465 8.12194 26.6465H37.3273C38.8389 26.6465 38.8389 24.3027 37.3273 24.3027Z" fill="url(#paint4_linear)"/>
<path d="M37.3273 30.7842H8.12194C6.61039 30.7842 6.61039 33.1279 8.12194 33.1279H37.3273C38.8389 33.1279 38.8389 30.7842 37.3273 30.7842Z" fill="url(#paint5_linear)"/>
<path d="M37.3273 37.2656H8.12194C6.61039 37.2656 6.61039 39.6094 8.12194 39.6094H37.3273C38.8389 39.6094 38.8389 37.2656 37.3273 37.2656Z" fill="url(#paint6_linear)"/>
<path d="M79.2944 44.2749L76.6846 42.3443V9.07764C76.6846 5.4858 73.7622 2.56348 70.1704 2.56348H17.0311C15.5196 2.56348 15.5196 4.90721 17.0311 4.90721H70.1704C72.4701 4.90721 74.3408 6.77813 74.3408 9.07764V40.6105L68.9776 36.6432C68.9973 36.5582 69.0085 36.4701 69.0085 36.3792V18.9937C69.0085 18.3465 68.484 17.8218 67.8367 17.8218H43.4181C42.7708 17.8218 42.2462 18.3465 42.2462 18.9937V38.4379C42.2462 39.0851 42.7708 39.6097 43.4181 39.6097H64.782V45.5592H2.34373V9.07843C2.34373 6.77844 4.21497 4.90736 6.51479 4.90736H10.4687C11.9802 4.90736 11.9802 2.56363 10.4687 2.56363H6.51479C2.92263 2.56348 0 5.48611 0 9.07843V54.3265C0 57.9188 2.92263 60.8413 6.51479 60.8413H30.5849V69.5798H24.0895C19.032 69.5798 19.0169 77.4371 24.0895 77.4371H44.8434C46.3549 77.4371 46.3549 75.0934 44.8434 75.0934H24.0895C22.0503 75.0934 22.047 71.9236 24.0895 71.9236H52.5949C54.6341 71.9236 54.6374 75.0934 52.5949 75.0934H51.7183C50.2068 75.0934 50.2068 77.4371 51.7183 77.4371H52.5949C57.6524 77.4371 57.6675 69.5798 52.5949 69.5798H46.2717V60.8413H70.1698C73.7621 60.8413 76.6846 57.9187 76.6846 54.3265V47.4266H78.2825C79.9994 47.4266 80.5983 45.2391 79.2944 44.2749ZM71.438 45.0855C70.8888 45.0921 70.3696 45.4219 70.0488 45.8678L67.1168 49.8469V38.1823L76.4492 45.0855H71.438ZM44.59 37.266V20.1655H66.6648V35.2429C66.3446 35.2128 66.0164 35.2715 65.7159 35.4242C65.1259 35.7238 64.7618 36.3213 64.7659 36.983L64.7676 37.266H44.59ZM43.9281 69.58H32.9288V60.8415H43.9281V69.58ZM74.3408 54.3265C74.3408 56.6265 72.4696 58.4976 70.1698 58.4976H6.51479C4.21497 58.4976 2.34373 56.6265 2.34373 54.3265V47.903H64.8326V51.7262C64.8426 53.3626 67.049 54.055 68.0024 52.7295L71.7729 47.4852H74.341V54.3265H74.3408Z" fill="url(#paint7_linear)"/>
<defs>
<linearGradient id="paint0_linear" x1="49.1217" y1="19.0572" x2="61.6551" y2="27.2177" gradientUnits="userSpaceOnUse">
<stop stop-color="white"/>
<stop offset="1" stop-color="white" stop-opacity="0"/>
</linearGradient>
<linearGradient id="paint1_linear" x1="59.1252" y1="18.9042" x2="71.4094" y2="26.3529" gradientUnits="userSpaceOnUse">
<stop stop-color="white"/>
<stop offset="1" stop-color="white" stop-opacity="0"/>
</linearGradient>
<linearGradient id="paint2_linear" x1="25.4041" y1="9.89225" x2="25.8092" y2="17.2676" gradientUnits="userSpaceOnUse">
<stop stop-color="white"/>
<stop offset="1" stop-color="white" stop-opacity="0"/>
</linearGradient>
<linearGradient id="paint3_linear" x1="16.3335" y1="16.3737" x2="17.125" y2="23.6856" gradientUnits="userSpaceOnUse">
<stop stop-color="white"/>
<stop offset="1" stop-color="white" stop-opacity="0"/>
</linearGradient>
<linearGradient id="paint4_linear" x1="16.3335" y1="22.8551" x2="17.125" y2="30.167" gradientUnits="userSpaceOnUse">
<stop stop-color="white"/>
<stop offset="1" stop-color="white" stop-opacity="0"/>
</linearGradient>
<linearGradient id="paint5_linear" x1="16.3335" y1="29.3366" x2="17.125" y2="36.6485" gradientUnits="userSpaceOnUse">
<stop stop-color="white"/>
<stop offset="1" stop-color="white" stop-opacity="0"/>
</linearGradient>
<linearGradient id="paint6_linear" x1="16.3335" y1="35.818" x2="17.125" y2="43.1299" gradientUnits="userSpaceOnUse">
<stop stop-color="white"/>
<stop offset="1" stop-color="white" stop-opacity="0"/>
</linearGradient>
<linearGradient id="paint7_linear" x1="23.7545" y1="-43.682" x2="136.531" y2="39.2115" gradientUnits="userSpaceOnUse">
<stop stop-color="white"/>
<stop offset="1" stop-color="white" stop-opacity="0"/>
</linearGradient>
</defs>
</svg>
