<svg width="80" height="80" viewBox="0 0 80 80" fill="none" xmlns="http://www.w3.org/2000/svg">
<path fill-rule="evenodd" clip-rule="evenodd" d="M0 40C0.0247397 62.0807 17.9193 79.9753 40 80C62.0911 80 80 62.0911 80 40C80 17.9089 62.0911 0 40 0C39.2637 0 38.6667 0.597005 38.6667 1.33333C38.6667 2.06966 39.2637 2.66667 40 2.66667C60.6185 2.66667 77.3333 19.3815 77.3333 40C77.3333 60.6185 60.6185 77.3333 40 77.3333C19.3815 77.3333 2.66667 60.6185 2.66667 40C2.66667 39.2637 2.06966 38.6667 1.33333 38.6667C0.597005 38.6667 0 39.2637 0 40ZM16 2.66667H32C32.7363 2.66667 33.3334 2.06966 33.3334 1.33333C33.3334 0.597005 32.7363 0 32 0H16C15.2637 0 14.6667 0.597005 14.6667 1.33333C14.6667 2.06966 15.2637 2.66667 16 2.66667ZM12 1.33333C12 2.06966 11.403 2.66667 10.6666 2.66667C9.93032 2.66667 9.33331 2.06966 9.33331 1.33333C9.33331 0.597005 9.93032 0 10.6666 0C11.403 0 12 0.597005 12 1.33333ZM16 10.6667H32C32.7363 10.6667 33.3334 10.0697 33.3334 9.33333C33.3334 8.59701 32.7363 8 32 8H16C15.2637 8 14.6667 8.59701 14.6667 9.33333C14.6667 10.0697 15.2637 10.6667 16 10.6667ZM12 9.33333C12 10.0697 11.403 10.6667 10.6666 10.6667C9.93032 10.6667 9.33331 10.0697 9.33331 9.33333C9.33331 8.59701 9.93032 8 10.6666 8C11.403 8 12 8.59701 12 9.33333ZM16 18.6667H32C32.7363 18.6667 33.3334 18.0697 33.3334 17.3333C33.3334 16.597 32.7363 16 32 16H16C15.2637 16 14.6667 16.597 14.6667 17.3333C14.6667 18.0697 15.2637 18.6667 16 18.6667ZM12 17.3333C12 18.0697 11.403 18.6667 10.6666 18.6667C9.93032 18.6667 9.33331 18.0697 9.33331 17.3333C9.33331 16.597 9.93032 16 10.6666 16C11.403 16 12 16.597 12 17.3333ZM24 41.3333C24 50.1699 31.1634 57.3333 40 57.3333C48.8327 57.3236 55.9902 50.166 56 41.3333C56 32.4967 48.8366 25.3333 40 25.3333C31.1634 25.3333 24 32.4967 24 41.3333ZM26.6667 41.3333C26.6667 33.9694 32.6361 28 40 28C47.3607 28.0078 53.3255 33.9727 53.3333 41.3333C53.3333 48.6973 47.3639 54.6667 40 54.6667C32.6361 54.6667 26.6667 48.6973 26.6667 41.3333ZM40.0001 72C24.4611 72.0319 11.1557 60.8717 8.48255 45.5638C8.3556 44.8385 8.83997 44.1471 9.56523 44.0202C10.2905 43.8926 10.9819 44.3776 11.1095 45.1029C13.812 60.4017 27.9747 70.9408 43.4057 69.1348C58.8361 67.3281 70.1824 53.804 69.2794 38.2943C68.3758 22.7845 55.5359 10.6693 40.0001 10.6667C39.2638 10.6667 38.6668 10.0697 38.6668 9.33333C38.6668 8.597 39.2638 8 40.0001 8C57.6733 8 72.0001 22.3268 72.0001 40C72.0001 57.6732 57.6733 72 40.0001 72ZM18.8243 51.3053C22.9942 59.125 31.1381 64.0072 40 64C53.2546 64 64 53.2546 64 40C64 26.7454 53.2546 16 40 16C39.2637 16 38.6667 16.597 38.6667 17.3333C38.6667 18.0697 39.2637 18.6667 40 18.6667C50.4415 18.6693 59.3464 26.2298 61.0437 36.5326C62.7409 46.8353 56.7318 56.8522 46.8425 60.2044C36.9538 63.556 26.0918 59.2578 21.1745 50.0469C20.9532 49.6198 20.5196 49.3457 20.0398 49.3281C19.5593 49.3105 19.1068 49.5527 18.8555 49.9622C18.6036 50.3717 18.5918 50.8848 18.8243 51.3053Z" fill="url(#paint0_linear)"/>
<path fill-rule="evenodd" clip-rule="evenodd" d="M40 27.5H40.0005C47.6369 27.5081 53.8252 33.6964 53.8333 41.3328V41.3333C53.8333 48.9734 47.6401 55.1667 40 55.1667C32.3599 55.1667 26.1667 48.9734 26.1667 41.3333C26.1667 33.6933 32.3599 27.5 40 27.5ZM8.97506 45.4776L8.9751 45.4778C11.6064 60.546 24.7034 71.5314 39.9991 71.5H40.0001C57.3972 71.5 71.5001 57.397 71.5001 40C71.5001 22.603 57.3972 8.5 40.0001 8.5C39.5399 8.5 39.1668 8.87315 39.1668 9.33333C39.1668 9.79352 39.5399 10.1667 40.0001 10.1667H40.0002C55.8008 10.1693 68.8595 22.4911 69.7786 38.2652C70.697 54.0393 59.1572 67.7939 43.4639 69.6314L43.4057 69.1348C58.8361 67.3281 70.1824 53.804 69.2794 38.2943C68.3758 22.7845 55.5359 10.6693 40.0001 10.6667C39.2638 10.6667 38.6668 10.0697 38.6668 9.33333C38.6668 8.597 39.2638 8 40.0001 8C57.6733 8 72.0001 22.3268 72.0001 40C72.0001 57.6732 57.6733 72 40.0001 72C24.4611 72.0319 11.1557 60.8717 8.48255 45.5638C8.3556 44.8385 8.83997 44.1471 9.56523 44.0202C10.2905 43.8926 10.9819 44.3776 11.1095 45.1029C13.812 60.4017 27.9747 70.9408 43.4057 69.1348L43.4638 69.6314C27.7698 71.4682 13.3657 60.7495 10.6171 45.1898L10.6171 45.1895C10.5373 44.7359 10.1049 44.4329 9.65187 44.5126L9.65144 44.5127C9.19877 44.5919 8.89562 45.0238 8.97506 45.4776ZM39.9996 63.5H40C52.9785 63.5 63.5 52.9784 63.5 40C63.5 27.0216 52.9785 16.5 40 16.5C39.5399 16.5 39.1667 16.8731 39.1667 17.3333C39.1667 17.7935 39.5399 18.1667 40 18.1667H40.0002C50.6863 18.1693 59.8 25.9071 61.537 36.4513C63.2741 46.9955 57.1241 57.2472 47.003 60.678L46.8425 60.2044C56.7318 56.8522 62.7409 46.8353 61.0437 36.5326C59.3464 26.2298 50.4415 18.6693 40 18.6667C39.2637 18.6667 38.6667 18.0697 38.6667 17.3333C38.6667 16.597 39.2637 16 40 16C53.2546 16 64 26.7454 64 40C64 53.2546 53.2546 64 40 64C31.1381 64.0072 22.9942 59.125 18.8243 51.3053C18.5918 50.8848 18.6036 50.3717 18.8555 49.9622C19.1068 49.5527 19.5593 49.3105 20.0398 49.3281C20.5196 49.3457 20.9532 49.6198 21.1745 50.0469C26.0918 59.2578 36.9538 63.556 46.8425 60.2044L47.003 60.678C36.8826 64.1081 25.766 59.7092 20.7335 50.2823L20.7306 50.277L20.7306 50.277C20.5923 50.01 20.3214 49.8388 20.0215 49.8278C19.721 49.8168 19.4385 49.9682 19.2817 50.2238L19.2814 50.2243C19.124 50.4801 19.1166 50.8006 19.2619 51.0635L19.2655 51.07L19.2655 51.0701C23.3484 58.7267 31.3225 63.507 39.9996 63.5ZM0.5 39.9998C0.524604 61.8046 18.1956 79.4756 40.0006 79.5C61.8153 79.4997 79.5 61.8148 79.5 40C79.5 18.185 61.815 0.5 40 0.5C39.5398 0.5 39.1667 0.873147 39.1667 1.33333C39.1667 1.79352 39.5398 2.16667 40 2.16667C60.8946 2.16667 77.8333 19.1054 77.8333 40C77.8333 60.8946 60.8946 77.8333 40 77.8333C19.1054 77.8333 2.16667 60.8946 2.16667 40C2.16667 39.5398 1.79352 39.1667 1.33333 39.1667C0.873227 39.1667 0.500129 39.5397 0.5 39.9998ZM0 40C0.0247397 62.0807 17.9193 79.9753 40 80C62.0911 80 80 62.0911 80 40C80 17.9089 62.0911 0 40 0C39.2637 0 38.6667 0.597005 38.6667 1.33333C38.6667 2.06966 39.2637 2.66667 40 2.66667C60.6185 2.66667 77.3333 19.3815 77.3333 40C77.3333 60.6185 60.6185 77.3333 40 77.3333C19.3815 77.3333 2.66667 60.6185 2.66667 40C2.66667 39.2637 2.06966 38.6667 1.33333 38.6667C0.597005 38.6667 0 39.2637 0 40ZM16 2.16667H32C32.4602 2.16667 32.8334 1.79352 32.8334 1.33333C32.8334 0.873147 32.4602 0.5 32 0.5H16C15.5398 0.5 15.1667 0.873148 15.1667 1.33333C15.1667 1.79352 15.5398 2.16667 16 2.16667ZM10.6666 2.16667C11.1268 2.16667 11.5 1.79352 11.5 1.33333C11.5 0.873148 11.1268 0.5 10.6666 0.5C10.2065 0.5 9.83331 0.873148 9.83331 1.33333C9.83331 1.79352 10.2065 2.16667 10.6666 2.16667ZM16 10.1667H32C32.4602 10.1667 32.8334 9.79352 32.8334 9.33333C32.8334 8.87315 32.4602 8.5 32 8.5H16C15.5398 8.5 15.1667 8.87315 15.1667 9.33333C15.1667 9.79352 15.5398 10.1667 16 10.1667ZM10.6666 10.1667C11.1268 10.1667 11.5 9.79352 11.5 9.33333C11.5 8.87315 11.1268 8.5 10.6666 8.5C10.2065 8.5 9.83331 8.87315 9.83331 9.33333C9.83331 9.79352 10.2065 10.1667 10.6666 10.1667ZM16 18.1667H32C32.4602 18.1667 32.8334 17.7935 32.8334 17.3333C32.8334 16.8731 32.4602 16.5 32 16.5H16C15.5398 16.5 15.1667 16.8731 15.1667 17.3333C15.1667 17.7935 15.5398 18.1667 16 18.1667ZM10.6666 18.1667C11.1268 18.1667 11.5 17.7935 11.5 17.3333C11.5 16.8731 11.1268 16.5 10.6666 16.5C10.2065 16.5 9.83331 16.8731 9.83331 17.3333C9.83331 17.7935 10.2065 18.1667 10.6666 18.1667ZM24.5 41.3333C24.5 49.8936 31.4393 56.833 39.9994 56.8333C48.5564 56.8239 55.4905 49.8897 55.5 41.3328C55.4997 32.7726 48.5603 25.8333 40 25.8333C31.4396 25.8333 24.5 32.7729 24.5 41.3333ZM56 41.3333C55.9902 50.166 48.8327 57.3236 40 57.3333C31.1634 57.3333 24 50.1699 24 41.3333C24 32.4967 31.1634 25.3333 40 25.3333C48.8366 25.3333 56 32.4967 56 41.3333ZM32 2.66667H16C15.2637 2.66667 14.6667 2.06966 14.6667 1.33333C14.6667 0.597005 15.2637 0 16 0H32C32.7363 0 33.3334 0.597005 33.3334 1.33333C33.3334 2.06966 32.7363 2.66667 32 2.66667ZM10.6666 2.66667C11.403 2.66667 12 2.06966 12 1.33333C12 0.597005 11.403 0 10.6666 0C9.93032 0 9.33331 0.597005 9.33331 1.33333C9.33331 2.06966 9.93032 2.66667 10.6666 2.66667ZM32 10.6667H16C15.2637 10.6667 14.6667 10.0697 14.6667 9.33333C14.6667 8.59701 15.2637 8 16 8H32C32.7363 8 33.3334 8.59701 33.3334 9.33333C33.3334 10.0697 32.7363 10.6667 32 10.6667ZM10.6666 10.6667C11.403 10.6667 12 10.0697 12 9.33333C12 8.59701 11.403 8 10.6666 8C9.93032 8 9.33331 8.59701 9.33331 9.33333C9.33331 10.0697 9.93032 10.6667 10.6666 10.6667ZM32 18.6667H16C15.2637 18.6667 14.6667 18.0697 14.6667 17.3333C14.6667 16.597 15.2637 16 16 16H32C32.7363 16 33.3334 16.597 33.3334 17.3333C33.3334 18.0697 32.7363 18.6667 32 18.6667ZM10.6666 18.6667C11.403 18.6667 12 18.0697 12 17.3333C12 16.597 11.403 16 10.6666 16C9.93032 16 9.33331 16.597 9.33331 17.3333C9.33331 18.0697 9.93032 18.6667 10.6666 18.6667ZM40 28C32.6361 28 26.6667 33.9694 26.6667 41.3333C26.6667 48.6973 32.6361 54.6667 40 54.6667C47.3639 54.6667 53.3333 48.6973 53.3333 41.3333C53.3255 33.9727 47.3607 28.0078 40 28Z" fill="url(#paint1_linear)"/>
<defs>
<linearGradient id="paint0_linear" x1="23.7545" y1="-49.4118" x2="141.661" y2="31.6993" gradientUnits="userSpaceOnUse">
<stop stop-color="white"/>
<stop offset="1" stop-color="white" stop-opacity="0"/>
</linearGradient>
<linearGradient id="paint1_linear" x1="-6.38889" y1="-12.2353" x2="105.101" y2="30.4192" gradientUnits="userSpaceOnUse">
<stop stop-color="#383838"/>
<stop offset="1" stop-color="#1B1B1B"/>
</linearGradient>
</defs>
</svg>
