<svg width="80" height="80" viewBox="0 0 80 80" fill="none" xmlns="http://www.w3.org/2000/svg">
<path fill-rule="evenodd" clip-rule="evenodd" d="M53.8605 13.3529C53.7069 13.3529 53.5509 13.3197 53.4034 13.2495C48.9692 11.1419 44.2098 10.0734 39.2575 10.0734C36.6768 10.0734 34.1065 10.3723 31.6184 10.9617C31.0532 11.0952 30.4842 10.753 30.3481 10.1963C30.212 9.63967 30.5601 9.07971 31.1258 8.94576C33.775 8.3182 36.511 8 39.2575 8C44.5296 8 49.597 9.1379 54.3191 11.3823C54.8429 11.6313 55.0625 12.2511 54.8096 12.7667C54.6281 13.137 54.252 13.3529 53.8605 13.3529ZM39.2575 12.4238C41.6127 12.4238 43.9596 12.6925 46.2329 13.2225C46.799 13.3543 47.149 13.9131 47.0151 14.4701C46.881 15.0272 46.3134 15.3719 45.7475 15.2399C43.633 14.7473 41.4495 14.4972 39.2575 14.4972C31.5348 14.4972 24.3261 17.5259 18.9594 23.0252C18.7526 23.2371 18.4765 23.3439 18.1997 23.3439C17.9373 23.3439 17.6744 23.2479 17.4702 23.0548C17.0508 22.6581 17.0373 22.0018 17.4403 21.589C20.2365 18.7237 23.5212 16.4696 27.2028 14.8898C31.0161 13.2534 35.072 12.4238 39.2575 12.4238ZM39.2577 18.9199C45.38 18.9199 51.1916 21.2227 55.6218 25.4039C60.0386 29.5726 62.6216 35.1655 62.8947 41.1525C62.9201 41.7086 63.3862 42.1426 63.946 42.1426C63.962 42.1426 63.978 42.1423 63.9942 42.1415C64.5751 42.1159 65.025 41.6313 64.9989 41.0593C64.7012 34.5378 61.8887 28.4465 57.0795 23.9073C52.2553 19.3541 45.926 16.8465 39.2577 16.8465C38.0206 16.8465 36.7762 16.9343 35.559 17.107C34.9833 17.1889 34.584 17.7144 34.6672 18.2812C34.7503 18.8479 35.2839 19.2418 35.8601 19.1592C36.9777 19.0005 38.1209 18.9199 39.2577 18.9199ZM30.9344 18.2045C31.4844 18.0191 32.0835 18.3079 32.2718 18.8497C32.4601 19.3915 32.1666 19.9809 31.6163 20.1661C29.294 20.9483 27.1136 22.0815 25.1358 23.5346C24.9466 23.6735 24.7257 23.7404 24.5067 23.7404C24.1857 23.7404 23.8686 23.5965 23.6617 23.3236C23.3138 22.8649 23.4098 22.2152 23.8759 21.8728C26.0295 20.2909 28.4044 19.0565 30.9344 18.2045ZM39.2581 21.2703C39.6521 21.2703 40.0506 21.281 40.4428 21.3023C41.0236 21.3338 41.4685 21.8229 41.4365 22.3945C41.4043 22.9662 40.908 23.4064 40.3268 23.3724C39.9731 23.3532 39.6136 23.3436 39.2582 23.3436C28.6891 23.3436 20.0905 31.8077 20.0905 42.2118V46.7545C20.0905 47.3272 19.6189 47.7913 19.0373 47.7913C18.4557 47.7913 17.9841 47.3272 17.9841 46.7545V42.2119C17.984 30.6647 27.5276 21.2703 39.2581 21.2703ZM54.9851 43.2482C55.5667 43.2482 56.0382 42.7841 56.0382 42.2114C56.0382 38.2184 54.5658 34.3614 51.8921 31.3512C49.2446 28.3702 45.6088 26.4206 41.6544 25.8613C41.0793 25.7805 40.545 26.1733 40.4623 26.7401C40.3796 27.3067 40.7792 27.8322 41.3549 27.9136C44.811 28.4024 47.9901 30.1079 50.3063 32.7158C52.6444 35.3482 53.9319 38.7205 53.9319 42.2114C53.9319 42.7841 54.4034 43.2482 54.9851 43.2482ZM26.9709 42.2112C26.9708 42.2112 26.9708 42.2112 26.9708 42.2112C26.9708 35.5419 32.4827 30.1162 39.2578 30.1162C46.0329 30.1162 51.5448 35.542 51.5448 42.2112V46.3128C51.5448 49.0663 52.5754 51.7099 54.4467 53.7565L57.4113 56.9991C57.8004 57.4247 57.7653 58.0802 57.3329 58.4633C56.9007 58.8464 56.2347 58.8115 55.8456 58.3862L52.8809 55.1436C50.661 52.7157 49.4385 49.5794 49.4385 46.3128V42.2112C49.4385 36.6853 44.8715 32.1896 39.2578 32.1896C33.6441 32.1896 29.0771 36.6853 29.0771 42.2112V46.754C29.0771 55.0419 32.1962 62.9837 37.8599 69.1162L38.9141 70.2577C39.3053 70.6814 39.2735 71.3372 38.8431 71.7223C38.6413 71.9028 38.3877 71.9918 38.1351 71.9918C37.8487 71.9918 37.5633 71.8775 37.3555 71.6525L36.3015 70.511C30.2846 63.9958 26.9709 55.5589 26.9709 46.754V42.2113C26.9709 42.2113 26.9709 42.2112 26.9709 42.2112ZM39.2577 34.54C34.9603 34.54 31.4642 37.9815 31.4642 42.2117V46.7544C31.4642 54.4566 34.3628 61.8369 39.626 67.536L43.4351 71.6607C43.643 71.8857 43.9283 72 44.2148 72C44.4675 72 44.721 71.9111 44.9228 71.7305C45.3532 71.3453 45.3849 70.6895 44.9935 70.2659L41.1846 66.1413C36.2744 60.8246 33.5704 53.9394 33.5704 46.7544V42.2117C33.5704 39.1248 36.1216 36.6134 39.2575 36.6134C42.3935 36.6134 44.9447 39.1248 44.9447 42.2117V46.3132C44.9447 50.6745 46.577 54.8616 49.5407 58.1032L52.8332 61.7044C53.2225 62.1298 53.8882 62.1646 54.3206 61.7816C54.7529 61.3984 54.788 60.7429 54.3989 60.3173L51.1064 56.716C48.4913 53.8558 47.0512 50.1614 47.0512 46.3132V42.2117C47.0512 37.9815 43.5551 34.54 39.2577 34.54ZM35.9579 42.2121V46.7549C35.9579 53.3542 38.4416 59.6779 42.9514 64.5611L47.4657 69.4494C47.6736 69.6745 47.9589 69.7888 48.2454 69.7888C48.4981 69.7888 48.7516 69.6999 48.9534 69.5192C49.3838 69.1341 49.4155 68.4782 49.0243 68.0547L44.5098 63.1664C40.3533 58.6657 38.0643 52.8374 38.0643 46.7549V42.2121C38.0643 41.5643 38.5997 41.0372 39.2579 41.0372C39.916 41.0372 40.4515 41.5643 40.4515 42.2121V46.3137C40.4515 51.7694 42.4934 57.0073 46.2009 61.0627L50.8322 66.1282C51.2215 66.5538 51.8874 66.5884 52.3196 66.2053C52.752 65.8222 52.7871 65.1667 52.398 64.7411L47.7667 59.6756C44.4076 56.0017 42.5578 51.2563 42.5578 46.3137V42.2121C42.5578 40.421 41.0775 38.9638 39.2579 38.9638C37.4383 38.9638 35.9579 40.421 35.9579 42.2121ZM53.9316 46.3132C53.9316 45.7406 54.4031 45.2765 54.9847 45.2765C55.5664 45.2765 56.0379 45.7406 56.0379 46.3132C56.0379 47.9723 56.6587 49.5648 57.786 50.7978L60.423 53.6822C60.8121 54.1077 60.777 54.7632 60.3447 55.1463C60.1433 55.3247 59.8915 55.4124 59.6405 55.4124C59.3523 55.4124 59.0651 55.2966 58.8573 55.0692L56.2203 52.1849C54.7445 50.5705 53.9316 48.4854 53.9316 46.3132ZM25.8301 56.308C25.6826 55.7542 25.1075 55.4232 24.5445 55.5675C23.982 55.7125 23.6451 56.2791 23.7923 56.8328C24.2026 58.376 24.713 59.9099 25.3097 61.3924C25.4736 61.7994 25.87 62.0475 26.2891 62.0475C26.4183 62.0475 26.5495 62.024 26.6768 61.9744C27.2176 61.7636 27.4823 61.161 27.268 60.6287C26.7025 59.224 26.2189 57.7703 25.8301 56.308ZM28.0498 29.9269C28.4825 29.5439 29.1483 29.579 29.5372 30.0047C29.926 30.4305 29.8906 31.086 29.4581 31.4687C26.3603 34.2101 24.5836 38.1254 24.5836 42.211V46.7538C24.5836 48.4779 24.7044 50.2153 24.9427 51.9179C25.022 52.4852 24.6193 53.0082 24.0431 53.0863C23.9944 53.0929 23.946 53.0961 23.8981 53.0961C23.3802 53.0961 22.9287 52.7199 22.8561 52.2007C22.6048 50.4047 22.4773 48.572 22.4773 46.7536V42.211C22.4771 37.5382 24.5084 33.0608 28.0498 29.9269ZM32.5212 29.2604C32.673 29.2604 32.8271 29.228 32.9732 29.1595C34.2988 28.5383 35.7075 28.1192 37.1606 27.9136C37.7364 27.8322 38.136 27.3066 38.0533 26.74C37.9706 26.1734 37.4377 25.7805 36.8611 25.8613C35.1978 26.0965 33.5851 26.5762 32.0676 27.2874C31.5426 27.5335 31.3195 28.1522 31.5696 28.669C31.75 29.0421 32.1276 29.2604 32.5212 29.2604ZM50.1725 26.7092C50.3557 26.8346 50.5654 26.8948 50.7728 26.8948C51.106 26.8948 51.4338 26.7396 51.6384 26.4496C51.9705 25.9796 51.8525 25.3336 51.3749 25.0066C49.4301 23.6755 47.2934 22.6812 45.0242 22.0514C44.4646 21.8966 43.8825 22.217 43.7247 22.768C43.5668 23.319 43.8928 23.8918 44.4526 24.0472C46.4959 24.6143 48.4203 25.5098 50.1725 26.7092ZM58.4251 46.313V42.2115C58.4251 37.3887 56.5696 32.7956 53.2006 29.2781C52.8017 28.8615 52.8212 28.2055 53.2444 27.8126C53.6677 27.4198 54.3343 27.4393 54.7332 27.8558C58.4722 31.7595 60.5314 36.8579 60.5314 42.2115V46.313C60.5314 46.8774 60.7426 47.4192 61.126 47.8384L62.4246 49.2587C62.8137 49.6843 62.7786 50.3398 62.3462 50.7228C62.145 50.9013 61.8931 50.989 61.642 50.989C61.3539 50.989 61.0668 50.8734 60.8589 50.646L59.5602 49.2257C58.8282 48.4248 58.4251 47.3904 58.4251 46.313ZM20.2841 25.0658C17.8187 27.7075 15.983 30.7603 14.8279 34.1394C14.6424 34.682 14.9389 35.2698 15.4901 35.4524C15.6014 35.4894 15.7148 35.5069 15.8261 35.5069C16.2658 35.5069 16.6761 35.2336 16.8241 34.8006C17.8846 31.6984 19.5706 28.8951 21.8352 26.4687C22.2287 26.0469 22.2005 25.3912 21.7722 25.0037C21.3439 24.6163 20.6777 24.6442 20.2841 25.0658ZM62.2659 25.5546C62.4931 25.5546 62.7218 25.4826 62.9145 25.3341C63.3724 24.9812 63.453 24.3296 63.0944 23.8786C59.8698 19.8244 55.6239 16.6439 50.8157 14.6809C50.2787 14.4613 49.6622 14.7126 49.4394 15.2415C49.2165 15.7703 49.4715 16.3769 50.0088 16.5962C54.4829 18.4229 58.4344 21.3831 61.436 25.157C61.6437 25.4181 61.9532 25.5546 62.2659 25.5546ZM24.0225 13.7919C25.0562 13.2527 26.1309 12.7634 27.2166 12.3377C27.757 12.126 28.0207 11.5229 27.8055 10.991C27.5903 10.4592 26.9779 10.1996 26.4374 10.4115C25.2812 10.8648 24.1368 11.3858 23.0363 11.9598C22.5224 12.228 22.3266 12.8554 22.5989 13.3613C22.7879 13.7126 23.1529 13.9129 23.5304 13.9129C23.6966 13.9129 23.8654 13.874 24.0225 13.7919Z" fill="url(#paint0_linear)"/>
<defs>
<linearGradient id="paint0_linear" x1="50.0859" y1="-31.5294" x2="-34.3597" y2="14.0616" gradientUnits="userSpaceOnUse">
<stop stop-color="white"/>
<stop offset="1" stop-color="white" stop-opacity="0"/>
</linearGradient>
</defs>
</svg>
