<svg width="130" height="130" viewBox="0 0 130 130" fill="none" xmlns="http://www.w3.org/2000/svg">
<g clip-path="url(#clip0)">
<path d="M32.5092 71.5174H53.7627C56.0758 75.5375 60.3614 78.0156 65.0003 78.0156C69.6381 78.0156 73.9238 75.5375 76.2379 71.5174H97.4915C115.436 71.5174 129.983 56.9704 129.983 39.0262C129.983 21.082 115.436 6.53501 97.4915 6.53501H73.6646C73.6403 6.53501 73.6213 6.54771 73.5991 6.54771L66.3858 0.537051C65.7407 -0.00129551 64.8417 -0.11658 64.0802 0.23985C63.3197 0.597337 62.8332 1.36202 62.8342 2.20286V6.53501H24.252C21.3107 1.44029 15.3148 -1.04309 9.63312 0.479938C3.9514 2.0019 0 7.15057 0 13.0332C0 18.9159 3.9514 24.0646 9.63312 25.5866C15.3148 27.1096 21.3107 24.6251 24.252 19.5315H62.8342V23.8636C62.8385 24.7002 63.3239 25.4586 64.0812 25.8129C64.3678 25.9525 64.682 26.0265 65.0003 26.0297C65.5059 26.0297 65.9966 25.8531 66.3858 25.5294L73.5991 19.5188C73.6213 19.5188 73.6403 19.5315 73.6646 19.5315H97.4915C108.257 19.5315 116.986 28.2593 116.986 39.0262C116.986 49.7931 108.257 58.5209 97.4915 58.5209H76.2379C73.9238 54.5007 69.6381 52.0226 65.0003 52.0226C60.3614 52.0226 56.0758 54.5007 53.7627 58.5209H32.5092C14.565 58.5209 0.0179801 73.0679 0.0179801 91.0121C0.0179801 108.956 14.565 123.503 32.5092 123.503H49.8378V127.835C49.8378 128.675 50.3243 129.44 51.0848 129.795C51.3724 129.932 51.6855 130.001 52.0039 130.001C52.5094 130.001 53.0002 129.825 53.3894 129.501L60.6026 123.491C60.6248 123.491 60.6438 123.503 60.6682 123.503H105.749C108.689 128.597 114.686 131.081 120.368 129.558C126.049 128.036 130 122.888 130 117.005C130 111.122 126.049 105.974 120.368 104.452C114.686 102.929 108.689 105.412 105.749 110.507H60.6682C60.6438 110.507 60.6248 110.519 60.6026 110.519L53.3894 104.509C52.7442 103.97 51.8452 103.855 51.0837 104.212C50.3232 104.569 49.8367 105.334 49.8378 106.175V110.507H32.5092C21.7422 110.507 13.0144 101.779 13.0144 91.0121C13.0144 80.2451 21.7422 71.5174 32.5092 71.5174ZM13.0144 21.6976C8.22856 21.6976 4.35014 17.8181 4.35014 13.0332C4.35014 8.24841 8.22856 4.36894 13.0144 4.36894C17.7993 4.36894 21.6788 8.24841 21.6788 13.0332C21.6788 17.8181 17.7993 21.6976 13.0144 21.6976ZM26.0109 15.1993V10.8672H62.8342V15.1993H26.0109ZM67.1664 6.82693L74.6133 13.0332L67.1664 19.2385V6.82693ZM97.4915 62.853C110.651 62.853 121.318 52.1855 121.318 39.0262C121.318 25.8668 110.651 15.1993 97.4915 15.1993H78.7805L79.3823 14.6991C79.8773 14.2876 80.1639 13.6774 80.1639 13.0332C80.1639 12.3891 79.8773 11.7789 79.3823 11.3674L78.7805 10.8672H97.4915C113.043 10.8672 125.651 23.4744 125.651 39.0262C125.651 54.5779 113.043 67.1852 97.4915 67.1852H77.8011C78.0613 65.7531 78.0613 64.2851 77.8011 62.853H97.4915ZM65.0003 56.3548C69.7852 56.3548 73.6646 60.2343 73.6646 65.0191C73.6646 69.804 69.7852 73.6834 65.0003 73.6834C60.2144 73.6834 56.336 69.804 56.336 65.0191C56.336 60.2343 60.2144 56.3548 65.0003 56.3548ZM116.986 108.341C121.771 108.341 125.651 112.22 125.651 117.005C125.651 121.79 121.771 125.669 116.986 125.669C112.2 125.669 108.322 121.79 108.322 117.005C108.322 112.22 112.2 108.341 116.986 108.341ZM103.99 114.839V119.171H65.784L66.3858 118.671C66.8808 118.259 67.1675 117.649 67.1675 117.005C67.1675 116.361 66.8808 115.751 66.3858 115.339L65.784 114.839H103.99ZM54.1699 110.799L61.6169 117.005L54.1699 123.21V110.799ZM8.68229 91.0121C8.6971 104.165 19.3561 114.823 32.5092 114.839H49.8378V119.171H32.5092C16.9574 119.171 4.35014 106.564 4.35014 91.0121C4.35014 75.4603 16.9574 62.853 32.5092 62.853H52.1985C51.9383 64.2851 51.9383 65.7531 52.1985 67.1852H32.5092C19.3561 67.2011 8.6971 77.8591 8.68229 91.0121Z" fill="url(#paint0_linear)"/>
<path fill-rule="evenodd" clip-rule="evenodd" d="M54.3411 70.5174L54.6295 71.0186C56.7641 74.7286 60.7191 77.0156 65.0003 77.0156C69.2804 77.0156 73.2355 74.7286 75.3712 71.0185L75.6597 70.5174H97.4915C114.883 70.5174 128.983 56.4181 128.983 39.0262C128.983 21.6343 114.883 7.53501 97.4915 7.53501H73.7628C73.7172 7.5421 73.6618 7.54771 73.5991 7.54771H73.237L65.7457 1.30529C65.3995 1.01644 64.9152 0.953131 64.5041 1.14555C64.0945 1.33883 63.8337 1.75055 63.8342 2.2016V7.53501H23.6747L23.386 7.035C20.671 2.33225 15.1365 0.040022 9.89204 1.44584C4.64752 2.85069 1 7.60322 1 13.0332C1 18.4633 4.64735 23.2158 9.89187 24.6206C15.1362 26.0264 20.671 23.7333 23.386 19.0314L23.6747 18.5315H63.8342V23.8605C63.8373 24.3099 64.0981 24.7168 64.505 24.9071L64.5121 24.9104L64.5191 24.9139C64.6709 24.9878 64.837 25.0273 65.0053 25.0297C65.2761 25.0285 65.5382 24.9335 65.7457 24.7612C65.746 24.761 65.7455 24.7614 65.7457 24.7612L73.237 18.5188H73.5991C73.6618 18.5188 73.7172 18.5244 73.7628 18.5315H97.4915C108.81 18.5315 117.986 27.7069 117.986 39.0262C117.986 50.3454 108.81 59.5209 97.4915 59.5209H75.6597L75.3712 59.0198C73.2355 55.3096 69.2804 53.0226 65.0003 53.0226C60.7191 53.0226 56.7641 55.3097 54.6295 59.0196L54.3411 59.5209H32.5092C15.1173 59.5209 1.01798 73.6202 1.01798 91.0121C1.01798 108.404 15.1173 122.503 32.5092 122.503H50.8378V127.835C50.8378 128.287 51.0997 128.698 51.5081 128.889L51.5133 128.892C51.6658 128.964 51.8323 129.001 52.0039 129.001C52.2763 129.001 52.5404 128.906 52.7492 128.733M52.75 128.732L60.2406 122.491H60.6026C60.6653 122.491 60.7207 122.496 60.7664 122.503H106.326L106.615 123.003C109.329 127.705 114.864 129.998 120.109 128.592C125.353 127.188 129 122.435 129 117.005C129 111.575 125.353 106.822 120.109 105.418C114.864 104.012 109.329 106.304 106.615 111.007L106.326 111.507H60.7664C60.7208 111.514 60.6653 111.519 60.6026 111.519H60.2406L52.7492 105.277C52.403 104.988 51.9187 104.925 51.5076 105.117C51.098 105.311 50.8372 105.722 50.8378 106.173V111.507H32.5092C21.1899 111.507 12.0144 102.331 12.0144 91.0121C12.0144 79.6928 21.1899 70.5174 32.5092 70.5174H54.3411M51.0837 104.212C51.8452 103.855 52.7442 103.97 53.3894 104.509L60.6026 110.519C60.6134 110.519 60.6235 110.516 60.6339 110.513C60.6447 110.51 60.6557 110.507 60.6682 110.507H105.749C108.689 105.412 114.686 102.929 120.368 104.452C126.049 105.974 130 111.122 130 117.005C130 122.888 126.049 128.036 120.368 129.558C114.686 131.081 108.689 128.597 105.749 123.503H60.6682C60.6557 123.503 60.6447 123.5 60.6339 123.497C60.6235 123.494 60.6134 123.491 60.6026 123.491L53.3894 129.501C53.0002 129.825 52.5094 130.001 52.0039 130.001C51.6855 130.001 51.3724 129.932 51.0848 129.795C50.3243 129.44 49.8378 128.675 49.8378 127.835V123.503H32.5092C14.565 123.503 0.0179801 108.956 0.0179801 91.0121C0.0179801 73.0679 14.565 58.5209 32.5092 58.5209H53.7627C56.0758 54.5007 60.3614 52.0226 65.0003 52.0226C69.6381 52.0226 73.9238 54.5007 76.2379 58.5209H97.4915C108.257 58.5209 116.986 49.7931 116.986 39.0262C116.986 28.2593 108.257 19.5315 97.4915 19.5315H73.6646C73.6522 19.5315 73.6411 19.5282 73.6303 19.5249C73.62 19.5218 73.6099 19.5188 73.5991 19.5188L66.3858 25.5294C65.9966 25.8531 65.5059 26.0297 65.0003 26.0297C64.682 26.0265 64.3678 25.9525 64.0812 25.8129C63.3239 25.4586 62.8385 24.7002 62.8342 23.8636V19.5315H24.252C21.3107 24.6251 15.3148 27.1096 9.63312 25.5866C3.9514 24.0646 0 18.9159 0 13.0332C0 7.15057 3.9514 2.0019 9.63312 0.479938C15.3148 -1.04309 21.3107 1.44029 24.252 6.53501H62.8342V2.20286C62.8332 1.36202 63.3197 0.597337 64.0802 0.23985C64.8417 -0.11658 65.7407 -0.00129545 66.3858 0.537051L73.5991 6.54771C73.6099 6.54771 73.62 6.54467 73.6303 6.54158C73.6411 6.53833 73.6522 6.53501 73.6646 6.53501H97.4915C115.436 6.53501 129.983 21.082 129.983 39.0262C129.983 56.9704 115.436 71.5174 97.4915 71.5174H76.2379C73.9238 75.5375 69.6381 78.0156 65.0003 78.0156C60.3614 78.0156 56.0758 75.5375 53.7627 71.5174H32.5092C21.7422 71.5174 13.0144 80.2451 13.0144 91.0121C13.0144 101.779 21.7422 110.507 32.5092 110.507H49.8378V106.175C49.8367 105.334 50.3232 104.569 51.0837 104.212ZM60.9087 111.475C60.914 111.473 60.9185 111.472 60.9208 111.471L60.9151 111.473L60.9087 111.475ZM60.9087 122.535L60.9151 122.537L60.9213 122.539C60.9192 122.538 60.9144 122.537 60.9087 122.535ZM73.9052 18.5635L73.9115 18.5653L73.918 18.5672C73.9159 18.5666 73.911 18.5651 73.9052 18.5635ZM73.9052 7.50297C73.9111 7.50134 73.9161 7.49988 73.9181 7.49929L73.9115 7.50124L73.9052 7.50297ZM25.0109 16.1993V9.86717H63.8342V16.1993H25.0109ZM66.1664 4.69177L76.1754 13.0333L66.1664 21.3734V4.69177ZM76.0132 16.1993L78.7431 13.9301C79.0097 13.7085 79.1639 13.3799 79.1639 13.0332C79.1639 12.6866 79.0097 12.3581 78.7431 12.1365L76.0132 9.86717H97.4915C113.596 9.86717 126.651 22.9221 126.651 39.0262C126.651 55.1302 113.596 68.1852 97.4915 68.1852H76.6031L76.8172 67.0064C77.0559 65.6926 77.0559 64.3457 76.8172 63.0318L76.6031 61.853H97.4915C110.099 61.853 120.318 51.6332 120.318 39.0262C120.318 26.4191 110.099 16.1993 97.4915 16.1993H76.0132ZM78.7805 10.8672L79.3823 11.3674C79.5561 11.5119 79.7042 11.6808 79.8232 11.8672C80.0432 12.2116 80.1639 12.6153 80.1639 13.0332C80.1639 13.4512 80.0432 13.8549 79.8232 14.1993C79.7042 14.3857 79.5561 14.5546 79.3823 14.6991L78.7805 15.1993H97.4915C110.651 15.1993 121.318 25.8668 121.318 39.0262C121.318 52.1855 110.651 62.853 97.4915 62.853H77.8011C77.8614 63.1847 77.9077 63.5184 77.94 63.853C78.015 64.6286 78.015 65.4097 77.94 66.1852C77.9077 66.5199 77.8614 66.8535 77.8011 67.1852H97.4915C113.043 67.1852 125.651 54.5779 125.651 39.0262C125.651 23.4744 113.043 10.8672 97.4915 10.8672H78.7805ZM104.99 113.839V120.171H63.0168L65.7466 117.902C66.0132 117.68 66.1675 117.352 66.1675 117.005C66.1675 116.658 66.0132 116.33 65.7466 116.108L63.0168 113.839H104.99ZM65.784 114.839L66.3858 115.339C66.5596 115.484 66.7077 115.653 66.8268 115.839C67.0468 116.183 67.1675 116.587 67.1675 117.005C67.1675 117.423 67.0468 117.827 66.8268 118.171C66.7077 118.357 66.5596 118.526 66.3858 118.671L65.784 119.171H103.99V114.839H65.784ZM53.1699 108.664L63.1789 117.005L53.1699 125.345V108.664ZM32.5092 67.1852C19.3561 67.2011 8.6971 77.8591 8.68229 91.0121C8.6971 104.165 19.3561 114.823 32.5092 114.839H49.8378V119.171H32.5092C16.9574 119.171 4.35014 106.564 4.35014 91.0121C4.35014 75.4603 16.9574 62.853 32.5092 62.853H52.1985C52.1382 63.1847 52.0919 63.5184 52.0595 63.853C51.9846 64.6286 51.9846 65.4097 52.0595 66.1852C52.0919 66.5199 52.1382 66.8535 52.1985 67.1852H32.5092ZM9.68229 91.012C9.69709 78.411 19.909 68.2004 32.5104 68.1852H53.3965L53.1824 67.0064C52.9436 65.6926 52.9436 64.3457 53.1824 63.0318L53.3965 61.853H32.5092C16.4051 61.853 3.35014 74.908 3.35014 91.0121C3.35014 107.116 16.4051 120.171 32.5092 120.171H50.8378V113.839H32.5104C19.909 113.824 9.69709 103.613 9.68229 91.012ZM13.0144 22.6976C7.67619 22.6976 3.35014 18.3703 3.35014 13.0332C3.35014 7.69621 7.67619 3.36894 13.0144 3.36894C18.3516 3.36894 22.6788 7.69613 22.6788 13.0332C22.6788 18.3704 18.3516 22.6976 13.0144 22.6976ZM67.1664 6.82693V19.2385L74.6133 13.0332L67.1664 6.82693ZM65.0003 55.3548C70.3374 55.3548 74.6646 59.682 74.6646 65.0191C74.6646 70.3562 70.3374 74.6834 65.0003 74.6834C59.6621 74.6834 55.336 70.3562 55.336 65.0191C55.336 59.6821 59.6621 55.3548 65.0003 55.3548ZM116.986 107.341C122.323 107.341 126.651 111.668 126.651 117.005C126.651 122.342 122.323 126.669 116.986 126.669C111.648 126.669 107.322 122.342 107.322 117.005C107.322 111.668 111.648 107.341 116.986 107.341ZM54.1699 110.799V123.21L61.6169 117.005L54.1699 110.799ZM4.35014 13.0332C4.35014 17.8181 8.22856 21.6976 13.0144 21.6976C17.7993 21.6976 21.6788 17.8181 21.6788 13.0332C21.6788 8.24841 17.7993 4.36894 13.0144 4.36894C8.22856 4.36894 4.35014 8.24841 4.35014 13.0332ZM26.0109 15.1993H62.8342V10.8672H26.0109V15.1993ZM73.6646 65.0191C73.6646 60.2343 69.7852 56.3548 65.0003 56.3548C60.2144 56.3548 56.336 60.2343 56.336 65.0191C56.336 69.8039 60.2144 73.6834 65.0003 73.6834C69.7852 73.6834 73.6646 69.8039 73.6646 65.0191ZM125.651 117.005C125.651 112.22 121.771 108.341 116.986 108.341C112.2 108.341 108.322 112.22 108.322 117.005C108.322 121.79 112.2 125.669 116.986 125.669C121.771 125.669 125.651 121.79 125.651 117.005Z" fill="url(#paint1_linear)"/>
</g>
<defs>
<linearGradient id="paint0_linear" x1="38.601" y1="-80.2388" x2="230.168" y2="51.5779" gradientUnits="userSpaceOnUse">
<stop stop-color="white"/>
<stop offset="1" stop-color="white" stop-opacity="0"/>
</linearGradient>
<linearGradient id="paint1_linear" x1="-10.3819" y1="-19.8422" x2="170.777" y2="49.4839" gradientUnits="userSpaceOnUse">
<stop stop-color="#383838"/>
<stop offset="1" stop-color="#1B1B1B"/>
</linearGradient>
<clipPath id="clip0">
<rect width="130" height="130" fill="white"/>
</clipPath>
</defs>
</svg>
