<svg width="80" height="80" viewBox="0 0 80 80" fill="none" xmlns="http://www.w3.org/2000/svg">
<g clip-path="url(#clip0)">
<path d="M38.6556 58.5368H43.284C43.9312 58.5368 44.4559 58.0123 44.4559 57.365C44.4559 56.7176 43.9312 56.1931 43.284 56.1931H41.0321V54.7295C41.0321 54.0821 40.5074 53.5576 39.8603 53.5576C39.2131 53.5576 38.6884 54.0821 38.6884 54.7295V56.1931H38.6556C36.7834 56.1931 35.2603 57.7142 35.2603 59.584C35.2603 61.4539 36.7834 62.975 38.6556 62.975H41.0782C41.6385 62.975 42.1121 63.4565 42.1121 64.0264C42.1121 64.594 41.6326 65.0735 41.0649 65.0735H36.4321C35.7849 65.0735 35.2603 65.5981 35.2603 66.2454C35.2603 66.8928 35.7849 67.4173 36.4321 67.4173H38.684V68.8809C38.684 69.5282 39.2087 70.0528 39.8559 70.0528C40.5031 70.0528 41.0278 69.5282 41.0278 68.8809V67.4173H41.0651C42.9348 67.4173 44.456 65.8962 44.456 64.0264C44.456 62.1543 42.9409 60.6312 41.0784 60.6312H38.6557C38.0759 60.6312 37.6042 60.1614 37.6042 59.584C37.604 59.0164 38.0856 58.5368 38.6556 58.5368Z" fill="url(#paint0_linear)"/>
<path d="M77.0103 34.4647C75.3503 33.268 73.303 32.7216 71.3231 32.1931C71.0956 32.1323 70.8694 32.0722 70.6475 32.0117C70.2475 31.902 69.9702 31.3906 69.7686 30.9056C73.2494 28.5902 75.8544 24.5559 75.8544 21.0453V17.8473C75.8544 13.9319 74.6055 10.6108 72.2428 8.2425C70.1316 6.12641 67.2892 4.93391 64.2397 4.885C64.2272 4.88469 64.2145 4.88469 64.202 4.885C61.1544 4.93391 58.3134 6.12641 56.2027 8.24266C55.3647 9.08266 54.67 10.0448 54.1183 11.1088C49.8155 8.54297 44.9153 7.1925 39.8606 7.1925C34.8909 7.1925 30.0623 8.49953 25.8116 10.9827C25.2709 9.96906 24.5992 9.04953 23.795 8.24297C21.6847 6.12656 18.8433 4.93406 15.7938 4.88516C15.7812 4.88484 15.7686 4.88484 15.7561 4.88516C12.7067 4.93406 9.86516 6.12656 7.755 8.24297C5.39375 10.6106 4.14563 13.9317 4.14563 17.8473V21.0453C4.14563 24.5564 6.74906 28.5895 10.2277 30.9042C10.0261 31.3895 9.74906 31.9017 9.34984 32.0112C9.12531 32.0725 8.89875 32.1328 8.67078 32.1939C6.6925 32.7223 4.64703 33.2688 2.98813 34.4656C0.977344 35.9163 0 37.9897 0 40.8044V43.5638C0 44.6764 0.903281 45.5816 2.01344 45.5816H4.89234C5.53953 45.5816 6.06422 45.057 6.06422 44.4097C6.06422 43.7623 5.53953 43.2378 4.89234 43.2378H2.34375V40.8044C2.34375 37.1473 4.33719 35.9181 7.70922 34.8989L13.7436 38.4366C14.4827 38.9108 15.1287 39.1481 15.7748 39.1481C16.4209 39.1481 17.0669 38.9108 17.8061 38.4366L23.8405 34.8989C27.2127 35.9181 29.2059 37.1473 29.2059 40.8044V43.2378H10.3003C9.65312 43.2378 9.12844 43.7623 9.12844 44.4097C9.12844 45.057 9.65312 45.5816 10.3003 45.5816H14.0097C16.4725 51.6422 20.9425 56.6042 26.7177 59.6911C26.6073 60.3794 26.5481 61.0845 26.5481 61.8034C26.5481 69.1439 32.52 75.1158 39.8603 75.1158C47.1981 75.1158 53.168 69.1439 53.168 61.8034C53.168 61.0845 53.1088 60.3794 52.9986 59.6911C58.7739 56.6042 63.2438 51.642 65.7066 45.5816H68.7827C69.4298 45.5816 69.9545 45.057 69.9545 44.4097C69.9545 43.7623 69.4298 43.2378 68.7827 43.2378H50.7898V40.8044C50.7898 37.1473 52.7833 35.9181 56.1553 34.8989L62.1897 38.4366C62.9295 38.9114 63.5764 39.1489 64.2231 39.1489C64.87 39.1489 65.5166 38.9114 66.2567 38.4364L72.2873 34.8986C75.6616 35.9175 77.6562 37.147 77.6562 40.8044V43.2378H74.1908C73.5436 43.2378 73.0189 43.7623 73.0189 44.4097C73.0189 45.057 73.5436 45.5816 74.1908 45.5816H77.9822C79.0948 45.5816 80 44.6764 80 43.5638V40.8044C80 37.9889 79.022 35.9153 77.0103 34.4647ZM64.2208 7.22875C68.3922 7.30438 72.8534 10.2203 73.4445 16.4258C72.6467 16.1456 72.1936 15.6833 71.7225 15.2025C71.1191 14.5867 70.3355 13.7869 68.9556 13.7869C68.6281 13.7869 68.267 13.8319 67.8669 13.9352C67.3298 14.0731 66.8727 14.1948 66.4764 14.3003C65.3008 14.6136 64.7105 14.7708 64.2209 14.7708C63.7355 14.7708 63.1467 14.6139 61.9737 14.3014C61.5766 14.1956 61.1181 14.0736 60.5802 13.9353C58.4897 13.3969 57.4675 14.4408 56.7211 15.2033C56.2508 15.6836 55.7983 16.1455 55.0016 16.4255C55.5923 10.2203 60.0514 7.30438 64.2208 7.22875ZM54.9355 18.8648C56.7909 18.4758 57.7377 17.5152 58.3956 16.8431C59.0592 16.1653 59.2167 16.0047 59.9963 16.2052C60.5272 16.3416 60.9791 16.462 61.3705 16.5664C62.6977 16.92 63.4286 17.1147 64.2209 17.1147C65.0173 17.1147 65.7498 16.9195 67.0795 16.5653C67.4702 16.4613 67.9208 16.3411 68.4511 16.205C69.2272 16.0044 69.3848 16.1658 70.0486 16.8428C70.7072 17.515 71.6547 18.4759 73.5106 18.8648V21.0452C73.5106 24.42 70.2044 28.607 66.4348 30.0056C64.8019 30.612 63.6444 30.612 62.0105 30.0053C58.2416 28.6084 54.9355 24.4214 54.9355 21.0452V18.8648ZM15.7747 7.22875C19.9439 7.30422 24.4027 10.2205 24.9941 16.4252C24.1992 16.1452 23.7469 15.6836 23.2766 15.2038C22.5292 14.4413 21.5055 13.3962 19.4161 13.9353C18.8738 14.0747 18.413 14.1975 18.0144 14.3036C16.8477 14.6147 16.262 14.7708 15.7747 14.7708C15.2892 14.7708 14.7006 14.6139 13.5278 14.3016C13.1306 14.1956 12.672 14.0736 12.1339 13.9353C10.0437 13.397 9.02141 14.4409 8.27484 15.2034C7.80453 15.6838 7.35203 16.1456 6.55531 16.4256C7.14625 10.2202 11.6053 7.30422 15.7747 7.22875ZM6.48938 21.0453V18.8648C8.34484 18.4759 9.29156 17.5152 9.94953 16.8431C10.6131 16.1653 10.7709 16.0047 11.55 16.2052C12.0811 16.3417 12.5331 16.4622 12.9245 16.5664C14.2516 16.92 14.9825 17.1147 15.7747 17.1147C16.5692 17.1147 17.297 16.9206 18.6183 16.5684C19.0111 16.4636 19.465 16.3427 20.0002 16.2052C20.7794 16.0047 20.9377 16.1656 21.6027 16.8444C22.2606 17.5158 23.2073 18.4758 25.06 18.8648V21.0455C25.06 24.4216 21.7539 28.6086 17.9833 30.0062C16.3527 30.6134 15.1967 30.6134 13.5642 30.0056C9.79547 28.6084 6.48938 24.4214 6.48938 21.0453ZM16.5994 36.4272C16.5847 36.4358 16.57 36.4447 16.5558 36.4541C15.8405 36.9164 15.7091 36.9164 14.9937 36.4541C14.9794 36.4447 14.9648 36.4358 14.9502 36.4272L10.7227 33.9488C11.523 33.473 11.9942 32.698 12.2972 32.0233C12.4467 32.0863 12.597 32.1462 12.7483 32.2022C13.8234 32.6027 14.7992 32.8027 15.7753 32.8027C16.7506 32.8027 17.7261 32.6027 18.7998 32.2028C18.9516 32.1466 19.1025 32.0864 19.2525 32.0231C19.5555 32.6977 20.0267 33.4725 20.8273 33.9486L16.5994 36.4272ZM39.8605 72.7722C33.8125 72.7722 28.892 67.8517 28.892 61.8036C28.892 55.7578 33.8125 50.8392 39.8605 50.8392C45.9059 50.8392 50.8244 55.7578 50.8244 61.8036C50.8244 67.8516 45.9059 72.7722 39.8605 72.7722ZM57.7959 32.0111C57.5716 32.0723 57.3448 32.1327 57.1169 32.1936C55.1388 32.7222 53.0931 33.2686 51.4342 34.4655C49.4236 35.9161 48.4461 37.9895 48.4461 40.8042V43.5636C48.4461 44.6763 49.3494 45.5814 50.4595 45.5814H63.1592C60.9177 50.558 57.1664 54.6609 52.3986 57.3473C50.5619 52.1945 45.6361 48.4952 39.8606 48.4952C34.0833 48.4952 29.1558 52.1945 27.3184 57.3475C22.5505 54.6613 18.7991 50.558 16.5575 45.5814H29.5362C30.6464 45.5814 31.5497 44.6763 31.5497 43.5636V40.8042C31.5497 37.9894 30.5723 35.9161 28.5616 34.4655C26.9027 33.2686 24.857 32.7222 22.8789 32.1936C22.6509 32.1327 22.4242 32.0723 22.2016 32.0116C21.8011 31.9017 21.5236 31.3892 21.322 30.9039C24.8009 28.5888 27.4041 24.5561 27.4041 21.0453V17.8473C27.4041 16.1675 27.1727 14.598 26.7239 13.1652C30.6809 10.7883 35.2028 9.53609 39.8606 9.53609C44.613 9.53609 49.2156 10.8389 53.2297 13.3103C52.8098 14.7041 52.5919 16.2236 52.5919 17.8472V21.0452C52.5919 24.5569 55.1964 28.5908 58.6763 30.9055C58.4752 31.3908 58.1981 31.9011 57.7959 32.0111ZM65.0495 36.4273C65.0348 36.4359 65.0205 36.4447 65.0062 36.4541C64.2889 36.9177 64.157 36.9177 63.4398 36.4541C63.4255 36.4447 63.4109 36.4358 63.3962 36.4272L59.1697 33.9494C59.9714 33.4742 60.4416 32.6995 60.7453 32.0242C60.8944 32.087 61.0444 32.1467 61.1952 32.2027C62.2706 32.6023 63.2469 32.8019 64.2231 32.8019C65.1992 32.8019 66.1756 32.6022 67.2505 32.2028C67.4011 32.1469 67.5508 32.0872 67.6998 32.0245C68.0037 32.6983 68.4736 33.4734 69.2741 33.9492L65.0495 36.4273Z" fill="url(#paint1_linear)"/>
</g>
<defs>
<linearGradient id="paint0_linear" x1="37.9908" y1="43.3694" x2="55.3976" y2="50.0451" gradientUnits="userSpaceOnUse">
<stop stop-color="white"/>
<stop offset="1" stop-color="white" stop-opacity="0"/>
</linearGradient>
<linearGradient id="paint1_linear" x1="23.7545" y1="-38.4932" x2="131.375" y2="45.8398" gradientUnits="userSpaceOnUse">
<stop stop-color="white"/>
<stop offset="1" stop-color="white" stop-opacity="0"/>
</linearGradient>
<clipPath id="clip0">
<rect width="80" height="80" fill="white"/>
</clipPath>
</defs>
</svg>
