<svg width="80" height="80" viewBox="0 0 80 80" fill="none" xmlns="http://www.w3.org/2000/svg">
<path d="M68.7084 8H11.2915C7.82233 8 5 10.8225 5 14.2916V54.8353C5 58.3044 7.82233 61.1268 11.2915 61.1268H30.3218V65.4081L26.6433 69.0032H25.0734C24.5067 69.0032 24.0474 69.4626 24.0474 70.0292C24.0474 70.5958 24.5067 71.0552 25.0734 71.0552H55.0165C55.5832 71.0552 56.0425 70.5958 56.0425 70.0292C56.0425 69.4626 55.5832 69.0032 55.0165 69.0032H53.6304L49.952 65.4081V61.1268H68.7085C72.1777 61.1268 75 58.3044 75 54.8353V14.2916C74.9999 10.8225 72.1775 8 68.7084 8ZM48.2087 66.5736L50.6945 69.003H29.5791L32.0649 66.5736C32.2623 66.3806 32.3738 66.116 32.3738 65.8398V61.1266H47.8998V65.8398C47.8998 66.1161 48.0112 66.3806 48.2087 66.5736ZM68.7084 59.0746H11.2915C8.95381 59.0746 7.05201 57.1728 7.05201 54.8352V54.0041H27.2325C27.7993 54.0041 28.2586 53.5447 28.2586 52.9781C28.2586 52.4115 27.7993 51.9521 27.2325 51.9521H7.05201V14.2916C7.05201 11.9539 8.95381 10.0521 11.2915 10.0521H68.7084C71.0461 10.0521 72.9479 11.9539 72.9479 14.2916V51.9522H31.6048C31.0381 51.9522 30.5788 52.4116 30.5788 52.9782C30.5788 53.5449 31.0381 54.0042 31.6048 54.0042H72.9479V54.8353C72.9479 57.1728 71.0461 59.0746 68.7084 59.0746Z" fill="url(#paint0_linear)"/>
<path d="M40.0685 54.998C39.5017 54.998 39.0425 55.4574 39.0425 56.024V56.481C39.0425 57.0476 39.5017 57.507 40.0685 57.507C40.6353 57.507 41.0945 57.0476 41.0945 56.481V56.024C41.0945 55.4574 40.6351 54.998 40.0685 54.998Z" fill="url(#paint1_linear)"/>
<path d="M57.9843 35.8986C58.1281 35.3506 57.8002 34.7897 57.2522 34.6459C56.7033 34.5019 56.1433 34.8299 55.9994 35.3781C55.544 37.1145 54.8185 38.7238 53.8795 40.1704C53.2164 37.2965 51.6746 34.6934 49.4391 32.7175C51.2155 30.5865 52.2856 27.8474 52.2856 24.8628C52.2856 22.4539 51.5882 20.205 50.3854 18.3065C54.1368 21.3413 56.5403 25.9796 56.5403 31.1694L56.539 31.2615C56.5366 31.8281 56.9942 32.2894 57.5608 32.2917H57.5652C58.1298 32.2917 58.5886 31.8352 58.5911 31.27L58.5923 31.1693C58.5923 20.9176 50.2518 12.5771 40.0001 12.5771C29.7484 12.5771 21.4077 20.9176 21.4077 31.1693C21.4077 41.421 29.7482 49.7614 39.9999 49.7614C48.448 49.7616 55.8433 44.0608 57.9843 35.8986ZM29.6107 18.3096C28.581 19.9399 27.9423 21.7982 27.7668 23.7503C27.716 24.3146 28.1324 24.8134 28.6967 24.864C29.2595 24.9149 29.7598 24.4985 29.8106 23.9341C30.0383 21.4009 31.1992 19.0541 33.0795 17.3256C34.9709 15.5869 37.4288 14.6293 40.0001 14.6293C45.6429 14.6293 50.2338 19.22 50.2338 24.8628C50.2338 30.5055 45.6429 35.0963 40.0001 35.0963C35.4935 35.0963 31.5662 32.2082 30.2277 27.9096C30.0591 27.3687 29.484 27.0665 28.943 27.235C28.4019 27.4035 28.0999 27.9787 28.2683 28.5197C28.7449 30.0503 29.5319 31.4831 30.5593 32.7191C28.3275 34.6923 26.7873 37.2907 26.123 40.1595C24.4394 37.5696 23.4599 34.4819 23.4599 31.1694C23.4597 25.9813 25.8615 21.3444 29.6107 18.3096ZM27.8469 42.3763C28.1083 39.1993 29.597 36.2733 32.0013 34.1847C32.2119 34.3659 32.4275 34.5416 32.6503 34.7082C34.7853 36.3044 37.3269 37.1482 39.9999 37.1482C43.0508 37.1482 45.8452 36.03 47.9957 34.1823C50.4052 36.2741 51.8956 39.2066 52.154 42.3901C49.0972 45.6953 44.7351 47.7096 39.9999 47.7096C35.1997 47.7096 30.8712 45.6533 27.8469 42.3763Z" fill="url(#paint2_linear)"/>
<defs>
<linearGradient id="paint0_linear" x1="25.7852" y1="-30.9459" x2="121.787" y2="42.3697" gradientUnits="userSpaceOnUse">
<stop stop-color="white"/>
<stop offset="1" stop-color="white" stop-opacity="0"/>
</linearGradient>
<linearGradient id="paint1_linear" x1="39.6518" y1="53.4484" x2="43.036" y2="55.3525" gradientUnits="userSpaceOnUse">
<stop stop-color="white"/>
<stop offset="1" stop-color="white" stop-opacity="0"/>
</linearGradient>
<linearGradient id="paint2_linear" x1="32.449" y1="-10.3896" x2="87.2527" y2="27.3115" gradientUnits="userSpaceOnUse">
<stop stop-color="white"/>
<stop offset="1" stop-color="white" stop-opacity="0"/>
</linearGradient>
</defs>
</svg>
