<svg width="80" height="80" viewBox="0 0 80 80" fill="none" xmlns="http://www.w3.org/2000/svg">
<path d="M68.5986 51.7339C68.5982 49.9226 68.1785 48.1361 67.3725 46.514C66.5665 44.892 65.3959 43.4786 63.9525 42.3844C62.5091 41.2902 60.832 40.5449 59.0526 40.2069C57.2731 39.869 55.4396 39.9475 53.6955 40.4363C51.6048 37.7635 48.9675 35.5679 45.9598 33.9965C44.4876 33.232 42.9352 32.6331 41.331 32.2108C43.8953 30.9078 45.946 28.779 47.1524 26.1678C48.3587 23.5567 48.6504 20.6153 47.9803 17.818C47.3103 15.0208 45.7176 12.5308 43.4591 10.7495C41.2006 8.96832 38.408 7.99974 35.5316 8C32.6552 8.00026 29.8628 8.96936 27.6046 10.751C25.3464 12.5326 23.7542 15.0229 23.0847 17.8203C22.4151 20.6177 22.7073 23.559 23.9142 26.17C25.121 28.7809 27.1721 30.9093 29.7366 32.2118C25.3154 33.3718 21.3162 35.8661 18.1357 39.5146C13.5342 44.7929 11 52.163 11 60.267C11 60.4587 11.0516 60.6467 11.1494 60.8115C11.2472 60.9763 11.3876 61.1117 11.5559 61.2034C12.0446 61.4701 23.6641 67.7335 35.5328 67.7335C39.3279 67.71 43.1052 67.2117 46.7766 66.2504C48.0875 68.4621 50.0887 70.182 52.4724 71.1453C54.8562 72.1087 57.4904 72.2623 59.9699 71.5824C62.4494 70.9026 64.6369 69.427 66.1959 67.3825C67.755 65.3381 68.5991 62.8381 68.5986 60.267V51.7339ZM24.8663 20.8013C24.8663 18.6917 25.4919 16.6294 26.664 14.8754C27.836 13.1213 29.5019 11.7541 31.4509 10.9468C33.3999 10.1395 35.5446 9.92828 37.6137 10.3398C39.6827 10.7514 41.5833 11.7673 43.075 13.259C44.5668 14.7507 45.5826 16.6513 45.9942 18.7204C46.4058 20.7895 46.1946 22.9341 45.3872 24.8832C44.5799 26.8322 43.2128 28.4981 41.4587 29.6701C39.7046 30.8421 37.6424 31.4677 35.5328 31.4677C32.7048 31.4645 29.9937 30.3397 27.994 28.3401C25.9944 26.3404 24.8695 23.6292 24.8663 20.8013ZM45.8412 64.2847C42.4706 65.137 39.0094 65.5787 35.5328 65.6003C25.6413 65.6003 15.5875 60.856 13.1389 59.6212C13.2683 52.2891 15.6022 45.6671 19.7438 40.9162C23.856 36.1989 29.4633 33.601 35.5328 33.601C38.8199 33.5885 42.0609 34.374 44.9776 35.8899C47.5208 37.2181 49.7739 39.0396 51.6053 41.2482C49.6611 42.225 48.0264 43.7226 46.8835 45.5741C45.7406 47.4256 45.1344 49.5581 45.1325 51.7339V60.267C45.1313 61.6375 45.3711 62.9974 45.8412 64.2847ZM66.4654 60.267C66.4654 62.8131 65.454 65.2548 63.6536 67.0551C61.8533 68.8554 59.4116 69.8668 56.8656 69.8668C54.3196 69.8668 51.8778 68.8554 50.0775 67.0551C48.2772 65.2548 47.2658 62.8131 47.2658 60.267V51.7339C47.2658 49.1879 48.2772 46.7462 50.0775 44.9458C51.8778 43.1455 54.3196 42.1341 56.8656 42.1341C59.4116 42.1341 61.8533 43.1455 63.6536 44.9458C65.454 46.7462 66.4654 49.1879 66.4654 51.7339V60.267ZM54.7323 52.8006C54.4494 52.8006 54.1781 52.6882 53.9781 52.4881C53.778 52.2881 53.6657 52.0168 53.6657 51.7339C53.6657 50.8852 54.0028 50.0713 54.6029 49.4712C55.203 48.8711 56.0169 48.534 56.8656 48.534C57.7143 48.534 58.5282 48.8711 59.1283 49.4712C59.7284 50.0713 60.0655 50.8852 60.0655 51.7339C60.0655 52.0168 59.9531 52.2881 59.7531 52.4881C59.5531 52.6882 59.2818 52.8006 58.9989 52.8006C58.716 52.8006 58.4447 52.6882 58.2446 52.4881C58.0446 52.2881 57.9322 52.0168 57.9322 51.7339C57.9322 51.451 57.8198 51.1797 57.6198 50.9797C57.4198 50.7796 57.1485 50.6673 56.8656 50.6673C56.5827 50.6673 56.3114 50.7796 56.1114 50.9797C55.9113 51.1797 55.7989 51.451 55.7989 51.7339C55.7989 52.0168 55.6866 52.2881 55.4865 52.4881C55.2865 52.6882 55.0152 52.8006 54.7323 52.8006ZM63.3321 47.9999C63.5615 48.3964 63.7537 48.8133 63.9065 49.2452C63.9985 49.5113 63.9815 49.803 63.8592 50.0567C63.7369 50.3104 63.5193 50.5054 63.2538 50.5993C62.9883 50.6931 62.6965 50.6781 62.442 50.5577C62.1874 50.4372 61.9909 50.2209 61.8952 49.9561C61.4754 48.7702 60.6501 47.7708 59.5649 47.1345C58.4797 46.4982 57.2046 46.2659 55.9647 46.4786C54.7248 46.6913 53.6 47.3353 52.789 48.297C51.978 49.2586 51.5329 50.4759 51.5324 51.7339V53.8672C51.5324 54.1501 51.42 54.4214 51.22 54.6214C51.0199 54.8215 50.7486 54.9338 50.4657 54.9338C50.1828 54.9338 49.9115 54.8215 49.7115 54.6214C49.5115 54.4214 49.3991 54.1501 49.3991 53.8672V51.7339C49.3994 50.0904 49.942 48.493 50.9426 47.1892C51.9431 45.8854 53.3459 44.9482 54.9334 44.5227C56.5208 44.0973 58.2043 44.2075 59.7228 44.8361C61.2412 45.4648 62.5099 46.5768 63.3321 47.9999ZM64.3321 60.267C64.3321 62.2473 63.5454 64.1464 62.1452 65.5466C60.745 66.9469 58.8458 67.7335 56.8656 67.7335C54.8853 67.7335 52.9862 66.9469 51.586 65.5466C50.1857 64.1464 49.3991 62.2473 49.3991 60.267V58.1338C49.3991 57.8509 49.5115 57.5796 49.7115 57.3795C49.9115 57.1795 50.1828 57.0671 50.4657 57.0671C50.7486 57.0671 51.0199 57.1795 51.22 57.3795C51.42 57.5796 51.5324 57.8509 51.5324 58.1338V60.267C51.5324 61.6815 52.0943 63.038 53.0944 64.0382C54.0946 65.0384 55.4511 65.6003 56.8656 65.6003C58.28 65.6003 59.6366 65.0384 60.6367 64.0382C61.6369 63.038 62.1988 61.6815 62.1988 60.267C62.1988 59.9841 62.3112 59.7128 62.5112 59.5128C62.7112 59.3128 62.9825 59.2004 63.2654 59.2004C63.5483 59.2004 63.8196 59.3128 64.0197 59.5128C64.2197 59.7128 64.3321 59.9841 64.3321 60.267ZM53.6657 60.267C53.6657 59.9841 53.778 59.7128 53.9781 59.5128C54.1781 59.3128 54.4494 59.2004 54.7323 59.2004C55.0152 59.2004 55.2865 59.3128 55.4865 59.5128C55.6866 59.7128 55.7989 59.9841 55.7989 60.267C55.7989 60.5499 55.9113 60.8212 56.1114 61.0213C56.3114 61.2213 56.5827 61.3337 56.8656 61.3337C57.1485 61.3337 57.4198 61.2213 57.6198 61.0213C57.8198 60.8212 57.9322 60.5499 57.9322 60.267V56.0005C57.9322 55.7176 58.0446 55.4463 58.2446 55.2462C58.4447 55.0462 58.716 54.9338 58.9989 54.9338C59.2818 54.9338 59.5531 55.0462 59.7531 55.2462C59.9531 55.4463 60.0655 55.7176 60.0655 56.0005V60.267C60.0655 61.1157 59.7284 61.9296 59.1283 62.5297C58.5282 63.1298 57.7143 63.467 56.8656 63.467C56.0169 63.467 55.203 63.1298 54.6029 62.5297C54.0028 61.9296 53.6657 61.1157 53.6657 60.267ZM63.2654 52.8006C63.5483 52.8006 63.8196 52.9129 64.0197 53.113C64.2197 53.313 64.3321 53.5843 64.3321 53.8672V56.0005C64.3321 56.2834 64.2197 56.5547 64.0197 56.7547C63.8196 56.9547 63.5483 57.0671 63.2654 57.0671C62.9825 57.0671 62.7112 56.9547 62.5112 56.7547C62.3112 56.5547 62.1988 56.2834 62.1988 56.0005V53.8672C62.1988 53.5843 62.3112 53.313 62.5112 53.113C62.7112 52.9129 62.9825 52.8006 63.2654 52.8006ZM53.6657 56.0005C53.6657 55.7895 53.7282 55.5833 53.8454 55.4079C53.9626 55.2325 54.1292 55.0958 54.3241 55.015C54.519 54.9343 54.7335 54.9132 54.9404 54.9543C55.1473 54.9955 55.3374 55.0971 55.4865 55.2462C55.6357 55.3954 55.7373 55.5855 55.7784 55.7924C55.8196 55.9993 55.7985 56.2138 55.7177 56.4087C55.637 56.6036 55.5003 56.7702 55.3249 56.8874C55.1495 57.0046 54.9433 57.0671 54.7323 57.0671C54.4494 57.0671 54.1781 56.9547 53.9781 56.7547C53.778 56.5547 53.6657 56.2834 53.6657 56.0005Z" fill="url(#paint0_linear)"/>
<defs>
<linearGradient id="paint0_linear" x1="28.1028" y1="-31.5294" x2="118.513" y2="24.445" gradientUnits="userSpaceOnUse">
<stop stop-color="white"/>
<stop offset="1" stop-color="white" stop-opacity="0"/>
</linearGradient>
</defs>
</svg>
