<svg width="80" height="80" viewBox="0 0 80 80" fill="none" xmlns="http://www.w3.org/2000/svg">
<path d="M77.3001 38.9167H77.5595L77.55 38.6575C76.8238 18.9693 61.0307 3.17622 41.3426 2.45004L41.0833 2.44048V2.69987V10.6999V10.9385L41.3217 10.9496C56.336 11.6506 68.3494 23.664 69.0504 38.6783L69.0615 38.9167H69.3001H77.3001ZM13.0833 39.9997V40C13.0833 54.8659 25.1341 66.9167 40 66.9167C54.8659 66.9167 66.9167 54.8659 66.9167 40C66.9167 25.1341 54.8659 13.0833 40 13.0833H39.9997C25.1412 13.1004 13.1004 25.1412 13.0833 39.9997ZM39.9985 77.5833H40.0003C60.2226 77.5571 76.8067 61.551 77.55 41.3425L77.5595 41.0833H77.3001H69.3001H69.0612L69.0504 41.322C68.3371 57.0256 55.2749 69.3209 39.5572 69.0834C23.8388 68.8452 11.1548 56.1612 10.9166 40.4428C10.6791 24.7251 22.9744 11.6629 38.678 10.9496L38.9167 10.9388V10.6999V2.69987V2.43919L38.6562 2.45009C18.268 3.30342 2.28537 20.2691 2.65043 40.6718C3.01483 61.0744 19.5932 77.4588 39.9985 77.5833ZM0.25 40C0.25 18.047 18.0469 0.250071 39.9999 0.25C61.9427 0.274664 79.7254 18.0575 79.75 40.0003C79.7498 61.9532 61.953 79.75 40 79.75C18.0469 79.75 0.25 61.9531 0.25 40Z" fill="url(#paint0_linear)" stroke="url(#paint1_linear)" stroke-width="0.5"/>
<path d="M39.9998 21.0837L39.9996 21.0837C29.557 21.0949 21.0944 29.5575 21.0832 40.0001V40.0003C21.0832 50.4476 29.5525 58.917 39.9998 58.917C50.4472 58.917 58.9165 50.4476 58.9165 40.0003C58.9165 29.553 50.4472 21.0837 39.9998 21.0837ZM61.0832 40.0003C61.0832 51.6441 51.6438 61.0835 40.0001 61.0837C28.362 61.0701 18.9301 51.6383 18.9165 40.0002C18.9166 28.3564 28.3561 18.917 39.9998 18.917C51.6437 18.917 61.0832 28.3565 61.0832 40.0003Z" fill="url(#paint2_linear)" stroke="url(#paint3_linear)" stroke-width="0.5"/>
<defs>
<linearGradient id="paint0_linear" x1="23.7545" y1="-49.4118" x2="141.661" y2="31.6993" gradientUnits="userSpaceOnUse">
<stop stop-color="white"/>
<stop offset="1" stop-color="white" stop-opacity="0"/>
</linearGradient>
<linearGradient id="paint1_linear" x1="-6.38889" y1="-12.2353" x2="105.101" y2="30.4192" gradientUnits="userSpaceOnUse">
<stop stop-color="#383838"/>
<stop offset="1" stop-color="#1B1B1B"/>
</linearGradient>
<linearGradient id="paint2_linear" x1="31.3356" y1="-7.68595" x2="94.2192" y2="35.5733" gradientUnits="userSpaceOnUse">
<stop stop-color="white"/>
<stop offset="1" stop-color="white" stop-opacity="0"/>
</linearGradient>
<linearGradient id="paint3_linear" x1="15.2591" y1="12.1415" x2="74.7202" y2="34.8906" gradientUnits="userSpaceOnUse">
<stop stop-color="#383838"/>
<stop offset="1" stop-color="#1B1B1B"/>
</linearGradient>
</defs>
</svg>
