<svg width="80" height="80" viewBox="0 0 80 80" fill="none" xmlns="http://www.w3.org/2000/svg">
<path fill-rule="evenodd" clip-rule="evenodd" d="M72.8125 39.3604H73.6328C74.3867 39.3604 75 39.9738 75 40.7276V55.4932C75 56.2471 74.3867 56.8604 73.6328 56.8604H72.8125V66.7042C72.8125 69.7197 70.3592 72.1729 67.3438 72.1729H10.4688C7.45328 72.1729 5 69.7197 5 66.7042V20.7667C5 17.7512 7.45328 15.2979 10.4688 15.2979H27.9688C28.0668 15.2979 28.1614 15.312 28.2518 15.3362L62.3044 7.09249C64.0604 6.66702 65.8355 7.75011 66.2608 9.50653L67.6653 15.3082C70.5316 15.4753 72.8125 17.8592 72.8125 20.7667V29.5167V39.3604ZM70.625 20.769V20.7667C70.625 19.2614 69.6058 17.9905 68.2215 17.6056L68.7675 19.8615C69.448 20.0451 70.0765 20.3563 70.625 20.769ZM19.3741 17.4854H10.4688C8.65955 17.4854 7.1875 18.9575 7.1875 20.7667C7.1875 22.5759 8.65941 24.0479 10.4688 24.0479H67.3438C68.5739 24.0479 69.7104 24.4565 70.625 25.1447V25.141C70.625 23.4862 69.3934 22.1143 67.7989 21.892C67.7554 21.8892 67.7123 21.884 67.67 21.876C67.5626 21.8655 67.4538 21.8598 67.3438 21.8598H66.2505C65.6465 21.8598 65.1568 21.37 65.1568 20.766C65.1568 20.162 65.6465 19.6723 66.2505 19.6723H66.4711L64.1347 10.0213C63.9933 9.43722 63.4032 9.07669 62.819 9.21847L19.6378 19.672H61.875C62.479 19.672 62.9688 20.1617 62.9688 20.7657C62.9688 21.3698 62.479 21.8595 61.875 21.8595H10.5122C10.5031 21.8598 10.4941 21.8597 10.4851 21.8596C10.4806 21.8595 10.4761 21.8595 10.4715 21.8595H10.4688H10.4678C10.4307 21.8595 10.3941 21.8576 10.3577 21.8539L10.3557 21.8536C10.3208 21.8499 10.2862 21.8447 10.2521 21.8377L10.2432 21.8358C10.2119 21.8293 10.1811 21.8213 10.1506 21.812L10.1346 21.807C10.1067 21.798 10.0794 21.7881 10.0524 21.7769C10.0456 21.7742 10.0389 21.7712 10.0322 21.7683C10.0069 21.7572 9.98203 21.7453 9.9577 21.7325L9.93637 21.7208C9.91285 21.7076 9.88975 21.6936 9.86719 21.6787C9.86049 21.6744 9.85379 21.6699 9.84723 21.6652C9.82467 21.6498 9.80293 21.6333 9.78174 21.6163L9.76437 21.6019C9.74318 21.5841 9.72281 21.5655 9.70299 21.5461C9.69766 21.5411 9.6926 21.5359 9.68754 21.5307C9.66826 21.511 9.64981 21.4906 9.63203 21.4696C9.62684 21.4635 9.62178 21.4573 9.61686 21.4511C9.60031 21.4306 9.58445 21.4095 9.56941 21.3878C9.56381 21.3796 9.55834 21.3713 9.55287 21.3629C9.53975 21.3427 9.52717 21.3222 9.51527 21.301C9.50885 21.2896 9.50283 21.2779 9.49682 21.2663C9.48725 21.2475 9.47795 21.2287 9.46934 21.2092C9.46236 21.1938 9.45621 21.1782 9.45006 21.1624C9.4435 21.1457 9.43721 21.1289 9.43146 21.1116C9.42518 21.0928 9.41971 21.0736 9.41451 21.0543C9.41325 21.0496 9.41178 21.045 9.41031 21.0403C9.4086 21.0349 9.40689 21.0294 9.40549 21.0239C9.4048 21.0209 9.40433 21.018 9.40385 21.015C9.40337 21.0121 9.40289 21.0092 9.40221 21.0062C9.39797 20.9874 9.39469 20.9682 9.39141 20.9491C9.38826 20.9308 9.38525 20.9126 9.38307 20.8944C9.38158 20.8811 9.38057 20.8678 9.37956 20.8544C9.37937 20.8518 9.37917 20.8492 9.37896 20.8465C9.37732 20.8245 9.37596 20.8028 9.37568 20.781C9.37562 20.7787 9.37545 20.7765 9.37528 20.7742C9.37507 20.7714 9.37486 20.7686 9.37486 20.7657C9.37486 20.7605 9.37522 20.7553 9.37558 20.7502C9.37585 20.7463 9.37611 20.7425 9.37623 20.7387C9.37678 20.7162 9.37773 20.6938 9.37965 20.6717C9.38102 20.6559 9.38293 20.6405 9.38498 20.6249L9.38513 20.6238C9.38768 20.6052 9.39024 20.5864 9.39373 20.5679C9.39715 20.5493 9.40125 20.531 9.40562 20.5127C9.40918 20.4976 9.41287 20.4826 9.41711 20.4678C9.42312 20.4466 9.42982 20.426 9.43693 20.4055C9.44104 20.3937 9.44527 20.382 9.44979 20.3703C9.4584 20.3482 9.4677 20.3266 9.47768 20.3051C9.48232 20.2953 9.48697 20.2854 9.49189 20.2756C9.50283 20.2539 9.51445 20.2325 9.52689 20.2116C9.53236 20.2023 9.53783 20.1932 9.54357 20.1841C9.55643 20.1639 9.56982 20.1441 9.58391 20.1247C9.59061 20.1155 9.59744 20.1062 9.60455 20.0972C9.61863 20.079 9.6334 20.0612 9.64857 20.044C9.65678 20.0346 9.66512 20.0253 9.67373 20.0162C9.68904 20.0001 9.70477 19.9845 9.72104 19.9692C9.73047 19.9603 9.74004 19.9516 9.74988 19.943C9.7667 19.9282 9.78393 19.9141 9.8017 19.9004C9.81168 19.8928 9.82166 19.8853 9.83191 19.8779C9.85119 19.8641 9.87102 19.8509 9.89111 19.8384C9.90041 19.8325 9.90971 19.8267 9.91914 19.8213C9.94184 19.808 9.96522 19.7957 9.989 19.7841C9.99224 19.7826 9.99545 19.781 9.99866 19.7795C10.0029 19.7774 10.0072 19.7753 10.0116 19.7733C10.0386 19.7608 10.0661 19.7498 10.0941 19.7395L10.1101 19.7336C10.1405 19.7233 10.1713 19.7141 10.2027 19.7063C10.2047 19.7057 10.2066 19.705 10.2086 19.7044C10.2095 19.7042 10.2104 19.7039 10.2113 19.7037L10.2339 19.6982C10.2363 19.6977 10.2387 19.6971 10.2411 19.6964C10.2443 19.6956 10.2474 19.6947 10.2507 19.6941L19.3741 17.4854ZM67.3438 69.9854C69.1531 69.9854 70.625 68.5134 70.625 66.7042V56.8604H54.6292C53.7998 56.8604 53.125 56.1856 53.125 55.3563V40.8646C53.125 40.0353 53.7998 39.3604 54.6292 39.3604H70.625V29.5167C70.625 27.7075 69.1529 26.2354 67.3438 26.2354H10.4688C9.23855 26.2354 8.10215 25.8269 7.1875 25.1387V66.7042C7.1875 68.5134 8.65941 69.9854 10.4688 69.9854H67.3438ZM55.3125 54.6729H72.8125V41.5479H71.7346C71.7319 41.548 71.7293 41.5482 71.7266 41.5484C71.724 41.5486 71.7214 41.5488 71.7188 41.5488C71.7151 41.5488 71.7115 41.5484 71.7079 41.5481C71.7062 41.548 71.7046 41.5479 71.7029 41.5479H55.3125V54.6729ZM62.9688 48.1104C62.9688 47.5064 63.4585 47.0167 64.0625 47.0167C64.6666 47.0167 65.1563 47.5064 65.1563 48.1104C65.1563 49.9196 63.6844 51.3917 61.875 51.3917C60.0657 51.3917 58.5938 49.9196 58.5938 48.1104C58.5938 46.3012 60.0657 44.8292 61.875 44.8292C62.4791 44.8292 62.9688 45.3189 62.9688 45.9229C62.9688 46.527 62.4791 47.0167 61.875 47.0167C61.272 47.0167 60.7813 47.5074 60.7813 48.1104C60.7813 48.7135 61.272 49.2042 61.875 49.2042C62.4781 49.2042 62.9688 48.7135 62.9688 48.1104Z" fill="url(#paint0_linear)"/>
<defs>
<linearGradient id="paint0_linear" x1="25.7852" y1="-33.2539" x2="124.102" y2="39.3902" gradientUnits="userSpaceOnUse">
<stop stop-color="white"/>
<stop offset="1" stop-color="white" stop-opacity="0"/>
</linearGradient>
</defs>
</svg>
