<svg width="24" height="24" viewBox="0 0 24 24" fill="none" xmlns="http://www.w3.org/2000/svg">
<path fill-rule="evenodd" clip-rule="evenodd" d="M16.0503 20.4004C16.0503 20.8146 15.7145 21.1504 15.3003 21.1504L8.70029 21.1504C8.28608 21.1504 7.95029 20.8146 7.95029 20.4004C7.95029 19.9862 8.28608 19.6504 8.70029 19.6504L15.3003 19.6504C15.7145 19.6504 16.0503 19.9862 16.0503 20.4004Z" fill="#676767"/>
<path fill-rule="evenodd" clip-rule="evenodd" d="M12 20.8506C11.5858 20.8506 11.25 20.5148 11.25 20.1006L11.25 14.7006C11.25 14.2864 11.5858 13.9506 12 13.9506C12.4142 13.9506 12.75 14.2864 12.75 14.7006L12.75 20.1006C12.75 20.5148 12.4142 20.8506 12 20.8506Z" fill="#676767"/>
<path fill-rule="evenodd" clip-rule="evenodd" d="M19.0502 13.6502V4.9502H4.9502V13.6502H19.0502ZM4.5002 3.4502C3.9203 3.4502 3.4502 3.9203 3.4502 4.50019V14.1002C3.4502 14.6801 3.9203 15.1502 4.5002 15.1502H19.5002C20.0801 15.1502 20.5502 14.6801 20.5502 14.1002V4.5002C20.5502 3.9203 20.0801 3.4502 19.5002 3.4502H4.5002Z" fill="#676767"/>
<path fill-rule="evenodd" clip-rule="evenodd" d="M8.1001 8.25C8.51431 8.25 8.8501 8.58579 8.8501 9L8.8501 11.55C8.8501 11.9642 8.51431 12.3 8.1001 12.3C7.68588 12.3 7.3501 11.9642 7.3501 11.55L7.3501 9C7.3501 8.58579 7.68588 8.25 8.1001 8.25Z" fill="#676767"/>
<path fill-rule="evenodd" clip-rule="evenodd" d="M15.9004 6.90039C16.3146 6.90039 16.6504 7.23618 16.6504 7.65039L16.6504 11.5504C16.6504 11.9646 16.3146 12.3004 15.9004 12.3004C15.4862 12.3004 15.1504 11.9646 15.1504 11.5504L15.1504 7.65039C15.1504 7.23618 15.4862 6.90039 15.9004 6.90039Z" fill="#676767"/>
<path fill-rule="evenodd" clip-rule="evenodd" d="M12 5.7002C12.4142 5.7002 12.75 6.03598 12.75 6.4502L12.75 11.5502C12.75 11.9644 12.4142 12.3002 12 12.3002C11.5858 12.3002 11.25 11.9644 11.25 11.5502L11.25 6.4502C11.25 6.03598 11.5858 5.7002 12 5.7002Z" fill="#676767"/>
</svg>
