<svg width="24" height="24" viewBox="0 0 24 24" fill="none" xmlns="http://www.w3.org/2000/svg">
<path fill-rule="evenodd" clip-rule="evenodd" d="M5.4748 8.40039C5.88902 8.40039 6.2248 8.73618 6.2248 9.15039V11.072H6.8548C7.29387 11.072 7.6498 11.428 7.6498 11.867V18.1337C7.6498 18.5728 7.29387 18.9287 6.8548 18.9287H6.2248V20.8504C6.2248 21.2646 5.88902 21.6004 5.4748 21.6004C5.06059 21.6004 4.7248 21.2646 4.7248 20.8504V18.9287H4.0948C3.65574 18.9287 3.2998 18.5728 3.2998 18.1337V11.867C3.2998 11.428 3.65574 11.072 4.0948 11.072H4.7248V9.15039C4.7248 8.73618 5.06059 8.40039 5.4748 8.40039ZM4.7998 12.572V17.4287H6.1498V12.572H4.7998Z" fill="#676767"/>
<path fill-rule="evenodd" clip-rule="evenodd" d="M18.3747 8.40039C18.7889 8.40039 19.1247 8.73618 19.1247 9.15039V11.072H19.7547C20.1938 11.072 20.5497 11.428 20.5497 11.867V18.1337C20.5497 18.5728 20.1938 18.9287 19.7547 18.9287H19.1247V20.8504C19.1247 21.2646 18.7889 21.6004 18.3747 21.6004C17.9605 21.6004 17.6247 21.2646 17.6247 20.8504V18.9287H16.9947C16.5556 18.9287 16.1997 18.5728 16.1997 18.1337V11.867C16.1997 11.428 16.5556 11.072 16.9947 11.072H17.6247V9.15039C17.6247 8.73618 17.9605 8.40039 18.3747 8.40039ZM17.6997 12.572V17.4287H19.0497V12.572H17.6997Z" fill="#676767"/>
<path fill-rule="evenodd" clip-rule="evenodd" d="M11.925 2.40039C12.3392 2.40039 12.675 2.73618 12.675 3.15039V5.1063H13.305C13.7441 5.1063 14.1 5.46223 14.1 5.9013V12.2495C14.1 12.6885 13.7441 13.0445 13.305 13.0445H12.675V15.0004C12.675 15.4146 12.3392 15.7504 11.925 15.7504C11.5108 15.7504 11.175 15.4146 11.175 15.0004V13.0445H10.545C10.1059 13.0445 9.75 12.6886 9.75 12.2495V5.9013C9.75 5.46223 10.1059 5.1063 10.545 5.1063H11.175V3.15039C11.175 2.73618 11.5108 2.40039 11.925 2.40039ZM11.25 6.6063V11.5445H12.6V6.6063H11.25Z" fill="#676767"/>
</svg>
