<svg width="24" height="24" viewBox="0 0 24 24" fill="none" xmlns="http://www.w3.org/2000/svg">
<path fill-rule="evenodd" clip-rule="evenodd" d="M2.25 1.34961C2.66421 1.34961 3 1.6854 3 2.09961V20.9996H21.9C22.3142 20.9996 22.65 21.3354 22.65 21.7496C22.65 22.1638 22.3142 22.4996 21.9 22.4996H2.4C1.90295 22.4996 1.5 22.0967 1.5 21.5996V2.09961C1.5 1.6854 1.83579 1.34961 2.25 1.34961Z" fill="#676767"/>
<path fill-rule="evenodd" clip-rule="evenodd" d="M18.8999 4.5C19.3141 4.5 19.6499 4.83579 19.6499 5.25L19.6499 18.15C19.6499 18.5642 19.3141 18.9 18.8999 18.9C18.4857 18.9 18.1499 18.5642 18.1499 18.15L18.1499 5.25C18.1499 4.83579 18.4857 4.5 18.8999 4.5Z" fill="#676767"/>
<path fill-rule="evenodd" clip-rule="evenodd" d="M14.5498 7.5C14.964 7.5 15.2998 7.83579 15.2998 8.25L15.2998 18.15C15.2998 18.5642 14.964 18.9 14.5498 18.9C14.1356 18.9 13.7998 18.5642 13.7998 18.15L13.7998 8.25C13.7998 7.83579 14.1356 7.5 14.5498 7.5Z" fill="#676767"/>
<path fill-rule="evenodd" clip-rule="evenodd" d="M10.2002 10.5C10.6144 10.5 10.9502 10.8358 10.9502 11.25L10.9502 18.15C10.9502 18.5642 10.6144 18.9 10.2002 18.9C9.78598 18.9 9.4502 18.5642 9.4502 18.15L9.4502 11.25C9.4502 10.8358 9.78598 10.5 10.2002 10.5Z" fill="#676767"/>
<path fill-rule="evenodd" clip-rule="evenodd" d="M5.8501 13.5C6.26431 13.5 6.6001 13.8358 6.6001 14.25L6.6001 18.15C6.6001 18.5642 6.26431 18.9 5.8501 18.9C5.43588 18.9 5.1001 18.5642 5.1001 18.15L5.1001 14.25C5.1001 13.8358 5.43588 13.5 5.8501 13.5Z" fill="#676767"/>
</svg>
