<svg width="24" height="24" viewBox="0 0 24 24" fill="none" xmlns="http://www.w3.org/2000/svg">
<path fill-rule="evenodd" clip-rule="evenodd" d="M12 3.90039C9.37802 3.90039 7.20248 6.18719 7.20248 8.86775V9.4223L6.67228 9.58482C5.41375 9.97059 4.5 11.1423 4.5 12.5254C4.5 14.2237 5.87672 15.6004 7.575 15.6004C7.98921 15.6004 8.325 15.9362 8.325 16.3504C8.325 16.7646 7.98921 17.1004 7.575 17.1004C5.0483 17.1004 3 15.0521 3 12.5254C3 10.6565 4.12008 9.05093 5.72423 8.34044C5.99061 5.1162 8.67165 2.40039 12 2.40039C14.7476 2.40039 17.0828 4.15872 17.9448 6.61032C20.0736 7.36044 21.6 9.38881 21.6 11.7754C21.6 13.7836 20.6733 15.1265 19.5125 15.9512C18.3859 16.7516 17.057 17.0569 16.1607 17.0995C15.7469 17.1192 15.3956 16.7998 15.3758 16.3861C15.3561 15.9723 15.6756 15.6209 16.0893 15.6012C16.768 15.5689 17.8016 15.3267 18.6437 14.7284C19.4517 14.1543 20.1 13.2471 20.1 11.7754C20.1 9.93681 18.8511 8.38802 17.1541 7.93469L16.7399 7.82406L16.6251 7.41104C16.0618 5.38567 14.2034 3.90039 12 3.90039Z" fill="#676767"/>
<path fill-rule="evenodd" clip-rule="evenodd" d="M12.0002 13.3496C12.4144 13.3496 12.7502 13.6854 12.7502 14.0996L12.7502 18.889L14.0199 17.6193C14.3128 17.3264 14.7876 17.3264 15.0805 17.6193C15.3734 17.9122 15.3734 18.387 15.0805 18.6799L12.0002 21.7603L8.91987 18.6799C8.62697 18.387 8.62697 17.9122 8.91987 17.6193C9.21276 17.3264 9.68763 17.3264 9.98053 17.6193L11.2502 18.8889L11.2502 14.0996C11.2502 13.6854 11.586 13.3496 12.0002 13.3496Z" fill="#676767"/>
</svg>
