<svg width="24" height="24" viewBox="0 0 24 24" fill="none" xmlns="http://www.w3.org/2000/svg">
<path fill-rule="evenodd" clip-rule="evenodd" d="M11.8501 4.9502C9.22811 4.9502 7.05257 7.237 7.05257 9.91755V10.4721L6.52237 10.6346C5.26384 11.0204 4.3501 12.1921 4.3501 13.5752C4.3501 15.2735 5.72682 16.6502 7.4251 16.6502C7.83931 16.6502 8.1751 16.986 8.1751 17.4002C8.1751 17.8144 7.83931 18.1502 7.4251 18.1502C4.8984 18.1502 2.8501 16.1019 2.8501 13.5752C2.8501 11.7064 3.97017 10.1007 5.57433 9.39025C5.84071 6.16601 8.52175 3.4502 11.8501 3.4502C14.5977 3.4502 16.9329 5.20852 17.7949 7.66012C19.9237 8.41024 21.4501 10.4386 21.4501 12.8252C21.4501 14.8334 20.5234 16.1763 19.3626 17.001C18.236 17.8014 16.9071 18.1067 16.0108 18.1493C15.597 18.169 15.2456 17.8496 15.2259 17.4359C15.2062 17.0221 15.5257 16.6707 15.9394 16.651C16.6181 16.6187 17.6517 16.3765 18.4938 15.7782C19.3018 15.2041 19.9501 14.2969 19.9501 12.8252C19.9501 10.9866 18.7012 9.43782 17.0042 8.9845L16.59 8.87386L16.4752 8.46085C15.9119 6.43548 14.0535 4.9502 11.8501 4.9502Z" fill="white"/>
<path fill-rule="evenodd" clip-rule="evenodd" d="M11.9998 20.4004C11.5856 20.4004 11.2498 20.0646 11.2498 19.6504L11.2498 14.861L9.98013 16.1307C9.68724 16.4236 9.21236 16.4236 8.91947 16.1307C8.62658 15.8378 8.62658 15.363 8.91947 15.0701L11.9998 11.9897L15.0801 15.0701C15.373 15.363 15.373 15.8378 15.0801 16.1307C14.7872 16.4236 14.3124 16.4236 14.0195 16.1307L12.7498 14.8611L12.7498 19.6504C12.7498 20.0646 12.414 20.4004 11.9998 20.4004Z" fill="#FED003"/>
</svg>
