<svg width="24" height="24" viewBox="0 0 24 24" fill="none" xmlns="http://www.w3.org/2000/svg">
<path d="M12 5.25C13.5304 5.25 15.0153 5.77004 16.2113 6.72485C17.4073 7.67965 18.2434 9.01252 18.5823 10.5049C18.9213 11.9972 18.7431 13.5605 18.0769 14.9383C17.4108 16.3161 16.2962 17.4266 14.916 18.0877C13.5357 18.7488 11.9718 18.9213 10.4807 18.5768C8.98963 18.2324 7.65983 17.3914 6.70942 16.1919C5.75902 14.9924 5.24443 13.5056 5.25005 11.9752C5.25566 10.4449 5.78115 8.96183 6.74034 7.76935" stroke="#676767" stroke-width="1.5" stroke-linecap="round"/>
<path d="M11.9999 8.40039C12.6963 8.40039 13.3777 8.60236 13.9616 8.98183C14.5455 9.3613 15.0068 9.90197 15.2896 10.5383C15.5725 11.1747 15.6646 11.8794 15.555 12.5671C15.4454 13.2548 15.1387 13.8959 14.672 14.4128C14.2054 14.9297 13.5988 15.3002 12.9259 15.4793C12.2529 15.6584 11.5425 15.6385 10.8806 15.422C10.2187 15.2055 9.63389 14.8016 9.19691 14.2594C8.75993 13.7172 8.48958 13.0599 8.41863 12.3672" stroke="#676767" stroke-width="1.5" stroke-linecap="round"/>
</svg>
