<svg width="24" height="24" viewBox="0 0 24 24" fill="none" xmlns="http://www.w3.org/2000/svg">
<path fill-rule="evenodd" clip-rule="evenodd" d="M18.6 9.975H12.8563C12.1102 9.975 11.4066 9.62803 10.9523 9.03617L9.19785 6.75H5.25V17.1H18.6V9.975ZM10.2077 5.60206L12.1423 8.12294C12.3126 8.34489 12.5765 8.475 12.8563 8.475H19.2C19.6971 8.475 20.1 8.87794 20.1 9.375V17.7C20.1 18.1971 19.6971 18.6 19.2 18.6H4.65C4.15294 18.6 3.75 18.1971 3.75 17.7V6.15C3.75 5.65294 4.15294 5.25 4.65 5.25H9.49371C9.77349 5.25 10.0374 5.38011 10.2077 5.60206Z" fill="#676767"/>
<path fill-rule="evenodd" clip-rule="evenodd" d="M5.25 17.1V13.5H3.75V17.7C3.75 18.1971 4.15294 18.6 4.65 18.6H19.2C19.6971 18.6 20.1 18.1971 20.1 17.7V13.5H18.6V17.1H5.25Z" fill="#676767"/>
</svg>
