<svg width="24" height="24" viewBox="0 0 24 24" fill="none" xmlns="http://www.w3.org/2000/svg">
<path fill-rule="evenodd" clip-rule="evenodd" d="M4.7998 4.9502V6.6002H6.44981V4.9502H4.7998ZM4.0498 3.4502H7.1998C7.61402 3.4502 7.94981 3.78598 7.94981 4.2002V7.3502C7.94981 7.76441 7.61402 8.1002 7.19981 8.1002H4.04981C3.63559 8.1002 3.2998 7.76441 3.2998 7.3502V4.2002C3.2998 3.78598 3.63559 3.4502 4.0498 3.4502Z" fill="white"/>
<path fill-rule="evenodd" clip-rule="evenodd" d="M11.1001 4.9502V6.6002H12.7501V4.9502H11.1001ZM10.3501 3.4502H13.5001C13.9143 3.4502 14.2501 3.78598 14.2501 4.2002V7.3502C14.2501 7.76441 13.9143 8.1002 13.5001 8.1002H10.3501C9.93589 8.1002 9.6001 7.76441 9.6001 7.3502V4.2002C9.6001 3.78598 9.93588 3.4502 10.3501 3.4502Z" fill="white"/>
<path fill-rule="evenodd" clip-rule="evenodd" d="M11.1001 17.25V18.9H12.7501V17.25H11.1001ZM10.3501 15.75H13.5001C13.9143 15.75 14.2501 16.0858 14.2501 16.5V19.65C14.2501 20.0642 13.9143 20.4 13.5001 20.4H10.3501C9.93589 20.4 9.6001 20.0642 9.6001 19.65V16.5C9.6001 16.0858 9.93588 15.75 10.3501 15.75Z" fill="white"/>
<path fill-rule="evenodd" clip-rule="evenodd" d="M17.3999 4.9502V6.6002H19.0499V4.9502H17.3999ZM16.6499 3.4502H19.7999C20.2141 3.4502 20.5499 3.78598 20.5499 4.2002V7.3502C20.5499 7.76441 20.2141 8.1002 19.7999 8.1002H16.6499C16.2357 8.1002 15.8999 7.76441 15.8999 7.3502V4.2002C15.8999 3.78598 16.2357 3.4502 16.6499 3.4502Z" fill="white"/>
<path fill-rule="evenodd" clip-rule="evenodd" d="M4.9502 11.6496V8.09961H6.4502V11.1996H11.1752V8.09961H12.6752V11.1996H17.4002V8.09961H18.9002V11.6496C18.9002 12.2295 18.4301 12.6996 17.8502 12.6996H12.6752V15.7496H11.1752V12.6996H6.0002C5.4203 12.6996 4.9502 12.2295 4.9502 11.6496Z" fill="#FED003"/>
</svg>
