<svg width="24" height="24" viewBox="0 0 24 24" fill="none" xmlns="http://www.w3.org/2000/svg">
<path fill-rule="evenodd" clip-rule="evenodd" d="M12.75 11.25V2.25H11.25V11.85C11.25 12.3471 11.6529 12.75 12.15 12.75H21.75V11.25H12.75Z" fill="#FED003"/>
<path fill-rule="evenodd" clip-rule="evenodd" d="M12 20.25C16.5564 20.25 20.25 16.5564 20.25 12C20.25 7.44365 16.5564 3.75 12 3.75C7.44365 3.75 3.75 7.44365 3.75 12C3.75 16.5564 7.44365 20.25 12 20.25ZM12 21.75C17.3848 21.75 21.75 17.3848 21.75 12C21.75 6.61522 17.3848 2.25 12 2.25C6.61522 2.25 2.25 6.61522 2.25 12C2.25 17.3848 6.61522 21.75 12 21.75Z" fill="white"/>
</svg>
