<svg width="36" height="32" viewBox="0 0 36 32" fill="none" xmlns="http://www.w3.org/2000/svg">
<path d="M0 16C0 7.16344 7.16344 0 16 0H18C19.8574 0 20.786 0 21.5683 0.0770444C29.1647 0.825228 35.1748 6.83529 35.923 14.4317C36 15.214 36 16.1426 36 18V25.6C36 27.8402 36 28.9603 35.564 29.816C35.1805 30.5686 34.5686 31.1805 33.816 31.564C32.9603 32 31.8402 32 29.6 32H16C7.16344 32 0 24.8366 0 16Z" fill="#EE6B12"/>
<path fill-rule="evenodd" clip-rule="evenodd" d="M19 11.616L15.8927 14.7233L15.8927 14.7232L14.0848 12.9152L19 8L23.9168 12.9167L22.1088 14.7247L19 11.616ZM12.8081 14.1917L11 16L12.8079 17.8077L14.616 15.9996L12.8081 14.1917ZM19 20.384L15.8927 17.2769L14.0822 19.0822L14.0848 19.0848L19 24L23.9168 19.0834L23.9177 19.0824L22.1087 17.2754L19 20.384ZM25.1921 14.1927L23.384 16.0008L25.192 17.8087L27 16.0006L25.1921 14.1927ZM20.8342 15.999H20.8336L20.8352 15.9999L20.8343 16.0009L18.9997 17.8356L17.1666 16.0023L17.1641 15.9996L17.1666 15.9971L17.4879 15.6758L17.6437 15.5199L18.9997 14.1643L20.8342 15.999Z" fill="white"/>
</svg>
