<svg width="36" height="32" viewBox="0 0 36 32" fill="none" xmlns="http://www.w3.org/2000/svg">
<path d="M0 16C0 7.16344 7.16344 0 16 0H18C19.8574 0 20.786 0 21.5683 0.0770444C29.1647 0.825228 35.1748 6.83529 35.923 14.4317C36 15.214 36 16.1426 36 18V25.6C36 27.8402 36 28.9603 35.564 29.816C35.1805 30.5686 34.5686 31.1805 33.816 31.564C32.9603 32 31.8402 32 29.6 32H16C7.16344 32 0 24.8366 0 16Z" fill="#F7931A"/>
<path d="M24.0421 14.4237C24.0421 14.4237 24.0421 14.4237 24.0421 14.4237C24.2864 12.7897 23.0918 11.8863 21.4222 11.2804C21.3243 11.2448 21.2678 11.1414 21.2931 11.0402L21.7707 9.12461C21.7975 9.01685 21.732 8.90772 21.6242 8.88087L20.6207 8.63083C20.513 8.60398 20.4039 8.66956 20.377 8.7773L19.9186 10.6163C19.8917 10.7241 19.7826 10.7896 19.6747 10.7634C19.4364 10.7056 19.1948 10.6496 18.9533 10.5943C18.8435 10.5691 18.7757 10.4588 18.803 10.3496L19.2644 8.49977C19.2913 8.39202 19.2257 8.28288 19.1179 8.25601L18.1153 8.00602C18.0075 7.97916 17.8984 8.04471 17.8716 8.15243L17.3968 10.055C17.3703 10.1612 17.2637 10.2267 17.1571 10.2023C16.9213 10.1483 16.6893 10.0942 16.4628 10.0379C16.4608 10.0374 16.4595 10.0354 16.46 10.0334C16.4604 10.0314 16.4592 10.0294 16.4572 10.0289L14.7341 9.5986C14.6263 9.57168 14.5171 9.63728 14.4902 9.74508L14.2176 10.8396C14.1905 10.9488 14.2581 11.0591 14.3677 11.0846C14.4752 11.1096 14.6123 11.1418 14.7432 11.1733C14.9127 11.2141 15.4529 11.3709 15.5868 11.4827C15.7907 11.6531 15.8386 11.8831 15.8307 12.0818C15.8302 12.0943 15.8283 12.1067 15.8253 12.1189L15.2164 14.5611C15.1961 14.6428 15.2463 14.724 15.3245 14.7554C15.2429 14.7351 15.1608 14.7846 15.1404 14.8662L14.2658 18.3727C14.2378 18.4423 14.1924 18.5259 14.122 18.5943C13.9891 18.7233 13.2906 18.6275 13.1113 18.5812C12.9917 18.5504 12.8728 18.5192 12.7813 18.4952C12.6851 18.4699 12.5849 18.5185 12.5454 18.6098L12.0167 19.8286C11.9673 19.9426 12.032 20.0737 12.1525 20.1037L13.7359 20.4985C14.0067 20.5664 14.2731 20.6368 14.5361 20.705C14.6431 20.7327 14.708 20.8415 14.6813 20.9487L14.2014 22.8756C14.1746 22.9833 14.2402 23.0924 14.3479 23.1193L15.3498 23.3692C15.4576 23.3961 15.5667 23.3305 15.5936 23.2227L16.0664 21.3259C16.0937 21.2166 16.2054 21.151 16.3143 21.1801C16.5575 21.245 16.7962 21.3068 17.0315 21.3661C17.1392 21.3932 17.2049 21.5024 17.178 21.6102L16.7062 23.5002C16.6793 23.6079 16.7449 23.7171 16.8527 23.7439L17.8562 23.994C17.964 24.0208 18.0731 23.9553 18.0999 23.8476L18.582 21.9154C18.6078 21.812 18.71 21.7469 18.8149 21.7655C21.0981 22.17 22.8113 21.9429 23.5436 19.85C24.0686 18.3508 23.6614 17.4012 22.7303 16.7509C22.5771 16.6439 22.6092 16.3747 22.7788 16.2962C23.4273 15.996 23.8961 15.4146 24.0425 14.4242C24.0426 14.424 24.0425 14.4239 24.0424 14.4239L24.0422 14.4237C24.0421 14.4237 24.0421 14.4237 24.0421 14.4237ZM20.8579 18.8889C20.8578 18.8889 20.8578 18.8889 20.8578 18.889C20.4535 20.5136 17.8608 19.7886 16.7632 19.4997C16.6557 19.4714 16.5903 19.362 16.6172 19.2541L17.2851 16.5766C17.312 16.4688 17.421 16.403 17.5293 16.4276C18.6361 16.6794 21.2804 17.1944 20.8579 18.8889C20.8579 18.8889 20.8579 18.8889 20.8579 18.8889ZM21.2889 14.3987C21.2889 14.3987 21.2888 14.3987 21.2888 14.3988C20.9241 15.8597 18.8089 15.2759 17.8777 15.0276C17.7704 14.999 17.7057 14.8897 17.7326 14.7819L18.3292 12.3896C18.356 12.2819 18.4644 12.2157 18.5728 12.2399C19.5135 12.4499 21.6687 12.8747 21.289 14.3986C21.289 14.3987 21.2889 14.3987 21.2889 14.3987Z" fill="white"/>
</svg>
