<svg width="36" height="32" viewBox="0 0 36 32" fill="none" xmlns="http://www.w3.org/2000/svg">
<path d="M0 16C0 7.16344 7.16344 0 16 0H18C19.8574 0 20.786 0 21.5683 0.0770444C29.1647 0.825228 35.1748 6.83529 35.923 14.4317C36 15.214 36 16.1426 36 18V25.6C36 27.8402 36 28.9603 35.564 29.816C35.1805 30.5686 34.5686 31.1805 33.816 31.564C32.9603 32 31.8402 32 29.6 32H16C7.16344 32 0 24.8366 0 16Z" fill="#A9DD6F"/>
<path d="M23.7076 16.6317C23.7068 16.6217 23.7042 16.6119 23.6994 16.6031C23.6986 16.6016 23.6979 16.6 23.6974 16.5984C23.6935 16.586 23.6904 16.5731 23.686 16.5598C23.6857 16.559 23.6854 16.5583 23.685 16.5575L23.6843 16.5564L23.6837 16.5553L23.6832 16.5541L23.6825 16.553L23.6819 16.5518C23.6811 16.5504 23.6805 16.5488 23.68 16.5472C23.5276 16.0392 23.2262 15.5886 22.8148 15.2537C22.8145 15.2535 22.8142 15.2532 22.814 15.2528C22.8138 15.2524 22.8135 15.2521 22.8132 15.2518C22.8011 15.2426 22.7885 15.2324 22.7765 15.2232L22.7597 15.2107L22.7475 15.2014L22.7423 15.197L22.7307 15.1889L22.7255 15.1845L22.7139 15.1763L22.7087 15.1719L22.6965 15.1626L22.6902 15.1588L22.6779 15.1495L22.6715 15.1458L22.6582 15.1371C22.654 15.1346 22.6504 15.1312 22.6477 15.1272L22.6475 15.1269C22.6452 15.1234 22.6423 15.1204 22.6389 15.118L22.6371 15.1168L22.6238 15.108L22.6168 15.1032L22.6034 15.0945L22.5965 15.0896L22.5831 15.0809L22.5762 15.076L22.5622 15.0662L22.5553 15.0613L22.5402 15.0521L22.5333 15.0472L22.5182 15.038L22.5112 15.0331L22.4962 15.024L22.4892 15.0191L22.4742 15.0098L22.466 15.0056L22.451 14.9964L22.4429 14.9921L22.4268 14.9835L22.4186 14.9792L22.4019 14.9695L22.3938 14.9652L22.377 14.9555L22.3689 14.9513L22.3521 14.9415L22.3435 14.9363L22.3267 14.9267L22.3181 14.9215L22.3002 14.9123L22.2915 14.9071L22.2736 14.898L22.2621 14.8919C22.2617 14.8917 22.2614 14.8914 22.2612 14.891C22.261 14.8907 22.2607 14.8904 22.2604 14.8902C22.2519 14.8851 22.2429 14.8812 22.2343 14.8759C21.9783 14.7442 21.7081 14.6432 21.4295 14.5744C21.2715 14.5354 21.1999 14.3349 21.2961 14.2036C21.3204 14.1705 21.3441 14.1369 21.3671 14.1029L21.382 14.0808C21.3822 14.0805 21.3825 14.0802 21.3829 14.08C21.3833 14.0798 21.3836 14.0795 21.3838 14.0791L21.3906 14.0686L21.3998 14.0536L21.405 14.0467L21.4141 14.0316L21.419 14.0247L21.4282 14.0096L21.4334 14.0027L21.4426 13.9876L21.4474 13.9806L21.4566 13.9656L21.4615 13.9586L21.4696 13.9442L21.4745 13.9372L21.4826 13.9228L21.4864 13.9164L21.4945 13.902L21.4983 13.8957L21.5064 13.8813L21.5102 13.8749L21.5171 13.861L21.5208 13.8546L21.5278 13.8408L21.5316 13.8345L21.5385 13.8206L21.5423 13.8142L21.5499 13.8016L21.5537 13.7952L21.5612 13.7824L21.565 13.7761L21.5715 13.764L21.5752 13.7576L21.5816 13.7455L21.5844 13.7397L21.5908 13.7276L21.5935 13.7218L21.5999 13.7098L21.6026 13.7041L21.6091 13.6919L21.6117 13.6862L21.6169 13.6747L21.6196 13.6689L21.6248 13.6574L21.6275 13.6516L21.6327 13.6401L21.6354 13.6343L21.6412 13.6211L21.6492 13.6038C21.655 13.5908 21.6595 13.5782 21.6654 13.5653C21.6655 13.5649 21.6658 13.5646 21.6662 13.5644C21.6666 13.5642 21.6669 13.5639 21.667 13.5635C21.8444 13.126 21.8861 12.6452 21.7866 12.1837C21.7865 12.1829 21.7862 12.182 21.7857 12.1813L21.7845 12.1791L21.7839 12.178L21.7832 12.1768L21.7826 12.1756L21.782 12.1745L21.7814 12.1734C21.781 12.1726 21.7807 12.1718 21.7805 12.171C21.7783 12.1588 21.7754 12.1467 21.7719 12.1348C21.7717 12.1342 21.7717 12.1335 21.7717 12.1329V12.1324C21.7717 12.1315 21.7714 12.1307 21.771 12.1299L21.7704 12.1287L21.7697 12.1276L21.7704 12.1287C21.7669 12.1221 21.7644 12.115 21.7627 12.1077C21.7595 12.0933 21.756 12.0788 21.7515 12.0641C21.7486 12.0506 21.7447 12.0368 21.7408 12.0234C21.7381 12.0145 21.7346 12.0059 21.7302 11.9977C21.7294 11.9962 21.7288 11.9946 21.7283 11.993C21.7249 11.9818 21.7214 11.9707 21.718 11.9595C21.7178 11.9587 21.7175 11.958 21.7171 11.9572L21.7164 11.9561L21.7158 11.955L21.7151 11.9538L21.7145 11.9527L21.7139 11.9515C21.7135 11.9508 21.7131 11.95 21.7129 11.9491C21.5776 11.4968 21.3094 11.0956 20.9431 10.7976C20.9428 10.7973 20.9425 10.797 20.9423 10.7966C20.9421 10.7962 20.9418 10.7959 20.9415 10.7956C20.9312 10.7871 20.9198 10.779 20.9094 10.7704L20.8949 10.7594L20.8833 10.7513L20.8781 10.7469L20.8682 10.7393L20.863 10.7348L20.8532 10.7272L20.848 10.7228L20.8378 10.7162L20.8326 10.7118L20.821 10.7036L20.8158 10.6992L20.8042 10.6911L20.799 10.6866L20.7874 10.6785L20.781 10.6747L20.7694 10.6666L20.7631 10.6628L20.7515 10.6547L20.7452 10.6509L20.7324 10.6433L20.7261 10.6395L20.7133 10.6319L20.7069 10.6283L20.6942 10.6206L20.6878 10.6169L20.6751 10.6092L20.6687 10.6055L20.6553 10.5968L20.649 10.5931L20.6356 10.5844L20.6292 10.5806L20.6148 10.5725L20.6084 10.5688L20.594 10.5607L20.587 10.5558L20.5726 10.5477L20.5656 10.5427L20.5512 10.5347L20.5442 10.5297L20.5291 10.5206L20.5211 10.5163L20.506 10.5072L20.4979 10.5028L20.4817 10.4942L20.4737 10.4899L20.4575 10.4813L20.4466 10.4764C20.4462 10.4762 20.4458 10.4759 20.4456 10.4755C20.4454 10.4752 20.4451 10.4749 20.4448 10.4747L20.4211 10.4621C19.7128 10.094 18.8128 9.9831 17.9073 10.2156L17.8665 10.2261C17.7589 10.2537 17.6494 10.1889 17.6217 10.0814L17.1254 8.15106C17.0978 8.04356 16.9882 7.97878 16.8807 8.00635L15.8898 8.26036C15.7822 8.28795 15.7173 8.39759 15.745 8.5052L16.2386 10.4261C16.2663 10.5337 16.2014 10.6433 16.0938 10.6709L15.3788 10.8543C15.2713 10.8818 15.1618 10.8171 15.1341 10.7097L14.6403 8.79469C14.6126 8.68726 14.5031 8.62256 14.3956 8.65012L13.4045 8.90421C13.2969 8.9318 13.2321 9.04144 13.2597 9.14905L13.7534 11.07C13.7811 11.1776 13.7163 11.2872 13.6088 11.3148L11.151 11.9473C11.0435 11.9749 10.9787 12.0846 11.0064 12.1921L11.285 13.2749C11.3127 13.3824 11.4222 13.4472 11.5298 13.4196L12.4823 13.175C12.8619 13.0773 13.2488 13.3055 13.3468 13.6849C13.3469 13.6853 13.347 13.6856 13.347 13.686C13.347 13.6864 13.347 13.6868 13.3471 13.6871L14.9391 19.8813C15.0042 20.1348 14.8516 20.3931 14.5982 20.4585L13.7494 20.6768C13.6581 20.7003 13.5953 20.784 13.5985 20.8783L13.6437 22.2176C13.648 22.3461 13.7702 22.4376 13.8947 22.4056L16.3018 21.7871C16.4091 21.7595 16.5184 21.8239 16.5464 21.9311L17.0469 23.8496C17.0748 23.9568 17.1843 24.0212 17.2916 23.9936L18.2826 23.7386C18.3902 23.711 18.4549 23.6013 18.4273 23.4938L17.9331 21.5718C17.9054 21.4642 17.9702 21.3546 18.0779 21.327L18.7927 21.1436C18.9002 21.1161 19.0097 21.1808 19.0374 21.2883L19.5319 23.2103C19.5596 23.3179 19.6692 23.3826 19.7767 23.355L20.7672 23.1002C20.8747 23.0725 20.9395 22.9629 20.9119 22.8554L20.4155 20.9235C20.388 20.8162 20.4524 20.7068 20.5596 20.6789C20.7107 20.6397 20.8408 20.606 20.9397 20.5804C21.9601 20.3181 22.7853 19.7196 23.2849 18.9737L23.3013 18.9494C23.3016 18.949 23.3019 18.9487 23.3023 18.9485C23.3027 18.9483 23.303 18.948 23.3032 18.9477L23.311 18.9366L23.3218 18.9192L23.327 18.9106L23.3379 18.8933L23.3431 18.8846L23.3528 18.8678L23.358 18.8591L23.3677 18.8424L23.372 18.8343L23.3817 18.8175L23.3859 18.8094L23.3957 18.7927L23.4 18.7845L23.4086 18.7684L23.4129 18.7603L23.4215 18.7442L23.4257 18.7361L23.435 18.721L23.4392 18.7129L23.4484 18.6979L23.4527 18.6897L23.4608 18.6753L23.465 18.6672L23.4731 18.6528L23.4774 18.6447L23.4855 18.6303L23.4887 18.6228L23.4969 18.6083L23.5 18.6009L23.5069 18.5871L23.5107 18.5807L23.5177 18.5667L23.5215 18.5604L23.5284 18.5465L23.5322 18.5401L23.5392 18.5263L23.5429 18.5199L23.5498 18.506L23.5536 18.4997L23.5606 18.4858L23.5644 18.4794L23.5702 18.4662L23.5739 18.4598L23.5797 18.4466L23.5824 18.4408L23.5888 18.4259L23.5973 18.4069C23.6037 18.392 23.6107 18.378 23.6159 18.3637L23.6164 18.3621C23.816 17.8696 23.8631 17.3286 23.7516 16.8091C23.7514 16.8083 23.7511 16.8076 23.7508 16.8069L23.7501 16.8058L23.7495 16.8046L23.7489 16.8035L23.7483 16.8023L23.7476 16.8012L23.7471 16.8C23.7467 16.7993 23.7464 16.7985 23.7462 16.7976C23.7431 16.7844 23.7399 16.7711 23.7368 16.7575C23.7367 16.7569 23.7366 16.7563 23.7366 16.7558V16.755C23.7366 16.7542 23.7364 16.7534 23.736 16.7527L23.7354 16.7515L23.7348 16.7503L23.7342 16.7492L23.7336 16.7481L23.7329 16.747L23.7324 16.7458L23.7317 16.7446L23.7311 16.7435L23.7305 16.7424L23.7299 16.7412L23.7293 16.7401L23.7287 16.739C23.727 16.736 23.7258 16.7329 23.725 16.7296C23.7223 16.7188 23.7199 16.7079 23.7172 16.6971C23.7133 16.6814 23.7105 16.6654 23.7091 16.6493C23.7086 16.6439 23.7081 16.638 23.7076 16.6317ZM15.6457 12.6672C15.6179 12.5595 15.6825 12.4498 15.7903 12.4225C16.1655 12.3275 16.8634 12.1518 17.1257 12.0836C17.6362 11.9529 18.1392 12.0037 18.5321 12.1928L18.5453 12.1987L18.5511 12.2014L18.5592 12.2057L18.5632 12.2078L18.5714 12.2121L18.5754 12.2143L18.5835 12.2186L18.5875 12.2208L18.5956 12.225L18.5997 12.2272L18.6078 12.2315L18.6118 12.2336L18.62 12.2379L18.624 12.2401L18.6321 12.2444L18.6361 12.2465L18.6443 12.2508L18.6483 12.253L18.6564 12.2573L18.6604 12.2594L18.6674 12.2643L18.6715 12.2665L18.6784 12.2714L18.6825 12.2735L18.6894 12.2785L18.6935 12.2806L18.6999 12.2844L18.7039 12.2865L18.7103 12.2903L18.7144 12.2925L18.7207 12.2963L18.7248 12.2984L18.7312 12.3022L18.7352 12.3044L18.7399 12.3071C18.7411 12.3078 18.7421 12.3086 18.7431 12.3095C18.744 12.3104 18.7451 12.3112 18.7462 12.3119L18.7509 12.3146L18.7532 12.3163L18.7596 12.3201L18.7619 12.3217L18.7683 12.3255L18.7706 12.3271L18.777 12.3309L18.7794 12.3325L18.7846 12.337L18.7869 12.3386L18.7933 12.3424L18.802 12.3476C18.8084 12.3514 18.8142 12.3569 18.8205 12.3607C19.021 12.5121 19.1685 12.723 19.2419 12.9632C19.2423 12.9645 19.2428 12.9657 19.2434 12.9668C19.244 12.9679 19.2445 12.9691 19.2448 12.9703C19.2465 12.9757 19.2486 12.9817 19.2502 12.987C19.2504 12.9878 19.2508 12.9886 19.2512 12.9893C19.2536 12.9938 19.2553 12.9986 19.2568 13.0034C19.2588 13.0106 19.2611 13.0171 19.263 13.0247C19.2651 13.0325 19.2666 13.0404 19.2675 13.0483C19.2681 13.0533 19.2695 13.0583 19.2719 13.0627C19.2723 13.0635 19.2726 13.0643 19.2727 13.0651C19.2737 13.0716 19.2754 13.078 19.2777 13.0842C19.2789 13.0864 19.2798 13.0888 19.2803 13.0912C19.3308 13.3365 19.3031 13.5914 19.2008 13.8201L19.1919 13.8409L19.1871 13.8507L19.1844 13.8551C19.1837 13.8564 19.1831 13.8577 19.1827 13.8591C19.1824 13.86 19.1821 13.8608 19.1817 13.8616L19.1802 13.8649C19.1798 13.8658 19.1795 13.8666 19.1792 13.8675C19.1788 13.8689 19.1782 13.8703 19.1774 13.8716L19.1757 13.8744C19.1751 13.8754 19.1746 13.8765 19.1743 13.8777C19.1739 13.8788 19.1735 13.8799 19.1729 13.8809L19.1709 13.8842C19.1703 13.8852 19.1698 13.8863 19.1695 13.8875C19.1691 13.8886 19.1687 13.8897 19.168 13.8908L19.1661 13.894C19.1655 13.895 19.165 13.8961 19.1647 13.8973C19.1644 13.8985 19.1639 13.8996 19.1633 13.9006L19.1614 13.9038C19.1608 13.9048 19.1603 13.9059 19.1599 13.9071C19.1595 13.9082 19.1591 13.9093 19.1585 13.9103L19.1566 13.9135C19.156 13.9145 19.1555 13.9156 19.1552 13.9168C19.1548 13.9179 19.1543 13.9191 19.1537 13.9201L19.1508 13.9248L19.1487 13.9289L19.1449 13.9353L19.1428 13.9393L19.139 13.9457L19.1368 13.9498L19.133 13.9562L19.1309 13.9602L19.126 13.9672L19.1259 13.9672C19.1245 13.9699 19.1229 13.9724 19.1212 13.9748C19.1195 13.9771 19.118 13.9794 19.1166 13.9819L19.1165 13.9822L19.1116 13.9891L19.1094 13.9933L19.1045 14.0002L19.1043 14.0006C19.103 14.003 19.1015 14.0054 19.0998 14.0076C19.098 14.01 19.0964 14.0125 19.0951 14.0152L19.095 14.0153L19.0901 14.0222L19.0879 14.0263L19.083 14.0332L19.0808 14.0372L19.0759 14.0442C19.0745 14.0469 19.0729 14.0495 19.071 14.0519L19.0692 14.054C19.0683 14.0552 19.0674 14.0565 19.0667 14.0579C19.066 14.0592 19.0651 14.0605 19.0642 14.0617L19.061 14.0657C19.0601 14.0669 19.0593 14.0682 19.0585 14.0695C19.0578 14.0709 19.057 14.0722 19.056 14.0734L19.0529 14.0774C19.0519 14.0786 19.0511 14.0798 19.0504 14.0812C19.0497 14.0825 19.0489 14.0838 19.0479 14.085L19.0433 14.0908L19.0389 14.096L19.0308 14.1076C18.7769 14.4632 18.3608 14.7507 17.8504 14.8812C17.5874 14.9486 16.8904 15.1311 16.516 15.2285C16.4087 15.2564 16.2994 15.1919 16.2716 15.0845L15.6457 12.6672ZM20.9919 17.2223C20.9918 17.2222 20.9917 17.2223 20.9917 17.2225L20.995 17.2286C20.9954 17.2293 20.9957 17.2302 20.9958 17.231C20.9971 17.2379 20.9987 17.2436 21 17.2504C21.0001 17.2513 21.0004 17.2521 21.0008 17.2529L21.0015 17.254L21.0021 17.2552C21.0025 17.2559 21.0028 17.2567 21.0029 17.2575C21.0571 17.5289 21.0179 17.8107 20.8917 18.057L20.8793 18.0795L20.8734 18.0899L20.8692 18.098L20.8669 18.102L20.8632 18.1084L20.861 18.1125L20.8573 18.1189L20.8551 18.1229L20.8526 18.1263C20.8508 18.1287 20.8492 18.1313 20.8477 18.1339L20.8429 18.1409L20.8407 18.1449L20.8358 18.1519L20.8336 18.156L20.8287 18.1629L20.8286 18.1631C20.8273 18.1657 20.8257 18.1682 20.8239 18.1705C20.8222 18.1728 20.8207 18.1752 20.8194 18.1777L20.8192 18.178L20.8143 18.1849L20.8121 18.189L20.8072 18.1959L20.807 18.1963C20.8057 18.1987 20.8042 18.2011 20.8025 18.2033C20.8008 18.2057 20.7992 18.2082 20.7978 18.2109L20.7977 18.211L20.7928 18.2179C20.7914 18.2206 20.7897 18.2232 20.7878 18.2256L20.7861 18.2278C20.7851 18.229 20.7843 18.2303 20.7836 18.2316C20.7829 18.233 20.7821 18.2343 20.7811 18.2355L20.7793 18.2377C20.7775 18.24 20.7758 18.2426 20.7743 18.2452L20.7691 18.2539L20.7669 18.258L20.7617 18.2667L20.7596 18.2707L20.7544 18.2794L20.7511 18.284L20.7459 18.2927L20.7427 18.2973L20.7361 18.3066L20.7328 18.3112L20.7263 18.3205L20.7231 18.3252L20.7165 18.3344L20.7132 18.339L20.7067 18.3483L20.7034 18.353L20.6968 18.3623L20.6916 18.3681L20.6812 18.3808C20.3729 18.7745 19.8753 19.0984 19.2716 19.2534C18.9515 19.3361 18.0878 19.5618 17.6539 19.6742C17.5465 19.702 17.4373 19.6373 17.4097 19.5298L16.726 16.8698C16.6984 16.7624 16.7627 16.6532 16.8701 16.6259C17.3044 16.5153 18.1706 16.2976 18.4909 16.215C19.0949 16.0599 19.6879 16.1039 20.1463 16.2996L20.1613 16.306L20.1688 16.3092L20.1796 16.3135C20.1831 16.3145 20.1864 16.3158 20.1897 16.3174L20.1922 16.3186C20.1938 16.3194 20.1955 16.32 20.1972 16.3205C20.199 16.3211 20.2007 16.3217 20.2023 16.3225L20.2072 16.3249C20.2088 16.3257 20.2105 16.3264 20.2122 16.3269C20.2139 16.3274 20.2156 16.328 20.2173 16.3288L20.2246 16.3325L20.2287 16.3346L20.2385 16.3394L20.2426 16.3416L20.2524 16.3463L20.2564 16.3486L20.2662 16.3533L20.2702 16.3555L20.2784 16.3597L20.2824 16.3619L20.2906 16.3662L20.2946 16.3684L20.3027 16.3726L20.3067 16.3748L20.3149 16.3791L20.3189 16.3813L20.327 16.3855L20.331 16.3877L20.3391 16.392L20.3432 16.3942L20.3513 16.3984L20.3553 16.4006L20.3635 16.4049L20.3675 16.4071L20.3756 16.4113L20.3797 16.4135L20.3866 16.4184L20.3868 16.4185C20.3893 16.4199 20.3918 16.4214 20.3941 16.4231C20.3964 16.4249 20.3989 16.4264 20.4014 16.4278L20.4016 16.4279L20.4086 16.4328L20.4087 16.4328C20.4113 16.4342 20.4139 16.4358 20.4163 16.4376C20.4185 16.4393 20.4209 16.4408 20.4233 16.4421L20.4237 16.4423L20.4307 16.4472L20.4347 16.4494L20.441 16.4531L20.4451 16.4553L20.452 16.4602L20.4613 16.4668C20.4683 16.4716 20.4764 16.476 20.4833 16.4808C20.7119 16.6358 20.8817 16.8632 20.9654 17.1263C20.966 17.128 20.9667 17.1297 20.9676 17.1313C20.9683 17.1327 20.9689 17.1341 20.9694 17.1355C20.9714 17.1415 20.973 17.1469 20.975 17.1529C20.9753 17.1537 20.9757 17.1545 20.9761 17.1553L20.977 17.157C20.9788 17.1603 20.9802 17.1638 20.9811 17.1674C20.9827 17.1735 20.9843 17.1797 20.986 17.1862C20.9872 17.1906 20.991 17.1948 20.9921 17.1993C20.9933 17.2045 20.9932 17.2128 20.9921 17.2222C20.9921 17.2223 20.992 17.2224 20.9919 17.2223Z" fill="white"/>
</svg>
