<svg width="36" height="32" viewBox="0 0 36 32" fill="none" xmlns="http://www.w3.org/2000/svg">
<path d="M0 16C0 7.16344 7.16344 0 16 0H18C19.8574 0 20.786 0 21.5683 0.0770444C29.1647 0.825228 35.1748 6.83529 35.923 14.4317C36 15.214 36 16.1426 36 18V25.6C36 27.8402 36 28.9603 35.564 29.816C35.1805 30.5686 34.5686 31.1805 33.816 31.564C32.9603 32 31.8402 32 29.6 32H16C7.16344 32 0 24.8366 0 16Z" fill="#2A5ADA"/>
<path d="M18 7L16.3069 7.94954L11.6931 10.5505L10 11.5V20.5L11.6931 21.4495L16.3492 24.0505L18.0423 25L19.7354 24.0505L24.3069 21.4495L26 20.5V11.5L24.3069 10.5505L19.6931 7.94954L18 7ZM13.3862 18.6009V13.3991L18 10.7982L22.6138 13.3991V18.6009L18 21.2018L13.3862 18.6009Z" fill="white"/>
</svg>
