<svg width="36" height="32" viewBox="0 0 36 32" fill="none" xmlns="http://www.w3.org/2000/svg">
<path d="M0 16C0 7.16344 7.16344 0 16 0H18C19.8574 0 20.786 0 21.5683 0.0770444C29.1647 0.825228 35.1748 6.83529 35.923 14.4317C36 15.214 36 16.1426 36 18V25.6C36 27.8402 36 28.9603 35.564 29.816C35.1805 30.5686 34.5686 31.1805 33.816 31.564C32.9603 32 31.8402 32 29.6 32H16C7.16344 32 0 24.8366 0 16Z" fill="#2CA2EF"/>
<path fill-rule="evenodd" clip-rule="evenodd" d="M15.2983 10H20.6836C25.4144 10 26.2509 12.5812 25.5803 16.2084C25.128 18.646 24.0021 20.5136 22.1115 21.3856C21.2595 21.7787 20.4526 22 18.5584 22H13.1864L13.6321 19.5047L18.3533 19.5076C21.1943 19.5113 21.9523 18.281 22.3202 17.2003C22.4565 16.7976 22.7785 15.5481 22.7888 14.8093C22.8118 13.3681 22.1019 12.4998 19.7102 12.4998L14.8527 12.4924L15.2983 10ZM18.4875 14.7479C18.4875 14.7479 18.432 15.0403 18.2566 15.7694C18.2547 15.777 18.2529 15.7846 18.251 15.7923C18.1169 16.3502 17.9021 17.2432 16.5126 17.2432H11C11 17.2432 11.0555 16.9471 11.231 16.221C11.2328 16.2133 11.2347 16.2056 11.2365 16.1978C11.3707 15.6406 11.5857 14.7479 12.9757 14.7479H18.4875Z" fill="white"/>
</svg>
