<svg width="36" height="32" viewBox="0 0 36 32" fill="none" xmlns="http://www.w3.org/2000/svg">
<path d="M0 16C0 7.16344 7.16344 0 16 0H18C19.8574 0 20.786 0 21.5683 0.0770444C29.1647 0.825228 35.1748 6.83529 35.923 14.4317C36 15.214 36 16.1426 36 18V25.6C36 27.8402 36 28.9603 35.564 29.816C35.1805 30.5686 34.5686 31.1805 33.816 31.564C32.9603 32 31.8402 32 29.6 32H16C7.16344 32 0 24.8366 0 16Z" fill="#EED779"/>
<path fill-rule="evenodd" clip-rule="evenodd" d="M25.348 13.3002C24.2698 10.5158 21.6045 10 21.6045 10H14.0001L14.0295 12.8361H15.5439V19.169H14V22H21.394C23.176 22 24.6044 20.2092 24.6044 20.2092C26.8919 16.9626 25.3479 13.3002 25.3479 13.3002H25.348ZM21.4337 18.3012C21.4337 18.3012 20.8537 19.138 20.2227 19.138H18.9604L18.9304 12.843H20.5504C20.5504 12.843 21.3009 12.9999 21.8253 14.4852C21.8253 14.4852 22.5205 16.6118 21.4337 18.3012Z" fill="white"/>
</svg>
