<svg width="36" height="32" viewBox="0 0 36 32" fill="none" xmlns="http://www.w3.org/2000/svg">
<path d="M0 16C0 7.16344 7.16344 0 16 0H18C19.8574 0 20.786 0 21.5683 0.0770444C29.1647 0.825228 35.1748 6.83529 35.923 14.4317C36 15.214 36 16.1426 36 18V25.6C36 27.8402 36 28.9603 35.564 29.816C35.1805 30.5686 34.5686 31.1805 33.816 31.564C32.9603 32 31.8402 32 29.6 32H16C7.16344 32 0 24.8366 0 16Z" fill="#6198EE"/>
<path fill-rule="evenodd" clip-rule="evenodd" d="M17.9373 19.6495C17.8119 19.6495 17.7205 19.5308 17.7524 19.4096L18.4371 16.8075C18.453 16.7472 18.4972 16.6985 18.5557 16.6768L20.2098 16.0652C20.268 16.0437 20.3122 15.9953 20.3282 15.9354L20.7639 14.3089C20.7656 14.3025 20.7649 14.2957 20.7619 14.2898C20.7558 14.2774 20.7413 14.2716 20.7283 14.2764L19.2861 14.8064C19.141 14.8598 18.9958 14.7278 19.0352 14.5783L20.1776 10.2399C20.2095 10.1187 20.1181 10 19.9927 10H16.6763C16.5897 10 16.5139 10.0582 16.4916 10.1419L14.8385 16.3373C14.8225 16.3973 14.7783 16.4458 14.72 16.4673L13.4829 16.9245C13.4248 16.946 13.3807 16.9943 13.3646 17.0541L13.0068 18.3811C12.9665 18.5308 13.1116 18.6637 13.2571 18.6105L14.0028 18.3379C14.1484 18.2847 14.2935 18.4176 14.2531 18.5673L13.3933 21.759C13.3606 21.8805 13.4521 22 13.578 22H23.0788C23.1653 22 23.241 21.942 23.2635 21.8586L23.7943 19.8905C23.8271 19.769 23.7356 19.6495 23.6097 19.6495H17.9373Z" fill="white"/>
</svg>
