<svg width="36" height="32" viewBox="0 0 36 32" fill="none" xmlns="http://www.w3.org/2000/svg">
<path d="M0 16C0 7.16344 7.16344 0 16 0H18C19.8574 0 20.786 0 21.5683 0.0770444C29.1647 0.825228 35.1748 6.83529 35.923 14.4317C36 15.214 36 16.1426 36 18V25.6C36 27.8402 36 28.9603 35.564 29.816C35.1805 30.5686 34.5686 31.1805 33.816 31.564C32.9603 32 31.8402 32 29.6 32H16C7.16344 32 0 24.8366 0 16Z" fill="#00E599"/>
<path d="M12 10.8049V21.5077L18.9471 24V13.2103L26.463 10.4402L19.6418 8L12 10.8049Z" fill="white"/>
<path d="M19.5161 13.5177V19.3706L26.4632 21.8629V10.9473L19.5161 13.5177Z" fill="#CAEBE5"/>
</svg>
