<svg width="36" height="32" viewBox="0 0 36 32" fill="none" xmlns="http://www.w3.org/2000/svg">
<path d="M0 16C0 7.16344 7.16344 0 16 0H18C19.8574 0 20.786 0 21.5683 0.0770444C29.1647 0.825228 35.1748 6.83529 35.923 14.4317C36 15.214 36 16.1426 36 18V25.6C36 27.8402 36 28.9603 35.564 29.816C35.1805 30.5686 34.5686 31.1805 33.816 31.564C32.9603 32 31.8402 32 29.6 32H16C7.16344 32 0 24.8366 0 16Z" fill="#6199EF"/>
<path fill-rule="evenodd" clip-rule="evenodd" d="M13.3062 24C13.1371 24 13 23.8629 13 23.6938V8.4013C13 8.23064 13.14 8.093 13.3107 8.09452C17.014 8.12749 19.3635 7.8688 20.3591 8.09109C22.6132 8.59435 23.6557 10.03 23.7827 12.6545C23.9401 15.9002 22.3696 17.9701 20.3109 18.4603C19.5928 18.6313 18.3057 18.7212 16.4495 18.73C16.2804 18.7308 16.1429 18.8678 16.1429 19.0369V23.6938C16.1429 23.8629 16.0058 24 15.8367 24H13.3062ZM18.3815 10.4407C18.1581 10.3936 17.5628 10.3549 17.0591 10.3549H16.449C16.28 10.3549 16.1429 10.492 16.1429 10.6611V13.1612V15.6517C16.1429 15.8245 16.2859 15.9631 16.4587 15.9577L17.2737 15.9319C19.2822 15.8683 20.044 15.2856 20.1957 13.6966C20.3748 11.822 19.7688 10.7345 18.3815 10.4407Z" fill="white"/>
</svg>
