<svg width="36" height="32" viewBox="0 0 36 32" fill="none" xmlns="http://www.w3.org/2000/svg">
<path d="M0 16C0 7.16344 7.16344 0 16 0H18C19.8574 0 20.786 0 21.5683 0.0770444C29.1647 0.825228 35.1748 6.83529 35.923 14.4317C36 15.214 36 16.1426 36 18V25.6C36 27.8402 36 28.9603 35.564 29.816C35.1805 30.5686 34.5686 31.1805 33.816 31.564C32.9603 32 31.8402 32 29.6 32H16C7.16344 32 0 24.8366 0 16Z" fill="#E93F2F"/>
<path fill-rule="evenodd" clip-rule="evenodd" d="M18.0799 12.1289H17.5322H17.0042C16.8281 12.109 16.6129 12.109 16.3981 12.0897C16.3397 12.109 16.3194 12.1684 16.2999 12.2463C16.2805 12.3248 16.2999 12.3835 16.3397 12.442L16.5742 12.4617C16.867 12.5198 17.082 12.5785 17.2197 12.6377C17.356 12.7156 17.4535 12.8527 17.4932 13.0289C17.5322 13.2049 17.5516 13.4392 17.5322 13.7329C17.5123 14.1435 17.4932 14.6321 17.4737 15.1994C17.4535 15.7673 17.4148 16.354 17.3754 16.9604C17.3367 17.8983 17.2525 20.1833 16.9976 20.8599C16.9385 21.0162 16.8411 21.1143 16.7236 21.1738C16.5862 21.2317 16.4293 21.2904 16.2338 21.3107L15.92 21.3497C15.8616 21.3884 15.8417 21.4478 15.8616 21.5456C15.8616 21.6043 15.881 21.6626 15.9397 21.7217C16.1942 21.7023 16.4293 21.6825 16.684 21.6626H17.4289H18.2318C18.5253 21.6825 18.7801 21.7023 19.015 21.7217C19.0741 21.6825 19.1131 21.6239 19.1131 21.5456C19.1131 21.4666 19.0936 21.4084 19.0344 21.3497L18.4863 21.3107C18.3097 21.2904 18.1727 21.2516 18.0749 21.1738C18.0258 21.1339 17.9865 21.0795 17.957 21.0129C17.8414 20.735 17.8391 20.2644 17.8451 19.9724C17.8575 19.366 17.8649 18.7599 17.8842 18.1535C17.9039 17.5471 17.9233 17.0186 17.9426 16.5689C17.9617 16.1582 18.0018 15.7274 18.0209 15.2973C18.0405 14.8674 18.0597 14.4367 18.0799 14.0065H18.1187C18.2754 14.3387 18.4322 14.6716 18.569 15.043C18.7256 15.3953 18.8819 15.7475 19.0379 16.0803L20.3486 18.8764C20.4666 19.1119 20.6032 19.4054 20.7592 19.7573C20.9357 20.1288 21.1111 20.4807 21.2681 20.8325C21.3507 21.0189 21.4224 21.1939 21.4832 21.3579C21.4988 21.3579 21.6085 21.7184 21.6206 21.7603C21.696 21.8368 21.8194 21.8347 21.8949 21.7603C22.0165 21.4689 22.1435 21.1741 22.285 20.8919C22.6554 20.0603 23.0418 19.2661 23.4783 18.4664L24.7497 15.9432C24.8477 15.7274 24.9452 15.4929 25.0822 15.2388C25.2192 14.9651 25.3558 14.7108 25.4736 14.4957C25.5711 14.2608 25.6493 14.1045 25.688 14.0456H25.7079L25.7474 20.0903C25.7664 20.4028 25.7474 20.6367 25.7278 20.8127C25.7121 20.9528 25.6728 21.0858 25.5382 21.1539C25.4595 21.2516 25.3031 21.2904 25.0485 21.3107L24.6174 21.3497C24.5782 21.3884 24.5588 21.4478 24.5782 21.5456C24.5782 21.6043 24.5981 21.6626 24.657 21.7217C24.9503 21.7023 25.2633 21.6825 25.5573 21.6626H26.4197H27.2425C27.5358 21.6825 27.8296 21.7023 28.124 21.7217C28.1829 21.6825 28.2021 21.6239 28.2021 21.5456C28.2216 21.4666 28.2021 21.4084 28.163 21.3497L27.693 21.3107C27.4773 21.2904 27.3208 21.2317 27.2222 21.1337C27.1253 21.0362 27.0467 20.9185 27.0271 20.7617C27.0071 20.5859 26.9874 20.3697 26.9874 20.135C26.9473 19.4073 26.9203 18.6678 26.9013 17.9385C26.8814 17.1554 26.8421 16.4126 26.823 15.7091V13.8501C26.823 13.5178 26.8421 13.2634 26.8814 13.0676C26.9211 12.892 27.0188 12.7356 27.1554 12.6377C27.2927 12.5596 27.5269 12.5005 27.8398 12.4617L28.1335 12.442C28.173 12.4027 28.1921 12.3442 28.173 12.2463C28.173 12.1873 28.1531 12.1289 28.1143 12.0897C27.8792 12.109 27.6444 12.109 27.4294 12.1289H26.823H26.3734C26.1969 12.109 26.001 12.109 25.7474 12.0897C25.7278 12.4218 25.6104 12.7941 25.4343 13.2244C25.2192 13.6736 24.9653 14.2221 24.6523 14.8674L23.2827 17.6249C22.9275 18.3758 22.604 19.0903 22.169 19.8023H22.1299C21.7837 19.149 21.4647 18.4712 21.1507 17.8015L19.4883 14.4759C19.2734 14.0065 19.0776 13.557 18.9212 13.1462C18.784 12.7356 18.7256 12.3835 18.745 12.0897C18.5104 12.109 18.295 12.109 18.0799 12.1289ZM10.054 19.5642C10.054 20.0625 10.0343 20.4416 9.99444 20.7012C9.955 21.2041 9.62318 21.3688 9.15526 21.4011L8.85551 21.4409C8.75895 21.5377 8.76638 21.7474 8.87625 21.82C9.49428 21.7818 10.0532 21.7599 10.6733 21.7599C11.3345 21.7599 11.9508 21.789 12.61 21.82C12.6498 21.7801 12.6705 21.7203 12.6903 21.6406C12.6903 21.5409 12.6705 21.4804 12.6303 21.4409L12.2308 21.4011C11.9113 21.3805 11.6918 21.3205 11.572 21.2206C11.5648 21.2155 11.5577 21.2101 11.5507 21.2047C11.4298 21.1043 11.3434 20.951 11.307 20.7136C11.2674 20.4544 11.2474 20.0758 11.2674 19.5782V18.1815C10.8286 18.2016 10.4299 18.1815 10.0707 18.1217L10.054 19.5642ZM8.77438 12.2797C8.75471 12.3592 8.7948 12.4188 8.85456 12.4792L9.37312 12.5381C9.59224 12.5587 9.75198 12.6182 9.85149 12.7181C9.95104 12.7976 10.0112 12.9375 10.0308 13.1568C10.0511 13.3758 10.0707 13.6956 10.0707 14.1135V17.0647C10.4696 17.0851 10.8682 17.0851 11.2674 17.0647V12.9969C11.2474 12.8377 11.2674 12.7181 11.307 12.6182C11.3269 12.5587 11.4068 12.4983 11.5063 12.4792C11.6259 12.459 11.8257 12.459 12.0848 12.459C12.8423 12.4792 13.4206 12.678 13.8393 13.0968C14.2382 13.5152 14.4374 14.0938 14.4374 14.8121C14.4581 15.4499 14.2983 15.9883 13.9592 16.4266C13.6601 16.8062 13.2215 17.0851 12.623 17.2243C12.0451 17.3641 11.2276 17.4241 10.1306 17.4036C9.17328 17.3847 8.13656 17.3245 7 17.2049C8.25653 17.4641 9.19335 17.6432 9.79207 17.7029C10.7685 17.8232 11.7256 17.8027 12.623 17.6635C13.0816 17.6032 13.5005 17.4841 13.8794 17.3444C14.2382 17.185 14.5973 16.9657 14.9763 16.7063C15.1955 16.5467 15.3947 16.2867 15.5746 15.9483C15.7143 15.6295 15.7938 15.2505 15.8135 14.7915C15.7938 14.2929 15.6741 13.8552 15.455 13.4756C15.2355 13.0968 14.9763 12.7976 14.6371 12.579C14.2983 12.3793 13.8794 12.2191 13.4009 12.1194C12.9422 12.04 12.4037 12 11.7858 12C11.1872 12 10.649 12 10.1705 12.0197C9.69196 12.04 9.25332 12.0598 8.87401 12.0996C8.81451 12.14 8.77438 12.1996 8.77438 12.2797Z" fill="white"/>
</svg>
