<svg width="36" height="32" viewBox="0 0 36 32" fill="none" xmlns="http://www.w3.org/2000/svg">
<path d="M0 16C0 7.16344 7.16344 0 16 0H18C19.8574 0 20.786 0 21.5683 0.0770444C29.1647 0.825228 35.1748 6.83529 35.923 14.4317C36 15.214 36 16.1426 36 18V25.6C36 27.8402 36 28.9603 35.564 29.816C35.1805 30.5686 34.5686 31.1805 33.816 31.564C32.9603 32 31.8402 32 29.6 32H16C7.16344 32 0 24.8366 0 16Z" fill="#E8EBEC"/>
<path d="M18.0669 6C14.0983 6.01594 10.8851 9.2292 10.8691 13.1978C10.8691 13.9925 10.9974 14.782 11.2487 15.5358C11.4362 16.0489 11.9926 16.3252 12.5149 16.1666C13.0197 15.973 13.2876 15.4211 13.1267 14.905C12.9134 14.3174 12.8185 13.6942 12.8466 13.0702C12.9331 10.2039 15.3266 7.95012 18.1929 8.03666C21.0593 8.12319 23.313 10.5166 23.2265 13.383C23.1453 16.0664 21.0319 18.2457 18.3516 18.409C18.3516 18.409 17.3412 18.4704 16.8387 18.5319C16.6535 18.5585 16.4698 18.5949 16.2883 18.6412C16.2625 18.6678 16.2208 18.6678 16.1942 18.642L16.1934 18.6412C16.1752 18.6177 16.1752 18.5843 16.1934 18.5608L16.3498 17.7075L17.2987 13.4399C17.4126 12.907 17.0732 12.3825 16.5404 12.2686C16.0075 12.1548 15.4829 12.4941 15.3691 13.027C15.3691 13.027 13.1123 23.4729 13.1123 23.5678C12.9832 24.0756 13.2899 24.5918 13.7977 24.7208C13.803 24.7224 13.8091 24.7239 13.8144 24.7246H13.8668C14.3739 24.856 14.8916 24.5508 15.0222 24.0437C15.0244 24.0354 15.0267 24.027 15.0282 24.0179C15.0267 24.002 15.0267 23.986 15.0282 23.9709C15.0563 23.8479 15.341 22.458 15.341 22.458C15.5566 21.4089 16.4022 20.605 17.4604 20.4426C17.6782 20.4092 18.5937 20.3477 18.5937 20.3477C22.5471 19.9537 25.4324 16.4292 25.0377 12.4759C24.6779 8.87014 21.6908 6.09413 18.0669 6Z" fill="#1E1E1E"/>
<path d="M18.5034 22.5957C17.8544 22.4606 17.2198 22.8774 17.0847 23.5257C17.0831 23.5317 17.0824 23.5378 17.0809 23.5439C16.9404 24.1884 17.3488 24.8253 17.9941 24.9657C17.9948 24.9657 17.9956 24.9657 17.9963 24.9665H18.0297C18.6613 25.119 19.2967 24.7304 19.4485 24.0995C19.45 24.095 19.4508 24.0897 19.4523 24.0851V24.0191C19.5639 23.3678 19.1479 22.743 18.5034 22.5957Z" fill="#E6007A"/>
</svg>
