<svg width="36" height="32" viewBox="0 0 36 32" fill="none" xmlns="http://www.w3.org/2000/svg">
<path d="M0 16C0 7.16344 7.16344 0 16 0H18C19.8574 0 20.786 0 21.5683 0.0770444C29.1647 0.825228 35.1748 6.83529 35.923 14.4317C36 15.214 36 16.1426 36 18V25.6C36 27.8402 36 28.9603 35.564 29.816C35.1805 30.5686 34.5686 31.1805 33.816 31.564C32.9603 32 31.8402 32 29.6 32H16C7.16344 32 0 24.8366 0 16Z" fill="#E8EAEB"/>
<path fill-rule="evenodd" clip-rule="evenodd" d="M23.219 11.8472L25.2114 10.8321L27.5469 9.64059V11.0701L25.1911 12.2708L24.0514 12.8511L13.9088 18.019L13.3438 18.3068L12.7705 18.5994L11 19.5018V18.0715L11.6014 17.7649C11.8252 17.6509 12.0103 17.4732 12.1334 17.2542C12.2564 17.0352 12.312 16.7847 12.293 16.5342C12.2795 16.3573 12.2727 16.1797 12.2727 16.0014C12.2726 14.7106 12.6294 13.4448 13.3036 12.344C13.9779 11.2432 14.9434 10.3503 16.0934 9.76396C17.2434 9.17758 18.5331 8.92059 19.82 9.02137C21.107 9.12216 22.341 9.57681 23.3856 10.3351L23.2155 10.4219L22.0751 11.0029C21.2033 10.516 20.2195 10.2654 19.221 10.2757C18.2226 10.2861 17.2441 10.5571 16.3826 11.0619C15.5211 11.5668 14.8065 12.2879 14.3095 13.1539C13.8124 14.02 13.5503 15.0008 13.549 15.9993C13.5491 16.2496 13.5654 16.4996 13.598 16.7477L23.219 11.8472ZM14.485 19.1518L27.5469 12.5011V13.9265L26.9448 14.2331C26.7212 14.3473 26.5363 14.5251 26.4133 14.7441C26.2904 14.963 26.2349 15.2134 26.2538 15.4638C26.2671 15.6417 26.2741 15.8216 26.2741 16.0015C26.2737 17.2922 25.9165 18.5576 25.242 19.658C24.5674 20.7584 23.6018 21.6509 22.4518 22.2369C21.3018 22.8228 20.0122 23.0795 18.7254 22.9784C17.4387 22.8774 16.205 22.4226 15.1605 21.6644L16.3968 21.0343L16.4669 20.9972C17.3388 21.4861 18.3235 21.7384 19.3231 21.7292C20.3227 21.7199 21.3026 21.4493 22.1653 20.9443C23.028 20.4393 23.7437 19.7174 24.2412 18.8504C24.7387 17.9833 25.0008 17.0012 25.0014 16.0015C25.0013 15.7496 24.985 15.498 24.9524 15.2482L15.3215 20.1557L13.3291 21.1708L11 22.3574V20.9286L13.3452 19.7336L14.485 19.1518Z" fill="black"/>
</svg>
