<svg width="36" height="32" viewBox="0 0 36 32" fill="none" xmlns="http://www.w3.org/2000/svg">
<path d="M0 16C0 7.16344 7.16344 0 16 0H18C19.8574 0 20.786 0 21.5683 0.0770444C29.1647 0.825228 35.1748 6.83529 35.923 14.4317C36 15.214 36 16.1426 36 18V25.6C36 27.8402 36 28.9603 35.564 29.816C35.1805 30.5686 34.5686 31.1805 33.816 31.564C32.9603 32 31.8402 32 29.6 32H16C7.16344 32 0 24.8366 0 16Z" fill="#52CAA7"/>
<path fill-rule="evenodd" clip-rule="evenodd" d="M20.3013 17.3168C20.2241 17.3225 19.8252 17.3463 18.9352 17.3463C18.2274 17.3463 17.7249 17.3251 17.5485 17.3168C14.8131 17.1964 12.7714 16.7202 12.7714 16.1501C12.7714 15.58 14.8131 15.1045 17.5485 14.9822V16.8425C17.7274 16.8554 18.2396 16.8856 18.9475 16.8856C19.7969 16.8856 20.2222 16.8502 20.2988 16.8431V14.9835C23.0284 15.1051 25.0657 15.5813 25.0657 16.1501C25.0657 16.719 23.0291 17.1951 20.2988 17.3161L20.3013 17.3168ZM20.3013 14.7911V13.1264H24.1107V10.5879H13.7392V13.1264H17.5479V14.7905C14.4521 14.9327 12.124 15.5459 12.124 16.2807C12.124 17.0156 14.4521 17.6282 17.5479 17.771V23.1055H20.3007V17.7691C23.3894 17.6269 25.7136 17.0143 25.7136 16.2801C25.7136 15.5459 23.3913 14.9333 20.3007 14.7905L20.3013 14.7911Z" fill="white"/>
</svg>
