<svg width="36" height="32" viewBox="0 0 36 32" fill="none" xmlns="http://www.w3.org/2000/svg">
<path d="M0 16C0 7.16344 7.16344 0 16 0H18C19.8574 0 20.786 0 21.5683 0.0770444C29.1647 0.825228 35.1748 6.83529 35.923 14.4317C36 15.214 36 16.1426 36 18V25.6C36 27.8402 36 28.9603 35.564 29.816C35.1805 30.5686 34.5686 31.1805 33.816 31.564C32.9603 32 31.8402 32 29.6 32H16C7.16344 32 0 24.8366 0 16Z" fill="#F02E1A"/>
<path d="M26.7824 12.8201C25.9933 12.1277 24.9016 11.0702 24.0126 10.3202L23.96 10.2852C23.8724 10.2184 23.7737 10.166 23.668 10.1302C21.5242 9.75019 11.5471 7.97771 11.3525 8.00021C11.2979 8.00747 11.2458 8.02627 11.1999 8.05521L11.1499 8.09271C11.0884 8.15211 11.0417 8.22387 11.0132 8.30271L11 8.33521V8.51271V8.54021C12.1232 11.5127 16.558 21.25 17.4313 23.535C17.4839 23.69 17.5839 23.985 17.7706 24H17.8127C17.9127 24 18.3388 23.465 18.3388 23.465C18.3388 23.465 25.9564 14.6851 26.7271 13.7501C26.8269 13.635 26.915 13.5111 26.9902 13.3801C27.0094 13.2777 27.0003 13.1723 26.9639 13.0741C26.9275 12.976 26.865 12.8885 26.7824 12.8201ZM20.2932 13.8426L23.5444 11.2802L25.4514 12.9501L20.2932 13.8426ZM19.0306 13.6751L13.4331 9.31519L22.4896 10.9027L19.0306 13.6751ZM19.5356 14.8176L25.2646 13.9401L18.715 21.44L19.5356 14.8176ZM12.6729 9.75019L18.5624 14.5001L17.7101 21.445L12.6729 9.75019Z" fill="white"/>
</svg>
