<svg width="36" height="32" viewBox="0 0 36 32" fill="none" xmlns="http://www.w3.org/2000/svg">
<path d="M0 16C0 7.16344 7.16344 0 16 0H18C19.8574 0 20.786 0 21.5683 0.0770444C29.1647 0.825228 35.1748 6.83529 35.923 14.4317C36 15.214 36 16.1426 36 18V25.6C36 27.8402 36 28.9603 35.564 29.816C35.1805 30.5686 34.5686 31.1805 33.816 31.564C32.9603 32 31.8402 32 29.6 32H16C7.16344 32 0 24.8366 0 16Z" fill="#E2408D"/>
<path d="M16.4674 10.3206C16.2616 10.2912 16.2518 10.2814 16.3498 10.2716C16.536 10.2422 16.9671 10.2814 17.2709 10.35C17.9764 10.5166 18.6133 10.9477 19.2894 11.7022L19.4658 11.908L19.7206 11.8688C20.8083 11.6924 21.9253 11.8296 22.8562 12.2608C23.111 12.3783 23.5127 12.6135 23.5617 12.6723C23.5813 12.6919 23.6107 12.8193 23.6303 12.9467C23.6989 13.4072 23.6695 13.7502 23.5225 14.0148C23.4442 14.1617 23.4442 14.2009 23.4931 14.3283C23.5323 14.4263 23.6499 14.4949 23.7577 14.4949C23.9929 14.4949 24.2379 14.1225 24.3554 13.6032L24.4044 13.3974L24.4926 13.4954C24.9924 14.0539 25.3843 14.8281 25.4431 15.3768L25.4627 15.5238L25.3745 15.3964C25.2275 15.171 25.0904 15.024 24.9042 14.8966C24.571 14.6713 24.2183 14.6027 23.2874 14.5537C22.4447 14.5047 21.9645 14.4361 21.4942 14.2793C20.6907 14.0148 20.2791 13.6718 19.3286 12.4077C18.9073 11.8492 18.6427 11.5454 18.3781 11.2907C17.8 10.7321 17.2219 10.4382 16.4674 10.3206Z" fill="white"/>
<path d="M23.7673 11.5659C23.7869 11.1936 23.8359 10.9486 23.9436 10.7232C23.9828 10.635 24.022 10.5566 24.0318 10.5566C24.0416 10.5566 24.022 10.6252 23.9926 10.7036C23.9143 10.9192 23.9045 11.223 23.9534 11.5659C24.022 12.0069 24.0514 12.0657 24.5218 12.5458C24.7374 12.7712 24.9921 13.0553 25.0901 13.1729L25.2567 13.3885L25.0901 13.2317C24.8843 13.0358 24.414 12.6634 24.3062 12.6144C24.2376 12.5752 24.2278 12.5752 24.1788 12.6242C24.1396 12.6634 24.1298 12.7222 24.1298 13.0064C24.12 13.4473 24.0612 13.7217 23.9143 14.0058C23.8359 14.1528 23.8261 14.1234 23.8947 13.9568C23.9436 13.8295 23.9534 13.7707 23.9534 13.3493C23.9534 12.4968 23.8555 12.291 23.2577 11.9481C23.1107 11.8599 22.856 11.7325 22.709 11.6639C22.5522 11.5953 22.4346 11.5365 22.4444 11.5365C22.464 11.5169 23.0421 11.6835 23.2675 11.7815C23.6105 11.9187 23.6693 11.9285 23.7085 11.9187C23.7379 11.8893 23.7575 11.8109 23.7673 11.5659Z" fill="white"/>
<path d="M16.8696 13.0254C16.4581 12.4571 16.1935 11.5752 16.2523 10.9187L16.2719 10.7129L16.3699 10.7325C16.5463 10.7619 16.85 10.8795 16.997 10.9677C17.389 11.2028 17.5653 11.5262 17.7319 12.3297C17.7809 12.5649 17.8495 12.8392 17.8789 12.9274C17.9279 13.0744 18.1141 13.4174 18.2709 13.6329C18.3786 13.7897 18.3101 13.8681 18.0651 13.8485C17.6927 13.8093 17.193 13.4664 16.8696 13.0254Z" fill="white"/>
<path d="M23.2677 17.2892C21.3275 16.5053 20.6416 15.8291 20.6416 14.6827C20.6416 14.5161 20.6514 14.3789 20.6514 14.3789C20.6612 14.3789 20.7298 14.4377 20.818 14.5063C21.2099 14.8199 21.6509 14.957 22.8757 15.1334C23.5911 15.2412 24.0026 15.3196 24.375 15.447C25.5606 15.8389 26.2955 16.6424 26.4719 17.7301C26.5209 18.0437 26.4915 18.6414 26.4131 18.955C26.3445 19.1999 26.1486 19.6507 26.0996 19.6605C26.0898 19.6605 26.0702 19.6115 26.0702 19.5331C26.0506 19.1216 25.8448 18.7296 25.5018 18.4258C25.0903 18.0731 24.5611 17.8085 23.2677 17.2892Z" fill="white"/>
<path d="M21.8959 17.6113C21.8763 17.4643 21.8273 17.2781 21.7979 17.1997L21.7489 17.0527L21.8371 17.1605C21.9645 17.3075 22.0625 17.4839 22.1507 17.7289C22.2192 17.915 22.2192 17.9738 22.2192 18.2776C22.2192 18.5716 22.2094 18.6401 22.1507 18.8067C22.0527 19.0713 21.9351 19.2575 21.7391 19.4633C21.3863 19.8258 20.9258 20.0218 20.2693 20.11C20.1517 20.1198 19.8185 20.1492 19.5246 20.1688C18.7896 20.208 18.2997 20.2864 17.8588 20.4431C17.8 20.4627 17.7412 20.4823 17.7314 20.4725C17.7118 20.4529 18.0155 20.2766 18.2605 20.159C18.6035 19.9924 18.9562 19.9042 19.7303 19.767C20.1125 19.7082 20.5044 19.6298 20.6024 19.5906C21.5725 19.2869 22.0527 18.5324 21.8959 17.6113Z" fill="white"/>
<path d="M22.7884 19.1893C22.5337 18.6308 22.4749 18.1016 22.6121 17.6019C22.6317 17.5529 22.6513 17.5039 22.6709 17.5039C22.6905 17.5039 22.7492 17.5333 22.808 17.5725C22.9256 17.6509 23.1706 17.7881 23.7977 18.131C24.5914 18.5622 25.0422 18.8953 25.3557 19.2775C25.6301 19.6107 25.7967 19.9928 25.8751 20.4632C25.9241 20.7277 25.8947 21.3647 25.8261 21.6292C25.6105 22.4621 25.1206 23.1285 24.4052 23.5106C24.2975 23.5694 24.2093 23.6086 24.1995 23.6086C24.1897 23.6086 24.2289 23.5106 24.2877 23.393C24.5228 22.8933 24.5522 22.4131 24.3758 21.8742C24.2681 21.541 24.0427 21.1393 23.5919 20.4632C23.053 19.6793 22.9256 19.4735 22.7884 19.1893Z" fill="white"/>
<path d="M15.4875 22.188C16.2126 21.5805 17.1043 21.1493 17.9274 21.0121C18.2802 20.9533 18.8681 20.9729 19.1915 21.0611C19.7108 21.1983 20.1812 21.4923 20.4261 21.8548C20.6613 22.2076 20.7691 22.5113 20.8769 23.1875C20.9161 23.452 20.9651 23.7264 20.9749 23.7852C21.0533 24.138 21.21 24.4123 21.406 24.5593C21.7098 24.7847 22.2389 24.7945 22.7583 24.5985C22.8465 24.5691 22.9248 24.5397 22.9248 24.5495C22.9444 24.5691 22.6799 24.7455 22.5035 24.8337C22.2585 24.9611 22.0625 25.0003 21.798 25.0003C21.3276 25.0003 20.9259 24.7553 20.6025 24.2653C20.5339 24.1674 20.3967 23.8832 20.2792 23.6186C19.9362 22.8249 19.7598 22.5897 19.3581 22.3252C19.0053 22.0998 18.5546 22.0508 18.2116 22.2174C17.7608 22.433 17.6433 23.0111 17.9568 23.3638C18.0842 23.5108 18.3194 23.6284 18.5154 23.6578C18.8779 23.7068 19.1915 23.4226 19.1915 23.0601C19.1915 22.8249 19.1033 22.6877 18.8681 22.5799C18.5546 22.4428 18.2116 22.5995 18.2214 22.9033C18.2214 23.0307 18.2802 23.1091 18.4076 23.1679C18.486 23.2071 18.486 23.2071 18.4272 23.1973C18.143 23.1385 18.0744 22.7857 18.2998 22.5603C18.5742 22.286 19.1523 22.4036 19.3483 22.7857C19.4267 22.9425 19.4365 23.2561 19.3679 23.452C19.2013 23.8832 18.7309 24.1086 18.2508 23.9812C17.9274 23.893 17.7902 23.8048 17.3983 23.403C16.7124 22.6975 16.4478 22.5603 15.4679 22.4134L15.2817 22.384L15.4875 22.188Z" fill="white"/>
<path fill-rule="evenodd" clip-rule="evenodd" d="M10.3336 6.42135C12.6167 9.19443 16.1345 13.5059 16.3109 13.7411C16.4579 13.9371 16.3991 14.1232 16.1541 14.2604C16.0169 14.3388 15.7328 14.4172 15.5956 14.4172C15.4388 14.4172 15.2526 14.3388 15.1252 14.2114C15.037 14.1232 14.6549 13.5647 13.7926 12.2223C13.1361 11.1934 12.5775 10.3409 12.5677 10.3311C12.5285 10.3115 12.5285 10.3115 13.724 12.4476C14.4785 13.7901 14.7235 14.2702 14.7235 14.329C14.7235 14.4564 14.6843 14.525 14.5275 14.7014C14.2629 14.9953 14.1454 15.3285 14.0572 16.0242C13.9592 16.7983 13.6946 17.3471 12.9401 18.278C12.4991 18.8267 12.4306 18.9247 12.3228 19.1501C12.1856 19.4244 12.1464 19.5812 12.1268 19.934C12.1072 20.3063 12.1464 20.5415 12.2542 20.8943C12.3522 21.2078 12.4599 21.4136 12.7245 21.8153C12.9499 22.1681 13.0871 22.4327 13.0871 22.5307C13.0871 22.6091 13.1067 22.6091 13.4594 22.5307C14.3021 22.3347 14.9979 22.0015 15.38 21.59C15.6152 21.3352 15.674 21.198 15.674 20.8453C15.674 20.6199 15.6642 20.5709 15.6054 20.4337C15.5074 20.2181 15.3212 20.0418 14.9195 19.7674C14.3903 19.4048 14.1649 19.1109 14.1062 18.7189C14.0572 18.3857 14.116 18.1604 14.4099 17.543C14.7137 16.9061 14.7921 16.6416 14.8411 15.9948C14.8705 15.5833 14.9195 15.4167 15.037 15.2893C15.1644 15.1521 15.2722 15.1031 15.576 15.0639C16.0757 14.9953 16.3991 14.868 16.6539 14.623C16.8792 14.4172 16.9772 14.2114 16.987 13.9077L16.9968 13.6823L16.8694 13.5451C16.4089 13.016 10.0298 6 10.0004 6C9.99064 6 10.1474 6.18618 10.3336 6.42135ZM13.3418 20.3553C13.4496 20.1691 13.3908 19.934 13.2145 19.8164C13.0479 19.7086 12.7931 19.7576 12.7931 19.9046C12.7931 19.9438 12.8127 19.983 12.8715 20.0026C12.9597 20.0516 12.9695 20.1005 12.9009 20.2083C12.8323 20.3161 12.8323 20.4141 12.9205 20.4827C13.0577 20.5905 13.2439 20.5317 13.3418 20.3553Z" fill="white"/>
<path fill-rule="evenodd" clip-rule="evenodd" d="M17.3108 15.2017C17.0757 15.2703 16.8503 15.525 16.7817 15.7798C16.7425 15.9366 16.7621 16.2208 16.8307 16.309C16.9385 16.4461 17.0365 16.4853 17.3108 16.4853C17.8498 16.4853 18.3103 16.2502 18.3593 15.966C18.4083 15.7308 18.2025 15.4075 17.9184 15.2605C17.7714 15.1821 17.4676 15.1527 17.3108 15.2017ZM17.938 15.6916C18.0163 15.574 17.987 15.4467 17.84 15.3585C17.5754 15.1919 17.1736 15.3291 17.1736 15.5838C17.1736 15.7112 17.3794 15.8484 17.5754 15.8484C17.7028 15.8484 17.8792 15.77 17.938 15.6916Z" fill="white"/>
</svg>
