<svg width="36" height="32" viewBox="0 0 36 32" fill="none" xmlns="http://www.w3.org/2000/svg">
<path d="M0 16C0 7.16344 7.16344 0 16 0H18C19.8574 0 20.786 0 21.5683 0.0770444C29.1647 0.825228 35.1748 6.83529 35.923 14.4317C36 15.214 36 16.1426 36 18V25.6C36 27.8402 36 28.9603 35.564 29.816C35.1805 30.5686 34.5686 31.1805 33.816 31.564C32.9603 32 31.8402 32 29.6 32H16C7.16344 32 0 24.8366 0 16Z" fill="#17BCFE"/>
<path fill-rule="evenodd" clip-rule="evenodd" d="M17.2864 23.2799L17.2851 23.2772L17.2859 23.28L10.0366 8.52296C10.0221 8.49159 10.0123 8.45949 10.007 8.4274C9.97968 8.29408 10.0346 8.15949 10.1361 8.0779C10.1875 8.03576 10.2514 8.00773 10.323 8H10.3575H12.8694H12.8773M12.8796 8.00015C13.0105 8.00389 13.132 8.07926 13.1898 8.19407L18.4839 18.9061C18.956 19.8671 20.3212 19.8671 20.7933 18.9061L26.0705 8.20255C26.1298 8.08475 26.2561 8.00847 26.3908 8.00847H26.7027C26.8883 8.00847 27.0061 8.20255 26.9222 8.36272L19.5967 23.2799C19.1246 24.2401 17.7585 24.2401 17.2864 23.2799" fill="white"/>
</svg>
