<svg width="36" height="32" viewBox="0 0 36 32" fill="none" xmlns="http://www.w3.org/2000/svg">
<path d="M0 16C0 7.16344 7.16344 0 16 0H18C19.8574 0 20.786 0 21.5683 0.0770444C29.1647 0.825228 35.1748 6.83529 35.923 14.4317C36 15.214 36 16.1426 36 18V25.6C36 27.8402 36 28.9603 35.564 29.816C35.1805 30.5686 34.5686 31.1805 33.816 31.564C32.9603 32 31.8402 32 29.6 32H16C7.16344 32 0 24.8366 0 16Z" fill="#E8EBEC"/>
<path fill-rule="evenodd" clip-rule="evenodd" d="M27.2881 9H24.9293L21.1971 12.6921C20.6537 13.2276 19.9214 13.5278 19.1585 13.5278C18.3956 13.5278 17.6633 13.2276 17.1199 12.6921L13.3906 9H11.0299L15.9406 13.8603C17.7195 15.6195 20.6016 15.6195 22.3793 13.8603L27.2881 9ZM11 22.515H13.3603L17.1229 18.793C17.6662 18.2574 18.3985 17.9572 19.1614 17.9572C19.9244 17.9572 20.6566 18.2574 21.2 18.793L24.9612 22.515H27.32L22.3794 17.6247C20.6004 15.8656 17.7183 15.8656 15.9406 17.6247L11 22.515Z" fill="#504B54"/>
</svg>
