<svg width="36" height="32" viewBox="0 0 36 32" fill="none" xmlns="http://www.w3.org/2000/svg">
<path d="M0 16C0 7.16344 7.16344 0 16 0H18C19.8574 0 20.786 0 21.5683 0.0770444C29.1647 0.825228 35.1748 6.83529 35.923 14.4317C36 15.214 36 16.1426 36 18V25.6C36 27.8402 36 28.9603 35.564 29.816C35.1805 30.5686 34.5686 31.1805 33.816 31.564C32.9603 32 31.8402 32 29.6 32H16C7.16344 32 0 24.8366 0 16Z" fill="#E7AC3F"/>
<path d="M18.3777 18.7097H23.0255V21.0337H20.2831V23H17.8983V21.0946H15.0381C15.0381 20.3186 14.9203 19.5467 15.099 18.8316C15.1599 18.4741 15.5744 18.1165 15.875 17.7591C16.7688 16.6865 17.6626 15.6139 18.6174 14.5413C18.9749 14.1229 19.3324 13.7653 19.7509 13.29H15.2819V10.9661H17.9023V9H20.2263V10.9049H23.0864C23.0864 11.6808 23.2042 12.4528 23.0255 13.1678C22.9646 13.5254 22.5501 13.8829 22.2495 14.2404C21.3557 15.313 20.4619 16.3856 19.5071 17.4581C19.1495 17.8769 18.7921 18.2912 18.3777 18.7097Z" fill="white"/>
</svg>
