<svg width="56" height="50" viewBox="0 0 56 50" fill="none" xmlns="http://www.w3.org/2000/svg">
<path d="M0 24.5614C0 20.3231 0 18.2039 0.320004 16.4366C1.80606 8.22937 8.22937 1.80606 16.4366 0.320004C18.2039 0 20.3231 0 24.5614 0H28C35.4451 0 39.1677 0 42.1803 0.97887C48.2691 2.95723 53.0428 7.7309 55.0211 13.8197C56 16.8323 56 20.5549 56 28V42.7228C56 44.963 56 46.0831 55.564 46.9388C55.1805 47.6914 54.5686 48.3033 53.816 48.6868C52.9603 49.1228 51.8402 49.1228 49.6 49.1228H24.5614C20.3231 49.1228 18.2039 49.1228 16.4366 48.8028C8.22937 47.3167 1.80606 40.8934 0.320004 32.6862C0 30.9189 0 28.7997 0 24.5614Z" fill="#FED215"/>
<path d="M0 24.5614C0 20.3231 0 18.2039 0.320004 16.4366C1.80606 8.22937 8.22937 1.80606 16.4366 0.320004C18.2039 0 20.3231 0 24.5614 0H28C35.4451 0 39.1677 0 42.1803 0.97887C48.2691 2.95723 53.0428 7.7309 55.0211 13.8197C56 16.8323 56 20.5549 56 28V42.7228C56 44.963 56 46.0831 55.564 46.9388C55.1805 47.6914 54.5686 48.3033 53.816 48.6868C52.9603 49.1228 51.8402 49.1228 49.6 49.1228H24.5614C20.3231 49.1228 18.2039 49.1228 16.4366 48.8028C8.22937 47.3167 1.80606 40.8934 0.320004 32.6862C0 30.9189 0 28.7997 0 24.5614Z" fill="url(#paint0_linear)" fill-opacity="0.4" style="mix-blend-mode:soft-light"/>
<path fill-rule="evenodd" clip-rule="evenodd" d="M28 1.2H24.5614C20.2707 1.2 18.285 1.20484 16.6504 1.5008C8.93561 2.8977 2.8977 8.93561 1.5008 16.6504C1.20484 18.285 1.2 20.2707 1.2 24.5614C1.2 28.8521 1.20484 30.8378 1.5008 32.4724C2.8977 40.1872 8.93561 46.2251 16.6504 47.622C18.285 47.918 20.2707 47.9228 24.5614 47.9228H49.6C50.7399 47.9228 51.5227 47.9219 52.1295 47.8723C52.7223 47.8239 53.0407 47.7351 53.2712 47.6176C53.798 47.3492 54.2264 46.9208 54.4948 46.394C54.6122 46.1635 54.7011 45.8451 54.7495 45.2523C54.7991 44.6455 54.8 43.8627 54.8 42.7228V28C54.8 20.4615 54.7852 16.9768 53.8799 14.1905C52.0202 8.46705 47.533 3.97979 41.8095 2.12014C39.0232 1.2148 35.5385 1.2 28 1.2ZM0.320004 16.4366C0 18.2039 0 20.3231 0 24.5614C0 28.7997 0 30.9189 0.320004 32.6862C1.80606 40.8934 8.22937 47.3167 16.4366 48.8028C18.2039 49.1228 20.3231 49.1228 24.5614 49.1228H49.6C51.8402 49.1228 52.9603 49.1228 53.816 48.6868C54.5686 48.3033 55.1805 47.6914 55.564 46.9388C56 46.0831 56 44.963 56 42.7228V28C56 20.5549 56 16.8323 55.0211 13.8197C53.0428 7.7309 48.2691 2.95723 42.1803 0.97887C39.1677 0 35.4451 0 28 0H24.5614C20.3231 0 18.2039 0 16.4366 0.320004C8.22937 1.80606 1.80606 8.22937 0.320004 16.4366Z" fill="url(#paint1_linear)"/>
<path d="M24.3702 16.0436C24.2504 17.9127 24.1905 21.4831 24.1905 26.7548C24.1905 32.0265 24.3941 35.3094 24.8015 36.6033C24.0107 36.843 23.2799 36.9628 22.6089 36.9628C21.938 36.9628 21.3988 36.9388 20.9915 36.8909C21.327 34.0873 21.4947 30.4211 21.4947 25.8922C21.4947 21.3393 21.4108 18.0565 21.2431 16.0436C17.9602 16.1874 15.8396 16.3552 14.8811 16.5469C14.7852 16.2114 14.7373 15.7561 14.7373 15.181C14.7373 14.6059 14.8332 14.0068 15.0249 13.3838C16.7981 13.5995 18.9427 13.7073 21.4587 13.7073C26.5388 13.7073 29.6778 13.5396 30.8759 13.2041C30.9718 13.6354 31.0197 14.1147 31.0197 14.6418C31.0197 15.169 30.9239 15.7441 30.7322 16.3671C28.8871 16.1994 26.7664 16.0916 24.3702 16.0436Z" fill="#171717"/>
<path d="M38.4957 27.4734C38.4957 31.4032 38.7114 34.3985 39.1427 36.4592C38.28 36.6989 37.5013 36.8187 36.8063 36.8187C36.1114 36.8187 35.6202 36.7947 35.3327 36.7468C35.6921 33.4879 35.8718 30.5046 35.8718 27.7969C35.8718 25.0651 35.6562 22.5371 35.2248 20.2128C36.0395 19.9731 36.7704 19.8533 37.4174 19.8533C38.0644 19.8533 38.6035 19.9013 39.0348 19.9971C38.6754 23.7113 38.4957 26.2034 38.4957 27.4734ZM39.1786 14.6415C39.1786 16.1272 38.4118 16.87 36.8782 16.87C35.6801 16.87 35.0811 16.259 35.0811 15.0369C35.0811 13.5273 35.8478 12.7725 37.3814 12.7725C38.5796 12.7725 39.1786 13.3955 39.1786 14.6415Z" fill="#171717"/>
<defs>
<linearGradient id="paint0_linear" x1="56.7778" y1="50.2786" x2="9.38896" y2="-11.7699" gradientUnits="userSpaceOnUse">
<stop stop-color="#826C00"/>
<stop offset="1" stop-color="#473900"/>
</linearGradient>
<linearGradient id="paint1_linear" x1="-4.47222" y1="-7.5129" x2="70.695" y2="25.2713" gradientUnits="userSpaceOnUse">
<stop stop-color="#FFCB00"/>
<stop offset="1" stop-color="#E8BE06"/>
</linearGradient>
</defs>
</svg>
