<svg width="18" height="16" viewBox="0 0 18 16" fill="none" xmlns="http://www.w3.org/2000/svg">
<path d="M15.7805 0.698938C13.1673 2.87687 12.6856 3.27407 10.6614 5.97904C9.76878 7.1721 8.77608 8.57633 8.12718 9.90211C7.75674 10.6051 7.08895 11.7036 6.86129 12.7598C5.61616 11.6443 4.27872 10.3781 2.91031 9.38641C1.93496 8.67982 -0.874339 10.1204 0.269203 10.949C2.31872 12.4335 4.02319 14.2825 6.01665 15.8331C6.85045 16.481 8.69833 15.074 9.13258 14.4838C10.558 12.5391 10.7528 10.1619 11.7917 8.04064C13.3778 4.79642 14.4617 3.80745 17.2391 1.49322C19.0792 -0.159468 17.1787 -0.464295 15.7833 0.698938" fill="#B0855F"/>
</svg>
