<svg width="59" height="50" viewBox="0 0 59 50" fill="none" xmlns="http://www.w3.org/2000/svg">
<path d="M11.7955 35.3541C11.5452 35.4709 11.4365 35.7686 11.5581 36.0165C13.9255 40.8393 17.7863 44.7756 22.5726 47.2354C27.5072 49.7715 33.1453 50.594 38.5988 49.5734C44.0523 48.5528 49.0114 45.7471 52.695 41.5982C56.3785 37.4492 58.5773 32.1928 58.945 26.6568C59.3127 21.1209 57.8284 15.6198 54.7259 11.0202C51.6234 6.42052 47.079 2.98359 41.8084 1.2507C36.5378 -0.482194 30.8404 -0.412585 25.6137 1.44856C20.5442 3.25375 16.1967 6.64488 13.2123 11.1122C13.0589 11.3418 13.1273 11.6513 13.3599 11.8001V11.8001C13.5926 11.9489 13.9013 11.8806 14.0549 11.6511C16.9196 7.37068 21.0887 4.12136 25.9492 2.39062C30.9668 0.603918 36.4362 0.537094 41.496 2.20067C46.5558 3.86425 50.9185 7.1637 53.8969 11.5794C56.8753 15.995 58.3002 21.276 57.9472 26.5906C57.5942 31.9051 55.4834 36.9513 51.9472 40.9342C48.4109 44.9172 43.6502 47.6107 38.4148 48.5904C33.1795 49.5702 27.7669 48.7806 23.0297 46.346C18.4408 43.9876 14.7381 40.2155 12.4646 35.5938C12.3427 35.346 12.0457 35.2374 11.7955 35.3541V35.3541Z" fill="#B0855F"/>
<path d="M27.3455 24.5455L21.5273 20L32 25L21.5273 30L27.3455 25.4545H-9.53674e-07V24.5455H27.3455Z" fill="#B0855F"/>
</svg>
