<svg width="24" height="24" viewBox="0 0 24 24" fill="none" xmlns="http://www.w3.org/2000/svg">
<path d="M12 6.36735C10.886 6.36735 9.79695 6.6977 8.87067 7.31662C7.94438 7.93554 7.22243 8.81524 6.79611 9.84448C6.36978 10.8737 6.25824 12.0062 6.47558 13.0989C6.69291 14.1915 7.22937 15.1951 8.01711 15.9829C8.80485 16.7706 9.8085 17.3071 10.9011 17.5244C11.9938 17.7418 13.1263 17.6302 14.1555 17.2039C15.1848 16.7776 16.0645 16.0556 16.6834 15.1293C17.3023 14.203 17.6327 13.114 17.6327 12C17.631 10.5066 17.037 9.07494 15.981 8.01897C14.9251 6.96301 13.4934 6.36903 12 6.36735ZM12 16.1633C11.1766 16.1633 10.3717 15.9191 9.68701 15.4616C9.00237 15.0042 8.46875 14.3539 8.15364 13.5932C7.83854 12.8325 7.75609 11.9954 7.91673 11.1878C8.07737 10.3802 8.47388 9.63837 9.05613 9.05613C9.63837 8.47388 10.3802 8.07737 11.1878 7.91673C11.9954 7.75609 12.8325 7.83854 13.5932 8.15364C14.3539 8.46875 15.0042 9.00237 15.4616 9.68701C15.9191 10.3717 16.1633 11.1766 16.1633 12C16.162 13.1038 15.723 14.162 14.9425 14.9425C14.162 15.723 13.1038 16.162 12 16.1633ZM17.3878 0H6.61225C4.85919 0.00200931 3.1785 0.6993 1.9389 1.9389C0.6993 3.1785 0.00200931 4.85919 0 6.61225V17.3878C0.00200931 19.1408 0.6993 20.8215 1.9389 22.0611C3.1785 23.3007 4.85919 23.998 6.61225 24H17.3878C19.1408 23.998 20.8215 23.3007 22.0611 22.0611C23.3007 20.8215 23.998 19.1408 24 17.3878V6.61225C23.998 4.85919 23.3007 3.1785 22.0611 1.9389C20.8215 0.6993 19.1408 0.00200931 17.3878 0ZM22.5306 17.3878C22.5291 18.7513 21.9868 20.0585 21.0226 21.0226C20.0585 21.9868 18.7513 22.5291 17.3878 22.5306H6.61225C5.24874 22.5291 3.94152 21.9868 2.97738 21.0226C2.01324 20.0585 1.47091 18.7513 1.46939 17.3878V6.61225C1.47091 5.24874 2.01324 3.94152 2.97738 2.97738C3.94152 2.01324 5.24874 1.47091 6.61225 1.46939H17.3878C18.7513 1.47091 20.0585 2.01324 21.0226 2.97738C21.9868 3.94152 22.5291 5.24874 22.5306 6.61225V17.3878ZM19.5918 5.63265C19.5918 5.87483 19.52 6.11158 19.3855 6.31294C19.2509 6.51431 19.0597 6.67126 18.8359 6.76393C18.6122 6.85661 18.366 6.88086 18.1285 6.83361C17.8909 6.78637 17.6727 6.66975 17.5015 6.4985C17.3303 6.32725 17.2136 6.10907 17.1664 5.87154C17.1191 5.63401 17.1434 5.38781 17.2361 5.16406C17.3287 4.94031 17.4857 4.74908 17.6871 4.61453C17.8884 4.47998 18.1252 4.40816 18.3673 4.40816C18.692 4.40855 19.0032 4.53769 19.2328 4.76724C19.4623 4.99679 19.5914 5.30802 19.5918 5.63265Z" fill="#FFFDFA"/>
</svg>
