<svg width="120" height="109" viewBox="0 0 120 109" fill="none" xmlns="http://www.w3.org/2000/svg">
<path fill-rule="evenodd" clip-rule="evenodd" d="M60.3806 18.7995L66.4759 15.7612H68.7616L62.4759 18.7995H58.0949L51.8092 15.7612H54.0949L60.3806 18.7995ZM60.3806 52.7906L64.7616 50.7018H67.0473L60.3806 53.93L53.714 50.7018H55.9997L60.3806 52.7906ZM69.5235 48.423L74.4759 45.9544V47.0938L69.5235 49.5624V48.423ZM51.6187 49.5624L46.2854 46.9039V45.7645L51.4283 48.2331L51.6187 49.5624ZM68.3806 45.1948L74.4759 42.1565V43.2959L69.1425 45.9544L68.3806 45.1948ZM51.8092 45.9544L46.2854 43.2959V42.1565L52.5711 45.1948L51.8092 45.9544ZM65.333 42.9161L74.4759 38.3586V39.498L65.333 43.8656C65.333 43.4858 65.333 43.106 65.333 42.9161ZM55.4282 44.0555L46.2854 39.498V38.3586L55.4282 42.9161V43.106C55.4282 43.106 55.4282 43.4858 55.4282 44.0555ZM65.333 39.1182L74.4759 34.5607V35.7001L65.333 40.2576V39.1182ZM55.4282 40.2576L46.2854 35.7001V34.5607L55.4282 39.1182V40.2576ZM65.333 35.3203L74.4759 30.7628V31.9022L65.333 36.4597V35.3203ZM55.4282 36.4597L46.2854 31.9022V30.7628L55.4282 35.3203V36.4597ZM65.333 31.5224L69.7139 29.4336L70.6663 30.1932L65.333 32.8517V31.5224ZM55.4282 32.6618L50.2854 30.1932L51.2378 29.4336L55.6187 31.5224V32.6618H55.4282ZM65.333 27.7245L68.7616 26.0155C68.952 26.3953 68.9521 26.5852 69.1425 26.965L65.333 28.8639V27.7245ZM55.4282 28.8639L51.8092 26.965C51.9997 26.5852 51.9997 26.3953 52.1901 26.0155L55.6187 27.7245V28.8639H55.4282ZM70.2854 17.6601L74.4759 15.5713V16.7107L72.5711 17.6601H70.2854ZM48.1902 17.6601L46.2854 16.7107V15.5713L50.4759 17.6601H48.1902Z" fill="#F5EAE5"/>
<path fill-rule="evenodd" clip-rule="evenodd" d="M56.9524 10.4445L60.381 7.02637L63.8095 10.4445H79.6191V51.6516L60.5714 61.3362L40.9524 51.6516V10.4445H56.9524ZM43.4286 12.9131V50.3223L60.5714 58.8676L77.3333 50.3223V12.9131H62.8572L60.381 10.4445L57.9048 12.9131H43.4286Z" fill="#F5EAE5"/>
<path fill-rule="evenodd" clip-rule="evenodd" d="M34.4762 74.8193C34.4762 75.0092 34.4762 75.199 34.4762 75.199V84.6938C34.4762 86.4028 34.4762 86.5927 36.1905 86.5927H36.3809L36.5714 86.7826V87.7321L36.3809 87.922H29.1429L28.9524 87.7321V86.7826L29.1429 86.5927H29.3333C30.8571 86.4028 30.8571 86.2129 30.8571 84.6938V76.3384C30.8571 74.6294 31.0476 74.6294 29.3333 74.4395H29.1429L28.9524 74.2496V73.3001L29.1429 73.1102H39.8095L40 73.3001V73.49C40 74.6294 40 75.7687 40.1905 76.9081V77.098L40 77.2879L38.8571 77.4778L38.6667 77.2879V77.098C38.4762 76.5283 38.2857 75.7687 37.9048 75.199C37.5238 74.6294 36.9524 74.6294 36.1905 74.6294H34.8571C34.8571 74.8193 34.4762 74.8193 34.4762 74.8193ZM32 74.8193C32 75.0092 32 75.199 32 75.3889V84.8837C32 85.4534 32 86.023 32.1905 86.5927V86.7826H31.0476V86.5927C31.2381 86.023 31.2381 85.4534 31.2381 84.8837V76.5283C31.2381 75.9586 31.2381 75.3889 31.0476 74.8193V74.6294H32V74.8193ZM46.6667 75.199V84.8837C46.6667 85.4534 46.6666 86.023 46.8571 86.5927V86.7826H45.7143V86.5927C45.9048 86.023 45.9047 85.4534 45.9047 84.8837V76.3384C45.9047 75.7687 45.9048 75.1991 45.7143 74.6294V74.4395H46.6667V74.6294C46.8571 75.0092 46.6667 75.0092 46.6667 75.199ZM52.381 79.9464C52.7619 79.1868 52.7619 78.4273 52.7619 77.6677C52.7619 76.9081 52.5714 76.1485 52.381 75.5788L52.1905 75.0092L52.7619 75.3889C53.5238 75.9586 53.9048 76.7182 53.9048 77.6677C53.9048 78.6171 53.5238 79.5666 52.7619 80.1363L52.1905 80.5161L52.381 79.9464ZM65.9047 82.415L65.7143 82.2251L65.9047 82.0352L64 76.3384L63.619 75.9586L64.1905 74.6294L64.381 75.0092C65.5238 78.2374 66.6667 81.4656 68 84.6938C68.1905 85.2635 68.381 85.6432 68.5714 86.2129L68.7619 86.4028H67.0476V86.2129C67.0476 85.8331 67.0476 85.2635 66.8571 84.8837C66.6666 84.1241 66.2857 83.1746 65.9047 82.415ZM81.7143 75.5788V76.1485C81.7143 76.3384 81.7143 76.7182 81.7143 76.9081V84.314C81.7143 84.5039 81.7143 84.6938 81.7143 84.6938V85.0736V85.4533C81.7143 85.6432 81.7143 86.023 81.7143 86.2129V86.4028H80.9524V86.2129C80.9524 86.023 80.9524 85.6432 80.9524 85.2635V84.5039C80.9524 84.314 80.9524 83.9342 80.9524 83.7443V76.9081C80.9524 76.5283 80.9524 76.1485 80.9524 75.7687V75.0092C80.9524 74.8193 80.9524 74.6294 80.9524 74.2496V74.0597H81.7143V74.2496C81.7143 74.4395 81.7143 74.6294 81.7143 75.0092V75.5788ZM75.8095 78.2374C75.6191 78.9969 75.4286 79.7565 75.4286 80.5161C75.4286 81.2757 75.4286 82.0352 75.8095 82.7948L76 83.5544L75.4286 82.9847C74.8571 82.2251 74.6667 81.4656 74.6667 80.5161C74.6667 79.5666 74.8571 78.807 75.4286 78.0475L76 77.4778L75.8095 78.2374ZM87.2381 82.7948C87.4286 82.0352 87.619 81.2757 87.619 80.5161C87.619 79.7565 87.4286 78.807 87.2381 78.0475L86.8571 77.2879L87.4286 77.8576C88 78.6171 88.3809 79.5666 88.3809 80.5161C88.3809 81.4656 88.1905 82.2251 87.619 82.9847L87.0476 83.5544L87.2381 82.7948ZM6.09523 94.7582V105.012C6.09523 105.582 6.09524 106.152 6.28572 106.722V106.911H5.14285V106.722C5.33333 106.152 5.33334 105.582 5.33334 105.012V94.7582H6.09523ZM18.8571 96.847C18.4762 97.9864 18.2857 99.3156 18.2857 100.455C18.2857 102.164 18.6667 103.873 19.4286 105.392L19.8095 106.152L19.0476 105.582C17.7143 104.443 16.9524 102.544 16.9524 100.835C16.9524 99.3156 17.3333 97.7965 18.4762 96.6571L19.0476 95.8975L18.8571 96.847ZM28.3809 104.823C28.7619 103.683 28.9524 102.544 28.9524 101.404C28.9524 99.6954 28.5714 97.7965 28 96.2773L27.619 95.5178L28.1905 96.0874C29.5238 97.2268 30.0952 98.9359 30.0952 100.645C30.0952 102.164 29.7143 103.683 28.7619 105.012L28.1905 105.772L28.3809 104.823ZM44.9524 106.911H43.8095V106.722C44 106.152 44 105.392 44 104.823V95.8975C44 95.5178 44 95.3279 44 94.9481V94.7582H44.9524V94.9481C44.7619 95.3279 44.7619 95.8975 44.7619 96.2773V104.633C44.7619 105.202 44.7619 105.962 44.9524 106.532V106.911ZM54.6667 105.772C53.1429 104.633 52.5714 102.924 52.5714 101.025C52.5714 99.3156 53.1429 97.7965 54.2857 96.6571L55.0476 95.8975L54.6667 96.847C54.0952 97.9864 53.9048 99.3156 53.9048 100.645C53.9048 102.354 54.2857 104.063 55.2381 105.582L55.619 106.342L54.6667 105.772ZM76 94.7582V105.012C76 105.582 76 106.152 76.1905 106.722V106.911H75.0476V106.722C75.2381 106.152 75.2381 105.582 75.2381 105.012V94.7582H76ZM88 96.847C87.619 97.9864 87.4286 99.3156 87.4286 100.455C87.4286 102.164 87.8095 103.873 88.5714 105.392L88.9524 106.152L88.1905 105.582C86.8571 104.253 86.0952 102.544 86.0952 100.835C86.0952 99.3156 86.4762 97.7965 87.619 96.6571L88.1905 95.8975L88 96.847ZM97.5238 104.823C97.9048 103.683 98.0952 102.544 98.0952 101.404C98.0952 99.6954 97.7143 97.7965 97.1429 96.2773L96.7619 95.5178L97.3333 96.0874C98.6666 97.2268 99.2381 98.9359 99.2381 100.645C99.2381 102.164 98.8571 103.683 97.9047 105.012L97.3333 105.772L97.5238 104.823ZM115.048 95.3279L114.476 94.7582H115.81V94.9481C115.619 95.5178 115.619 96.0874 115.619 96.6571V104.823C115.619 105.392 115.619 106.152 115.81 106.722V106.911H114.667V106.722C114.857 106.152 114.857 105.392 114.857 104.823V99.6954C114.857 98.3662 114.857 97.2268 115.048 95.8975V95.3279ZM106.667 106.152L107.429 106.911H105.714V106.722C105.905 106.152 105.905 105.392 105.905 104.823V96.847C105.905 96.2773 105.905 95.5178 105.714 94.9481V94.7582H106.857V94.9481C106.667 95.5178 106.667 96.2773 106.667 96.847V101.404C106.667 102.924 106.667 104.633 106.667 106.152ZM49.1429 82.2251V84.8837C49.1429 86.5927 49.3333 86.5927 50.8571 86.7826H51.0476L51.2381 86.9725V87.922L51.0476 88.1119H43.8095L43.619 87.922V86.9725L43.8095 86.7826H44C45.5238 86.5927 45.5238 86.5927 45.5238 84.8837V76.3384C45.5238 74.8193 45.5238 74.6294 44 74.4395H43.8095L43.619 74.2496V73.3001L43.8095 73.1102H50.0952C51.4286 73.1102 53.1428 73.3001 54.0952 74.0597C55.2381 74.8193 55.8095 76.1485 55.8095 77.6677C55.8095 80.5161 53.7143 82.2251 51.0476 82.6049C50.6667 82.6049 50.4762 82.6049 50.0952 82.6049L49.1429 82.2251ZM65.5238 83.5544H61.7143C61.5238 84.314 61.1429 84.8837 60.9524 85.6432C60.5714 86.7826 60.9524 86.5927 62.0952 86.7826H62.2857L62.4762 86.9725V87.922L62.2857 88.1119H56.9524L56.7619 87.922V86.7826L56.9524 86.5927H57.1429C58.6667 86.4028 58.8571 86.023 59.4286 84.5039L64 73.1102L64.1905 72.9203L65.5238 72.5405L65.7143 72.7304V72.9203C67.0476 76.7182 68.5714 80.706 69.9048 84.5039C70.4762 85.8331 70.4762 86.5927 72 86.7826H72.1905L72.381 86.9725V87.922L72.1905 88.1119H65.5238L65.3333 87.922V86.9725L65.5238 86.7826H65.7143C66.6667 86.5927 66.8571 86.5927 66.4762 85.8331C66.0952 85.0736 65.9047 84.314 65.5238 83.5544ZM84.1905 75.0092C87.619 75.199 90.6666 76.5283 90.6666 80.5161C90.6666 84.6938 87.619 85.8331 84.1905 86.023C84.1905 86.7826 84.3809 86.7826 85.5238 86.7826H85.7143L85.9047 86.9725V87.922L85.7143 88.1119H79.2381L79.0476 87.922V86.9725L79.2381 86.7826H79.4286C80.3809 86.7826 80.7619 86.7826 80.7619 86.023C77.3333 85.8331 74.2857 84.5039 74.2857 80.5161C74.2857 76.5283 77.3333 75.199 80.7619 75.0092C80.7619 74.8193 80.7619 74.6294 80.7619 74.6294C80.5714 74.4395 79.8095 74.4395 79.6191 74.4395H79.4286L79.2381 74.2496V73.3001L79.4286 73.1102H85.7143L85.9047 73.3001V74.2496L85.7143 74.4395H85.5238C84.5714 74.4395 84.1905 74.2496 84.1905 75.0092ZM8.57143 94.9481V105.012C8.57143 106.722 8.7619 106.722 10.4762 106.911H10.6666L10.8571 107.101V108.241L10.6666 108.431H3.0476L2.85714 108.241V107.101L3.0476 106.911H3.23809C4.95237 106.722 4.95236 106.722 4.95236 105.012V94.9481H4.57142C3.80951 94.9481 2.85714 94.9481 2.28571 95.5178C1.90476 95.8975 1.52382 97.0369 1.52382 97.6066V97.7965L1.33333 97.9864H0.190459L0 97.7965V97.6066C0 96.0874 0.190459 94.7582 0.190459 93.239V93.0491L0.380947 92.8592H1.14284H1.33333C1.71428 93.239 1.90476 93.239 2.28571 93.239H11.2381C11.8095 93.239 12 93.239 12.1905 92.8592H12.381H13.1428L13.3333 93.0491V93.239C13.3333 94.5683 13.5238 96.0874 13.5238 97.6066V97.7965L13.3333 97.9864H12.1905L12 97.7965V97.6066C11.8095 97.0369 11.6191 95.8975 11.0476 95.5178C10.6667 95.138 9.5238 95.138 8.95238 95.138H8.57143V94.9481ZM24.7619 93.0491C29.1429 93.0491 32.381 96.2773 32.381 100.835C32.381 105.582 29.1429 108.81 24.381 108.81C19.8095 108.81 16.5714 105.392 16.5714 101.025C16.5714 96.2773 20.1905 93.0491 24.7619 93.0491ZM48.7619 108.431H41.7143L41.5238 108.241V107.101L41.7143 106.911H41.9048C43.619 106.722 43.4286 106.532 43.4286 104.823V95.8975C43.4286 95.7076 43.4286 95.138 43.4286 95.138H43.0476H40.5714C40.1905 95.138 40.1905 95.138 40.1905 95.7076C40.1905 98.9359 40 105.012 38.0952 107.671C37.7143 108.241 37.1428 109 36.3809 109C35.8095 109 35.2381 109 34.8571 108.81H34.6667L34.4762 108.62V107.861V107.671C35.619 106.911 36.1905 106.342 36.5714 105.012C37.7143 102.544 37.9048 98.5561 37.9048 95.8975C37.9048 94.9481 37.1429 94.9481 36.1905 94.9481H36L35.8095 94.7582V93.6188L36 93.4289H48.3809L48.5714 93.6188V94.7582L48.3809 94.9481H48.1905C46.6667 95.138 46.6667 95.138 46.6667 96.6571V105.012C46.6667 105.392 46.6666 106.532 46.8571 106.911C47.0476 107.101 47.8095 107.101 48.1905 107.291H48.3809L48.5714 107.481V108.62L48.7619 108.431ZM65.3333 103.683L66.2857 104.063L66.4762 104.253V104.443C66.0952 105.582 65.7143 106.911 65.1429 108.051L64.9524 108.241C63.619 108.62 62.0952 108.81 60.7619 108.81C56 108.81 52 106.152 52 101.025C52 95.8975 56.1905 93.0491 61.1428 93.0491C62.6666 93.0491 63.8095 93.4289 65.3333 93.6188H65.5238L65.7143 93.8087V93.9986C65.9048 95.138 66.0952 96.4672 66.2857 97.6066V97.7965L66.0952 97.9864L64.9524 98.1763L64.7619 97.9864V97.7965C64.1905 95.8975 63.0476 94.5683 60.9524 94.5683C57.7143 94.5683 56.3809 97.7965 56.3809 100.455C56.3809 103.493 57.9048 106.911 61.3333 106.911C63.4286 106.911 64.5714 105.392 65.3333 103.683ZM78.2857 94.9481V105.012C78.2857 106.722 78.4762 106.722 80.1905 106.911H80.3809L80.5714 107.101V108.241L80.3809 108.431H72.7619L72.5714 108.241V107.101L72.7619 106.911H72.9524C74.6667 106.722 74.6667 106.722 74.6667 105.012V94.9481H74.2857C73.5238 94.9481 72.5714 94.9481 72 95.5178C71.6191 95.8975 71.2381 97.0369 71.2381 97.6066V97.7965L71.0476 97.9864H69.9048L69.7143 97.7965V97.6066C69.7143 96.0874 69.9048 94.7582 69.9048 93.239V93.0491L70.0952 92.8592H70.8571H71.0476C71.4286 93.239 71.6191 93.239 72 93.239H80.9524C81.5238 93.239 81.7143 93.239 81.9048 92.8592H82.0952H82.8571L83.0476 93.0491V93.239C83.0476 94.5683 83.2381 96.0874 83.2381 97.6066V97.7965L83.0476 97.9864H81.9048L81.7143 97.7965V97.6066C81.5238 97.0369 81.3333 95.8975 80.7619 95.5178C80.3809 95.138 79.2381 95.138 78.6667 95.138H78.2857V94.9481ZM93.9048 93.0491C98.2857 93.0491 101.524 96.2773 101.524 100.835C101.524 105.582 98.2857 108.81 93.5238 108.81C88.9524 108.81 85.7143 105.392 85.7143 101.025C85.7143 96.2773 89.3333 93.0491 93.9048 93.0491ZM114.476 97.2268L109.333 107.101C109.143 107.291 109.143 107.481 109.143 107.861V108.241L108.952 108.431H103.619L103.429 108.241V107.101L103.619 106.911H103.81C105.524 106.722 105.524 106.532 105.524 104.823V96.847C105.524 95.138 105.714 94.9481 103.81 94.7582H103.619L103.429 94.5683V93.4289L103.619 93.239H110.476L110.667 93.4289V94.5683L110.476 94.7582H110.286C109.905 94.7582 109.333 94.7582 109.143 94.9481C108.762 95.138 108.952 96.2773 108.952 96.6571V101.215C108.952 102.164 108.952 103.114 108.952 104.253L114.095 94.5683C114.095 94.3784 114.286 94.1885 114.286 93.9986V93.6188L114.476 93.4289H119.81L120 93.6188V94.7582L119.81 94.9481H119.619C117.905 95.138 118.095 95.3279 118.095 97.0369V105.202C118.095 106.911 118.095 107.101 119.619 107.291H119.81L120 107.481V108.62L119.81 108.81H112.762L112.571 108.62V107.481L112.762 107.291H112.952C114.667 107.101 114.667 106.911 114.667 105.202V100.075C114.476 98.9359 114.476 97.9864 114.476 97.2268ZM112 93.0491C110.476 93.0491 108.571 92.4794 108.571 90.5805C108.571 89.8209 109.143 89.2512 109.905 89.2512C110.667 89.2512 111.238 89.8209 111.048 90.5805C111.048 91.1502 111.429 91.3401 111.81 91.3401C112.381 91.3401 112.571 90.9603 112.571 90.5805C112.571 89.8209 112.952 89.2512 113.714 89.2512C114.476 89.2512 115.048 89.8209 115.048 90.5805C115.238 92.4794 113.524 93.0491 112 93.0491ZM49.1429 80.706C49.3333 80.706 49.7143 80.8959 50.0952 80.8959C51.8095 80.8959 52.381 78.9969 52.381 77.6677C52.381 76.1485 51.8095 74.6294 49.9048 74.6294C49.7143 74.6294 49.5238 74.6294 49.3333 74.8193L49.1429 75.199V80.706ZM64.9524 81.6555L63.8095 78.0475C63.4286 79.1868 62.8571 80.3262 62.4762 81.6555H64.9524ZM80.5714 76.5283C78.4762 76.9081 77.7143 78.4273 77.7143 80.5161C77.7143 82.7948 78.4762 84.1241 80.5714 84.5039C80.5714 84.314 80.5714 84.314 80.5714 84.1241V77.2879C80.5714 76.9081 80.5714 76.7182 80.5714 76.5283ZM84.1905 84.5039C86.2857 84.1241 87.0476 82.7948 87.0476 80.5161C87.0476 78.4273 86.2857 76.9081 84.1905 76.5283C84.1905 76.7182 84.1905 76.9081 84.1905 76.9081V84.5039ZM24.381 94.5683C21.5238 94.5683 20.7619 98.1763 20.7619 100.455C20.7619 102.924 21.7143 107.101 24.9524 107.101C27.8095 107.101 28.3809 103.493 28.3809 101.215C28.3809 98.9359 27.6191 94.5683 24.381 94.5683ZM93.5238 94.5683C90.6666 94.5683 89.9048 98.1763 89.9048 100.455C89.9048 102.924 90.8571 107.101 94.0952 107.101C96.9524 107.101 97.5238 103.493 97.5238 101.215C97.5238 98.9359 96.7619 94.5683 93.5238 94.5683Z" fill="#F5EAE5"/>
<path fill-rule="evenodd" clip-rule="evenodd" d="M9.52393 80.7043C9.52393 80.3245 9.71441 79.9447 10.0954 79.9447L21.143 79.375C21.3334 79.375 21.5239 79.375 21.5239 79.5649C21.7144 79.7548 21.7144 79.7548 21.7144 79.9447V81.2739C21.7144 81.4638 21.7144 81.6537 21.5239 81.6537C21.3335 81.8436 21.143 81.8436 21.143 81.8436L10.0954 81.2739C9.71441 81.2739 9.52393 81.084 9.52393 80.7043ZM15.0477 80.7043L20.9525 81.084V80.5144L15.0477 80.7043Z" fill="#F5EAE5"/>
<path fill-rule="evenodd" clip-rule="evenodd" d="M110.286 80.5153C110.286 80.1355 110.095 79.7557 109.714 79.7557L98.6666 79.186C98.4762 79.186 98.2857 79.186 98.2857 79.3759C98.0952 79.5658 98.0952 79.5658 98.0952 79.7557V81.085C98.0952 81.2749 98.0952 81.4648 98.2857 81.4648C98.4761 81.6547 98.6666 81.6547 98.6666 81.6547L109.714 81.085C109.905 81.2749 110.286 80.8951 110.286 80.5153ZM104.762 80.5153L98.8571 80.8951V80.3254L104.762 80.5153Z" fill="#F5EAE5"/>
<path d="M60.5117 11.8731L58.4915 13.8872L60.5117 15.9013L62.532 13.8872L60.5117 11.8731Z" fill="#F5EAE5"/>
<path fill-rule="evenodd" clip-rule="evenodd" d="M57.5233 14.4324H44.9518V48.9932L60.5709 56.7789L75.809 48.9932V14.4324H63.0471V13.6729H76.3804H76.7614V14.0526V49.373V49.5629H76.3804L60.7614 57.5385L60.5709 57.7284L60.3804 57.5385L44.3804 49.5629H44.1899V49.373V14.0526V13.6729H44.5709H57.5233V14.4324Z" fill="#F5EAE5"/>
<path fill-rule="evenodd" clip-rule="evenodd" d="M41.1424 53.7397C42.4757 59.4366 55.809 58.2972 54.0947 66.6526C51.2376 63.8042 39.809 57.7275 39.4281 66.0829C35.9995 63.4244 39.4281 61.1456 39.6186 60.5759C36.3805 58.8669 36.3805 56.5882 36.9519 54.1195C37.9043 55.4488 39.0471 56.5882 40.9519 57.1578C39.9995 55.8286 40.19 54.6892 41.1424 53.7397ZM39.9995 59.8164C38.0948 58.8669 37.3328 57.9174 37.3328 56.7781C37.9043 57.5376 38.8567 58.677 39.9995 59.8164ZM52.3805 64.3738C50.8567 62.4749 45.1424 58.1073 40.571 61.7153C45.5233 59.6265 49.1424 62.4749 52.3805 64.3738Z" fill="#F5EAE5"/>
<path fill-rule="evenodd" clip-rule="evenodd" d="M79.4285 53.9297C78.0951 59.6265 64.7618 58.4872 66.6666 66.8425C69.5237 63.9941 80.9523 57.9175 81.3332 66.2728C84.7618 63.6143 81.3332 61.3356 81.1427 60.7659C84.3808 59.0568 84.3808 56.7781 83.8094 54.3095C82.857 55.6387 81.7142 56.7781 79.8094 57.3478C80.5713 56.2084 80.3808 54.8792 79.4285 53.9297ZM67.8094 63.2345C70.4761 61.1457 75.9999 60.3861 78.4761 57.1579C75.238 59.6265 70.2856 60.1962 67.8094 63.2345Z" fill="#F5EAE5"/>
<path fill-rule="evenodd" clip-rule="evenodd" d="M92.9523 48.9927C85.1428 50.5119 83.619 45.9544 81.7142 43.2959C79.4285 49.1826 87.8094 51.6512 86.4761 56.3986C87.9999 55.639 88.9523 54.3098 88.7618 51.8411C90.6666 52.031 91.9999 50.8917 92.9523 48.9927ZM87.238 53.93C86.8571 50.7018 84.3809 48.9927 82.2856 46.714C83.238 49.3725 85.9047 51.0816 87.238 53.93Z" fill="#F5EAE5"/>
<path fill-rule="evenodd" clip-rule="evenodd" d="M27.9995 49.1827C35.809 50.7018 37.3328 46.1444 39.2376 43.4858C41.5233 49.3726 33.1424 51.8412 34.4757 56.5886C32.9519 55.829 31.9995 54.4997 32.19 52.0311C30.2852 52.0311 29.1424 50.8917 27.9995 49.1827ZM38.6662 45.5747C37.9043 49.5625 33.9043 50.5119 31.6185 50.1321C34.6662 49.7524 37.1424 48.2332 38.6662 45.5747Z" fill="#F5EAE5"/>
<path fill-rule="evenodd" clip-rule="evenodd" d="M49.9043 4.36768H70.6662L70.0948 6.83631H61.7138L60.3805 5.50705L59.0472 6.83631H50.6662L49.9043 4.36768Z" fill="#F5EAE5"/>
<path fill-rule="evenodd" clip-rule="evenodd" d="M49.9043 3.2282H70.8567V2.46862V1.13936V0H67.809V1.13936H64.7614V0H61.7138V1.13936H59.0472V0H55.9995V1.13936H52.9519V0H49.9043V1.13936V2.46862V3.2282Z" fill="#F5EAE5"/>
<path fill-rule="evenodd" clip-rule="evenodd" d="M88.3803 37.0296C87.4279 40.2578 90.0946 44.4355 95.8089 43.8658C91.8089 48.6132 84.3803 45.7647 84.3803 39.6881C84.3803 35.7003 88.1898 31.1429 84.5707 27.9147C85.7136 26.7753 86.8565 26.5854 88.5708 27.9147C92.1898 21.838 86.8565 17.6604 85.9041 23.1673C83.9993 22.2178 83.6184 20.5088 84.5707 17.8503C83.2374 17.8503 82.0946 18.9896 81.5231 20.5088C79.9993 18.2301 80.7612 15.0018 82.8565 14.4322C82.285 13.2928 82.285 11.9635 82.8565 10.6343C84.7612 16.1412 92.9517 13.6726 93.7136 20.8886C94.0946 24.6865 93.3327 27.7248 91.9993 30.0035C96.3803 30.5732 99.6184 32.0923 99.4279 36.8397C99.2374 39.6881 97.7136 41.3972 94.666 41.2073C91.4279 41.0174 89.9041 37.0296 92.3803 35.3206C94.285 34.1812 95.9993 36.0801 95.4279 37.7892C95.8088 37.7892 96.9517 37.2195 96.3803 35.5104C95.0469 33.0418 90.0946 31.7126 88.3803 37.0296ZM92.5707 39.6881C91.4279 38.169 91.2374 37.0296 92.1898 36.0801C91.8088 37.2195 91.9993 38.5488 92.5707 39.6881ZM96.5708 37.4094C96.9517 35.5104 96.3803 34.1812 94.8565 33.2317C96.5708 33.4216 98.0946 35.7003 96.5708 37.4094ZM89.9041 45.7648C80.9517 41.777 88.5707 35.5104 86.8565 30.1934C89.7136 35.3206 82.0946 40.6376 89.9041 45.7648ZM89.3327 27.9147C91.6184 26.9652 92.3803 18.42 87.6184 20.129C91.9993 20.129 90.285 26.3955 89.3327 27.9147ZM83.4279 15.0018C81.9041 15.3816 81.3327 16.521 81.3327 18.2301C81.9041 17.0907 82.4755 15.9513 83.4279 15.0018Z" fill="#F5EAE5"/>
<path fill-rule="evenodd" clip-rule="evenodd" d="M32.3811 37.0296C33.3334 40.2578 30.6667 44.4355 24.9525 43.8658C28.9525 48.6132 36.381 45.7647 36.381 39.6881C36.381 35.7003 32.5715 31.1429 36.1906 27.9147C35.0477 26.7753 33.7144 26.5854 32.1906 27.9147C28.5715 21.838 33.9049 17.6604 34.8572 23.1673C36.762 22.2178 37.143 20.5088 36.1906 17.8503C37.5239 17.8503 38.6667 18.9896 39.2382 20.5088C40.762 18.2301 40.0001 15.0018 37.9048 14.4322C38.4763 13.2928 38.4763 11.9635 37.9048 10.6343C36.0001 16.1412 27.8096 13.6726 27.0477 20.8886C26.6668 24.6865 27.4287 27.7248 28.762 30.0035C24.381 30.5732 21.1429 32.0923 21.3334 36.8397C21.5239 39.6881 23.0477 41.3972 26.0953 41.2073C29.3334 41.0174 30.8572 37.0296 28.381 35.3206C26.4763 34.1812 24.5715 36.0801 25.3334 37.7892C24.9525 37.7892 23.8096 37.2195 24.3811 35.5104C25.7144 33.0418 30.6668 31.7126 32.3811 37.0296ZM33.7144 15.1917C28.762 16.9008 28.1906 18.7997 28.0001 22.4077C28.9525 19.1795 29.3334 17.6604 33.7144 15.1917ZM35.2382 22.4077C35.8096 21.0785 34.4763 19.5593 33.1429 20.129C34.2858 20.3189 35.0477 21.0785 35.2382 22.4077ZM23.0477 38.9286C21.9048 36.27 22.4763 33.9913 24.3811 32.0923C23.0477 34.1812 22.8572 36.6498 23.0477 38.9286ZM27.4287 35.3206C26.2858 35.8902 25.9048 36.4599 26.4763 37.5993C26.4763 36.8397 26.6668 35.8902 27.4287 35.3206ZM30.8572 43.6759C34.8572 42.1568 35.0477 36.27 31.8096 34.3711C34.4763 37.7892 33.3334 41.0174 30.8572 43.6759Z" fill="#F5EAE5"/>
<path fill-rule="evenodd" clip-rule="evenodd" d="M63.9997 23.3574V42.9165C63.9997 46.3346 64.3806 46.1447 67.6187 46.5245H67.8092L68.1902 46.9043V48.9931L67.8092 49.3729H53.333L52.9521 48.9931V46.9043L53.333 46.5245H53.5235C56.7616 46.3346 56.9521 46.3346 56.9521 42.9165V23.3574H56.1902C54.8568 23.3574 52.7616 23.3574 51.8092 24.3068C51.0473 25.0664 50.4759 27.3451 50.0949 28.2946V28.4845L49.714 28.6744H47.6187L47.2378 28.2946V28.1047C47.4283 25.2563 47.6187 22.4079 47.8092 19.7494V19.5595L48.1902 19.1797H49.714L49.9044 19.3696V19.5595C50.4759 20.3191 50.8568 20.3191 51.8092 20.3191H69.1426C70.0949 20.3191 70.4759 20.1292 71.2378 19.5595V19.3696L71.4283 19.1797H72.9521L73.333 19.5595V19.7494C73.333 22.4079 73.5235 25.2563 73.714 28.1047V28.2946L73.333 28.6744L71.2378 28.8643L70.8568 28.4845V28.2946C70.4759 26.9654 70.0949 25.0664 69.1426 24.1169C68.3806 23.1675 66.2854 23.3574 65.333 23.3574H63.9997ZM59.0473 23.3574H58.2854V42.9165C58.2854 44.2458 58.0949 45.3851 57.9044 46.1447H59.4283C59.2378 45.3851 59.0473 44.2458 59.0473 42.9165V23.3574ZM49.1426 20.509L48.5711 20.1292L48.1902 27.7249L48.9521 27.535L49.1426 20.509Z" fill="#F5EAE5"/>
</svg>
