<svg width="203" height="50" viewBox="0 0 203 50" fill="none" xmlns="http://www.w3.org/2000/svg">
<path d="M0 24.5614C0 20.3231 0 18.2039 0.320004 16.4366C1.80606 8.22937 8.22937 1.80606 16.4366 0.320004C18.2039 0 20.3231 0 24.5614 0H28C35.4451 0 39.1677 0 42.1803 0.97887C48.2691 2.95723 53.0428 7.7309 55.0211 13.8197C56 16.8323 56 20.5549 56 28V42.7228C56 44.963 56 46.0831 55.564 46.9388C55.1805 47.6914 54.5686 48.3033 53.816 48.6868C52.9603 49.1228 51.8402 49.1228 49.6 49.1228H24.5614C20.3231 49.1228 18.2039 49.1228 16.4366 48.8028C8.22937 47.3167 1.80606 40.8934 0.320004 32.6862C0 30.9189 0 28.7997 0 24.5614Z" fill="#FED215"/>
<path d="M0 24.5614C0 20.3231 0 18.2039 0.320004 16.4366C1.80606 8.22937 8.22937 1.80606 16.4366 0.320004C18.2039 0 20.3231 0 24.5614 0H28C35.4451 0 39.1677 0 42.1803 0.97887C48.2691 2.95723 53.0428 7.7309 55.0211 13.8197C56 16.8323 56 20.5549 56 28V42.7228C56 44.963 56 46.0831 55.564 46.9388C55.1805 47.6914 54.5686 48.3033 53.816 48.6868C52.9603 49.1228 51.8402 49.1228 49.6 49.1228H24.5614C20.3231 49.1228 18.2039 49.1228 16.4366 48.8028C8.22937 47.3167 1.80606 40.8934 0.320004 32.6862C0 30.9189 0 28.7997 0 24.5614Z" fill="url(#paint0_linear)" fill-opacity="0.4" style="mix-blend-mode:soft-light"/>
<path fill-rule="evenodd" clip-rule="evenodd" d="M28 1.2H24.5614C20.2707 1.2 18.285 1.20484 16.6504 1.5008C8.93561 2.8977 2.8977 8.93561 1.5008 16.6504C1.20484 18.285 1.2 20.2707 1.2 24.5614C1.2 28.8521 1.20484 30.8378 1.5008 32.4724C2.8977 40.1872 8.93561 46.2251 16.6504 47.622C18.285 47.918 20.2707 47.9228 24.5614 47.9228H49.6C50.7399 47.9228 51.5227 47.9219 52.1295 47.8723C52.7223 47.8239 53.0407 47.7351 53.2712 47.6176C53.798 47.3492 54.2264 46.9208 54.4948 46.394C54.6122 46.1635 54.7011 45.8451 54.7495 45.2523C54.7991 44.6455 54.8 43.8627 54.8 42.7228V28C54.8 20.4615 54.7852 16.9768 53.8799 14.1905C52.0202 8.46705 47.533 3.97979 41.8095 2.12014C39.0232 1.2148 35.5385 1.2 28 1.2ZM0.320004 16.4366C0 18.2039 0 20.3231 0 24.5614C0 28.7997 0 30.9189 0.320004 32.6862C1.80606 40.8934 8.22937 47.3167 16.4366 48.8028C18.2039 49.1228 20.3231 49.1228 24.5614 49.1228H49.6C51.8402 49.1228 52.9603 49.1228 53.816 48.6868C54.5686 48.3033 55.1805 47.6914 55.564 46.9388C56 46.0831 56 44.963 56 42.7228V28C56 20.5549 56 16.8323 55.0211 13.8197C53.0428 7.7309 48.2691 2.95723 42.1803 0.97887C39.1677 0 35.4451 0 28 0H24.5614C20.3231 0 18.2039 0 16.4366 0.320004C8.22937 1.80606 1.80606 8.22937 0.320004 16.4366Z" fill="url(#paint1_linear)"/>
<path d="M24.3702 16.0436C24.2504 17.9127 24.1905 21.4831 24.1905 26.7548C24.1905 32.0265 24.3941 35.3094 24.8015 36.6033C24.0107 36.843 23.2799 36.9628 22.6089 36.9628C21.938 36.9628 21.3988 36.9388 20.9915 36.8909C21.327 34.0873 21.4947 30.4211 21.4947 25.8922C21.4947 21.3393 21.4108 18.0565 21.2431 16.0436C17.9602 16.1874 15.8396 16.3552 14.8811 16.5469C14.7852 16.2114 14.7373 15.7561 14.7373 15.181C14.7373 14.6059 14.8332 14.0068 15.0249 13.3838C16.7981 13.5995 18.9427 13.7073 21.4587 13.7073C26.5388 13.7073 29.6778 13.5396 30.8759 13.2041C30.9718 13.6354 31.0197 14.1147 31.0197 14.6418C31.0197 15.169 30.9239 15.7441 30.7322 16.3671C28.8871 16.1994 26.7664 16.0916 24.3702 16.0436Z" fill="#171717"/>
<path d="M38.4957 27.4734C38.4957 31.4032 38.7114 34.3985 39.1427 36.4592C38.28 36.6989 37.5013 36.8187 36.8063 36.8187C36.1114 36.8187 35.6202 36.7947 35.3327 36.7468C35.6921 33.4879 35.8718 30.5046 35.8718 27.7969C35.8718 25.0651 35.6562 22.5371 35.2248 20.2128C36.0395 19.9731 36.7704 19.8533 37.4174 19.8533C38.0644 19.8533 38.6035 19.9013 39.0348 19.9971C38.6754 23.7113 38.4957 26.2034 38.4957 27.4734ZM39.1786 14.6415C39.1786 16.1272 38.4118 16.87 36.8782 16.87C35.6801 16.87 35.0811 16.259 35.0811 15.0369C35.0811 13.5273 35.8478 12.7725 37.3814 12.7725C38.5796 12.7725 39.1786 13.3955 39.1786 14.6415Z" fill="#171717"/>
<path d="M80.176 34V24.624H76.608V22.8H85.712V24.624H82.144V34H80.176ZM86.3875 34V25.552H88.3395V27.456C88.9368 26.016 89.9342 25.328 91.3315 25.392V27.44H91.2195C90.3342 27.44 89.6302 27.728 89.1075 28.304C88.5955 28.8693 88.3395 29.696 88.3395 30.784V34H86.3875ZM95.0386 34.176C94.196 34.176 93.4813 33.9467 92.8946 33.488C92.3186 33.0293 92.0306 32.3893 92.0306 31.568V31.536C92.0306 30.64 92.3453 29.9627 92.9746 29.504C93.6146 29.0453 94.468 28.816 95.5346 28.816C96.3133 28.816 97.0706 28.9333 97.8066 29.168V28.96C97.8066 27.7333 97.108 27.12 95.7106 27.12C94.9426 27.12 94.1373 27.296 93.2946 27.648L92.7666 26.128C93.844 25.6693 94.9106 25.44 95.9666 25.44C97.2253 25.44 98.1586 25.7547 98.7666 26.384C99.3746 26.992 99.6786 27.8613 99.6786 28.992V34H97.7906V32.944C97.108 33.7653 96.1906 34.176 95.0386 34.176ZM95.5826 32.768C96.2333 32.768 96.772 32.6027 97.1986 32.272C97.6253 31.9307 97.8386 31.4933 97.8386 30.96V30.384C97.2626 30.16 96.6226 30.048 95.9186 30.048C95.2893 30.048 94.7986 30.1707 94.4466 30.416C94.1053 30.6613 93.9346 31.008 93.9346 31.456V31.488C93.9346 31.8827 94.0893 32.1973 94.3986 32.432C94.708 32.656 95.1026 32.768 95.5826 32.768ZM105.485 34.176C104.429 34.176 103.512 33.7813 102.733 32.992C101.955 32.2027 101.565 31.136 101.565 29.792V29.76C101.565 28.416 101.949 27.3493 102.717 26.56C103.496 25.7707 104.419 25.376 105.485 25.376C106.669 25.376 107.629 25.872 108.365 26.864V22.32H110.301V34H108.365V32.592C107.619 33.648 106.659 34.176 105.485 34.176ZM105.949 32.496C106.621 32.496 107.197 32.2453 107.677 31.744C108.157 31.232 108.397 30.5813 108.397 29.792V29.76C108.397 28.9707 108.157 28.3253 107.677 27.824C107.197 27.312 106.621 27.056 105.949 27.056C105.267 27.056 104.691 27.3067 104.221 27.808C103.752 28.2987 103.517 28.9493 103.517 29.76V29.792C103.517 30.592 103.752 31.2427 104.221 31.744C104.691 32.2453 105.267 32.496 105.949 32.496ZM112.764 24.256V22.416H114.844V24.256H112.764ZM112.828 34V25.552H114.78V34H112.828ZM117.294 34V25.552H119.246V26.848C119.95 25.8667 120.83 25.376 121.886 25.376C122.835 25.376 123.571 25.6693 124.094 26.256C124.627 26.832 124.894 27.616 124.894 28.608V34H122.958V29.2C122.958 28.5387 122.798 28.032 122.478 27.68C122.168 27.3173 121.726 27.136 121.15 27.136C120.574 27.136 120.11 27.3227 119.758 27.696C119.416 28.0693 119.246 28.5813 119.246 29.232V34H117.294ZM130.992 36.592C129.573 36.592 128.314 36.256 127.216 35.584L127.936 34.128C128.896 34.7147 129.898 35.008 130.944 35.008C131.818 35.008 132.48 34.7893 132.928 34.352C133.386 33.9253 133.616 33.2853 133.616 32.432V31.792C132.816 32.816 131.824 33.328 130.64 33.328C129.594 33.328 128.693 32.9707 127.936 32.256C127.178 31.5307 126.8 30.5707 126.8 29.376V29.344C126.8 28.1493 127.178 27.1893 127.936 26.464C128.693 25.7387 129.594 25.376 130.64 25.376C131.813 25.376 132.8 25.856 133.6 26.816V25.552H135.536V32.272C135.536 33.68 135.178 34.7413 134.464 35.456C133.706 36.2133 132.549 36.592 130.992 36.592ZM131.152 31.68C131.834 31.68 132.416 31.4613 132.896 31.024C133.386 30.5867 133.632 30.032 133.632 29.36V29.328C133.632 28.656 133.386 28.1067 132.896 27.68C132.416 27.2427 131.834 27.024 131.152 27.024C130.469 27.024 129.898 27.2373 129.44 27.664C128.981 28.0907 128.752 28.6453 128.752 29.328V29.36C128.752 30.0427 128.981 30.6027 129.44 31.04C129.909 31.4667 130.48 31.68 131.152 31.68ZM143.099 34V22.8H145.067V34H143.099ZM147.825 34V25.552H149.777V26.848C150.481 25.8667 151.361 25.376 152.417 25.376C153.366 25.376 154.102 25.6693 154.625 26.256C155.158 26.832 155.425 27.616 155.425 28.608V34H153.489V29.2C153.489 28.5387 153.329 28.032 153.009 27.68C152.7 27.3173 152.257 27.136 151.681 27.136C151.105 27.136 150.641 27.3227 150.289 27.696C149.948 28.0693 149.777 28.5813 149.777 29.232V34H147.825ZM160.659 34.16C159.336 34.16 158.142 33.7387 157.075 32.896L157.939 31.584C158.888 32.2773 159.811 32.624 160.707 32.624C161.123 32.624 161.443 32.544 161.667 32.384C161.902 32.2133 162.019 31.9893 162.019 31.712V31.68C162.019 31.5307 161.982 31.4027 161.907 31.296C161.832 31.1893 161.683 31.0827 161.459 30.976C161.235 30.8693 161.07 30.8 160.963 30.768C160.867 30.7253 160.638 30.6507 160.275 30.544C160.211 30.5227 160.163 30.5067 160.131 30.496C159.758 30.4 159.438 30.2987 159.171 30.192C158.915 30.0853 158.643 29.9413 158.355 29.76C158.078 29.568 157.864 29.328 157.715 29.04C157.566 28.752 157.491 28.416 157.491 28.032V28C157.491 27.2107 157.774 26.5813 158.339 26.112C158.915 25.6427 159.635 25.408 160.499 25.408C161.598 25.408 162.632 25.728 163.603 26.368L162.835 27.744C161.96 27.2107 161.166 26.944 160.451 26.944C160.088 26.944 159.8 27.024 159.587 27.184C159.374 27.344 159.267 27.5413 159.267 27.776V27.808C159.267 28 159.368 28.176 159.571 28.336C159.774 28.4853 159.982 28.6027 160.195 28.688C160.419 28.7733 160.744 28.88 161.171 29.008C161.544 29.1253 161.859 29.2427 162.115 29.36C162.371 29.4667 162.638 29.616 162.915 29.808C163.203 30 163.422 30.2347 163.571 30.512C163.72 30.7893 163.795 31.1093 163.795 31.472V31.504C163.795 32.3573 163.502 33.0133 162.915 33.472C162.328 33.9307 161.576 34.16 160.659 34.16ZM165.811 24.256V22.416H167.891V24.256H165.811ZM165.875 34V25.552H167.827V34H165.875ZM174.117 36.592C172.698 36.592 171.439 36.256 170.341 35.584L171.061 34.128C172.021 34.7147 173.023 35.008 174.069 35.008C174.943 35.008 175.605 34.7893 176.053 34.352C176.511 33.9253 176.741 33.2853 176.741 32.432V31.792C175.941 32.816 174.949 33.328 173.765 33.328C172.719 33.328 171.818 32.9707 171.061 32.256C170.303 31.5307 169.925 30.5707 169.925 29.376V29.344C169.925 28.1493 170.303 27.1893 171.061 26.464C171.818 25.7387 172.719 25.376 173.765 25.376C174.938 25.376 175.925 25.856 176.725 26.816V25.552H178.661V32.272C178.661 33.68 178.303 34.7413 177.589 35.456C176.831 36.2133 175.674 36.592 174.117 36.592ZM174.277 31.68C174.959 31.68 175.541 31.4613 176.021 31.024C176.511 30.5867 176.757 30.032 176.757 29.36V29.328C176.757 28.656 176.511 28.1067 176.021 27.68C175.541 27.2427 174.959 27.024 174.277 27.024C173.594 27.024 173.023 27.2373 172.565 27.664C172.106 28.0907 171.877 28.6453 171.877 29.328V29.36C171.877 30.0427 172.106 30.6027 172.565 31.04C173.034 31.4667 173.605 31.68 174.277 31.68ZM181.075 34V22.32H183.027V26.848C183.731 25.8667 184.611 25.376 185.667 25.376C186.616 25.376 187.352 25.6693 187.875 26.256C188.408 26.832 188.675 27.616 188.675 28.608V34H186.739V29.2C186.739 28.5387 186.579 28.032 186.259 27.68C185.95 27.3173 185.507 27.136 184.931 27.136C184.355 27.136 183.891 27.3227 183.539 27.696C183.198 28.0693 183.027 28.5813 183.027 29.232V34H181.075ZM193.845 34.144C192.224 34.144 191.413 33.3173 191.413 31.664V27.216H190.341V25.552H191.413V23.232H193.349V25.552H195.621V27.216H193.349V31.36C193.349 32.064 193.696 32.416 194.389 32.416C194.805 32.416 195.205 32.32 195.589 32.128V33.712C195.066 34 194.485 34.144 193.845 34.144ZM199.431 28.24C198.652 28.24 197.991 27.968 197.447 27.424C196.914 26.88 196.647 26.224 196.647 25.456V25.44C196.647 24.672 196.919 24.016 197.463 23.472C198.007 22.9173 198.663 22.64 199.431 22.64C200.21 22.64 200.866 22.912 201.399 23.456C201.943 24 202.215 24.656 202.215 25.424V25.44C202.215 26.208 201.943 26.8693 201.399 27.424C200.855 27.968 200.199 28.24 199.431 28.24ZM197.671 27.216C198.151 27.696 198.738 27.936 199.431 27.936C200.124 27.936 200.706 27.6907 201.175 27.2C201.655 26.7093 201.895 26.1227 201.895 25.44V25.424C201.895 24.7413 201.655 24.16 201.175 23.68C200.706 23.1893 200.124 22.944 199.431 22.944C198.738 22.944 198.151 23.1893 197.671 23.68C197.202 24.1707 196.967 24.7573 196.967 25.44V25.456C196.967 26.1387 197.202 26.7253 197.671 27.216ZM198.263 26.848V23.936H199.623C199.986 23.936 200.274 24.016 200.487 24.176C200.7 24.336 200.807 24.576 200.807 24.896V24.912C200.807 25.3707 200.594 25.664 200.167 25.792L200.903 26.848H200.055L199.431 25.92H198.983V26.848H198.263ZM198.983 25.344H199.575C199.916 25.344 200.087 25.2107 200.087 24.944V24.928C200.087 24.6613 199.916 24.5387 199.575 24.56H198.983V25.344Z" fill="white"/>
<defs>
<linearGradient id="paint0_linear" x1="56.7778" y1="50.2786" x2="9.38896" y2="-11.7699" gradientUnits="userSpaceOnUse">
<stop stop-color="#826C00"/>
<stop offset="1" stop-color="#473900"/>
</linearGradient>
<linearGradient id="paint1_linear" x1="-4.47222" y1="-7.5129" x2="70.695" y2="25.2713" gradientUnits="userSpaceOnUse">
<stop stop-color="#FFCB00"/>
<stop offset="1" stop-color="#E8BE06"/>
</linearGradient>
</defs>
</svg>
