<svg width="113" height="97" viewBox="0 0 113 97" fill="none" xmlns="http://www.w3.org/2000/svg">
<g clip-path="url(#clip0)">
<path d="M0 0L13.1833 72.0465H20.3613L7.19576 0H0Z" fill="#1C1D2B"/>
<path d="M83.8618 24.0098H76.666V72.0467H83.8618V24.0098Z" fill="#1C1D2B"/>
<path d="M98.2348 0H91.0391V72.0465H98.2348V0Z" fill="#1C1D2B"/>
<path d="M112.609 0H105.413V72.0465H112.609V0Z" fill="#1C1D2B"/>
<path d="M35.9434 0L17.9629 72.0465H21.5697L39.5324 0H35.9434Z" fill="#1C1D2B"/>
<path d="M73.0772 0L55.0967 72.0465H58.7034L76.6662 0H73.0772Z" fill="#1C1D2B"/>
<path d="M21.5519 64.8516H17.9629V72.0651H21.5519V64.8516Z" fill="#1C1D2B"/>
<path d="M58.6857 64.8516H55.0967V72.0651H58.6857V64.8516Z" fill="#1C1D2B"/>
<path d="M43.1391 0H35.9434V7.21355H43.1391V0Z" fill="#1C1D2B"/>
<path d="M37.1338 0L50.3171 72.0465H57.4951L44.3295 0H37.1338Z" fill="#1C1D2B"/>
<path d="M103.015 95.5221C104.116 96.5017 105.502 97.0004 107.172 97.0004C108.949 97.0004 110.37 96.5729 111.419 95.7358C112.467 94.8987 113 93.7231 113 92.2092C113 91.6392 112.875 91.1227 112.609 90.6596C112.342 90.1965 111.952 89.8046 111.454 89.4662C110.957 89.1278 110.424 88.8607 109.891 88.6469C109.357 88.4332 108.718 88.2194 108.007 88.0235C106.835 87.6851 105.964 87.3467 105.342 87.0083C104.738 86.6699 104.418 86.2068 104.418 85.6368C104.418 85.1025 104.649 84.6928 105.129 84.4078C105.609 84.1229 106.213 83.9804 106.941 83.9804C107.705 83.9804 108.363 84.1585 108.896 84.4969C109.429 84.8353 109.731 85.334 109.837 85.9752C109.855 86.1177 109.926 86.189 110.05 86.189H112.342C112.485 86.189 112.556 86.1177 112.556 85.9752C112.52 84.7463 111.987 83.6954 110.957 82.8048C109.926 81.9143 108.594 81.469 106.994 81.469C105.538 81.469 104.294 81.8608 103.263 82.6267C102.233 83.3926 101.718 84.4435 101.718 85.7793C101.718 86.9548 102.144 87.881 102.979 88.5579C103.832 89.2347 105.111 89.7868 106.852 90.2321C109.144 90.8021 110.281 91.568 110.281 92.512C110.281 93.1175 110.015 93.5984 109.464 93.9725C108.931 94.3465 108.203 94.5246 107.297 94.5246C106.355 94.5246 105.591 94.3109 105.005 93.8656C104.418 93.4203 104.098 92.7791 104.027 91.942C104.01 91.7995 103.938 91.7283 103.814 91.7283H101.558C101.416 91.7283 101.344 91.7995 101.344 91.942C101.344 93.3313 101.913 94.5424 103.015 95.5221ZM88.5875 84.1763H92.0877C92.6385 84.1763 93.0649 84.3188 93.3847 84.6038C93.7045 84.8887 93.8644 85.2806 93.8644 85.7971C93.8644 86.2958 93.7045 86.6877 93.3847 86.9905C93.0649 87.2754 92.6207 87.4179 92.0877 87.4179H88.5875V84.1763ZM86.0823 96.7867H88.3743C88.5165 96.7867 88.5875 96.7154 88.5875 96.5729V89.9115H90.8262L94.0599 96.5729C94.1487 96.7154 94.2375 96.7867 94.3619 96.7867H96.8493C96.9737 96.7867 97.0448 96.751 97.0448 96.662C97.0448 96.6264 97.0448 96.6085 97.027 96.5729L93.8111 89.7334C94.6106 89.395 95.268 88.8963 95.8011 88.2016C96.3341 87.507 96.6006 86.7055 96.6006 85.7971C96.6006 84.4969 96.1742 83.4817 95.3391 82.7514C94.504 82.0211 93.3847 81.6649 91.9811 81.6649H86.1001C85.958 81.6649 85.8869 81.754 85.8869 81.8786V96.5729C85.8691 96.7154 85.9402 96.7867 86.0823 96.7867ZM70.2695 96.7867H79.8816C80.0237 96.7867 80.0948 96.7154 80.0948 96.5729V94.489C80.0948 94.3465 80.0059 94.2753 79.8816 94.2753H72.7746V90.0896H78.9221C79.0643 90.0896 79.1353 90.0184 79.1353 89.8759V87.792C79.1353 87.6495 79.0465 87.5782 78.9221 87.5782H72.7746V84.1763H79.5795C79.7216 84.1763 79.7927 84.0872 79.7927 83.9626V81.8965C79.7927 81.754 79.7216 81.6827 79.5795 81.6827H70.2872C70.1451 81.6827 70.074 81.7718 70.074 81.8965V96.5907C70.0385 96.7154 70.1095 96.7867 70.2695 96.7867ZM47.3496 81.9143L50.7432 96.5729C50.7787 96.7154 50.8676 96.7867 50.9742 96.7867H53.6037C53.7281 96.7867 53.7992 96.7154 53.8525 96.5729L56.3044 86.8658L58.7562 96.5907C58.8095 96.7332 58.8806 96.8045 59.005 96.8045H61.7234C61.83 96.8045 61.9188 96.7332 61.9544 96.5907L65.3479 81.9321C65.3657 81.8786 65.3657 81.8252 65.3657 81.8074C65.3657 81.7183 65.2946 81.6649 65.1702 81.6649H62.8072C62.6473 81.6649 62.5762 81.754 62.5584 81.8786L60.3731 92.9038L57.7435 82.8939C57.708 82.7692 57.6191 82.698 57.477 82.698H55.2205C55.0784 82.698 54.9896 82.7692 54.954 82.9117L52.3245 92.9216L50.1391 81.8786C50.1391 81.7362 50.0503 81.6649 49.8904 81.6649H47.5451C47.4029 81.6649 47.3496 81.7183 47.3496 81.8074C47.3319 81.8252 47.3319 81.8608 47.3496 81.9143ZM35.7831 83.9626C37.0801 83.9626 38.1817 84.4257 39.0878 85.334C39.994 86.2602 40.4382 87.5426 40.4382 89.2347C40.4382 90.9089 39.994 92.2092 39.0878 93.1175C38.1817 94.0259 37.0801 94.489 35.7831 94.489C34.4861 94.489 33.3845 94.0259 32.4784 93.1175C31.5723 92.2092 31.1281 90.9089 31.1281 89.2347C31.1281 87.5604 31.5723 86.2602 32.4784 85.334C33.3845 84.4078 34.4861 83.9626 35.7831 83.9626ZM30.6661 95.0946C31.3768 95.718 32.1764 96.1811 33.047 96.5017C33.9176 96.8223 34.8415 96.9826 35.7831 96.9826C36.7426 96.9826 37.6487 96.8223 38.5193 96.5017C39.3899 96.1811 40.1894 95.7002 40.9001 95.0946C41.6108 94.4712 42.1794 93.6519 42.6058 92.6366C43.0322 91.6214 43.2454 90.4815 43.2454 89.2169C43.2454 87.9523 43.0322 86.8124 42.6058 85.7971C42.1794 84.7819 41.6108 83.9626 40.9001 83.3392C40.1894 82.7158 39.3899 82.2527 38.5193 81.9321C37.6487 81.6115 36.7426 81.4512 35.7831 81.4512C34.8237 81.4512 33.9176 81.6115 33.047 81.9321C32.1764 82.2527 31.3768 82.7336 30.6661 83.3392C29.9555 83.9626 29.3869 84.7819 28.9605 85.7971C28.5341 86.8124 28.3209 87.9523 28.3209 89.2169C28.3209 90.4815 28.5341 91.6214 28.9605 92.6366C29.3869 93.6519 29.9555 94.4712 30.6661 95.0946ZM12.6146 84.1763H16.8432V96.5907C16.8432 96.7332 16.9143 96.8045 17.0564 96.8045H19.3484C19.4905 96.8045 19.5616 96.7332 19.5616 96.5907V84.1763H23.7902C23.9323 84.1763 24.0034 84.0872 24.0034 83.9626V81.8965C24.0034 81.754 23.9323 81.6827 23.7902 81.6827H12.6146C12.4724 81.6827 12.4014 81.7718 12.4014 81.8965V83.9626C12.4014 84.0872 12.4724 84.1585 12.6146 84.1763Z" fill="#1C1D2B"/>
</g>
<defs>
<clipPath id="clip0">
<rect width="113" height="97" fill="white"/>
</clipPath>
</defs>
</svg>
