<svg width="103" height="88" viewBox="0 0 103 88" fill="none" xmlns="http://www.w3.org/2000/svg">
<path d="M0 0L12.0167 65.3617H18.5594L6.55896 0H0Z" fill="#E4F1EF"/>
<path d="M76.4398 21.7812H69.8809V65.3611H76.4398V21.7812Z" fill="#E4F1EF"/>
<path d="M89.5414 0H82.9824V65.3617H89.5414V0Z" fill="#E4F1EF"/>
<path d="M102.644 0H96.085V65.3617H102.644V0Z" fill="#E4F1EF"/>
<path d="M32.7624 0L16.373 65.3617H19.6606L36.0337 0H32.7624Z" fill="#E4F1EF"/>
<path d="M66.61 0L50.2207 65.3617H53.5083L69.8814 0H66.61Z" fill="#E4F1EF"/>
<path d="M19.6444 58.832H16.373V65.3763H19.6444V58.832Z" fill="#E4F1EF"/>
<path d="M53.4921 58.832H50.2207V65.3763H53.4921V58.832Z" fill="#E4F1EF"/>
<path d="M39.3217 0H32.7627V6.54425H39.3217V0Z" fill="#E4F1EF"/>
<path d="M33.8477 0L45.8643 65.3617H52.4071L40.4066 0H33.8477Z" fill="#E4F1EF"/>
<path d="M93.8981 86.6599C94.9021 87.5486 96.1654 88.001 97.6877 88.001C99.3072 88.001 100.603 87.6132 101.558 86.8538C102.514 86.0943 103 85.0278 103 83.6544C103 83.1373 102.886 82.6687 102.643 82.2486C102.4 81.8284 102.044 81.4729 101.591 81.1659C101.137 80.8589 100.651 80.6165 100.166 80.4226C99.6797 80.2287 99.0966 80.0348 98.4488 79.8571C97.38 79.5501 96.5864 79.243 96.0196 78.936C95.469 78.629 95.1775 78.2089 95.1775 77.6918C95.1775 77.2071 95.388 76.8354 95.8253 76.5769C96.2625 76.3183 96.8132 76.1891 97.4771 76.1891C98.1735 76.1891 98.7727 76.3506 99.2586 76.6577C99.7444 76.9647 100.02 77.4171 100.117 77.9988C100.133 78.1281 100.198 78.1927 100.311 78.1927H102.4C102.53 78.1927 102.595 78.1281 102.595 77.9988C102.562 76.8839 102.077 75.9305 101.137 75.1226C100.198 74.3147 98.9833 73.9107 97.5257 73.9107C96.1977 73.9107 95.0641 74.2662 94.1248 74.961C93.1855 75.6558 92.7158 76.6092 92.7158 77.8211C92.7158 78.8876 93.1045 79.7278 93.8657 80.3418C94.643 80.9559 95.8091 81.4568 97.3962 81.8607C99.4853 82.3778 100.522 83.0726 100.522 83.9291C100.522 84.4785 100.279 84.9147 99.7768 85.2541C99.291 85.5934 98.627 85.755 97.801 85.755C96.9427 85.755 96.2463 85.5611 95.7119 85.1571C95.1775 84.7531 94.8859 84.1714 94.8212 83.412C94.805 83.2827 94.7402 83.2181 94.6268 83.2181H92.5701C92.4405 83.2181 92.3757 83.2827 92.3757 83.412C92.3757 84.6724 92.894 85.7711 93.8981 86.6599ZM80.7477 76.3668H83.9381C84.4402 76.3668 84.8289 76.4961 85.1204 76.7546C85.4119 77.0132 85.5576 77.3686 85.5576 77.8372C85.5576 78.2897 85.4119 78.6452 85.1204 78.9199C84.8289 79.1784 84.424 79.3077 83.9381 79.3077H80.7477V76.3668ZM78.4642 87.8071H80.5534C80.683 87.8071 80.7477 87.7425 80.7477 87.6132V81.5699H82.7883L85.7358 87.6132C85.8168 87.7425 85.8977 87.8071 86.0111 87.8071H88.2784C88.3918 87.8071 88.4566 87.7748 88.4566 87.694C88.4566 87.6617 88.4565 87.6455 88.4403 87.6132L85.5091 81.4083C86.2378 81.1013 86.8371 80.6489 87.3229 80.0187C87.8088 79.3885 88.0517 78.6613 88.0517 77.8372C88.0517 76.6577 87.663 75.7366 86.9018 75.0741C86.1407 74.4116 85.1204 74.0884 83.841 74.0884H78.4804C78.3509 74.0884 78.2861 74.1692 78.2861 74.2823V87.6132C78.2699 87.7425 78.3347 87.8071 78.4642 87.8071ZM64.0507 87.8071H72.8122C72.9418 87.8071 73.0065 87.7425 73.0065 87.6132V85.7227C73.0065 85.5934 72.9256 85.5288 72.8122 85.5288H66.3342V81.7315H71.9377C72.0672 81.7315 72.132 81.6668 72.132 81.5376V79.647C72.132 79.5177 72.051 79.4531 71.9377 79.4531H66.3342V76.3668H72.5369C72.6664 76.3668 72.7312 76.286 72.7312 76.1729V74.2985C72.7312 74.1692 72.6664 74.1046 72.5369 74.1046H64.0669C63.9374 74.1046 63.8726 74.1854 63.8726 74.2985V87.6294C63.8402 87.7425 63.905 87.8071 64.0507 87.8071ZM43.1592 74.3147L46.2525 87.6132C46.2848 87.7425 46.3658 87.8071 46.463 87.8071H48.8598C48.9732 87.8071 49.038 87.7425 49.0866 87.6132L51.3215 78.8068L53.5564 87.6294C53.605 87.7587 53.6698 87.8233 53.7831 87.8233H56.2609C56.3581 87.8233 56.4391 87.7587 56.4715 87.6294L59.5647 74.3308C59.5809 74.2823 59.5809 74.2339 59.5809 74.2177C59.5809 74.1369 59.5161 74.0884 59.4028 74.0884H57.2488C57.1031 74.0884 57.0383 74.1692 57.0221 74.2823L55.0301 84.2845L52.6333 75.2034C52.6009 75.0903 52.5199 75.0256 52.3903 75.0256H50.3336C50.204 75.0256 50.1231 75.0903 50.0907 75.2195L47.6938 84.3007L45.7018 74.2823C45.7018 74.1531 45.6208 74.0884 45.4751 74.0884H43.3374C43.2078 74.0884 43.1592 74.1369 43.1592 74.2177C43.143 74.2339 43.143 74.2662 43.1592 74.3147ZM32.6163 76.1729C33.7985 76.1729 34.8026 76.593 35.6286 77.4171C36.4545 78.2574 36.8594 79.4208 36.8594 80.9559C36.8594 82.4748 36.4545 83.6544 35.6286 84.4784C34.8026 85.3025 33.7985 85.7227 32.6163 85.7227C31.4341 85.7227 30.43 85.3025 29.604 84.4784C28.7781 83.6544 28.3732 82.4748 28.3732 80.9559C28.3732 79.437 28.7781 78.2574 29.604 77.4171C30.43 76.5769 31.4341 76.1729 32.6163 76.1729ZM27.9521 86.2721C28.5999 86.8376 29.3287 87.2577 30.1223 87.5486C30.9158 87.8394 31.758 87.9849 32.6163 87.9849C33.4908 87.9849 34.3168 87.8394 35.1103 87.5486C35.9039 87.2577 36.6326 86.8215 37.2804 86.2721C37.9282 85.7065 38.4465 84.9632 38.8352 84.0422C39.2238 83.1211 39.4182 82.087 39.4182 80.9397C39.4182 79.7924 39.2238 78.7583 38.8352 77.8372C38.4465 76.9162 37.9282 76.1729 37.2804 75.6073C36.6326 75.0418 35.9039 74.6217 35.1103 74.3308C34.3168 74.04 33.4908 73.8945 32.6163 73.8945C31.7418 73.8945 30.9158 74.04 30.1223 74.3308C29.3287 74.6217 28.5999 75.058 27.9521 75.6073C27.3043 76.1729 26.7861 76.9162 26.3974 77.8372C26.0087 78.7583 25.8144 79.7924 25.8144 80.9397C25.8144 82.087 26.0087 83.1211 26.3974 84.0422C26.7861 84.9632 27.3043 85.7065 27.9521 86.2721ZM11.4981 76.3668H15.3525V87.6294C15.3525 87.7587 15.4172 87.8233 15.5468 87.8233H17.6359C17.7655 87.8233 17.8303 87.7587 17.8303 87.6294V76.3668H21.6847C21.8142 76.3668 21.879 76.286 21.879 76.1729V74.2985C21.879 74.1692 21.8142 74.1046 21.6847 74.1046H11.4981C11.3685 74.1046 11.3037 74.1854 11.3037 74.2985V76.1729C11.3037 76.286 11.3685 76.3506 11.4981 76.3668Z" fill="#E4F1EF"/>
</svg>
