<svg width="175" height="130" viewBox="0 0 175 130" fill="none" xmlns="http://www.w3.org/2000/svg">
<path d="M52.176 112.123V102.747H48.608V100.923H57.712V102.747H54.144V112.123H52.176ZM58.3875 112.123V103.675H60.3395V105.579C60.9368 104.139 61.9342 103.451 63.3315 103.515V105.563H63.2195C62.3342 105.563 61.6302 105.851 61.1075 106.427C60.5955 106.992 60.3395 107.819 60.3395 108.907V112.123H58.3875ZM67.0386 112.299C66.196 112.299 65.4813 112.07 64.8946 111.611C64.3186 111.152 64.0306 110.512 64.0306 109.691V109.659C64.0306 108.763 64.3453 108.086 64.9746 107.627C65.6146 107.168 66.468 106.939 67.5346 106.939C68.3133 106.939 69.0706 107.056 69.8066 107.291V107.083C69.8066 105.856 69.108 105.243 67.7106 105.243C66.9426 105.243 66.1373 105.419 65.2946 105.771L64.7666 104.251C65.844 103.792 66.9106 103.563 67.9666 103.563C69.2253 103.563 70.1586 103.878 70.7666 104.507C71.3746 105.115 71.6786 105.984 71.6786 107.115V112.123H69.7906V111.067C69.108 111.888 68.1906 112.299 67.0386 112.299ZM67.5826 110.891C68.2333 110.891 68.772 110.726 69.1986 110.395C69.6253 110.054 69.8386 109.616 69.8386 109.083V108.507C69.2626 108.283 68.6226 108.171 67.9186 108.171C67.2893 108.171 66.7986 108.294 66.4466 108.539C66.1053 108.784 65.9346 109.131 65.9346 109.579V109.611C65.9346 110.006 66.0893 110.32 66.3986 110.555C66.708 110.779 67.1026 110.891 67.5826 110.891ZM77.4852 112.299C76.4293 112.299 75.5119 111.904 74.7333 111.115C73.9546 110.326 73.5653 109.259 73.5653 107.915V107.883C73.5653 106.539 73.9493 105.472 74.7173 104.683C75.4959 103.894 76.4186 103.499 77.4852 103.499C78.6693 103.499 79.6293 103.995 80.3653 104.987V100.443H82.3013V112.123H80.3653V110.715C79.6186 111.771 78.6586 112.299 77.4852 112.299ZM77.9493 110.619C78.6213 110.619 79.1973 110.368 79.6773 109.867C80.1573 109.355 80.3973 108.704 80.3973 107.915V107.883C80.3973 107.094 80.1573 106.448 79.6773 105.947C79.1973 105.435 78.6213 105.179 77.9493 105.179C77.2666 105.179 76.6906 105.43 76.2213 105.931C75.7519 106.422 75.5173 107.072 75.5173 107.883V107.915C75.5173 108.715 75.7519 109.366 76.2213 109.867C76.6906 110.368 77.2666 110.619 77.9493 110.619ZM84.7636 102.379V100.539H86.8436V102.379H84.7636ZM84.8276 112.123V103.675H86.7796V112.123H84.8276ZM89.2938 112.123V103.675H91.2458V104.971C91.9498 103.99 92.8298 103.499 93.8858 103.499C94.8351 103.499 95.5711 103.792 96.0938 104.379C96.6271 104.955 96.8938 105.739 96.8938 106.731V112.123H94.9578V107.323C94.9578 106.662 94.7978 106.155 94.4778 105.803C94.1684 105.44 93.7258 105.259 93.1498 105.259C92.5738 105.259 92.1098 105.446 91.7578 105.819C91.4164 106.192 91.2458 106.704 91.2458 107.355V112.123H89.2938ZM102.992 114.715C101.573 114.715 100.314 114.379 99.2156 113.707L99.9356 112.251C100.896 112.838 101.898 113.131 102.944 113.131C103.818 113.131 104.48 112.912 104.928 112.475C105.386 112.048 105.616 111.408 105.616 110.555V109.915C104.816 110.939 103.824 111.451 102.64 111.451C101.594 111.451 100.693 111.094 99.9356 110.379C99.1783 109.654 98.7996 108.694 98.7996 107.499V107.467C98.7996 106.272 99.1783 105.312 99.9356 104.587C100.693 103.862 101.594 103.499 102.64 103.499C103.813 103.499 104.8 103.979 105.6 104.939V103.675H107.536V110.395C107.536 111.803 107.178 112.864 106.464 113.579C105.706 114.336 104.549 114.715 102.992 114.715ZM103.152 109.803C103.834 109.803 104.416 109.584 104.896 109.147C105.386 108.71 105.632 108.155 105.632 107.483V107.451C105.632 106.779 105.386 106.23 104.896 105.803C104.416 105.366 103.834 105.147 103.152 105.147C102.469 105.147 101.898 105.36 101.44 105.787C100.981 106.214 100.752 106.768 100.752 107.451V107.483C100.752 108.166 100.981 108.726 101.44 109.163C101.909 109.59 102.48 109.803 103.152 109.803ZM115.099 112.123V100.923H117.067V112.123H115.099ZM119.825 112.123V103.675H121.777V104.971C122.481 103.99 123.361 103.499 124.417 103.499C125.366 103.499 126.102 103.792 126.625 104.379C127.158 104.955 127.425 105.739 127.425 106.731V112.123H125.489V107.323C125.489 106.662 125.329 106.155 125.009 105.803C124.7 105.44 124.257 105.259 123.681 105.259C123.105 105.259 122.641 105.446 122.289 105.819C121.948 106.192 121.777 106.704 121.777 107.355V112.123H119.825ZM132.659 112.283C131.336 112.283 130.142 111.862 129.075 111.019L129.939 109.707C130.888 110.4 131.811 110.747 132.707 110.747C133.123 110.747 133.443 110.667 133.667 110.507C133.902 110.336 134.019 110.112 134.019 109.835V109.803C134.019 109.654 133.982 109.526 133.907 109.419C133.832 109.312 133.683 109.206 133.459 109.099C133.235 108.992 133.07 108.923 132.963 108.891C132.867 108.848 132.638 108.774 132.275 108.667C132.211 108.646 132.163 108.63 132.131 108.619C131.758 108.523 131.438 108.422 131.171 108.315C130.915 108.208 130.643 108.064 130.355 107.883C130.078 107.691 129.864 107.451 129.715 107.163C129.566 106.875 129.491 106.539 129.491 106.155V106.123C129.491 105.334 129.774 104.704 130.339 104.235C130.915 103.766 131.635 103.531 132.499 103.531C133.598 103.531 134.632 103.851 135.603 104.491L134.835 105.867C133.96 105.334 133.166 105.067 132.451 105.067C132.088 105.067 131.8 105.147 131.587 105.307C131.374 105.467 131.267 105.664 131.267 105.899V105.931C131.267 106.123 131.368 106.299 131.571 106.459C131.774 106.608 131.982 106.726 132.195 106.811C132.419 106.896 132.744 107.003 133.171 107.131C133.544 107.248 133.859 107.366 134.115 107.483C134.371 107.59 134.638 107.739 134.915 107.931C135.203 108.123 135.422 108.358 135.571 108.635C135.72 108.912 135.795 109.232 135.795 109.595V109.627C135.795 110.48 135.502 111.136 134.915 111.595C134.328 112.054 133.576 112.283 132.659 112.283ZM137.811 102.379V100.539H139.891V102.379H137.811ZM137.875 112.123V103.675H139.827V112.123H137.875ZM146.117 114.715C144.698 114.715 143.439 114.379 142.341 113.707L143.061 112.251C144.021 112.838 145.023 113.131 146.069 113.131C146.943 113.131 147.605 112.912 148.053 112.475C148.511 112.048 148.741 111.408 148.741 110.555V109.915C147.941 110.939 146.949 111.451 145.765 111.451C144.719 111.451 143.818 111.094 143.061 110.379C142.303 109.654 141.925 108.694 141.925 107.499V107.467C141.925 106.272 142.303 105.312 143.061 104.587C143.818 103.862 144.719 103.499 145.765 103.499C146.938 103.499 147.925 103.979 148.725 104.939V103.675H150.661V110.395C150.661 111.803 150.303 112.864 149.589 113.579C148.831 114.336 147.674 114.715 146.117 114.715ZM146.277 109.803C146.959 109.803 147.541 109.584 148.021 109.147C148.511 108.71 148.757 108.155 148.757 107.483V107.451C148.757 106.779 148.511 106.23 148.021 105.803C147.541 105.366 146.959 105.147 146.277 105.147C145.594 105.147 145.023 105.36 144.565 105.787C144.106 106.214 143.877 106.768 143.877 107.451V107.483C143.877 108.166 144.106 108.726 144.565 109.163C145.034 109.59 145.605 109.803 146.277 109.803ZM153.075 112.123V100.443H155.027V104.971C155.731 103.99 156.611 103.499 157.667 103.499C158.616 103.499 159.352 103.792 159.875 104.379C160.408 104.955 160.675 105.739 160.675 106.731V112.123H158.739V107.323C158.739 106.662 158.579 106.155 158.259 105.803C157.95 105.44 157.507 105.259 156.931 105.259C156.355 105.259 155.891 105.446 155.539 105.819C155.198 106.192 155.027 106.704 155.027 107.355V112.123H153.075ZM165.845 112.267C164.224 112.267 163.413 111.44 163.413 109.787V105.339H162.341V103.675H163.413V101.355H165.349V103.675H167.621V105.339H165.349V109.483C165.349 110.187 165.696 110.539 166.389 110.539C166.805 110.539 167.205 110.443 167.589 110.251V111.835C167.066 112.123 166.485 112.267 165.845 112.267ZM171.431 106.363C170.652 106.363 169.991 106.091 169.447 105.547C168.914 105.003 168.647 104.347 168.647 103.579V103.563C168.647 102.795 168.919 102.139 169.463 101.595C170.007 101.04 170.663 100.763 171.431 100.763C172.21 100.763 172.866 101.035 173.399 101.579C173.943 102.123 174.215 102.779 174.215 103.547V103.563C174.215 104.331 173.943 104.992 173.399 105.547C172.855 106.091 172.199 106.363 171.431 106.363ZM169.671 105.339C170.151 105.819 170.738 106.059 171.431 106.059C172.124 106.059 172.706 105.814 173.175 105.323C173.655 104.832 173.895 104.246 173.895 103.563V103.547C173.895 102.864 173.655 102.283 173.175 101.803C172.706 101.312 172.124 101.067 171.431 101.067C170.738 101.067 170.151 101.312 169.671 101.803C169.202 102.294 168.967 102.88 168.967 103.563V103.579C168.967 104.262 169.202 104.848 169.671 105.339ZM170.263 104.971V102.059H171.623C171.986 102.059 172.274 102.139 172.487 102.299C172.7 102.459 172.807 102.699 172.807 103.019V103.035C172.807 103.494 172.594 103.787 172.167 103.915L172.903 104.971H172.055L171.431 104.043H170.983V104.971H170.263ZM170.983 103.467H171.575C171.916 103.467 172.087 103.334 172.087 103.067V103.051C172.087 102.784 171.916 102.662 171.575 102.683H170.983V103.467Z" fill="white"/>
<g filter="url(#filter0_f)">
<circle cx="75.9189" cy="53.9192" r="28.5111" transform="rotate(-15 75.9189 53.9192)" fill="url(#paint0_radial)"/>
</g>
<path d="M48 56.5614C48 52.3231 48 50.2039 48.32 48.4366C49.8061 40.2294 56.2294 33.8061 64.4366 32.32C66.2039 32 68.3231 32 72.5614 32H76C83.4451 32 87.1677 32 90.1803 32.9789C96.2691 34.9572 101.043 39.7309 103.021 45.8197C104 48.8323 104 52.5549 104 60V74.7228C104 76.963 104 78.0831 103.564 78.9388C103.181 79.6914 102.569 80.3033 101.816 80.6868C100.96 81.1228 99.8402 81.1228 97.6 81.1228H72.5614C68.3231 81.1228 66.2039 81.1228 64.4366 80.8028C56.2294 79.3167 49.8061 72.8934 48.32 64.6862C48 62.9189 48 60.7997 48 56.5614Z" fill="#FED215"/>
<path d="M48 56.5614C48 52.3231 48 50.2039 48.32 48.4366C49.8061 40.2294 56.2294 33.8061 64.4366 32.32C66.2039 32 68.3231 32 72.5614 32H76C83.4451 32 87.1677 32 90.1803 32.9789C96.2691 34.9572 101.043 39.7309 103.021 45.8197C104 48.8323 104 52.5549 104 60V74.7228C104 76.963 104 78.0831 103.564 78.9388C103.181 79.6914 102.569 80.3033 101.816 80.6868C100.96 81.1228 99.8402 81.1228 97.6 81.1228H72.5614C68.3231 81.1228 66.2039 81.1228 64.4366 80.8028C56.2294 79.3167 49.8061 72.8934 48.32 64.6862C48 62.9189 48 60.7997 48 56.5614Z" fill="url(#paint1_linear)" fill-opacity="0.4" style="mix-blend-mode:soft-light"/>
<path fill-rule="evenodd" clip-rule="evenodd" d="M76 33.2H72.5614C68.2707 33.2 66.285 33.2048 64.6504 33.5008C56.9356 34.8977 50.8977 40.9356 49.5008 48.6504C49.2048 50.285 49.2 52.2707 49.2 56.5614C49.2 60.8521 49.2048 62.8378 49.5008 64.4724C50.8977 72.1872 56.9356 78.2251 64.6504 79.622C66.285 79.918 68.2707 79.9228 72.5614 79.9228H97.6C98.7399 79.9228 99.5227 79.9219 100.129 79.8723C100.722 79.8239 101.041 79.7351 101.271 79.6176C101.798 79.3492 102.226 78.9208 102.495 78.394C102.612 78.1635 102.701 77.8451 102.749 77.2523C102.799 76.6455 102.8 75.8627 102.8 74.7228V60C102.8 52.4615 102.785 48.9768 101.88 46.1905C100.02 40.467 95.533 35.9798 89.8095 34.1201C87.0232 33.2148 83.5385 33.2 76 33.2ZM48.32 48.4366C48 50.2039 48 52.3231 48 56.5614C48 60.7997 48 62.9189 48.32 64.6862C49.8061 72.8934 56.2294 79.3167 64.4366 80.8028C66.2039 81.1228 68.3231 81.1228 72.5614 81.1228H97.6C99.8402 81.1228 100.96 81.1228 101.816 80.6868C102.569 80.3033 103.181 79.6914 103.564 78.9388C104 78.0831 104 76.963 104 74.7228V60C104 52.5549 104 48.8323 103.021 45.8197C101.043 39.7309 96.2691 34.9572 90.1803 32.9789C87.1677 32 83.4451 32 76 32H72.5614C68.3231 32 66.2039 32 64.4366 32.32C56.2294 33.8061 49.8061 40.2294 48.32 48.4366Z" fill="url(#paint2_linear)"/>
<path d="M72.3702 48.0436C72.2504 49.9127 72.1905 53.4831 72.1905 58.7548C72.1905 64.0265 72.3941 67.3094 72.8015 68.6033C72.0107 68.843 71.2799 68.9628 70.6089 68.9628C69.938 68.9628 69.3988 68.9388 68.9915 68.8909C69.327 66.0873 69.4947 62.4211 69.4947 57.8922C69.4947 53.3393 69.4108 50.0565 69.2431 48.0436C65.9602 48.1874 63.8396 48.3552 62.8811 48.5469C62.7852 48.2114 62.7373 47.7561 62.7373 47.181C62.7373 46.6059 62.8332 46.0068 63.0249 45.3838C64.7981 45.5995 66.9427 45.7073 69.4587 45.7073C74.5388 45.7073 77.6778 45.5396 78.8759 45.2041C78.9718 45.6354 79.0197 46.1147 79.0197 46.6418C79.0197 47.169 78.9239 47.7441 78.7322 48.3671C76.8871 48.1994 74.7664 48.0916 72.3702 48.0436Z" fill="#171717"/>
<path d="M86.4957 59.4734C86.4957 63.4032 86.7114 66.3985 87.1427 68.4592C86.28 68.6989 85.5013 68.8187 84.8063 68.8187C84.1114 68.8187 83.6202 68.7947 83.3327 68.7468C83.6921 65.4879 83.8718 62.5046 83.8718 59.7969C83.8718 57.0651 83.6562 54.5371 83.2248 52.2128C84.0395 51.9731 84.7704 51.8533 85.4174 51.8533C86.0644 51.8533 86.6035 51.9013 87.0348 51.9971C86.6754 55.7113 86.4957 58.2034 86.4957 59.4734ZM87.1786 46.6415C87.1786 48.1272 86.4118 48.87 84.8782 48.87C83.6801 48.87 83.0811 48.259 83.0811 47.0369C83.0811 45.5273 83.8478 44.7725 85.3814 44.7725C86.5796 44.7725 87.1786 45.3955 87.1786 46.6415Z" fill="#171717"/>
<defs>
<filter id="filter0_f" x="0.344604" y="-21.6544" width="151.148" height="151.148" filterUnits="userSpaceOnUse" color-interpolation-filters="sRGB">
<feFlood flood-opacity="0" result="BackgroundImageFix"/>
<feBlend mode="normal" in="SourceGraphic" in2="BackgroundImageFix" result="shape"/>
<feGaussianBlur stdDeviation="23.5279" result="effect1_foregroundBlur"/>
</filter>
<radialGradient id="paint0_radial" cx="0" cy="0" r="1" gradientUnits="userSpaceOnUse" gradientTransform="translate(75.9189 53.9192) rotate(90) scale(28.5111)">
<stop stop-color="#FECF03"/>
<stop offset="1" stop-color="#171717"/>
</radialGradient>
<linearGradient id="paint1_linear" x1="104.778" y1="82.2786" x2="57.389" y2="20.2301" gradientUnits="userSpaceOnUse">
<stop stop-color="#826C00"/>
<stop offset="1" stop-color="#473900"/>
</linearGradient>
<linearGradient id="paint2_linear" x1="43.5278" y1="24.4871" x2="118.695" y2="57.2713" gradientUnits="userSpaceOnUse">
<stop stop-color="#FFCB00"/>
<stop offset="1" stop-color="#E8BE06"/>
</linearGradient>
</defs>
</svg>
