<svg width="100" height="91" viewBox="0 0 100 91" fill="none" xmlns="http://www.w3.org/2000/svg">
<path fill-rule="evenodd" clip-rule="evenodd" d="M50.3168 15.6951L55.3962 13.1585H57.3009L52.0629 15.6951H48.4121L43.174 13.1585H45.0787L50.3168 15.6951ZM50.3168 44.0729L53.9676 42.3291H55.8724L50.3168 45.0242L44.7613 42.3291H46.666L50.3168 44.0729ZM57.9359 40.4266L62.0628 38.3657V39.3169L57.9359 41.3778V40.4266ZM43.0152 41.3778L38.5708 39.1583V38.2071L42.8565 40.2681L43.0152 41.3778ZM56.9835 37.7315L62.0628 35.195V36.1462L57.6184 38.3657L56.9835 37.7315ZM43.174 38.3657L38.5708 36.1462V35.195L43.8089 37.7315L43.174 38.3657ZM54.4438 35.8291L62.0628 32.0243V32.9755L54.4438 36.6218C54.4438 36.3047 54.4438 35.9876 54.4438 35.8291ZM46.1898 36.7803L38.5708 32.9755V32.0243L46.1898 35.8291V35.9876C46.1898 35.9876 46.1898 36.3047 46.1898 36.7803ZM54.4438 32.6584L62.0628 28.8535V29.8048L54.4438 33.6096V32.6584ZM46.1898 33.6096L38.5708 29.8048V28.8535L46.1898 32.6584V33.6096ZM54.4438 29.4877L62.0628 25.6828V26.6341L54.4438 30.4389V29.4877ZM46.1898 30.4389L38.5708 26.6341V25.6828L46.1898 29.4877V30.4389ZM54.4438 26.317L58.0946 24.5731L58.8882 25.2072L54.4438 27.4267V26.317ZM46.1898 27.2682L41.9041 25.2072L42.6978 24.5731L46.3486 26.317V27.2682H46.1898ZM54.4438 23.1463L57.3009 21.7194C57.4597 22.0365 57.4597 22.1951 57.6184 22.5121L54.4438 24.0975V23.1463ZM46.1898 24.0975L43.174 22.5121C43.3327 22.1951 43.3327 22.0365 43.4914 21.7194L46.3486 23.1463V24.0975H46.1898ZM58.5708 14.7439L62.0628 13V13.9512L60.4755 14.7439H58.5708ZM40.1581 14.7439L38.5708 13.9512V13L42.0629 14.7439H40.1581Z" fill="#B0855F"/>
<path fill-rule="evenodd" clip-rule="evenodd" d="M47.4603 8.71985L50.3174 5.86621L53.1746 8.71985H66.3492V43.122L50.4762 51.2074L34.127 43.122V8.71985H47.4603ZM36.1904 10.7808V42.0123L50.4762 49.1464L64.4444 42.0123V10.7808H52.3809L50.3174 8.71985L48.2539 10.7808H36.1904Z" fill="#B0855F"/>
<path fill-rule="evenodd" clip-rule="evenodd" d="M28.7301 62.4639C28.7301 62.6225 28.7301 62.781 28.7301 62.781V70.7078C28.7301 72.1346 28.7302 72.2931 30.1587 72.2931H30.3174L30.4762 72.4517V73.2444L30.3174 73.4029H24.2857L24.127 73.2444V72.4517L24.2857 72.2931H24.4444C25.7143 72.1346 25.7143 71.9761 25.7143 70.7078V63.7322C25.7143 62.3054 25.873 62.3054 24.4444 62.1469H24.2857L24.127 61.9883V61.1957L24.2857 61.0371H33.1746L33.3333 61.1957V61.3542C33.3333 62.3054 33.3333 63.2566 33.4921 64.2078V64.3664L33.3333 64.5249L32.3809 64.6834L32.2222 64.5249V64.3664C32.0635 63.8908 31.9048 63.2566 31.5873 62.781C31.2698 62.3054 30.7937 62.3054 30.1587 62.3054H29.0476C29.0476 62.4639 28.7301 62.4639 28.7301 62.4639ZM26.6667 62.4639C26.6667 62.6225 26.6667 62.781 26.6667 62.9396V70.8663C26.6667 71.3419 26.6667 71.8175 26.8254 72.2931V72.4517H25.873V72.2931C26.0318 71.8175 26.0317 71.3419 26.0317 70.8663V63.8908C26.0317 63.4152 26.0318 62.9396 25.873 62.4639V62.3054H26.6667V62.4639ZM38.8889 62.781V70.8663C38.8889 71.3419 38.8889 71.8175 39.0476 72.2931V72.4517H38.0952V72.2931C38.254 71.8175 38.254 71.3419 38.254 70.8663V63.7322C38.254 63.2566 38.254 62.781 38.0952 62.3054V62.1469H38.8889V62.3054C39.0476 62.6225 38.8889 62.6225 38.8889 62.781ZM43.6508 66.7444C43.9683 66.1103 43.9683 65.4761 43.9683 64.842C43.9683 64.2078 43.8095 63.5737 43.6508 63.0981L43.4921 62.6225L43.9683 62.9396C44.6032 63.4152 44.9206 64.0493 44.9206 64.842C44.9206 65.6347 44.6032 66.4273 43.9683 66.9029L43.4921 67.22L43.6508 66.7444ZM54.9206 68.8054L54.7619 68.6468L54.9206 68.4883L53.3333 63.7322L53.0159 63.4152L53.4921 62.3054L53.6508 62.6225C54.6032 65.3176 55.5556 68.0127 56.6667 70.7078C56.8254 71.1834 56.9841 71.5005 57.1429 71.9761L57.3016 72.1346H55.873V71.9761C55.873 71.659 55.873 71.1834 55.7143 70.8663C55.5555 70.2322 55.2381 69.4395 54.9206 68.8054ZM68.0952 63.0981V63.5737C68.0952 63.7322 68.0952 64.0493 68.0952 64.2078V70.3907C68.0952 70.5493 68.0952 70.7078 68.0952 70.7078V71.0249V71.3419C68.0952 71.5005 68.0952 71.8175 68.0952 71.9761V72.1346H67.4603V71.9761C67.4603 71.8175 67.4603 71.5005 67.4603 71.1834V70.5493C67.4603 70.3907 67.4603 70.0737 67.4603 69.9151V64.2078C67.4603 63.8908 67.4603 63.5737 67.4603 63.2566V62.6225C67.4603 62.4639 67.4603 62.3054 67.4603 61.9883V61.8298H68.0952V61.9883C68.0952 62.1469 68.0952 62.3054 68.0952 62.6225V63.0981ZM63.1746 65.3176C63.0159 65.9517 62.8571 66.5859 62.8571 67.22C62.8571 67.8542 62.8571 68.4883 63.1746 69.1224L63.3333 69.7566L62.8571 69.281C62.3809 68.6468 62.2222 68.0127 62.2222 67.22C62.2222 66.4273 62.3809 65.7932 62.8571 65.1591L63.3333 64.6834L63.1746 65.3176ZM72.6984 69.1224C72.8571 68.4883 73.0159 67.8542 73.0159 67.22C73.0159 66.5859 72.8571 65.7932 72.6984 65.1591L72.3809 64.5249L72.8571 65.0005C73.3333 65.6347 73.6508 66.4273 73.6508 67.22C73.6508 68.0127 73.4921 68.6468 73.0159 69.281L72.5397 69.7566L72.6984 69.1224ZM5.07936 79.1102V87.6711C5.07936 88.1467 5.07937 88.6223 5.2381 89.0979V89.2564H4.28571V89.0979C4.44444 88.6223 4.44445 88.1467 4.44445 87.6711V79.1102H5.07936ZM15.7143 80.8541C15.3968 81.8053 15.2381 82.915 15.2381 83.8662C15.2381 85.2931 15.5556 86.7199 16.1905 87.9882L16.5079 88.6223L15.873 88.1467C14.7619 87.1955 14.127 85.6101 14.127 84.1833C14.127 82.915 14.4444 81.6467 15.3968 80.6955L15.873 80.0614L15.7143 80.8541ZM23.6508 87.5126C23.9682 86.5613 24.127 85.6101 24.127 84.6589C24.127 83.2321 23.8095 81.6467 23.3333 80.3785L23.0159 79.7443L23.4921 80.2199C24.6032 81.1711 25.0794 82.5979 25.0794 84.0248C25.0794 85.2931 24.7619 86.5613 23.9682 87.6711L23.4921 88.3052L23.6508 87.5126ZM37.4603 89.2564H36.5079V89.0979C36.6667 88.6223 36.6667 87.9882 36.6667 87.5126V80.0614C36.6667 79.7443 36.6667 79.5858 36.6667 79.2687V79.1102H37.4603V79.2687C37.3016 79.5858 37.3016 80.0614 37.3016 80.3785V87.354C37.3016 87.8296 37.3016 88.4638 37.4603 88.9394V89.2564ZM45.5555 88.3052C44.2857 87.354 43.8095 85.9272 43.8095 84.3418C43.8095 82.915 44.2857 81.6467 45.2381 80.6955L45.873 80.0614L45.5555 80.8541C45.0794 81.8053 44.9206 82.915 44.9206 84.0248C44.9206 85.4516 45.2381 86.8784 46.0317 88.1467L46.3492 88.7808L45.5555 88.3052ZM63.3333 79.1102V87.6711C63.3333 88.1467 63.3333 88.6223 63.4921 89.0979V89.2564H62.5397V89.0979C62.6984 88.6223 62.6984 88.1467 62.6984 87.6711V79.1102H63.3333ZM73.3333 80.8541C73.0159 81.8053 72.8571 82.915 72.8571 83.8662C72.8571 85.2931 73.1746 86.7199 73.8095 87.9882L74.127 88.6223L73.4921 88.1467C72.381 87.0369 71.746 85.6101 71.746 84.1833C71.746 82.915 72.0635 81.6467 73.0159 80.6955L73.4921 80.0614L73.3333 80.8541ZM81.2698 87.5126C81.5873 86.5613 81.746 85.6101 81.746 84.6589C81.746 83.2321 81.4286 81.6467 80.9524 80.3785L80.6349 79.7443L81.1111 80.2199C82.2222 81.1711 82.6984 82.5979 82.6984 84.0248C82.6984 85.2931 82.3809 86.5613 81.5873 87.6711L81.1111 88.3052L81.2698 87.5126ZM95.873 79.5858L95.3968 79.1102H96.5079V79.2687C96.3492 79.7443 96.3492 80.2199 96.3492 80.6955V87.5126C96.3492 87.9882 96.3492 88.6223 96.5079 89.0979V89.2564H95.5555V89.0979C95.7143 88.6223 95.7143 87.9882 95.7143 87.5126V83.2321C95.7143 82.1223 95.7143 81.1711 95.873 80.0614V79.5858ZM88.8889 88.6223L89.5238 89.2564H88.0952V89.0979C88.254 88.6223 88.254 87.9882 88.254 87.5126V80.8541C88.254 80.3785 88.254 79.7443 88.0952 79.2687V79.1102H89.0476V79.2687C88.8889 79.7443 88.8889 80.3785 88.8889 80.8541V84.6589C88.8889 85.9272 88.8889 87.354 88.8889 88.6223ZM40.9524 68.6468V70.8663C40.9524 72.2931 41.1111 72.2931 42.3809 72.4517H42.5397L42.6984 72.6102V73.4029L42.5397 73.5614H36.5079L36.3492 73.4029V72.6102L36.5079 72.4517H36.6667C37.9365 72.2931 37.9365 72.2931 37.9365 70.8663V63.7322C37.9365 62.4639 37.9365 62.3054 36.6667 62.1469H36.5079L36.3492 61.9883V61.1957L36.5079 61.0371H41.746C42.8571 61.0371 44.2857 61.1957 45.0794 61.8298C46.0317 62.4639 46.5079 63.5737 46.5079 64.842C46.5079 67.22 44.7619 68.6468 42.5397 68.9639C42.2222 68.9639 42.0635 68.9639 41.746 68.9639L40.9524 68.6468ZM54.6032 69.7566H51.4286C51.2698 70.3907 50.9524 70.8663 50.7937 71.5005C50.4762 72.4517 50.7936 72.2931 51.746 72.4517H51.9048L52.0635 72.6102V73.4029L51.9048 73.5614H47.4603L47.3016 73.4029V72.4517L47.4603 72.2931H47.619C48.8889 72.1346 49.0476 71.8175 49.5238 70.5493L53.3333 61.0371L53.4921 60.8786L54.6032 60.5615L54.7619 60.7201V60.8786C55.873 64.0493 57.1429 67.3785 58.254 70.5493C58.7302 71.659 58.7302 72.2931 60 72.4517H60.1587L60.3175 72.6102V73.4029L60.1587 73.5614H54.6032L54.4445 73.4029V72.6102L54.6032 72.4517H54.7619C55.5556 72.2931 55.7143 72.2931 55.3968 71.659C55.0794 71.0249 54.9206 70.3907 54.6032 69.7566ZM70.1587 62.6225C73.0159 62.781 75.5555 63.8908 75.5555 67.22C75.5555 70.7078 73.0159 71.659 70.1587 71.8175C70.1587 72.4517 70.3175 72.4517 71.2698 72.4517H71.4286L71.5873 72.6102V73.4029L71.4286 73.5614H66.0317L65.873 73.4029V72.6102L66.0317 72.4517H66.1905C66.9841 72.4517 67.3016 72.4517 67.3016 71.8175C64.4444 71.659 61.9048 70.5493 61.9048 67.22C61.9048 63.8908 64.4444 62.781 67.3016 62.6225C67.3016 62.4639 67.3016 62.3054 67.3016 62.3054C67.1428 62.1469 66.5079 62.1469 66.3492 62.1469H66.1905L66.0317 61.9883V61.1957L66.1905 61.0371H71.4286L71.5873 61.1957V61.9883L71.4286 62.1469H71.2698C70.4762 62.1469 70.1587 61.9883 70.1587 62.6225ZM7.14286 79.2687V87.6711C7.14286 89.0979 7.30159 89.0979 8.73016 89.2564H8.88887L9.04761 89.415V90.3662L8.88887 90.5247H2.53967L2.38095 90.3662V89.415L2.53967 89.2564H2.69841C4.12698 89.0979 4.12697 89.0979 4.12697 87.6711V79.2687H3.80951C3.17459 79.2687 2.38095 79.2687 1.90476 79.7443C1.5873 80.0614 1.26985 81.0126 1.26985 81.4882V81.6467L1.11111 81.8053H0.158716L0 81.6467V81.4882C0 80.2199 0.158716 79.1102 0.158716 77.8419V77.6834L0.317455 77.5248H0.952366H1.11111C1.42857 77.8419 1.5873 77.8419 1.90476 77.8419H9.36507C9.84126 77.8419 9.99999 77.8419 10.1587 77.5248H10.3175H10.9524L11.1111 77.6834V77.8419C11.1111 78.9516 11.2698 80.2199 11.2698 81.4882V81.6467L11.1111 81.8053H10.1587L10 81.6467V81.4882C9.84128 81.0126 9.68254 80.0614 9.20635 79.7443C8.88889 79.4272 7.9365 79.4272 7.46031 79.4272H7.14286V79.2687ZM20.6349 77.6834C24.2857 77.6834 26.9841 80.3785 26.9841 84.1833C26.9841 88.1467 24.2857 90.8418 20.3175 90.8418C16.5079 90.8418 13.8095 87.9882 13.8095 84.3418C13.8095 80.3785 16.8254 77.6834 20.6349 77.6834ZM40.6349 90.5247H34.7619L34.6032 90.3662V89.415L34.7619 89.2564H34.9206C36.3492 89.0979 36.1905 88.9394 36.1905 87.5126V80.0614C36.1905 79.9028 36.1905 79.4272 36.1905 79.4272H35.873H33.8095C33.4921 79.4272 33.4921 79.4272 33.4921 79.9028C33.4921 82.5979 33.3333 87.6711 31.746 89.8906C31.4286 90.3662 30.9524 91.0003 30.3174 91.0003C29.8413 91.0003 29.3651 91.0003 29.0476 90.8418H28.8889L28.7301 90.6833V90.0491V89.8906C29.6825 89.2564 30.1587 88.7808 30.4762 87.6711C31.4286 85.6101 31.5873 82.2809 31.5873 80.0614C31.5873 79.2687 30.9524 79.2687 30.1587 79.2687H30L29.8413 79.1102V78.159L30 78.0004H40.3175L40.4762 78.159V79.1102L40.3175 79.2687H40.1587C38.8889 79.4272 38.8889 79.4272 38.8889 80.6955V87.6711C38.8889 87.9882 38.8889 88.9394 39.0476 89.2564C39.2063 89.415 39.8413 89.415 40.1587 89.5735H40.3175L40.4762 89.732V90.6833L40.6349 90.5247ZM54.4445 86.5613L55.2381 86.8784L55.3968 87.0369V87.1955C55.0794 88.1467 54.7619 89.2564 54.2857 90.2077L54.127 90.3662C53.0159 90.6833 51.746 90.8418 50.6349 90.8418C46.6667 90.8418 43.3333 88.6223 43.3333 84.3418C43.3333 80.0614 46.8254 77.6834 50.9524 77.6834C52.2222 77.6834 53.1746 78.0004 54.4445 78.159H54.6032L54.7619 78.3175V78.476C54.9206 79.4272 55.0794 80.537 55.2381 81.4882V81.6467L55.0794 81.8053L54.127 81.9638L53.9683 81.8053V81.6467C53.4921 80.0614 52.5397 78.9516 50.7937 78.9516C48.0952 78.9516 46.9841 81.6467 46.9841 83.8662C46.9841 86.4028 48.254 89.2564 51.1111 89.2564C52.8571 89.2564 53.8095 87.9882 54.4445 86.5613ZM65.2381 79.2687V87.6711C65.2381 89.0979 65.3968 89.0979 66.8254 89.2564H66.9841L67.1429 89.415V90.3662L66.9841 90.5247H60.6349L60.4762 90.3662V89.415L60.6349 89.2564H60.7937C62.2222 89.0979 62.2222 89.0979 62.2222 87.6711V79.2687H61.9048C61.2698 79.2687 60.4762 79.2687 60 79.7443C59.6825 80.0614 59.3651 81.0126 59.3651 81.4882V81.6467L59.2064 81.8053H58.254L58.0952 81.6467V81.4882C58.0952 80.2199 58.254 79.1102 58.254 77.8419V77.6834L58.4127 77.5248H59.0476H59.2064C59.5238 77.8419 59.6825 77.8419 60 77.8419H67.4603C67.9365 77.8419 68.0952 77.8419 68.254 77.5248H68.4127H69.0476L69.2063 77.6834V77.8419C69.2063 78.9516 69.3651 80.2199 69.3651 81.4882V81.6467L69.2063 81.8053H68.254L68.0952 81.6467V81.4882C67.9365 81.0126 67.7778 80.0614 67.3016 79.7443C66.9841 79.4272 66.0318 79.4272 65.5556 79.4272H65.2381V79.2687ZM78.254 77.6834C81.9048 77.6834 84.6032 80.3785 84.6032 84.1833C84.6032 88.1467 81.9047 90.8418 77.9365 90.8418C74.127 90.8418 71.4286 87.9882 71.4286 84.3418C71.4286 80.3785 74.4445 77.6834 78.254 77.6834ZM95.3968 81.1711L91.1111 89.415C90.9524 89.5735 90.9524 89.732 90.9524 90.0491V90.3662L90.7936 90.5247H86.3492L86.1905 90.3662V89.415L86.3492 89.2564H86.5079C87.9365 89.0979 87.9365 88.9394 87.9365 87.5126V80.8541C87.9365 79.4272 88.0952 79.2687 86.5079 79.1102H86.3492L86.1905 78.9516V78.0004L86.3492 77.8419H92.0635L92.2222 78.0004V78.9516L92.0635 79.1102H91.9048C91.5873 79.1102 91.1111 79.1102 90.9524 79.2687C90.6349 79.4272 90.7936 80.3785 90.7936 80.6955V84.5004C90.7936 85.2931 90.7936 86.0857 90.7936 87.0369L95.0794 78.9516C95.0794 78.7931 95.2381 78.6346 95.2381 78.476V78.159L95.3968 78.0004H99.8413L100 78.159V79.1102L99.8413 79.2687H99.6825C98.254 79.4272 98.4127 79.5858 98.4127 81.0126V87.8296C98.4127 89.2564 98.4127 89.415 99.6825 89.5735H99.8413L100 89.732V90.6833L99.8413 90.8418H93.9683L93.8095 90.6833V89.732L93.9683 89.5735H94.127C95.5556 89.415 95.5555 89.2564 95.5555 87.8296V83.5492C95.3968 82.598 95.3968 81.8053 95.3968 81.1711ZM93.3333 77.6834C92.0635 77.6834 90.4762 77.2077 90.4762 75.6224C90.4762 74.9882 90.9524 74.5126 91.5873 74.5126C92.2222 74.5126 92.6984 74.9882 92.5397 75.6224C92.5397 76.098 92.8571 76.2565 93.1746 76.2565C93.6508 76.2565 93.8095 75.9395 93.8095 75.6224C93.8095 74.9882 94.127 74.5126 94.7619 74.5126C95.3968 74.5126 95.873 74.9882 95.873 75.6224C96.0317 77.2077 94.6032 77.6834 93.3333 77.6834ZM40.9524 67.3785C41.1111 67.3785 41.4286 67.5371 41.746 67.5371C43.1746 67.5371 43.6508 65.9517 43.6508 64.842C43.6508 63.5737 43.1746 62.3054 41.5873 62.3054C41.4286 62.3054 41.2698 62.3054 41.1111 62.4639L40.9524 62.781V67.3785ZM54.127 68.1712L53.1746 65.1591C52.8571 66.1103 52.381 67.0615 52.0635 68.1712H54.127ZM67.1429 63.8908C65.3968 64.2078 64.7619 65.4761 64.7619 67.22C64.7619 69.1224 65.3968 70.2322 67.1429 70.5493C67.1429 70.3907 67.1429 70.3907 67.1429 70.2322V64.5249C67.1429 64.2078 67.1429 64.0493 67.1429 63.8908ZM70.1587 70.5493C71.9048 70.2322 72.5397 69.1224 72.5397 67.22C72.5397 65.4761 71.9048 64.2078 70.1587 63.8908C70.1587 64.0493 70.1587 64.2078 70.1587 64.2078V70.5493ZM20.3175 78.9516C17.9365 78.9516 17.3016 81.9638 17.3016 83.8662C17.3016 85.9272 18.0952 89.415 20.7936 89.415C23.1746 89.415 23.6508 86.4028 23.6508 84.5004C23.6508 82.5979 23.0159 78.9516 20.3175 78.9516ZM77.9365 78.9516C75.5555 78.9516 74.9206 81.9638 74.9206 83.8662C74.9206 85.9272 75.7143 89.415 78.4127 89.415C80.7936 89.415 81.2698 86.4028 81.2698 84.5004C81.2698 82.5979 80.6349 78.9516 77.9365 78.9516Z" fill="#B0855F"/>
<path fill-rule="evenodd" clip-rule="evenodd" d="M7.93652 67.3763C7.93652 67.0593 8.09526 66.7422 8.41272 66.7422L17.619 66.2666C17.7778 66.2666 17.9365 66.2666 17.9365 66.4251C18.0953 66.5837 18.0952 66.5837 18.0952 66.7422V67.852C18.0952 68.0105 18.0953 68.169 17.9365 68.169C17.7778 68.3276 17.619 68.3276 17.619 68.3276L8.41272 67.852C8.09526 67.852 7.93652 67.6934 7.93652 67.3763ZM12.5397 67.3763L17.4603 67.6934V67.2178L12.5397 67.3763Z" fill="#B0855F"/>
<path fill-rule="evenodd" clip-rule="evenodd" d="M91.9048 67.2191C91.9048 66.9021 91.7461 66.585 91.4286 66.585L82.2223 66.1094C82.0636 66.1094 81.9048 66.1094 81.9048 66.2679C81.7461 66.4264 81.7461 66.4264 81.7461 66.585V67.6947C81.7461 67.8533 81.7461 68.0118 81.9048 68.0118C82.0635 68.1703 82.2223 68.1703 82.2223 68.1703L91.4286 67.6947C91.5873 67.8533 91.9048 67.5362 91.9048 67.2191ZM87.3016 67.2191L82.381 67.5362V67.0606L87.3016 67.2191Z" fill="#B0855F"/>
<path d="M50.4262 9.91224L48.7427 11.5938L50.4262 13.2753L52.1098 11.5938L50.4262 9.91224Z" fill="#B0855F"/>
<path fill-rule="evenodd" clip-rule="evenodd" d="M47.9363 12.0492H37.4601V40.9026L50.476 47.4026L63.1744 40.9026V12.0492H52.5395V11.415H63.6506H63.9681V11.7321V41.2197V41.3782H63.6506L50.6347 48.0367L50.476 48.1953L50.3173 48.0367L36.9839 41.3782H36.8252V41.2197V11.7321V11.415H37.1427H47.9363V12.0492Z" fill="#B0855F"/>
<path fill-rule="evenodd" clip-rule="evenodd" d="M34.2853 44.8652C35.3964 49.6213 46.5076 48.6701 45.079 55.6456C42.698 53.2676 33.1742 48.1945 32.8568 55.17C29.9996 52.9505 32.8568 51.0481 33.0155 50.5725C30.3171 49.1457 30.3171 47.2433 30.7933 45.1823C31.5869 46.2921 32.5393 47.2433 34.1266 47.7189C33.333 46.6091 33.4917 45.6579 34.2853 44.8652ZM33.333 49.9384C31.7457 49.1457 31.1107 48.353 31.1107 47.4018C31.5869 48.0359 32.3806 48.9872 33.333 49.9384ZM43.6504 53.7432C42.3806 52.1579 37.6187 48.5116 33.8092 51.5237C37.9362 49.7798 40.952 52.1579 43.6504 53.7432Z" fill="#B0855F"/>
<path fill-rule="evenodd" clip-rule="evenodd" d="M66.1902 45.0234C65.0791 49.7795 53.968 48.8283 55.5553 55.8038C57.9362 53.4258 67.46 48.3527 67.7775 55.3282C70.6346 53.1087 67.7775 51.2063 67.6187 50.7307C70.3172 49.3039 70.3172 47.4015 69.841 45.3405C69.0473 46.4503 68.0949 47.4015 66.5076 47.8771C67.1426 46.9259 66.9838 45.8161 66.1902 45.0234ZM56.5076 52.7917C58.7299 51.0478 63.333 50.4136 65.3965 47.7185C62.6981 49.7795 58.5711 50.2551 56.5076 52.7917Z" fill="#B0855F"/>
<path fill-rule="evenodd" clip-rule="evenodd" d="M77.4603 40.9025C70.9524 42.1708 69.6826 38.366 68.0953 36.1465C66.1905 41.0611 73.1746 43.122 72.0635 47.0854C73.3333 46.4513 74.127 45.3415 73.9683 43.2806C75.5556 43.4391 76.6667 42.4879 77.4603 40.9025ZM72.6984 45.0245C72.381 42.3294 70.3175 40.9025 68.5714 39.0001C69.3651 41.2196 71.5873 42.6464 72.6984 45.0245Z" fill="#B0855F"/>
<path fill-rule="evenodd" clip-rule="evenodd" d="M23.333 41.0608C29.8409 42.329 31.1108 38.5242 32.6981 36.3047C34.6028 41.2193 27.6187 43.2803 28.7298 47.2436C27.46 46.6095 26.6663 45.4997 26.8251 43.4388C25.2378 43.4388 24.2854 42.4876 23.333 41.0608ZM32.2219 38.0486C31.587 41.3778 28.2536 42.1705 26.3489 41.8534C28.8886 41.5364 30.9521 40.2681 32.2219 38.0486Z" fill="#B0855F"/>
<path fill-rule="evenodd" clip-rule="evenodd" d="M41.5869 3.64648H58.8885L58.4123 5.70745H51.4282L50.3171 4.59771L49.206 5.70745H42.2218L41.5869 3.64648Z" fill="#B0855F"/>
<path fill-rule="evenodd" clip-rule="evenodd" d="M41.5869 2.6951H59.0472V2.06095V0.95121V0H56.5075V0.95121H53.9679V0H51.4282V0.95121H49.206V0H46.6663V0.95121H44.1266V0H41.5869V0.95121V2.06095V2.6951Z" fill="#B0855F"/>
<path fill-rule="evenodd" clip-rule="evenodd" d="M73.6502 30.9144C72.8566 33.6095 75.0788 37.0972 79.8407 36.6216C76.5074 40.585 70.3169 38.207 70.3169 33.1339C70.3169 29.8046 73.4915 25.9998 70.4756 23.3047C71.428 22.3534 72.3804 22.1949 73.809 23.3047C76.8248 18.2315 72.3804 14.7437 71.5867 19.3413C69.9994 18.5486 69.682 17.1218 70.4756 14.9023C69.3645 14.9023 68.4121 15.8535 67.936 17.1218C66.6661 15.2193 67.301 12.5242 69.0471 12.0486C68.5709 11.0974 68.5709 9.98768 69.0471 8.87793C70.6344 13.4755 77.4598 11.4145 78.0947 17.4388C78.4121 20.6096 77.7772 23.1461 76.6661 25.0485C80.3169 25.5242 83.0153 26.7924 82.8566 30.7558C82.6978 33.1339 81.428 34.5607 78.8883 34.4021C76.1899 34.2436 74.9201 30.9144 76.9836 29.4875C78.5709 28.5363 79.9994 30.1217 79.5232 31.5485C79.8407 31.5485 80.7931 31.0729 80.3169 29.6461C79.2058 27.5851 75.0788 26.4754 73.6502 30.9144ZM77.1423 33.1339C76.1899 31.8656 76.0312 30.9144 76.8248 30.1217C76.5074 31.0729 76.6661 32.1826 77.1423 33.1339ZM80.4756 31.2314C80.7931 29.6461 80.3169 28.5363 79.0471 27.7437C80.4756 27.9022 81.7455 29.8046 80.4756 31.2314ZM74.9201 38.207C67.4598 34.8777 73.809 29.6461 72.3804 25.2071C74.7613 29.4875 68.4121 33.9265 74.9201 38.207ZM74.4439 23.3047C76.3486 22.512 76.9836 15.3779 73.0153 16.8047C76.6661 16.8047 75.2375 22.0364 74.4439 23.3047ZM69.5233 12.5242C68.2534 12.8413 67.7772 13.7925 67.7772 15.2193C68.2534 14.2681 68.7296 13.3169 69.5233 12.5242Z" fill="#B0855F"/>
<path fill-rule="evenodd" clip-rule="evenodd" d="M26.9842 30.9144C27.7779 33.6095 25.5557 37.0972 20.7938 36.6216C24.1271 40.585 30.3176 38.207 30.3176 33.1339C30.3176 29.8046 27.143 25.9998 30.1589 23.3047C29.2065 22.3534 28.0954 22.1949 26.8255 23.3047C23.8096 18.2315 28.2541 14.7437 29.0477 19.3413C30.635 18.5486 30.9525 17.1218 30.1589 14.9023C31.27 14.9023 32.2223 15.8535 32.6985 17.1218C33.9684 15.2193 33.3334 12.5242 31.5874 12.0486C32.0636 11.0974 32.0636 9.98768 31.5874 8.87793C30.0001 13.4755 23.1747 11.4145 22.5398 17.4388C22.2223 20.6096 22.8573 23.1461 23.9684 25.0485C20.3176 25.5242 17.6192 26.7924 17.7779 30.7558C17.9366 33.1339 19.2065 34.5607 21.7461 34.4021C24.4446 34.2436 25.7144 30.9144 23.6509 29.4875C22.0636 28.5363 20.4763 30.1217 21.1112 31.5485C20.7938 31.5485 19.8414 31.0729 20.3176 29.6461C21.4287 27.5851 25.5557 26.4754 26.9842 30.9144ZM28.0954 12.6828C23.9684 14.1096 23.4922 15.695 23.3335 18.7071C24.1271 16.012 24.4446 14.7437 28.0954 12.6828ZM29.3652 18.7071C29.8414 17.5974 28.7303 16.3291 27.6192 16.8047C28.5715 16.9632 29.2065 17.5974 29.3652 18.7071ZM19.2065 32.4997C18.2541 30.2802 18.7303 28.3778 20.3176 26.7924C19.2065 28.5363 19.0477 30.5973 19.2065 32.4997ZM22.8573 29.4875C21.9049 29.9631 21.5874 30.4388 22.0636 31.39C22.0636 30.7558 22.2223 29.9631 22.8573 29.4875ZM25.7144 36.4631C29.0477 35.1948 29.2065 30.2802 26.5081 28.6949C28.7303 31.5485 27.7779 34.2436 25.7144 36.4631Z" fill="#B0855F"/>
<path fill-rule="evenodd" clip-rule="evenodd" d="M53.333 19.4995V35.8286C53.333 38.6823 53.6505 38.5238 56.3489 38.8408H56.5076L56.8251 39.1579V40.9018L56.5076 41.2189H44.4441L44.1267 40.9018V39.1579L44.4441 38.8408H44.6028C47.3012 38.6823 47.46 38.6823 47.46 35.8286V19.4995H46.8251C45.7139 19.4995 43.9679 19.4995 43.1743 20.2922C42.5393 20.9263 42.0632 22.8287 41.7457 23.6214V23.78L41.4282 23.9385H39.6822L39.3647 23.6214V23.4629C39.5235 21.0849 39.6822 18.7068 39.8409 16.4873V16.3288L40.1584 16.0117H41.4282L41.587 16.1703V16.3288C42.0631 16.9629 42.3806 16.9629 43.1743 16.9629H57.6187C58.4124 16.9629 58.7298 16.8044 59.3647 16.3288V16.1703L59.5235 16.0117H60.7933L61.1108 16.3288V16.4873C61.1108 18.7068 61.2695 21.0849 61.4282 23.4629V23.6214L61.1108 23.9385L59.3647 24.097L59.0473 23.78V23.6214C58.7298 22.5117 58.4124 20.9263 57.6187 20.1336C56.9838 19.341 55.2378 19.4995 54.4441 19.4995H53.333ZM49.206 19.4995H48.5711V35.8286C48.5711 36.9384 48.4124 37.8896 48.2536 38.5238H49.5235C49.3647 37.8896 49.206 36.9384 49.206 35.8286V19.4995ZM40.952 17.1215L40.4759 16.8044L40.1584 23.1458L40.7933 22.9873L40.952 17.1215Z" fill="#B0855F"/>
</svg>
