<svg width="326" height="297" viewBox="0 0 326 297" fill="none" xmlns="http://www.w3.org/2000/svg">
<g opacity="0.5">
<path fill-rule="evenodd" clip-rule="evenodd" d="M163.969 51.0547L180.521 42.8038H186.728L169.658 51.0547H157.761L140.692 42.8038H146.899L163.969 51.0547ZM163.969 143.362L175.865 137.689H182.072L163.969 146.456L145.865 137.689H152.072L163.969 143.362ZM188.797 131.501L202.245 124.797V127.891L188.797 134.595V131.501ZM140.175 134.595L125.692 127.376V124.282L139.658 130.986L140.175 134.595ZM185.693 122.735L202.245 114.484V117.578L187.762 124.797L185.693 122.735ZM140.692 124.797L125.692 117.578V114.484L142.761 122.735L140.692 124.797ZM177.417 116.546L202.245 104.17V107.264L177.417 119.125C177.417 118.093 177.417 117.062 177.417 116.546ZM150.52 119.641L125.692 107.264V104.17L150.52 116.546V117.062C150.52 117.062 150.52 118.093 150.52 119.641ZM177.417 106.233L202.245 93.8564V96.9505L177.417 109.327V106.233ZM150.52 109.327L125.692 96.9505V93.8564L150.52 106.233V109.327ZM177.417 95.9191L202.245 83.5427V86.6368L177.417 99.0132V95.9191ZM150.52 99.0132L125.692 86.6368V83.5427L150.52 95.9191V99.0132ZM177.417 85.6055L189.314 79.933L191.9 81.9957L177.417 89.2152V85.6055ZM150.52 88.6996L136.554 81.9957L139.14 79.933L151.037 85.6055V88.6996H150.52ZM177.417 75.2918L186.728 70.6507C187.245 71.682 187.245 72.1977 187.762 73.2291L177.417 78.3859V75.2918ZM150.52 78.3859L140.692 73.2291C141.209 72.1977 141.209 71.682 141.727 70.6507L151.037 75.2918V78.3859H150.52ZM190.866 47.9606L202.245 42.2881V45.3822L197.073 47.9606H190.866ZM130.864 47.9606L125.692 45.3822V42.2881L137.071 47.9606H130.864Z" fill="#F5EAE5"/>
<path fill-rule="evenodd" clip-rule="evenodd" d="M154.661 28.3603L163.972 19.0781L173.283 28.3603H216.215V140.262L164.489 166.561L111.212 140.262V28.3603H154.661ZM117.936 35.0641V136.652L164.489 159.858L210.008 136.652V35.0641H170.696L163.972 28.3603L157.248 35.0641H117.936Z" fill="#F5EAE5"/>
<path fill-rule="evenodd" clip-rule="evenodd" d="M93.6232 203.18C93.6232 203.695 93.6232 204.211 93.6232 204.211V229.995C93.6232 234.636 93.6232 235.152 98.2785 235.152H98.7958L99.313 235.667V238.246L98.7958 238.761H79.1401L78.6228 238.246V235.667L79.1401 235.152H79.6573C83.7954 234.636 83.7954 234.12 83.7954 229.995V207.305C83.7954 202.664 84.3126 202.664 79.6573 202.148H79.1401L78.6228 201.633V199.054L79.1401 198.539H108.106L108.624 199.054V199.57C108.624 202.664 108.624 205.758 109.141 208.852V209.368L108.624 209.884L105.52 210.399L105.003 209.884V209.368C104.486 207.821 103.968 205.758 102.934 204.211C101.899 202.664 100.348 202.664 98.2785 202.664H94.6578C94.6578 203.18 93.6232 203.18 93.6232 203.18ZM86.8989 203.18C86.8989 203.695 86.8989 204.211 86.8989 204.727V230.511C86.8989 232.058 86.8989 233.605 87.4161 235.152V235.667H84.3127V235.152C84.8299 233.605 84.8299 232.058 84.8299 230.511V207.821C84.8299 206.274 84.8299 204.727 84.3127 203.18V202.664H86.8989V203.18ZM126.728 204.211V230.511C126.728 232.058 126.728 233.605 127.245 235.152V235.667H124.141V235.152C124.659 233.605 124.659 232.058 124.659 230.511V207.305C124.659 205.758 124.659 204.211 124.141 202.664V202.148H126.728V202.664C127.245 203.695 126.728 203.695 126.728 204.211ZM142.245 217.103C143.28 215.04 143.28 212.978 143.28 210.915C143.28 208.852 142.763 206.79 142.245 205.243L141.728 203.695L143.28 204.727C145.349 206.274 146.383 208.337 146.383 210.915C146.383 213.493 145.349 216.072 143.28 217.619L141.728 218.65L142.245 217.103ZM178.97 223.807L178.453 223.291L178.97 222.775L173.798 207.305L172.763 206.274L174.315 202.664L174.832 203.695C177.936 212.462 181.039 221.228 184.66 229.995C185.177 231.542 185.695 232.573 186.212 234.12L186.729 234.636H182.074V234.12C182.074 233.089 182.074 231.542 181.557 230.511C181.039 228.448 180.005 225.87 178.97 223.807ZM221.903 205.243V206.79C221.903 207.305 221.903 208.337 221.903 208.852V228.964C221.903 229.479 221.903 229.995 221.903 229.995V231.026V232.058C221.903 232.573 221.903 233.605 221.903 234.12V234.636H219.834V234.12C219.834 233.605 219.834 232.573 219.834 231.542V229.479C219.834 228.964 219.834 227.932 219.834 227.417V208.852C219.834 207.821 219.834 206.79 219.834 205.758V203.695C219.834 203.18 219.834 202.664 219.834 201.633V201.117H221.903V201.633C221.903 202.148 221.903 202.664 221.903 203.695V205.243ZM205.868 212.462C205.35 214.525 204.833 216.587 204.833 218.65C204.833 220.713 204.833 222.775 205.868 224.838L206.385 226.901L204.833 225.354C203.281 223.291 202.764 221.228 202.764 218.65C202.764 216.072 203.281 214.009 204.833 211.946L206.385 210.399L205.868 212.462ZM236.903 224.838C237.42 222.775 237.938 220.713 237.938 218.65C237.938 216.587 237.42 214.009 236.903 211.946L235.868 209.884L237.42 211.431C238.972 213.493 240.007 216.072 240.007 218.65C240.007 221.228 239.489 223.291 237.938 225.354L236.386 226.901L236.903 224.838ZM16.5522 257.326V285.172C16.5522 286.719 16.5522 288.266 17.0694 289.813V290.329H13.9659V289.813C14.4831 288.266 14.4832 286.719 14.4832 285.172V257.326H16.5522ZM51.2083 262.998C50.1738 266.092 49.6565 269.702 49.6565 272.796C49.6565 277.437 50.691 282.078 52.76 286.204L53.7945 288.266L51.7255 286.719C48.1048 283.625 46.0357 278.468 46.0357 273.827C46.0357 269.702 47.0702 265.577 50.1738 262.483L51.7255 260.42L51.2083 262.998ZM77.071 284.657C78.1055 281.563 78.6228 278.468 78.6228 275.374C78.6228 270.733 77.5883 265.577 76.0365 261.451L75.002 259.388L76.5538 260.935C80.1746 264.03 81.7264 268.671 81.7264 273.312C81.7264 277.437 80.6918 281.563 78.1055 285.172L76.5538 287.235L77.071 284.657ZM122.072 290.329H118.969V289.813C119.486 288.266 119.486 286.204 119.486 284.657V260.42C119.486 259.388 119.486 258.873 119.486 257.841V257.326H122.072V257.841C121.555 258.873 121.555 260.42 121.555 261.451V284.141C121.555 285.688 121.555 287.751 122.072 289.298V290.329ZM148.452 287.235C144.314 284.141 142.762 279.5 142.762 274.343C142.762 269.702 144.314 265.577 147.418 262.483L149.487 260.42L148.452 262.998C146.901 266.092 146.383 269.702 146.383 273.312C146.383 277.953 147.418 282.594 150.004 286.719L151.039 288.782L148.452 287.235ZM206.385 257.326V285.172C206.385 286.719 206.385 288.266 206.902 289.813V290.329H203.799V289.813C204.316 288.266 204.316 286.719 204.316 285.172V257.326H206.385ZM238.972 262.998C237.938 266.092 237.42 269.702 237.42 272.796C237.42 277.437 238.455 282.078 240.524 286.204L241.558 288.266L239.489 286.719C235.869 283.11 233.799 278.468 233.799 273.827C233.799 269.702 234.834 265.577 237.938 262.483L239.489 260.42L238.972 262.998ZM264.835 284.657C265.869 281.563 266.387 278.468 266.387 275.374C266.387 270.733 265.352 265.577 263.8 261.451L262.766 259.388L264.318 260.935C267.938 264.03 269.49 268.671 269.49 273.312C269.49 277.437 268.456 281.563 265.869 285.172L264.318 287.235L264.835 284.657ZM312.422 258.873L310.871 257.326H314.491V257.841C313.974 259.388 313.974 260.935 313.974 262.483V284.657C313.974 286.204 313.974 288.266 314.491 289.813V290.329H311.388V289.813C311.905 288.266 311.905 286.204 311.905 284.657V270.733C311.905 267.124 311.905 264.03 312.422 260.42V258.873ZM289.663 288.266L291.732 290.329H287.077V289.813C287.594 288.266 287.594 286.204 287.594 284.657V262.998C287.594 261.451 287.594 259.388 287.077 257.841V257.326H290.18V257.841C289.663 259.388 289.663 261.451 289.663 262.998V275.374C289.663 279.5 289.663 284.141 289.663 288.266ZM133.452 223.291V230.511C133.452 235.152 133.969 235.152 138.107 235.667H138.624L139.142 236.183V238.761L138.624 239.277H118.969L118.451 238.761V236.183L118.969 235.667H119.486C123.624 235.152 123.624 235.152 123.624 230.511V207.305C123.624 203.18 123.624 202.664 119.486 202.148H118.969L118.451 201.633V199.054L118.969 198.539H136.038C139.659 198.539 144.314 199.054 146.901 201.117C150.004 203.18 151.556 206.79 151.556 210.915C151.556 218.65 145.866 223.291 138.624 224.323C137.59 224.323 137.073 224.323 136.038 224.323L133.452 223.291ZM177.936 226.901H167.591C167.073 228.964 166.039 230.511 165.522 232.573C164.487 235.667 165.522 235.152 168.625 235.667H169.143L169.66 236.183V238.761L169.143 239.277H154.659L154.142 238.761V235.667L154.659 235.152H155.177C159.315 234.636 159.832 233.605 161.384 229.479L173.798 198.539L174.315 198.023L177.936 196.992L178.453 197.507V198.023C182.074 208.337 186.212 219.166 189.833 229.479C191.385 233.089 191.385 235.152 195.523 235.667H196.04L196.557 236.183V238.761L196.04 239.277H177.936L177.419 238.761V236.183L177.936 235.667H178.453C181.039 235.152 181.557 235.152 180.522 233.089C179.488 231.026 178.97 228.964 177.936 226.901ZM228.627 203.695C237.938 204.211 246.214 207.821 246.214 218.65C246.214 229.995 237.938 233.089 228.627 233.605C228.627 235.667 229.144 235.667 232.248 235.667H232.765L233.282 236.183V238.761L232.765 239.277H215.178L214.661 238.761V236.183L215.178 235.667H215.696C218.282 235.667 219.316 235.667 219.316 233.605C210.006 233.089 201.73 229.479 201.73 218.65C201.73 207.821 210.006 204.211 219.316 203.695C219.316 203.18 219.316 202.664 219.316 202.664C218.799 202.148 216.73 202.148 216.213 202.148H215.696L215.178 201.633V199.054L215.696 198.539H232.765L233.282 199.054V201.633L232.765 202.148H232.248C229.661 202.148 228.627 201.633 228.627 203.695ZM23.2765 257.841V285.172C23.2765 289.813 23.7938 289.813 28.4491 290.329H28.9663L29.4835 290.845V293.939L28.9663 294.454H8.27604L7.75883 293.939V290.845L8.27604 290.329H8.79333C13.4486 289.813 13.4486 289.813 13.4486 285.172V257.841H12.4141C10.3451 257.841 7.75882 257.841 6.20705 259.388C5.17254 260.42 4.13806 263.514 4.13806 265.061V265.577L3.62077 266.092H0.517208L0 265.577V265.061C0 260.935 0.517208 257.326 0.517208 253.2V252.685L1.0345 252.169H3.10349H3.62077C4.65528 253.2 5.17254 253.2 6.20705 253.2H30.518C32.0698 253.2 32.5871 253.2 33.1043 252.169H33.6216H35.6906L36.2079 252.685V253.2C36.2079 256.81 36.7251 260.935 36.7251 265.061V265.577L36.2079 266.092H33.1043L32.5871 265.577V265.061C32.0699 263.514 31.5526 260.42 30.0008 259.388C28.9663 258.357 25.8628 258.357 24.311 258.357H23.2765V257.841ZM67.2432 252.685C79.1401 252.685 87.9334 261.451 87.9334 273.827C87.9334 286.719 79.1401 295.486 66.2087 295.486C53.7946 295.486 45.0012 286.204 45.0012 274.343C45.0012 261.451 54.8291 252.685 67.2432 252.685ZM132.417 294.454H113.279L112.762 293.939V290.845L113.279 290.329H113.796C118.452 289.813 117.934 289.298 117.934 284.657V260.42C117.934 259.904 117.934 258.357 117.934 258.357H116.9H110.175C109.141 258.357 109.141 258.357 109.141 259.904C109.141 268.671 108.624 285.172 103.451 292.392C102.417 293.939 100.865 296.001 98.7958 296.001C97.244 296.001 95.6923 296.001 94.6578 295.486H94.1405L93.6232 294.97V292.907V292.392C96.7267 290.329 98.2785 288.782 99.313 285.172C102.417 278.468 102.934 267.639 102.934 260.42C102.934 257.841 100.865 257.841 98.2785 257.841H97.7613L97.244 257.326V254.232L97.7613 253.716H131.383L131.9 254.232V257.326L131.383 257.841H130.866C126.728 258.357 126.728 258.357 126.728 262.483V285.172C126.728 286.204 126.728 289.298 127.245 290.329C127.762 290.845 129.831 290.845 130.866 291.36H131.383L131.9 291.876V294.97L132.417 294.454ZM177.419 281.563L180.005 282.594L180.522 283.11V283.625C179.488 286.719 178.453 290.329 176.901 293.423L176.384 293.939C172.763 294.97 168.625 295.486 165.004 295.486C152.073 295.486 141.211 288.266 141.211 274.343C141.211 260.42 152.59 252.685 166.039 252.685C170.177 252.685 173.281 253.716 177.419 254.232H177.936L178.453 254.747V255.263C178.97 258.357 179.488 261.967 180.005 265.061V265.577L179.488 266.092L176.384 266.608L175.867 266.092V265.577C174.315 260.42 171.212 256.81 165.522 256.81C156.728 256.81 153.108 265.577 153.108 272.796C153.108 281.047 157.246 290.329 166.556 290.329C172.246 290.329 175.35 286.204 177.419 281.563ZM212.592 257.841V285.172C212.592 289.813 213.109 289.813 217.765 290.329H218.282L218.799 290.845V293.939L218.282 294.454H197.592L197.074 293.939V290.845L197.592 290.329H198.109C202.764 289.813 202.764 289.813 202.764 285.172V257.841H201.73C199.661 257.841 197.074 257.841 195.523 259.388C194.488 260.42 193.454 263.514 193.454 265.061V265.577L192.936 266.092H189.833L189.315 265.577V265.061C189.315 260.935 189.833 257.326 189.833 253.2V252.685L190.35 252.169H192.419H192.936C193.971 253.2 194.488 253.2 195.523 253.2H219.834C221.385 253.2 221.903 253.2 222.42 252.169H222.937H225.006L225.523 252.685V253.2C225.523 256.81 226.041 260.935 226.041 265.061V265.577L225.523 266.092H222.42L221.903 265.577V265.061C221.385 263.514 220.868 260.42 219.316 259.388C218.282 258.357 215.178 258.357 213.627 258.357H212.592V257.841ZM255.007 252.685C266.904 252.685 275.697 261.451 275.697 273.827C275.697 286.719 266.904 295.486 253.972 295.486C241.558 295.486 232.765 286.204 232.765 274.343C232.765 261.451 242.593 252.685 255.007 252.685ZM310.871 264.03L296.905 290.845C296.387 291.36 296.387 291.876 296.387 292.907V293.939L295.87 294.454H281.387L280.87 293.939V290.845L281.387 290.329H281.904C286.56 289.813 286.56 289.298 286.56 284.657V262.998C286.56 258.357 287.077 257.841 281.904 257.326H281.387L280.87 256.81V253.716L281.387 253.2H300.008L300.525 253.716V256.81L300.008 257.326H299.491C298.456 257.326 296.905 257.326 296.387 257.841C295.353 258.357 295.87 261.451 295.87 262.483V274.859C295.87 277.437 295.87 280.015 295.87 283.11L309.836 256.81C309.836 256.294 310.353 255.779 310.353 255.263V254.232L310.871 253.716H325.354L325.871 254.232V257.326L325.354 257.841H324.836C320.181 258.357 320.698 258.873 320.698 263.514V285.688C320.698 290.329 320.698 290.845 324.836 291.36H325.354L325.871 291.876V294.97L325.354 295.486H306.215L305.698 294.97V291.876L306.215 291.36H306.733C311.388 290.845 311.388 290.329 311.388 285.688V271.765C310.871 268.671 310.871 266.092 310.871 264.03ZM304.146 252.685C300.008 252.685 294.836 251.138 294.836 245.981C294.836 243.918 296.387 242.371 298.456 242.371C300.525 242.371 302.077 243.918 301.56 245.981C301.56 247.528 302.594 248.044 303.629 248.044C305.181 248.044 305.698 247.012 305.698 245.981C305.698 243.918 306.732 242.371 308.802 242.371C310.871 242.371 312.422 243.918 312.422 245.981C312.94 251.138 308.284 252.685 304.146 252.685ZM133.452 219.166C133.969 219.166 135.004 219.681 136.038 219.681C140.694 219.681 142.245 214.525 142.245 210.915C142.245 206.79 140.693 202.664 135.521 202.664C135.004 202.664 134.486 202.664 133.969 203.18L133.452 204.211V219.166ZM176.384 221.744L173.281 211.946C172.246 215.04 170.694 218.134 169.66 221.744H176.384ZM218.799 207.821C213.109 208.852 211.04 212.978 211.04 218.65C211.04 224.838 213.109 228.448 218.799 229.479C218.799 228.964 218.799 228.964 218.799 228.448V209.884C218.799 208.852 218.799 208.337 218.799 207.821ZM228.627 229.479C234.317 228.448 236.386 224.838 236.386 218.65C236.386 212.978 234.317 208.852 228.627 207.821C228.627 208.337 228.627 208.852 228.627 208.852V229.479ZM66.2087 256.81C58.4499 256.81 56.3808 266.608 56.3808 272.796C56.3808 279.5 58.9671 290.845 67.7604 290.845C75.5193 290.845 77.071 281.047 77.071 274.859C77.071 268.671 75.0021 256.81 66.2087 256.81ZM253.972 256.81C246.214 256.81 244.145 266.608 244.145 272.796C244.145 279.5 246.731 290.845 255.524 290.845C263.283 290.845 264.835 281.047 264.835 274.859C264.835 268.671 262.766 256.81 253.972 256.81Z" fill="#F5EAE5"/>
<path fill-rule="evenodd" clip-rule="evenodd" d="M25.8618 219.16C25.8618 218.129 26.3791 217.097 27.4136 217.097L57.4144 215.55C57.9316 215.55 58.4489 215.55 58.4489 216.066C58.9662 216.582 58.9661 216.582 58.9661 217.097V220.707C58.9661 221.223 58.9662 221.738 58.4489 221.738C57.9317 222.254 57.4144 222.254 57.4144 222.254L27.4136 220.707C26.3791 220.707 25.8618 220.191 25.8618 219.16ZM40.8622 219.16L56.8971 220.191V218.644L40.8622 219.16Z" fill="#F5EAE5"/>
<path fill-rule="evenodd" clip-rule="evenodd" d="M299.492 218.646C299.492 217.615 298.975 216.583 297.941 216.583L267.94 215.036C267.422 215.036 266.905 215.036 266.905 215.551C266.388 216.067 266.388 216.067 266.388 216.583V220.193C266.388 220.709 266.388 221.225 266.905 221.225C267.422 221.741 267.94 221.741 267.94 221.741L297.941 220.193C298.458 220.709 299.492 219.678 299.492 218.646ZM284.492 218.646L268.457 219.678V218.13L284.492 218.646Z" fill="#F5EAE5"/>
<path d="M164.327 32.2409L158.841 37.7104L164.327 43.18L169.813 37.7104L164.327 32.2409Z" fill="#F5EAE5"/>
<path fill-rule="evenodd" clip-rule="evenodd" d="M156.208 39.195H122.069V133.048L164.484 154.191L205.865 133.048V39.195H171.209V37.1323H207.417H208.451V38.1637V134.079V134.595H207.417L165.002 156.253L164.484 156.769L163.967 156.253L120.518 134.595H120V134.079V38.1637V37.1323H121.035H156.208V39.195Z" fill="#F5EAE5"/>
<path fill-rule="evenodd" clip-rule="evenodd" d="M111.727 145.937C115.347 161.406 151.555 158.312 146.9 181.001C139.141 173.266 108.106 156.765 107.071 179.454C97.7607 172.235 107.071 166.047 107.589 164.5C98.7953 159.859 98.7952 153.671 100.347 146.968C102.933 150.577 106.037 153.671 111.209 155.218C108.623 151.609 109.14 148.515 111.727 145.937ZM108.623 162.437C103.451 159.859 101.381 157.281 101.381 154.187C102.933 156.25 105.52 159.344 108.623 162.437ZM142.245 174.813C138.107 169.657 122.589 157.797 110.175 167.594C123.624 161.922 133.451 169.657 142.245 174.813Z" fill="#F5EAE5"/>
<path fill-rule="evenodd" clip-rule="evenodd" d="M215.694 146.451C212.074 161.921 175.866 158.827 181.038 181.517C188.797 173.782 219.833 157.28 220.867 179.97C230.178 172.751 220.867 166.563 220.35 165.016C229.143 160.374 229.143 154.186 227.591 147.483C225.005 151.092 221.902 154.186 216.729 155.733C218.798 152.639 218.281 149.03 215.694 146.451ZM184.142 171.719C191.383 166.047 206.384 163.984 213.108 155.218C204.315 161.921 190.866 163.468 184.142 171.719Z" fill="#F5EAE5"/>
<path fill-rule="evenodd" clip-rule="evenodd" d="M252.419 133.047C231.212 137.172 227.074 124.796 221.901 117.577C215.694 133.563 238.453 140.266 234.832 153.158C238.97 151.096 241.557 147.486 241.039 140.782C246.212 141.298 249.833 138.204 252.419 133.047ZM236.901 146.454C235.867 137.688 229.143 133.047 223.453 126.859C226.039 134.078 233.281 138.719 236.901 146.454Z" fill="#F5EAE5"/>
<path fill-rule="evenodd" clip-rule="evenodd" d="M76.0366 133.561C97.2441 137.686 101.382 125.31 106.555 118.091C112.762 134.077 90.0025 140.78 93.6233 153.671C89.4852 151.609 86.899 147.999 87.4162 141.296C82.2437 141.296 79.1402 138.202 76.0366 133.561ZM105.003 123.764C102.934 134.592 92.0715 137.17 85.8644 136.139C94.1405 135.108 100.865 130.983 105.003 123.764Z" fill="#F5EAE5"/>
<path fill-rule="evenodd" clip-rule="evenodd" d="M135.52 11.8594H191.901L190.349 18.5632H167.59L163.969 14.9535L160.348 18.5632H137.589L135.52 11.8594Z" fill="#F5EAE5"/>
<path fill-rule="evenodd" clip-rule="evenodd" d="M135.52 8.76647H192.418V6.70376V3.09405V0H184.142V3.09405H175.866V0H167.59V3.09405H160.348V0H152.072V3.09405H143.796V0H135.52V3.09405V6.70376V8.76647Z" fill="#F5EAE5"/>
<path fill-rule="evenodd" clip-rule="evenodd" d="M240.007 100.559C237.421 109.325 244.663 120.67 260.18 119.123C249.318 132.015 229.145 124.28 229.145 107.778C229.145 96.9491 239.49 84.5729 229.662 75.8064C232.766 72.7123 235.869 72.1966 240.525 75.8064C250.352 59.3047 235.869 47.9599 233.283 62.9145C228.11 60.3361 227.076 55.695 229.662 48.4756C226.041 48.4756 222.938 51.5696 221.386 55.695C217.248 49.5069 219.317 40.7404 225.007 39.1934C223.455 36.0993 223.455 32.4896 225.007 28.8799C230.179 43.8345 252.421 37.1307 254.49 56.7264C255.525 67.0399 253.456 75.2907 249.835 81.4788C261.732 83.0258 270.525 87.1512 270.008 100.043C269.491 107.778 265.353 112.419 257.077 111.904C248.283 111.388 244.145 100.559 250.87 95.9177C256.042 92.8237 260.698 97.9804 259.146 102.622C260.18 102.622 263.284 101.074 261.732 96.4334C258.111 89.7296 244.663 86.1199 240.007 100.559ZM251.387 107.778C248.283 103.653 247.766 100.559 250.352 97.9804C249.318 101.074 249.835 104.684 251.387 107.778ZM262.249 101.59C263.284 96.4334 261.732 92.8237 257.594 90.2453C262.249 90.761 266.387 96.9491 262.249 101.59ZM244.145 124.28C219.834 113.451 240.525 96.4334 235.869 81.9945C243.628 95.9177 222.938 110.357 244.145 124.28ZM242.594 75.8064C248.801 73.228 250.87 50.0226 237.938 54.6637C249.835 54.6637 245.18 71.681 242.594 75.8064ZM226.559 40.7404C222.421 41.7718 220.869 44.8658 220.869 49.5069C222.421 46.4129 223.972 43.3188 226.559 40.7404Z" fill="#F5EAE5"/>
<path fill-rule="evenodd" clip-rule="evenodd" d="M87.9356 100.559C90.5219 109.325 83.2803 120.67 67.7626 119.123C78.625 132.015 98.7979 124.28 98.7979 107.778C98.7979 96.9491 88.4529 84.5729 98.2807 75.8064C95.1772 72.7123 91.5564 72.1966 87.4183 75.8064C77.5905 59.3047 92.0737 47.9599 94.6599 62.9145C99.8325 60.3361 100.867 55.695 98.2807 48.4756C101.902 48.4756 105.005 51.5696 106.557 55.695C110.695 49.5069 108.626 40.7404 102.936 39.1934C104.488 36.0993 104.488 32.4896 102.936 28.8799C97.7634 43.8345 75.5215 37.1307 73.4524 56.7264C72.4179 67.0399 74.4869 75.2907 78.1077 81.4788C66.2108 83.0258 57.4175 87.1512 57.9348 100.043C58.452 107.778 62.5901 112.419 70.8662 111.904C79.6595 111.388 83.7975 100.559 77.0732 95.9177C71.9007 92.8237 66.7281 97.9804 68.7972 102.622C67.7627 102.622 64.6591 101.074 66.2109 96.4334C69.8317 89.7296 83.2803 86.1199 87.9356 100.559ZM91.5564 41.2561C78.1077 45.8972 76.556 51.0539 76.0387 60.8518C78.625 52.0853 79.6595 47.9599 91.5564 41.2561ZM95.6944 60.8518C97.2462 57.2421 93.6254 53.1166 90.0046 54.6637C93.1081 55.1793 95.1772 57.2421 95.6944 60.8518ZM62.59 105.716C59.4865 98.4961 61.0383 92.308 66.2109 87.1512C62.5901 92.8237 62.0728 99.5275 62.59 105.716ZM74.4869 95.9177C71.3834 97.4648 70.3489 99.0118 71.9007 102.106C71.9007 100.043 72.4179 97.4648 74.4869 95.9177ZM83.7975 118.607C94.6599 114.482 95.1772 98.4961 86.3838 93.3393C93.6254 102.622 90.5219 111.388 83.7975 118.607Z" fill="#F5EAE5"/>
<path fill-rule="evenodd" clip-rule="evenodd" d="M173.798 63.4289V116.543C173.798 125.826 174.833 125.31 183.626 126.341H184.143L185.178 127.373V133.045L184.143 134.076H144.832L143.797 133.045V127.373L144.832 126.341H145.349C154.142 125.826 154.66 125.826 154.66 116.543V63.4289H152.591C148.97 63.4289 143.28 63.4289 140.694 66.0072C138.625 68.0699 137.073 74.258 136.039 76.8364V77.3521L135.004 77.8678H129.314L128.28 76.8364V76.3207C128.797 68.5856 129.314 60.8505 129.831 53.631V53.1153L130.866 52.084H135.004L135.521 52.5997V53.1153C137.073 55.178 138.108 55.178 140.694 55.178H187.764C190.35 55.178 191.385 54.6624 193.454 53.1153V52.5997L193.971 52.084H198.109L199.144 53.1153V53.631C199.144 60.8505 199.661 68.5856 200.178 76.3207V76.8364L199.144 77.8678L193.454 78.3834L192.419 77.3521V76.8364C191.385 73.2267 190.35 68.0699 187.764 65.4915C185.695 62.9132 180.005 63.4289 177.419 63.4289H173.798ZM160.35 63.4289H158.281V116.543C158.281 120.153 157.763 123.247 157.246 125.31H161.384C160.867 123.247 160.35 120.153 160.35 116.543V63.4289ZM133.452 55.6937L131.901 54.6624L130.866 75.2894L132.935 74.7737L133.452 55.6937Z" fill="#F5EAE5"/>
</g>
</svg>
