<svg width="92" height="55" viewBox="0 0 92 55" fill="none" xmlns="http://www.w3.org/2000/svg">
<path d="M24.523 54.9997C24.6393 54.8378 24.7266 54.6405 24.8774 54.5204C26.0599 53.5736 27.2511 52.6375 28.4467 51.7068C28.9906 51.2832 29.626 51.0838 30.3099 51.1106C31.625 51.1621 32.9389 51.236 34.2518 51.3197C36.8852 51.488 39.4927 51.414 42 50.4747C43.1492 50.0437 44.2252 49.47 45.1493 48.6508C45.3851 48.4417 45.5736 48.1801 45.7847 47.9431C45.7621 47.9131 45.7395 47.8831 45.7158 47.8541C45.299 47.9978 44.8821 48.1404 44.4664 48.2852C43.7502 48.535 43.035 48.7891 42.3177 49.0358C41.0415 49.4743 39.7533 49.4904 38.4867 49.0347C37.2762 48.5993 36.086 48.1082 34.8905 47.6343C34.7419 47.5753 34.5448 47.4992 34.4899 47.378C34.394 47.1657 34.2895 46.8601 34.3768 46.6918C34.4651 46.5224 34.7936 46.3776 35.0015 46.3958C35.2976 46.4205 35.5852 46.5953 35.8695 46.7207C37.1081 47.2687 38.3349 47.8434 39.6952 48.0536C40.7507 48.2165 41.748 48.0611 42.7033 47.6021C43.0824 47.4209 43.4443 47.1936 43.8374 47.0574C44.3049 46.8955 44.8003 46.8119 45.2817 46.6864C45.5133 46.6253 45.7782 46.5985 45.9635 46.4655C47.4013 45.4351 48.2629 44.0454 48.4687 42.2837C48.487 42.1239 48.3599 41.9277 48.2565 41.7787C47.8806 41.2382 47.4412 40.7354 47.1138 40.1692C46.8542 39.7199 47.0987 39.3586 47.6318 39.2792C48.2845 39.1816 48.9027 39.2899 49.4746 39.6266C49.6943 39.7564 49.914 39.8861 50.1887 40.048C50.1779 39.9033 50.1833 39.8175 50.1628 39.7381C50.1014 39.5033 50.0045 39.2749 49.9657 39.0369C49.8171 38.1383 49.3928 37.5797 48.5171 37.1057C46.1369 35.8158 44.5569 33.7549 43.692 31.2104C43.0975 29.4626 42.6516 27.6655 42.1389 25.8909C42.0539 25.595 41.9612 25.3012 41.8137 25.0202C41.8643 25.3752 41.916 25.729 41.9795 26.1751C41.7706 26.041 41.6274 25.9542 41.4895 25.8598C39.651 24.6042 37.7662 23.4333 35.6509 22.6816C33.877 22.0511 32.0569 21.6833 30.1774 22.0007C28.2119 22.3331 25.697 23.9115 25.2985 26.2598C25.2339 26.6404 25.2145 27.0415 25.2543 27.4243C25.3373 28.2016 25.879 28.7399 26.6609 28.7292C27.2878 28.7206 27.92 28.5844 28.5371 28.4451C29.7369 28.1748 30.9238 27.8424 32.1258 27.5819C32.4284 27.5165 32.7774 27.5819 33.0897 27.6537C33.5852 27.7685 33.7876 28.103 33.5895 28.5662C33.3848 29.0444 33.149 29.5473 32.7989 29.9194C31.6422 31.1514 30.4898 32.4006 29.2189 33.5104C27.3944 35.1049 25.4654 36.5814 23.5817 38.1094C23.4363 38.2273 23.2931 38.3463 23.1175 38.4911C23.1907 38.5179 23.2252 38.5447 23.2489 38.5372C25.292 37.9035 27.3761 37.3856 29.318 36.4613C31.4279 35.4555 33.3428 34.1667 35.0036 32.5186C36.3197 31.2126 37.8308 30.1607 39.3882 29.171C39.6585 28.9994 39.9633 28.8793 40.2918 28.7163C40.5309 29.2525 40.7399 29.7479 40.9693 30.2325C41.2698 30.8673 41.5627 31.5064 41.9009 32.1208C42.2488 32.7534 42.6936 33.3142 43.3226 33.7077C43.4368 33.7785 43.5068 33.919 43.6565 34.098C42.9801 34.1699 42.3931 34.2342 41.8051 34.2932C41.1976 34.3543 40.5869 34.3961 39.9827 34.4755C39.5595 34.5312 39.204 34.4229 38.8917 34.1495C38.3209 33.6498 37.75 33.1502 37.1911 32.6376C36.9638 32.4285 36.7839 32.4049 36.5352 32.6172C35.8168 33.2316 35.0629 33.8042 34.3531 34.4272C31.5862 36.8591 28.3734 38.5168 24.9571 39.8239C22.0728 40.9273 19.1099 41.7358 16.0328 42.0714C13.0236 42.3995 10.0714 42.1711 7.22698 41.0538C5.56081 40.3997 4.35239 39.2878 3.58015 37.658C2.79715 36.0067 2.35557 34.3168 2.64529 32.3738C2.9167 32.5926 3.18596 32.7448 3.36798 32.9679C3.87203 33.5866 4.35562 34.2235 4.81982 34.8733C6.36536 37.036 8.52804 38.0247 11.128 38.2241C14.9321 38.5158 18.6554 38.0075 22.3431 37.1325C22.5747 37.0779 22.7976 36.9835 23.0249 36.9074C23.0227 36.8731 23.0206 36.8377 23.0173 36.8034C22.5251 36.7605 22.034 36.7047 21.5407 36.6779C19.3737 36.561 17.2024 36.4892 15.0387 36.3294C12.8017 36.1643 10.6422 35.6828 8.69174 34.4948C6.87264 33.3871 5.57482 31.9053 5.17308 29.7639C4.87475 28.1738 5.11816 26.6158 5.50804 25.0738C5.64913 24.5131 5.83869 23.9651 6.04009 23.2992C6.40305 23.7796 6.70893 24.1646 6.99434 24.5656C7.77735 25.6679 8.50003 26.8174 9.34012 27.8746C10.765 29.6685 12.4237 31.2169 14.5109 32.2494C15.9531 32.9636 17.5094 33.2981 19.0829 33.4858C20.5606 33.6627 22.0566 33.6852 23.5462 33.7538C23.8596 33.7688 24.1773 33.6884 24.4929 33.652C24.4961 33.6026 24.5004 33.5533 24.5036 33.504C24.1471 33.4214 23.7939 33.3206 23.4341 33.2606C21.0765 32.8671 18.7448 32.3663 16.5218 31.4656C13.7861 30.3569 11.5545 28.6488 10.1565 25.9981C8.75852 23.3475 8.92331 20.6679 10.08 17.9905C11.1108 15.6068 12.5594 13.4762 14.3375 11.6051C16.7059 9.11318 19.2003 6.74133 21.6129 4.29013C22.4088 3.48057 23.111 2.57987 23.8682 1.73171C24.3895 1.1484 24.9323 0.584385 25.4762 0C26.2484 0.893197 26.4208 1.85824 26.285 2.91871C26.1698 3.81619 26.0976 4.71797 26.0083 5.61867C26.0007 5.69695 26.0072 5.77737 26.0072 5.92319C26.1763 5.82669 26.3001 5.75485 26.4251 5.68622C27.3405 5.18869 28.2485 4.67615 29.1801 4.20971C29.388 4.1057 29.7337 4.07139 29.92 4.1754C30.2507 4.35983 30.4015 4.71261 30.2679 5.11792C29.7208 6.78208 29.206 8.4591 28.6157 10.1082C28.1612 11.3778 27.5969 12.6077 27.1122 13.8676C26.788 14.7093 26.8397 14.7447 27.7337 14.8541C29.2415 15.0374 30.7536 15.1961 32.2507 15.4492C33.289 15.625 34.3272 15.8727 35.3246 16.2094C38.9089 17.4211 41.3484 19.8455 42.5988 23.385C43.2138 25.1242 43.6317 26.9321 44.1584 28.7035C44.377 29.4401 44.6323 30.1671 44.8929 30.8898C45.4637 32.4746 46.3814 33.8214 47.6857 34.9054C48.2274 35.3558 48.7411 35.8383 49.284 36.2887C49.5101 36.4763 49.7568 36.6683 50.0282 36.7712C50.9049 37.1014 51.3142 37.7491 51.437 38.6359C51.5393 39.3811 51.55 40.1199 51.3174 40.8404C51.2356 41.0924 51.1225 41.3573 50.9491 41.5524C50.5807 41.9695 50.3535 42.0746 49.9474 41.6554C49.7729 41.4752 49.5629 41.3294 49.3701 41.1685C49.34 41.1868 49.3109 41.205 49.2807 41.2232C49.4617 41.739 49.6179 42.2665 49.8343 42.7673C49.9582 43.0547 49.9862 43.2938 49.8376 43.5715C49.3572 44.4636 48.8725 45.3547 48.4159 46.2586C46.7853 49.4872 44.1196 51.3497 40.6333 52.1518C38.2649 52.6965 35.8695 52.6793 33.4667 52.5174C32.7085 52.4659 31.9524 52.3941 31.1974 52.3083C30.6804 52.2504 30.2151 52.3491 29.7445 52.5742C28.4596 53.1876 27.2996 53.9639 26.3206 54.9986C25.7185 54.9997 25.1208 54.9997 24.523 54.9997ZM18.2105 21.2384C18.8331 20.8566 19.4071 20.4781 20.006 20.1457C20.6446 19.7908 21.3447 19.5345 21.9532 19.1389C23.6097 18.0612 25.0895 16.8389 25.5376 14.7479C25.7315 13.844 26.0653 12.9637 26.4014 12.0984C26.9873 10.5908 27.6356 9.10782 28.2355 7.6045C28.4531 7.05872 28.605 6.4872 28.787 5.92748C28.7558 5.89853 28.7245 5.86958 28.6933 5.8417C28.1882 6.14086 27.6389 6.38641 27.1887 6.75205C26.5392 7.27961 25.9092 7.85005 25.3631 8.48162C23.3921 10.757 21.6904 13.2318 20.1223 15.7945C19.5536 16.723 19.0797 17.717 18.6349 18.7121C18.2816 19.5045 18.1912 20.3677 18.2105 21.2384ZM18.9882 9.04349C19.1583 9.02097 19.2133 9.02418 19.2607 9.00488C21.0453 8.29933 22.8299 7.59271 24.6124 6.8818C24.8784 6.77564 24.9657 6.58907 24.956 6.28026C24.9237 5.24659 24.9388 4.21079 24.9355 3.17605C24.9355 3.03666 24.9355 2.89726 24.9355 2.7064C22.9463 4.82627 21.0022 6.89681 18.9882 9.04349ZM40.4674 31.1032C40.2186 31.6822 40.001 32.1851 39.7846 32.6891C39.7609 32.6794 39.7382 32.6698 39.7146 32.6591C39.665 31.9524 39.6155 31.2458 39.5605 30.4513C38.9305 30.8909 38.3726 31.2801 37.8222 31.6651C38.435 33.2767 41.1761 34.557 42.7195 33.9447C42.3285 33.638 41.9623 33.341 41.5843 33.059C41.0382 32.6515 40.5676 32.2044 40.574 31.4528C40.5751 31.3766 40.5288 31.2994 40.4674 31.1032Z" fill="#F5EAE5"/>
<path d="M91.9982 39.998C91.8194 40.3368 91.6665 40.6928 91.4543 41.0091C91.2938 41.2493 91.0655 41.2611 90.8501 41.0188C90.7036 40.8537 90.5292 40.7121 90.2857 40.6135C90.4074 40.9352 90.5011 41.2708 90.6562 41.5764C90.8544 41.9656 90.8092 42.2948 90.5938 42.6647C90.2534 43.248 89.9508 43.8528 89.6557 44.4608C88.4214 47.002 86.3395 48.4206 83.6168 48.9911C81.4939 49.4361 79.3528 49.3696 77.2084 49.197C76.8573 49.1691 76.5073 49.1144 76.1562 49.0897C76.0259 49.0801 75.8772 49.0919 75.7609 49.1455C74.8077 49.5765 73.8675 50.029 73.1039 50.7678C72.6612 51.1967 72.5654 51.2235 71.8427 51.1206C72.0268 50.8461 72.1905 50.5909 72.365 50.3432C72.9735 49.48 73.8104 48.8764 74.7269 48.3992C75.4561 48.0196 76.2736 48.1826 77.0533 48.2437C79.1148 48.4067 81.1719 48.5322 83.2193 48.1161C84.5279 47.8502 85.7202 47.3098 86.8112 46.556C87.0977 46.3576 87.3261 46.0756 87.5813 45.8322C87.5544 45.7957 87.5275 45.7593 87.5016 45.7228C87.3745 45.7475 87.2453 45.7668 87.1203 45.7968C85.8559 46.1045 84.5958 46.4284 83.326 46.7136C83.0222 46.7822 82.6636 46.8058 82.376 46.7115C81.3615 46.3758 80.362 45.9941 79.3711 45.5952C79.1428 45.503 78.9683 45.2768 78.7949 45.0645C79.4303 44.9401 80.0227 44.7503 80.6399 45.0645C81.0836 45.2907 81.5672 45.443 82.0378 45.6145C83.2872 46.0702 84.4752 45.9008 85.6588 45.3293C86.235 45.0516 86.8791 44.9154 87.4908 44.7095C87.6287 44.6634 87.7849 44.6238 87.8904 44.5337C88.7747 43.7702 89.422 42.861 89.6223 41.6825C89.6708 41.3973 89.6255 41.1689 89.4177 40.9448C89.143 40.6478 88.8791 40.3315 88.6702 39.9884C88.3708 39.4962 88.5776 39.0919 89.1473 39.1166C89.6051 39.1359 90.0596 39.3064 90.5076 39.434C90.6702 39.4801 90.8135 39.597 91.0601 39.7342C90.8932 39.1145 90.7586 38.5858 90.6024 38.0636C90.5765 37.9789 90.4635 37.8996 90.3719 37.8578C87.8129 36.6826 86.4181 34.5723 85.6287 31.9882C85.3217 30.9845 85.074 29.9627 84.8274 29.0512C84.6324 28.9955 84.4892 28.9816 84.3761 28.9172C83.1558 28.2181 81.9764 27.4364 80.7142 26.8263C79.5187 26.2483 78.2165 25.9256 76.8713 25.8591C74.8734 25.7605 72.8982 26.8617 72.169 28.5248C71.9902 28.9333 71.8847 29.4062 71.8825 29.8512C71.8771 30.6607 72.519 31.1593 73.3279 31.0607C73.5907 31.0285 73.8513 30.9781 74.113 30.9352C74.1378 30.9727 74.1626 31.0103 74.1863 31.0467C73.6962 31.4392 73.218 31.8477 72.7129 32.2209C72.2142 32.5886 71.6886 32.9221 71.1846 33.3682C72.3887 33.5708 73.5918 33.7735 74.8907 33.9922C74.6957 34.1735 74.5579 34.3611 74.3726 34.4619C73.791 34.7793 73.1986 35.0795 72.5934 35.3476C72.4641 35.4044 72.2056 35.3594 72.1055 35.2618C71.735 34.8983 71.3278 34.538 71.0769 34.0963C70.5018 33.0862 70.309 31.941 70.0946 30.8141C69.7058 28.7639 69.1565 26.7652 68.1969 24.8973C68.1355 24.7783 68.0892 24.6507 68.0418 24.5241C68.0289 24.4898 68.0397 24.4459 68.0397 24.3965C68.3068 24.2689 68.5706 24.1317 68.8431 24.0148C69.4226 23.7661 69.8049 23.3307 69.9277 22.7324C70.1216 21.7834 70.2519 20.8216 70.407 19.8652C70.4361 19.6872 70.4554 19.507 70.5588 19.3183C70.883 20.0946 71.2072 20.8709 71.5432 21.6751C72.589 18.9795 73.609 16.3492 74.6289 13.72C74.5719 13.6771 74.5148 13.6342 74.4588 13.5913C73.8459 14.0202 73.1405 14.3612 72.6364 14.892C70.5395 17.103 68.8248 19.5982 67.3396 22.2509C67.2427 22.4236 67.177 22.6144 67.0606 22.8771C65.8964 21.1937 64.1537 20.456 62.3486 19.8126C62.9636 18.8883 71.7683 9.30441 72.1992 9.09961C72.4824 9.60036 72.7624 10.0925 72.7043 10.7091C72.63 11.5026 72.574 12.2971 72.5137 13.0917C72.504 13.2246 72.5126 13.3597 72.5126 13.5356C73.4399 13.0434 74.3468 12.562 75.2805 12.0666C75.5907 12.7389 75.7631 13.3083 75.5024 13.9666C74.797 15.7477 74.1195 17.5394 73.4464 19.3333C73.0446 20.4034 73.0608 20.3659 74.1917 20.4678C76.098 20.6393 77.9904 20.9213 79.8116 21.5411C82.3653 22.4096 84.1219 24.1306 85.0417 26.629C85.6513 28.2846 86.1155 29.9959 86.6045 31.6933C87.046 33.2256 87.7073 34.6388 88.8522 35.7647C89.3746 36.2783 89.9939 36.7233 90.6379 37.0772C91.2529 37.4149 91.8108 37.7387 92.0004 38.4604C91.9982 38.9708 91.9982 39.4844 91.9982 39.998ZM76.6915 23.6224C77.3678 23.6942 78.0356 23.706 78.6775 23.8443C80.0636 24.1435 81.2279 24.8726 82.2479 25.8409C82.5053 26.0854 82.767 26.3255 83.0276 26.5668C82.2726 24.4405 82.0712 24.0481 80.278 23.1152C79.7028 22.816 79.0308 22.682 78.3899 22.5319C77.7211 22.3753 76.8778 22.9479 76.6915 23.6224ZM71.6402 11.1702C70.0946 12.8043 68.6299 14.3526 67.1662 15.8999C68.6256 15.4099 70.0182 14.8545 71.4108 14.3001C71.6886 14.1897 71.7145 14.002 71.6822 13.7157C71.6154 13.1174 71.6122 12.5116 71.5949 11.9079C71.5896 11.6977 71.6197 11.4854 71.6402 11.1702Z" fill="#F5EAE5"/>
<path d="M13.2778 55C13.0506 54.9753 12.8233 54.9357 12.595 54.9292C10.7091 54.8713 8.82323 54.8188 6.93734 54.7641C6.78871 54.7598 6.63577 54.7598 6.49253 54.7276C5.29918 54.4606 4.97607 53.7689 5.65675 52.7534C6.08218 52.1207 6.59915 51.5266 7.16352 51.0119C10.1458 48.2967 13.4286 46.0072 17.139 44.3837C20.1536 43.0647 23.2921 42.1382 26.5674 41.6974C29.0488 41.3639 31.54 41.1999 34.0377 41.321C35.0727 41.3714 36.1002 41.5966 37.1255 41.7725C37.3754 41.8154 37.6059 41.9763 37.845 42.0824C37.8374 42.1189 37.8299 42.1553 37.8213 42.1918C36.922 42.2411 36.0226 42.2862 35.1233 42.3419C32.9843 42.4738 30.8206 42.4534 28.7107 42.7784C23.7261 43.5462 19.4299 45.6115 16.4034 49.828C15.2876 51.3819 14.6327 53.0934 14.4981 55C14.0921 55 13.685 55 13.2778 55Z" fill="#F5EAE5"/>
<path d="M15.1519 54.9993C15.2025 54.8771 15.2348 54.7441 15.3069 54.6358C16.7739 52.4355 18.3614 50.3371 20.4142 48.6258C22.9453 46.5155 25.8802 45.246 29.0574 44.4815C32.1722 43.7319 35.3397 43.4231 38.5396 43.4199C39.0264 43.4199 39.5132 43.5036 40 43.5486C39.9979 43.5947 39.9968 43.6419 39.9947 43.688C39.1944 43.7802 38.3931 43.8724 37.5929 43.9646C34.7775 44.2906 31.9675 44.6359 29.2233 45.3929C26.8613 46.0448 24.8473 47.2618 23.109 48.9507C21.6388 50.3789 20.2904 51.9155 19.1713 53.6343C18.8956 54.0568 18.7168 54.5415 18.4928 54.9982C17.3792 54.9993 16.2655 54.9993 15.1519 54.9993Z" fill="#F5EAE5"/>
<path d="M69.5352 47.5943C68.5486 47.9235 67.5491 48.2194 66.5787 48.5883C65.2701 49.0869 63.9659 49.0643 62.6777 48.6043C61.5695 48.2087 60.4881 47.7358 59.4025 47.278C58.9868 47.1021 58.8489 46.8147 58.9706 46.5252C59.1106 46.1917 59.4326 46.0942 59.8645 46.2668C60.8834 46.6732 61.8861 47.1203 62.919 47.486C64.3741 48.0007 65.7968 47.8956 67.1571 47.1246C67.9056 46.7011 68.6973 46.4041 69.5707 46.3236C69.8034 46.3022 70.0586 46.1456 70.2353 45.9784C71.2229 45.0423 71.9165 43.94 72.1039 42.5621C72.1524 42.204 72.1093 41.9198 71.8185 41.6571C71.5094 41.3773 71.2111 41.0631 70.9989 40.7103C70.8643 40.4852 70.7695 40.0831 70.8826 39.9029C71.014 39.6938 71.4017 39.5298 71.6666 39.5458C72.1007 39.5716 72.5283 39.7453 72.9505 39.8825C73.1777 39.9565 73.3877 40.0831 73.7184 40.2385C73.5471 39.504 73.4147 38.865 73.2402 38.2377C73.2068 38.1165 73.0226 38.0093 72.8848 37.9492C71.3823 37.2866 70.1179 36.2947 69.2455 34.934C68.7877 34.221 68.6068 33.3117 68.3989 32.4668C67.8539 30.2482 66.9934 28.1562 65.9271 26.1468C65.0483 24.4902 63.7418 23.2549 62.0068 22.5194C59.3853 21.4085 56.6399 20.8091 53.7933 20.7051C53.2343 20.6847 52.671 20.8102 52.1099 20.8681C52.0981 20.9195 52.0851 20.971 52.0733 21.0225C52.2747 21.1586 52.4696 21.3045 52.6786 21.4278C53.9409 22.1687 55.2225 22.8775 56.4622 23.6517C57.0901 24.0441 57.6663 24.5288 58.2253 25.0177C58.4924 25.2515 58.7143 25.5678 58.8715 25.8895C59.1031 26.3634 58.8855 26.8052 58.3642 26.847C57.5026 26.9156 56.6324 26.9081 55.7664 26.8942C54.2607 26.8695 52.7561 26.787 51.2504 26.7891C50.7905 26.7891 50.3113 26.9339 49.8761 27.1033C49.3226 27.3177 49.0942 27.7981 49.3613 28.3235C49.6877 28.9637 50.0732 29.6113 50.5719 30.1196C51.4798 31.0449 52.4923 31.8695 53.4605 32.7359C53.579 32.842 53.6975 32.9482 53.7825 33.138C53.2806 33.02 52.7798 32.8935 52.2747 32.7863C50.5913 32.4271 48.9047 32.0829 47.2256 31.7076C47.0145 31.6604 46.7765 31.5071 46.6547 31.3323C46.1012 30.5388 45.8911 29.6102 45.721 28.6795C45.4937 27.4314 45.3214 26.1736 45.0629 24.9319C44.9315 24.3036 44.6924 23.6913 44.4458 23.0952C44.3036 22.7499 44.3477 22.5483 44.6719 22.3767C45.3548 22.0165 46.0085 21.594 46.7151 21.2905C47.5702 20.9227 48.0667 20.3041 48.2369 19.4291C48.4879 18.1467 48.6946 16.8567 48.9111 15.6279C49.4421 16.4107 49.567 17.5119 50.2348 18.4909C50.3317 18.2281 50.3867 18.0984 50.4276 17.9644C50.6279 17.306 50.797 16.6358 51.0307 15.9903C51.3237 15.1808 51.6834 14.3959 51.9882 13.5906C52.5913 12.0026 53.1772 10.407 53.7664 8.81366C53.7976 8.73002 53.7976 8.63566 53.8278 8.45338C52.9274 8.97986 52.0981 9.45166 51.4163 10.139C49.6952 11.875 48.28 13.8512 46.9735 15.8981C46.1173 17.2406 45.3526 18.642 44.6041 20.0489C44.3047 20.6129 44.1603 21.2594 43.9729 21.7924C42.8108 20.2687 41.6121 18.6957 40.3477 17.0379C41.9955 15.6215 43.6638 14.1128 45.4108 12.7017C47.8578 10.7244 50.4362 8.92518 53.2333 7.45832C53.5801 7.27603 53.9366 7.10232 54.3071 6.97794C54.5117 6.90932 54.8036 6.86643 54.9683 6.96079C55.2462 7.12055 55.3012 7.40578 55.215 7.76391C54.6679 10.0435 53.9215 12.2535 52.8972 14.3605C52.2639 15.6633 52.0582 17.0218 52.1196 18.5252C54.5375 16.3056 56.8995 14.1085 59.7245 12.3736C59.8742 13.1874 60.1952 13.8887 59.9216 14.6897C59.3562 16.3485 58.8424 18.0255 58.3071 19.6939C58.2748 19.7937 58.2436 19.8934 58.2016 20.0253C59.1225 20.2901 60.0185 20.5475 60.9146 20.8048C64.5669 21.8567 67.0182 24.1706 68.1728 27.7756C68.637 29.2242 69.0074 30.7082 69.3133 32.1987C69.7495 34.3293 71.0398 35.7811 72.8148 36.8984C72.9289 36.9703 73.0549 37.0228 73.1766 37.0839C73.7862 37.3906 74.5089 37.5707 74.7308 38.3396C75 39.2735 74.999 40.2042 74.6177 41.1156C74.5919 41.1778 74.5617 41.239 74.5305 41.299C74.1277 42.0903 73.9521 42.1182 73.3005 41.5049C73.196 41.4062 73.0722 41.3269 72.9052 41.1982C72.8772 41.3601 72.8492 41.4577 72.8438 41.5563C72.7857 42.6629 72.7329 43.7695 72.6737 44.8761C72.6672 44.994 72.6618 45.1302 72.6026 45.2256C71.9919 46.2153 71.4609 47.2704 70.7318 48.1647C69.7398 49.3817 68.4388 50.2513 66.9772 50.8733C65.3671 51.5595 63.6761 51.8544 61.9443 51.8983C60.5075 51.9348 59.0675 51.8823 57.6286 51.8576C55.4013 51.819 53.342 52.4238 51.3915 53.4499C50.8562 53.7319 50.3447 54.075 49.6715 54.1029C49.8858 53.8799 50.0549 53.6504 50.2736 53.4853C51.2031 52.784 52.167 52.1278 53.0803 51.4062C53.8698 50.7821 54.7497 50.5301 55.733 50.5762C57.4283 50.6556 59.1214 50.7918 60.8177 50.8218C62.9255 50.8593 65.0009 50.5859 66.9148 49.6455C67.6849 49.267 68.3731 48.7223 69.0839 48.2301C69.2875 48.0897 69.435 47.8698 69.6084 47.6865C69.5858 47.6554 69.56 47.6254 69.5352 47.5943ZM58.8069 14.4345C58.7724 14.4152 58.738 14.3959 58.7035 14.3766C58.6615 14.4044 58.613 14.427 58.5786 14.4624C57.76 15.2966 56.7282 15.9024 56.1068 16.9522C55.6781 17.6749 55.0857 18.3011 54.5795 18.9798C54.3071 19.3465 54.3717 19.5342 54.8294 19.5395C55.5133 19.5481 56.1994 19.4602 56.8844 19.4237C57.2387 19.4044 57.4132 19.2039 57.5101 18.8897C57.76 18.078 58.0293 17.2717 58.2684 16.4568C58.4644 15.7877 58.6281 15.1089 58.8069 14.4345Z" fill="#F5EAE5"/>
<path d="M1.71788 41.0977C1.81804 41.266 1.90421 41.3871 1.96667 41.519C2.70014 43.0789 4.00766 43.8261 5.64475 44.1478C6.95874 44.4051 8.26626 44.2754 9.57917 44.1821C11.7936 44.0245 13.9412 43.4906 16.106 43.051C16.1976 43.0328 16.2923 43.0274 16.4248 43.0832C15.8669 43.452 15.3273 43.8551 14.7468 44.1842C13.2971 45.0055 11.8119 45.7656 10.3708 46.6018C8.26195 47.8262 6.18866 49.1116 4.07874 50.3338C3.50145 50.6683 2.84877 50.8741 2.22732 51.1314C2.14439 51.1657 2.01406 51.1915 1.95052 51.1518C1.44754 50.8334 0.901486 50.5536 0.482519 50.1462C0.24234 49.9125 0.146483 49.4697 0.104479 49.1084C-0.161549 46.8484 0.0818616 44.6356 0.818554 42.4807C0.991957 41.9682 1.20952 41.4729 1.71788 41.0977Z" fill="#F5EAE5"/>
<path d="M66.0274 29.2395C65.8324 29.5054 65.6224 29.7628 65.4501 30.0426C65.379 30.1574 65.3133 30.3686 65.3693 30.4544C65.8561 31.1964 65.8604 31.9824 65.6181 32.7898C65.4996 33.1844 65.5837 33.4749 65.8971 33.7462C66.1793 33.9918 66.4194 34.2856 66.6747 34.5547C65.8615 34.5547 65.0699 34.5322 64.2794 34.5611C63.5739 34.5869 62.9277 34.3992 62.3418 34.0518C61.9648 33.8288 61.6266 33.5221 61.3218 33.2047C61.1592 33.0342 61.03 32.9742 60.8049 33.0053C59.9982 33.1147 59.1925 33.239 58.3815 33.2948C57.3756 33.3634 56.444 33.0482 55.5371 32.6643C55.5414 32.6096 55.5446 32.556 55.549 32.5013C55.8376 32.5013 56.1252 32.4938 56.4138 32.5024C57.1171 32.5238 57.8226 32.6011 58.5237 32.5667C59.5426 32.5174 60.401 32.0424 61.2335 31.4698C62.2901 30.7428 63.3844 30.0651 64.5023 29.4368C64.9159 29.2041 65.4436 29.1741 65.9186 29.0508C65.9542 29.114 65.9908 29.1762 66.0274 29.2395ZM62.0068 32.2719C62.4538 33.491 63.4662 33.7484 64.4646 33.9425C65.2595 33.0857 65.3338 32.155 64.8674 31.0945C64.7382 31.5406 64.6369 31.9416 64.5045 32.333C64.3752 32.7126 64.2589 33.1136 63.7775 33.3538C63.9293 32.5721 63.9153 31.8751 63.6019 31.1739C63.0548 31.5513 62.5335 31.9094 62.0068 32.2719Z" fill="#F5EAE5"/>
<path d="M76.4865 37.4419C78.8022 37.4719 81.1059 37.0419 83.3989 37.6145C82.4048 37.7582 81.414 37.9501 80.4145 38.0316C79.0509 38.1442 77.6799 38.1764 76.3121 38.2332C76.2054 38.2375 76.0536 38.1946 75.9954 38.1185C75.7682 37.8225 75.5711 37.5051 75.3589 37.1899C77.6271 36.2785 79.4258 34.6819 81.2944 33.1828C82.0096 32.6092 82.785 32.1052 83.5594 31.6109C83.8965 31.3964 84.2993 31.2721 84.7215 31.42C84.7183 31.4597 84.7269 31.4951 84.7129 31.509C84.2907 31.9047 84.2735 32.339 84.5072 32.8526C84.602 33.0606 84.5934 33.3565 84.5309 33.5849C84.4296 33.9559 84.4727 34.2229 84.7904 34.4706C84.9585 34.6014 85.0586 34.818 85.189 34.996C84.9531 35.0625 84.7129 35.1966 84.4813 35.1837C83.4474 35.1279 82.4684 34.891 81.6434 34.12C80.0612 35.4217 78.45 36.6924 76.4865 37.4419ZM83.2104 32.6842C82.7786 32.9716 82.4511 33.1903 82.1022 33.422C82.2853 33.6664 82.4361 33.8723 82.5912 34.0728C82.6482 34.1468 82.7064 34.2422 82.785 34.2744C83.0532 34.3838 83.3278 34.5146 83.6089 34.5393C83.7048 34.5478 83.8265 34.2648 83.9342 34.1136C83.973 34.0589 84.0031 33.9978 84.0451 33.9452C84.3295 33.5946 84.2358 33.2332 84.0936 32.7936C83.8437 33.2783 83.6262 33.7007 83.4086 34.1232C83.3795 34.1061 83.3505 34.0878 83.3225 34.0707C83.2891 33.6439 83.2546 33.2161 83.2104 32.6842Z" fill="#F5EAE5"/>
<path d="M75.6521 41.5705C75.6005 40.8531 75.7717 40.6269 76.4481 40.6569C77.7868 40.7148 79.1256 40.792 80.46 40.9099C80.8434 40.9443 81.2107 41.1458 81.5855 41.2702C81.5747 41.3142 81.564 41.3582 81.5532 41.4021C79.5865 41.4589 77.6188 41.5147 75.6521 41.5705Z" fill="#F5EAE5"/>
<path d="M83.1727 42.5555C80.4747 42.7089 77.7757 42.8622 75.082 43.0144C75.1811 42.4515 75.2339 42.3915 75.7864 42.3807C77.7671 42.3421 79.7488 42.3014 81.7305 42.2853C82.2152 42.281 82.7009 42.3711 83.1856 42.4172C83.1813 42.4633 83.177 42.5094 83.1727 42.5555Z" fill="#F5EAE5"/>
<path d="M57.1733 44.771C57.084 44.1641 57.0926 44.1845 57.6128 43.9561C58.4615 43.5829 59.3576 43.4446 60.2666 43.4339C61.4448 43.4199 62.6231 43.4746 63.8025 43.5046C63.9059 43.5068 64.0093 43.5454 64.1137 43.6333C63.349 43.7234 62.5833 43.8145 61.8175 43.9046C61.0237 43.9979 60.2224 44.0461 59.4383 44.192C58.6726 44.3335 57.9262 44.5737 57.1733 44.771Z" fill="#F5EAE5"/>
<path d="M56.2627 41.959C57.092 41.0786 60.8799 41.4957 61.9742 42.1745C61.5337 42.1241 61.0878 42.1037 60.6548 42.019C59.4195 41.7777 58.2218 41.9986 57.0349 42.2924C56.6569 42.3857 56.4404 42.2839 56.2627 41.959Z" fill="#F5EAE5"/>
<path d="M58.0122 39.3105C60.1415 39.3127 62.6693 39.6204 63.1949 40.7088C62.9181 40.9704 62.651 41.0262 62.3063 40.7817C61.0257 39.8724 59.5642 39.4639 58.0122 39.3105Z" fill="#F5EAE5"/>
</svg>
