<svg width="180" height="52" viewBox="0 0 180 52" fill="none" xmlns="http://www.w3.org/2000/svg">
<path fill-rule="evenodd" clip-rule="evenodd" d="M40.2797 17.617L39.8702 17.4368C39.7555 17.3959 39.7719 17.3877 39.6736 17.3385C39.4688 17.2239 39.4688 17.273 39.0346 17.0191L37.552 16.3228C37.2899 16.1754 37.2981 16.1099 36.8066 16.1099C36.9541 16.3228 37.8961 16.7734 38.2237 16.9699L39.7309 17.7481C39.9684 17.9119 40.2551 18.0266 40.5418 18.0758C40.6647 18.1003 40.6975 18.0348 40.8531 18.0184C40.8367 17.9693 40.8859 18.002 40.7876 17.9283L40.7384 17.8955C40.5091 17.7071 40.5746 17.5843 40.2715 17.4532C40.1896 17.4123 40.0585 17.3631 39.9684 17.314C40.0094 17.4368 39.993 17.3713 40.1323 17.445C40.2551 17.5269 40.2388 17.486 40.2797 17.617Z" fill="#FFCF00"/>
<path fill-rule="evenodd" clip-rule="evenodd" d="M40.6811 51.8071C40.6483 51.6761 40.5664 51.6187 40.4517 51.5614C40.2961 51.4795 40.2469 51.5123 40.206 51.3321L40.4272 51.373C40.3698 51.1027 40.2551 51.1027 40.1323 50.9225C40.4272 50.9471 40.4353 51.1437 40.9022 51.1437C40.8695 51.0126 40.8777 51.0781 40.804 50.9798C40.591 50.6849 40.4763 50.8324 40.3125 50.5867C40.3862 50.5047 40.3534 50.4802 40.5664 50.4802C40.5254 50.3245 40.4763 50.3901 40.4599 50.1853C40.5582 50.1771 40.5582 50.1689 40.6401 50.1525C40.591 49.9559 40.4517 49.9805 40.3452 49.8249L40.4927 49.8658C40.4435 49.6529 40.1978 49.5054 39.9766 49.4563V49.3498C40.3452 49.3825 40.3452 49.5628 40.5992 49.5709V49.4645C40.7466 49.4726 40.8449 49.5464 40.935 49.6119L41.0579 49.7839C41.0825 49.8085 41.1316 49.8249 41.148 49.8413C41.1316 49.5955 40.9268 49.4481 40.8203 49.2515C40.7548 49.1368 40.7794 49.1532 40.6565 49.0795C40.5091 48.9894 40.3944 48.932 40.2633 48.8419C40.0585 48.7109 40.0585 48.7354 39.9357 48.547C40.206 48.6126 40.3698 48.801 40.7057 48.801C40.6975 48.6617 40.6483 48.629 40.5992 48.547C41.0005 48.547 40.9268 48.7109 41.0005 48.8747C41.2381 48.8665 41.0743 48.8501 41.2545 48.801C41.2381 48.6044 40.976 48.3996 40.7794 48.3996C40.8285 48.2931 40.8203 48.2685 40.7548 48.1702C40.5746 47.9245 40.4026 47.859 40.2306 47.6624C40.2879 47.5559 40.3862 47.4658 40.3207 47.2774C40.2715 47.13 40.3207 47.1873 40.1978 47.1627C40.1077 47.1463 40.1896 47.2119 40.0094 47.1136L39.3541 46.6958C39.1903 46.6057 39.1821 46.6549 39.0101 46.5238C38.8872 46.4337 38.8217 46.3764 38.6824 46.2945L38.1172 45.7866C38.2729 45.803 38.8544 46.1634 39.0265 46.3108C39.3623 46.5893 39.5917 46.4911 39.8865 46.9252C40.0995 46.9252 40.1405 46.8924 40.3616 46.8924C40.3043 46.7286 39.9603 46.5648 39.8128 46.4829L38.5678 45.7375C38.4039 45.631 38.1664 45.5573 37.9288 45.3852C37.3554 44.9757 37.0196 44.902 36.6592 44.6644C36.5445 44.5907 36.4954 44.5415 36.3643 44.4842L35.4305 43.9108C35.324 43.8371 35.2257 43.8043 35.1274 43.7388C35.0537 43.6897 35.0947 43.6978 34.9964 43.6487L34.6196 43.4357C34.6114 43.4357 34.6032 43.4275 34.595 43.4275L34.1773 43.2146C33.6858 43.0016 34.038 43.19 33.5138 42.8869C33.0223 42.6002 32.8503 42.5838 32.5063 42.42C32.1458 42.248 31.9493 42.0514 31.5888 41.9449C31.4414 41.8958 31.3677 41.8303 31.2776 41.7729L30.8926 41.6009C30.7288 41.5272 30.352 41.3552 30.311 41.1913C30.4666 41.2077 30.7451 41.347 30.9581 41.4289C31.1465 41.4944 31.081 41.5026 31.2448 41.5845L31.5806 41.7238C31.6708 41.7729 31.7772 41.8466 31.8591 41.8876C32.2114 42.0678 32.7929 42.289 33.0878 42.4692L34.2919 43.0671C34.5213 43.149 34.6851 43.1572 34.9472 43.3292L35.8401 43.8043C36.438 44.0992 37.2817 44.6071 37.8387 44.9757C38.1746 45.1968 38.6333 45.4344 39.0183 45.6064L39.2312 45.7293C39.2394 45.7293 39.2476 45.7375 39.2558 45.7457C39.264 45.7457 39.2722 45.7538 39.2804 45.7538L39.4688 45.8603C39.5753 45.9259 39.5179 45.8849 39.6244 45.9259C39.7882 45.9832 39.7719 46.0242 40.0012 46.0242C39.9603 45.8849 39.3459 45.5409 39.223 45.4753C38.9118 45.2951 38.2073 44.9593 38.0026 44.7054C37.9206 44.5989 37.9534 44.6153 37.8223 44.5579C37.7077 44.5088 37.6995 44.517 37.6012 44.4514L36.9459 44.1156C36.8722 44.0746 36.8394 44.0337 36.7493 43.9763L36.0367 43.5504C35.9056 43.4849 35.8155 43.4849 35.6763 43.3948C35.6271 43.362 35.6681 43.3866 35.5943 43.3292C35.2585 43.1163 35.2421 43.0507 35.1111 42.9688L33.4646 42.1088C33.3745 42.0514 33.4073 42.1169 33.3745 42.0187C33.5547 42.1006 33.6285 41.9531 34.2264 42.3463L34.9063 42.6658C35.2339 42.7968 35.7827 43.1327 36.0612 43.2801L36.823 43.7306C37.1015 43.8862 37.0196 44.0255 37.2408 44.132C37.3964 44.2057 37.4128 44.0828 37.4947 44.0501C37.5602 44.132 37.6667 44.2057 37.7896 44.2303C37.7404 44.0419 37.6913 44.1566 37.6421 43.9763C38.1254 44.2303 38.0026 44.0828 38.322 44.2549C38.4039 44.2958 38.4613 44.3286 38.5432 44.3613C38.7807 44.4514 39.2312 44.6562 39.3787 44.8528C39.1329 44.7955 39.1985 44.7054 38.8626 44.7054C39.051 44.9921 39.6899 45.1968 40.034 45.3033C40.2469 45.3689 40.3698 45.3443 40.4845 45.1887C40.4353 45.0003 39.9603 44.6316 39.7964 44.476C39.5261 44.2385 39.2476 44.091 38.9527 43.8781C38.5841 43.6077 37.4783 42.8951 37.1343 42.8623C37.1998 43.0426 37.6831 43.2146 37.7978 43.3784C37.5029 43.3129 37.208 43.1245 36.9705 42.9524C36.8476 42.8623 36.8066 42.8705 36.8066 42.674C36.4053 42.674 36.0776 42.4036 35.9056 42.3217C35.7582 42.248 35.709 42.289 35.6681 42.1169C35.7827 42.0596 35.8319 42.0842 35.9957 42.0842C35.9548 41.9449 35.8728 41.9449 35.7336 41.904C35.4387 41.8139 35.0128 41.6582 34.8489 41.4207L35.8483 41.8548C36.0531 41.9859 36.053 41.9367 36.2005 42.0187C36.2333 42.035 36.2824 42.0678 36.3152 42.0842C36.5445 42.2071 36.6264 42.2972 36.8312 42.3053C36.6592 42.0432 36.2087 41.8958 36.0367 41.8057C35.9302 41.7565 35.8565 41.6664 35.6599 41.5599L34.6032 40.9948C34.4312 40.9128 34.2018 40.8637 34.0626 40.7244C33.8742 40.5197 33.9807 40.6425 33.7677 40.577C33.6694 40.5442 33.6448 40.5115 33.5056 40.5033C33.5547 40.6343 33.4564 40.5115 33.6039 40.6261C33.6448 40.6589 33.694 40.6753 33.7513 40.6999C33.8824 40.7654 33.9397 40.8145 34.0544 40.8719C34.1936 40.9456 34.5622 41.134 34.6442 41.2405C34.2756 41.1504 34.1363 41.0275 33.8087 40.8637C33.7677 40.8391 33.7267 40.8227 33.6858 40.8064C33.4892 40.7081 32.5472 40.2739 32.4735 40.1756L32.8912 40.2739C33.6121 40.5442 32.9322 40.3804 33.7595 40.4541C34.038 40.4787 33.8578 40.5442 34.1691 40.5442V40.4377C33.9725 40.4377 33.9479 40.4132 33.8005 40.405C33.7923 40.2084 33.8087 40.3149 33.7431 40.2412C33.7186 40.2084 33.6448 40.1756 33.6039 40.1592C33.4401 40.0773 33.4646 40.0937 33.2517 40.0691C32.9977 40.0446 32.7848 39.9053 32.5472 39.848V39.7743C32.8503 39.7743 32.9486 39.8726 33.1861 39.9463C33.6858 40.0937 33.5957 40.0036 34.0052 40.1592L34.5049 40.2821C34.7506 40.3395 34.9227 40.4459 35.193 40.4459V40.3722C34.98 40.3231 35.2175 40.3313 34.7261 40.2494C34.5295 40.2166 34.4148 40.1347 34.2346 40.1183L34.595 40.0937C35.0291 40.2002 35.2585 40.3558 35.8237 40.3804C36.0858 40.3886 36.0694 40.536 36.4462 40.4951C36.7821 40.4541 36.6182 40.364 37.4537 40.5934L38.2237 40.8227C38.363 40.8637 38.494 40.8719 38.6251 40.9046C38.7643 40.9374 38.8872 40.962 39.0428 41.0029L39.7555 41.2077C39.9275 41.2814 40.0012 41.2569 40.1732 41.306C40.3698 41.3552 40.3534 41.4207 40.5664 41.4289C40.5254 41.2323 40.55 41.3634 40.5664 41.175C40.3125 41.0439 40.2797 41.0685 40.1323 40.9456C40.0258 40.8637 39.8292 40.7654 39.6818 40.7326L39.6899 40.5606C39.6899 40.5524 39.6818 40.5442 39.6818 40.536L39.608 40.3231C40.034 40.3231 39.9357 40.4459 40.3616 40.4623C40.8695 40.4787 40.8941 40.5934 41.1562 40.618C41.1234 40.4951 41.1316 40.5197 41.0251 40.4541C40.9432 40.405 40.8859 40.3886 40.8121 40.3722C40.2715 40.2494 40.763 40.2985 40.0094 39.9954C39.8292 39.9217 39.78 39.848 39.608 39.807C39.5015 39.7825 39.4524 39.7743 39.3787 39.7415L39.305 39.7087C38.9445 39.504 39.3295 39.6432 38.7561 39.4794C38.2974 39.3483 38.6579 39.3893 38.1418 39.2091L37.9534 39.1026C38.2974 39.1026 38.3957 39.25 38.6742 39.2336C38.9118 39.2255 39.1657 39.3319 39.3869 39.3975C39.5589 39.4466 39.6162 39.4057 39.7309 39.422C40.2224 39.4958 40.6729 39.7087 40.8613 39.6104C40.6975 39.3893 40.3207 39.4466 40.1487 39.25C40.1077 39.2091 40.1077 39.1681 40.0422 39.1026C39.9766 39.0289 39.9521 39.0289 39.8783 38.9715C39.7555 38.8814 39.6818 38.8159 39.6408 38.6521C39.9439 38.7258 40.1241 38.9388 40.4517 38.7586C40.3698 38.6357 40.1159 38.4555 39.9603 38.3244C39.2722 37.7428 39.7555 38.1442 39.0838 37.7592C38.9691 37.6937 38.8626 37.6691 38.7561 37.6118C38.4039 37.407 38.6087 37.5544 38.4121 37.4807C38.322 37.448 38.191 37.3333 38.1664 37.2432C38.3384 37.2432 38.9445 37.4643 39.223 37.5135C39.5671 37.579 39.2968 37.6036 39.9357 37.6855C40.206 37.7183 40.1814 37.8821 40.6401 37.8657C41.0497 37.8575 40.763 37.8329 41.0087 37.8985C40.9923 37.6773 40.7958 37.6855 40.7876 37.3087C41.2463 37.3169 41.5084 37.751 41.5248 37.4562C41.533 37.3005 41.4756 37.3824 41.3773 37.235C41.4756 37.2268 41.4756 37.2186 41.5575 37.2022C41.5166 37.0302 41.5166 37.1121 41.5575 36.9483C41.6231 36.9811 41.8033 37.0712 41.877 37.0384C42.0326 36.9729 41.8033 37.022 41.7787 36.7681H41.9261C41.8852 36.6206 41.8279 36.6452 41.7459 36.506C41.6804 36.3913 41.6968 36.3012 41.6149 36.1947C41.492 36.0309 41.2135 36.0309 41.148 35.777C41.4674 35.777 41.4511 35.8671 41.664 35.8834C41.5903 35.6131 41.148 35.4575 41.0743 35.1872C41.2545 35.2363 41.1807 35.3019 41.32 35.3428C41.4674 35.3838 41.4674 35.1872 41.877 35.4903C41.9835 35.564 42.0244 35.6131 42.1801 35.6295C42.09 35.4985 41.9753 35.4411 41.8606 35.3264C41.6231 35.0971 41.6886 35.0479 41.4838 35.0397C41.5493 34.9496 41.5166 34.9414 41.6804 34.9824C41.7787 35.007 41.8115 35.0397 41.877 35.0889C41.9999 35.179 42.1637 35.2527 42.3275 35.2609C42.2948 35.138 42.262 35.1298 42.1637 35.0561C42.1145 35.0234 42.0982 35.0152 42.049 34.9906L41.9261 34.9005C41.8197 34.8186 41.6722 34.7858 41.5166 34.5647C41.3773 34.3681 41.5166 34.2862 41.7623 34.5483C41.9261 34.7285 42.0162 34.7449 42.3439 34.7449C42.2866 34.5892 42.0572 34.4991 41.9261 34.4254C41.6313 34.2616 41.5166 33.852 41.4511 33.7619C41.2299 33.4506 41.1398 33.4015 40.8695 33.2786L40.7958 33.2377C40.9432 33.2377 40.9923 33.1885 41.148 33.2131C41.32 33.2459 41.3364 33.295 41.492 33.3114C41.4429 33.123 41.2381 33.0493 41.1562 32.9428C41.107 32.8855 41.1398 32.951 41.107 32.8445C41.0906 32.7954 41.0825 32.7544 41.0825 32.6807C41.0661 32.4841 41.0579 32.4595 41.1971 32.4267V32.353C41.0661 32.3203 41.0825 32.3366 41.0169 32.2465C41.664 32.394 41.4838 32.5824 41.7541 32.6479C41.7132 32.5087 41.7132 32.5824 41.5985 32.394C41.5903 32.3858 41.5903 32.3776 41.5821 32.3694C41.5494 32.3121 41.5494 32.3121 41.5002 32.2711C41.1889 32.009 41.0988 32.1646 40.55 31.8206C40.5336 31.8124 40.4272 31.7469 40.4272 31.7469C40.2879 31.6404 40.378 31.6486 40.5009 31.6486V31.5421C40.3944 31.5093 40.1077 31.3046 40.0258 31.1735C40.165 31.2063 40.1814 31.2472 40.3207 31.28C40.3125 31.1407 40.2961 31.108 40.0913 31.0752L39.5261 30.895C39.3213 30.7639 38.8217 30.5673 38.7725 30.3953C39.0346 30.3953 39.7473 30.5182 39.9193 30.6493C40.2797 30.9196 39.9684 30.7475 40.3534 30.8458C40.8367 30.9687 40.8859 31.0588 41.1644 31.108C41.4347 31.1571 41.7459 31.2964 41.9917 31.3865C42.09 31.4274 42.1555 31.4356 42.2374 31.4684C42.4094 31.5339 42.8927 31.6977 43.0074 31.6486C42.9009 31.5011 42.0572 31.1981 41.8115 31.108C41.6722 31.0588 41.2872 31.0015 41.1971 30.6165C41.3855 30.6165 41.877 30.7557 42.0162 30.8295C42.1063 30.8704 42.09 30.9605 42.3439 30.9851C42.6224 31.0179 42.5732 31.0342 42.778 31.0998C42.9009 31.1407 43.0647 31.1489 43.1958 31.1981C43.4088 31.2718 43.4907 31.3947 43.7692 31.4192C44.0313 31.4356 44.2606 31.5421 44.3999 31.4684C44.2279 31.2063 43.7937 31.3209 43.5562 30.9933C44.1214 30.9933 44.1214 31.3701 44.9569 31.1735C44.9405 30.9441 44.8914 31.1162 44.7603 30.8868L44.6948 30.7312C44.5801 30.4363 44.5309 30.1332 44.1869 30.0185C44.1542 30.0103 44.0641 29.9858 44.0149 29.9694L43.4825 29.6499C43.3432 29.5434 43.0729 29.396 43.032 29.2486L44.5883 29.8383C44.8176 29.8629 44.7931 29.6745 44.703 29.568C44.5309 29.3632 43.7937 29.2404 43.761 28.8472L44.875 29.2895C44.9487 29.3223 44.9405 29.3387 45.047 29.3632C45.006 29.1912 44.9487 29.2158 44.8586 29.1912C44.8504 29.1912 44.8422 29.183 44.834 29.183L44.6948 29.1257C44.4572 29.052 44.3344 28.9209 44.0559 28.8554V28.7817C44.1378 28.7653 44.2443 28.7243 44.3098 28.7325C44.4245 28.7489 44.3999 28.8062 44.5719 28.8226C44.4163 28.5359 44.0477 28.4786 43.8429 28.2656C43.72 28.1427 43.5644 28.1509 43.548 27.938C43.7118 27.9789 43.7528 28.0445 43.9166 28.0854C43.8347 27.8724 43.5808 27.897 43.4251 27.766L42.9582 27.4219C43.1548 27.4383 43.2285 27.512 43.4333 27.5366C43.6135 27.5612 43.7036 27.6349 43.8511 27.7086C44.0641 27.8151 44.0804 27.7659 44.3344 27.8151C44.5965 27.8642 44.5555 27.9298 44.834 27.8724C44.7685 27.6922 44.0804 27.4629 43.7364 27.2417C43.4825 27.0779 43.0483 26.611 42.8845 26.3653C43.0483 26.3653 43.032 26.398 43.2122 26.398V26.3243C42.991 26.3079 43.0975 26.2424 42.9419 26.1195C42.7944 26.013 42.6634 25.8902 42.5814 25.71C42.5487 25.6444 42.5405 25.628 42.4995 25.5298C42.4995 25.5216 42.4913 25.5134 42.4913 25.5052C42.4258 25.3495 42.4995 25.3577 42.5159 25.153C42.4913 25.1448 42.434 25.1284 42.434 25.1284L42.2128 24.94C42.1145 24.8417 42.0163 24.8089 41.9999 24.6369C42.2456 24.768 42.3767 24.8908 42.6634 24.8171C42.6552 24.5878 42.5978 24.6942 42.5569 24.4895C43.0074 24.7925 43.1302 25.0792 43.4743 24.8908L43.335 24.6287C43.2531 24.514 43.1548 24.4649 43.0729 24.342C43.1548 24.3584 43.1548 24.3666 43.2531 24.3748C43.2449 24.1536 43.032 23.9488 42.8108 23.9325C42.819 24.1618 42.8518 24.039 42.8845 24.1536C42.8845 24.1618 42.9746 24.17 42.8681 24.211C42.7453 24.2601 42.8599 24.2274 42.778 24.2028C42.5159 24.1127 42.5569 24.0308 42.475 23.8669C42.5732 23.8751 42.5732 23.8833 42.6552 23.8997C42.606 23.8096 42.5732 23.7195 42.5077 23.6458L41.9098 22.9905C41.6313 22.712 41.9835 22.5809 41.5412 22.2205C41.3937 22.0976 41.4347 22.1468 41.3282 21.9911C41.5412 21.9911 41.492 22.0075 41.6231 21.9174C41.6149 21.8028 41.4511 21.4669 41.3528 21.4096L39.9848 20.7133C39.8456 20.6314 39.8292 20.615 39.6736 20.5495C39.4524 20.4594 38.7398 20.0089 38.4121 19.8942L37.0196 19.2225C36.9541 19.1898 37.0032 19.2143 36.9459 19.1816C36.9377 19.1816 36.9295 19.1734 36.9213 19.1734C36.9131 19.1734 36.9049 19.1652 36.8967 19.1652C36.8885 19.1652 36.8804 19.157 36.8722 19.157L35.0291 18.1986C34.9882 18.1822 34.9145 18.1577 34.8735 18.1331L33.7349 17.5761C33.5957 17.5269 33.4974 17.5269 33.3499 17.4778C33.2107 17.4368 33.1534 17.3631 33.0387 17.314C32.8257 17.2157 32.2032 16.9781 32.0394 16.8798C31.9411 16.8143 32.023 16.8471 31.9001 16.7979C31.8346 16.7734 31.7854 16.7652 31.7035 16.7324L29.795 15.8068C29.7376 15.7822 29.6967 15.7658 29.6393 15.7413C29.5001 15.6921 29.5738 15.7249 29.4591 15.6675C29.1479 15.4955 28.4025 15.217 28.1813 15.0286C27.4932 14.4634 27.5342 14.7337 27.2557 14.5945C27.0263 14.4798 26.8134 14.4143 26.6332 14.2586C26.3055 13.9801 26.4038 14.2586 25.6093 13.8491C25.4864 13.7836 25.3799 13.7918 25.257 13.7262L23.799 13.0464C23.6598 13.0054 23.6188 12.9481 23.4714 12.8907C23.4058 12.8661 23.3485 12.858 23.2748 12.8252C22.9553 12.6777 22.644 12.4975 22.3164 12.3911C22.0788 12.3173 21.9396 12.1699 21.6775 12.1044C21.5055 12.0634 21.4809 12.0061 21.3335 11.9733V11.6047C21.227 11.6293 21.2843 11.5965 21.2188 11.6784C21.1778 11.7276 21.1696 11.7521 21.1451 11.8259C20.9157 11.8259 20.842 11.8177 20.6945 11.6866C20.5389 11.5556 20.3833 11.5556 20.2276 11.4573C20.113 11.3835 20.1703 11.3917 20.0065 11.3508C19.7362 11.2771 19.556 11.0887 19.2365 11.0887C19.2693 11.2197 19.2775 11.1378 19.2938 11.2443C19.3184 11.4163 19.2201 11.2197 19.3102 11.3917C19.3758 11.5064 19.474 11.4327 19.5314 11.6457C19.2529 11.5801 18.5566 11.2279 18.2699 11.0968C18.1962 11.0641 18.2372 11.0477 18.1389 11.0968C17.8686 11.2115 17.9914 11.2525 17.5983 11.146C17.3525 11.0805 17.4754 11.0723 17.3198 10.9822L17.1641 10.9166C17.0822 10.8675 17.0822 10.8593 17.0576 10.761C16.7873 10.761 16.7955 10.8265 16.5826 10.8347C16.6645 10.7282 16.5744 10.7692 16.7628 10.761C16.689 10.4907 16.4761 10.5235 16.2549 10.4907C16.173 10.4743 15.9273 10.3924 16.2058 10.6545L16.2877 10.72C15.9846 10.6955 15.8208 10.5398 15.5177 10.4907C15.272 10.4497 15.1491 10.3351 14.9853 10.4088L14.8132 10.417C14.8624 10.589 14.8788 10.4907 14.9361 10.5972C15.0754 10.8839 14.4774 10.6463 14.3382 10.6381C14.5266 10.9166 14.8378 10.9248 14.887 11.1132C14.7068 11.0968 14.1743 10.9166 13.9777 10.8429C13.6091 10.6955 13.6009 10.6218 13.1341 10.4661L13.003 10.417C12.8392 10.3596 12.7245 10.2695 12.5279 10.2695C12.5934 10.4497 12.9047 10.5153 13.0603 10.6218C13.347 10.8265 13.9777 11.0313 14.3218 11.1624C14.5675 11.2525 14.8132 11.2689 14.8132 11.5965C14.6986 11.6538 14.5184 11.703 14.4037 11.6784C14.2153 11.6293 14.1743 11.5637 13.9286 11.5637V11.5965C13.9368 11.6784 13.9777 11.5883 13.9286 11.7112L13.6747 11.6293C13.7156 11.7849 13.9532 11.9569 14.117 11.9979C14.3382 12.0552 14.4446 12.2027 14.674 12.2518L15.5586 12.5876C15.7143 12.6532 15.6979 12.6286 15.7798 12.776C15.5996 12.776 15.4604 12.6777 15.3129 12.6204C15.19 12.5631 14.9034 12.5303 14.7477 12.5221C14.8788 12.7187 15.1081 12.6859 15.2228 12.8498C14.9853 12.8334 14.5511 12.6368 14.3136 12.5467C14.158 12.4893 14.1498 12.5303 14.0187 12.473C13.8795 12.4074 13.904 12.4074 13.7238 12.3583C13.3552 12.26 13.1914 12.088 12.7491 12.0798C12.7736 12.1699 12.7573 12.1535 12.831 12.219L13.003 12.301C12.7982 12.301 12.7491 12.2518 12.5934 12.2272C12.3559 12.2027 12.3559 12.26 12.1921 12.301C12.0856 12.2354 12.0938 12.1863 11.9627 12.1617C11.7661 12.1207 11.8153 12.1699 11.6269 12.0962L11.0125 11.9323C11.0207 12.1617 11.0944 12.1044 11.1927 12.2682C11.3074 12.4484 11.291 12.4648 11.5286 12.4156C11.545 12.645 11.5777 12.5139 11.8644 12.6696C12.1265 12.817 12.3313 12.8743 12.6262 12.9808L13.5027 13.3576C13.6337 13.4313 13.6419 13.4068 13.7812 13.5214C13.5846 13.5051 13.3552 13.4231 13.175 13.3494C12.9948 13.2757 12.7409 13.2593 12.5607 13.1856C12.2822 13.0709 12.446 13.1283 12.1511 13.1528V13.2266C12.2494 13.2511 12.446 13.3904 12.5525 13.4559C13.0194 13.7344 14.4365 14.2013 14.7068 14.4307C15.231 14.8894 15.1737 14.5372 15.5423 14.8075C15.7143 14.9303 15.7798 14.9467 15.9682 15.0122C16.0255 15.0286 16.1157 15.086 16.1566 15.1187L16.2385 15.1843C16.5252 15.5283 16.7136 15.5692 17.1314 15.7331C17.2788 15.7904 17.4262 15.8805 17.5737 15.9215C17.9095 16.0116 18.1553 16.159 18.4911 16.2573C18.6631 16.3065 18.7614 16.4129 18.9744 16.4375C18.999 16.3884 18.9908 16.4457 18.9826 16.3802C18.9826 16.3802 18.9744 16.2983 18.9744 16.2901C19.2693 16.4457 19.1136 16.3802 19.2201 16.5194C19.3594 16.6996 19.3184 16.6914 19.4085 16.8798C19.687 16.8471 19.343 16.8061 19.6379 16.7488C19.8099 16.716 19.5805 16.7734 19.7689 16.7488C19.8754 16.7324 19.7935 16.7242 19.9246 16.6914C19.9409 16.8635 20.0392 16.8798 20.1457 16.9454C20.3505 17.0682 20.2686 17.0027 20.3669 17.2075C20.5389 17.1665 20.5799 17.1747 20.7355 17.2402C20.6863 17.4614 20.6454 17.3795 20.7027 17.6089C20.8747 17.5597 20.7273 17.5597 20.9157 17.5515L21.1123 17.5351C21.3662 17.6252 21.1287 17.7317 21.358 17.7727C21.743 17.8464 21.8003 18.0758 21.5874 18.0184C21.3416 17.9529 21.3335 17.9529 21.0713 17.7891C20.7764 17.6089 20.6618 17.6908 20.3341 17.5269C20.1375 17.4286 19.9409 17.4368 19.7198 17.3304C19.5969 17.273 19.6297 17.2976 19.4986 17.2566C19.3102 17.1993 19.1546 17.0764 18.9744 17.0027C18.9007 16.9699 18.8351 16.9536 18.7532 16.929C18.5894 16.8635 18.5566 16.7979 18.4174 16.7488L18.0324 16.585C17.8686 16.4948 17.8358 16.5686 17.6474 16.4539C17.0986 16.1344 17.2051 16.4621 16.8856 16.2573C16.6972 16.1344 16.689 16.1754 16.4679 16.1262C16.4843 16.3065 16.4515 16.331 16.6317 16.4047C16.8365 16.4948 17.074 16.7242 17.2952 16.6177C17.3689 16.585 17.5163 16.544 17.5737 16.6013C17.6228 16.6505 17.6065 16.7406 17.6638 16.8061C17.7211 16.8716 17.9341 16.9454 18.0242 16.9945C18.1061 17.0355 18.1307 17.0682 18.2044 17.1092C18.4993 17.273 18.9089 17.273 19.0809 17.5925C19.4085 17.5679 19.2856 17.5269 19.5805 17.6826C19.7116 17.7563 20.6782 18.0348 20.5307 18.1822C20.4816 18.2314 20.285 18.1495 20.1539 18.1331C19.9082 18.1085 20.0638 18.174 19.9 18.256C19.7198 18.3461 19.9409 18.2478 19.7444 18.2642C19.5969 18.2805 19.7116 18.2805 19.556 18.3215C19.4822 18.256 19.4167 18.1904 19.3348 18.1413C19.2201 18.1659 19.2037 18.2068 19.1218 18.2232C18.9252 18.2642 19.1464 18.1986 18.9334 18.1904C18.8843 18.1904 18.786 18.215 18.6795 18.2068L18.4338 18.1249C18.3437 18.1085 18.3109 18.1577 18.2208 18.1659L17.4181 18.1003C17.3198 18.3051 17.5901 18.3133 17.1969 18.2805C17.2133 18.4525 17.246 18.4116 17.3771 18.5017C17.0249 19.0259 16.6481 18.731 16.4597 18.6819L16.2877 18.6655C16.0911 18.6409 16.1484 18.4444 15.829 18.5836L15.5668 18.7638C15.3621 18.6328 15.4194 18.6655 15.1737 18.6409C14.887 18.6082 14.9443 18.6 14.6822 18.6164V18.7229C14.8132 18.7556 14.846 18.7966 14.9689 18.8457C15.1982 18.944 15.0999 18.8539 15.3129 18.8703C15.5341 18.8867 15.3375 18.8867 15.4849 18.9194C15.6815 18.9686 15.5505 18.9276 15.6488 18.9031C15.7061 18.8867 15.7307 18.8048 15.7798 18.9194C15.8371 19.0587 15.7798 19.0014 15.6815 19.0096C15.7307 19.1816 15.7389 19.0423 15.7552 19.2307C15.6242 19.2225 15.6815 19.2389 15.5914 19.1734C15.0917 18.7638 15.3621 19.0833 14.8132 18.9194L14.674 18.8867C14.5921 18.8785 14.6003 18.8703 14.4938 18.8621C14.5184 18.772 14.502 18.8293 14.5511 18.772C14.6576 18.6491 14.5675 18.8621 14.6412 18.6737C14.3955 18.559 14.2153 18.5918 13.945 18.5263C13.8876 18.6573 13.9941 18.5754 13.9122 18.7474C13.8221 18.7065 13.4781 18.6737 13.5027 18.5427C13.5108 18.5017 13.5436 18.559 13.5764 18.4116L13.5272 18.4362C13.3798 18.4853 13.4699 18.3543 13.3143 18.3706C13.2487 18.4034 13.1586 18.4853 13.1095 18.4607C12.9702 18.4034 13.1586 18.4525 13.0603 18.256C13.0358 18.1986 12.9538 18.1167 12.8474 18.1659C12.7409 18.215 12.831 18.2314 12.9047 18.3379C12.6016 18.2642 12.5852 18.1904 12.1347 18.1904C12.1593 18.2805 12.2166 18.3297 12.3067 18.387C12.4951 18.4935 12.3805 18.4116 12.5689 18.4198L13.9286 18.9358C14.0597 18.985 14.0924 19.0096 14.1989 19.0751C14.1661 19.2143 14.076 19.2635 14.1498 19.4109C14.2153 19.5256 14.2972 19.4928 14.3463 19.6648C14.1825 19.6239 13.9614 19.5502 13.7812 19.4928C13.5436 19.4109 13.3798 19.4683 13.1422 19.3945C12.8883 19.3126 12.5689 19.2471 12.3149 19.2553C12.1511 19.2635 12.1265 19.2225 11.9873 19.1898C12.0446 19.3863 12.0692 19.2143 12.0364 19.3863C12.0119 19.501 11.9873 19.4273 11.9873 19.6321C12.0938 19.6075 12.1347 19.5502 12.2084 19.4846L13.0112 19.7877C13.2733 19.9024 13.5518 19.9597 13.8139 20.0908C14.0187 20.1891 14.2235 20.1317 14.3463 20.2956C13.6911 20.2382 13.7812 20.1481 13.519 20.0908C13.2733 20.0335 13.4289 20.1399 13.2487 20.1317C13.1832 20.1317 13.0767 20.0662 13.003 20.058L12.7327 20.0335C12.4869 19.9597 12.4296 20.1072 12.1347 19.9679C11.8153 19.8123 11.3893 19.8041 11.0617 19.6403C10.8159 19.5174 10.4965 19.501 10.2344 19.4027C10.1361 19.3618 10.0623 19.329 9.96405 19.3044C9.97225 19.4027 9.98044 19.4027 9.99682 19.4846C10.1606 19.4846 10.177 19.4683 10.2917 19.5256C10.5047 19.6239 10.4391 19.6239 10.4391 19.6321L10.3982 19.6403C10.39 19.6403 10.3654 19.6403 10.349 19.6403C9.95586 19.5911 9.83299 19.4109 9.32514 19.4109C9.25142 19.5747 9.34971 19.5338 9.22684 19.6403C9.18589 19.673 9.21046 19.6239 9.14493 19.7058C9.24323 19.8451 9.27599 19.7386 9.32514 19.927C9.0794 19.9106 9.07121 19.8942 9.07121 19.6321C8.8009 19.6567 9.01387 19.7713 8.70261 19.7795C8.75175 19.6894 8.76814 19.6812 8.77633 19.5584C8.6207 19.5256 8.59612 19.4519 8.41592 19.4601C8.21113 19.4683 8.27666 19.4846 8.08008 19.3782C7.84253 19.2471 7.66232 19.116 7.34287 19.116C7.35925 19.3044 7.44935 19.2471 7.51488 19.3863C7.53126 19.4109 7.53946 19.4764 7.56403 19.5256C7.69509 19.4928 7.63775 19.4846 7.74424 19.4191C7.81796 19.4601 7.83434 19.4683 7.92444 19.4928C7.85072 19.6239 7.8671 19.6321 7.74424 19.714C7.52307 19.6567 7.37563 19.5666 7.1299 19.5174L6.49098 19.4928C6.50736 19.6567 6.52375 19.6403 6.67119 19.673C6.52375 19.9515 6.54013 19.7058 6.30258 19.8205C6.44183 20.0253 6.50736 19.8696 6.69576 20.0171C6.8432 20.1236 6.85139 20.2546 6.92512 20.4102C7.08894 20.4102 7.11351 20.3939 7.17904 20.3038C7.07256 20.1563 6.96607 20.2137 6.92512 20.0498L7.27734 20.1399C7.39201 20.1727 7.35106 20.1317 7.40021 20.1891C7.55584 20.3529 7.30191 20.1563 7.46574 20.3529C7.52307 20.4266 7.5886 20.443 7.69509 20.4512C7.63775 20.2546 7.59679 20.4102 7.66232 20.271C7.79338 20.3038 7.72785 20.3038 7.80977 20.3447L8.35858 20.5659C8.57155 20.6232 8.9893 20.7051 9.10398 20.8526C8.95654 20.8362 8.82548 20.7952 8.63708 20.7625C8.25209 20.7051 8.54697 20.8444 8.26028 20.9263C8.19475 20.787 8.26847 20.8198 8.22752 20.6314H7.85891C7.92444 20.869 8.07188 20.7461 8.08008 21.0328C7.8671 20.9836 7.71966 20.9017 7.50669 20.8362C7.17085 20.7379 7.1299 20.8444 6.82682 20.7788C6.89235 21.0328 7.21181 21.1638 7.44935 21.2212V21.3277H7.22819C7.32648 21.4751 7.42478 21.4587 7.52307 21.5816C7.26915 21.5898 6.9415 21.5734 6.67938 21.5079C6.33535 21.4178 6.35992 21.5734 6.05685 21.5816C5.95855 21.5816 5.90941 21.5898 5.81111 21.598C5.67186 21.6144 4.65615 21.3686 4.38584 21.3031C4.26297 21.2703 4.30393 21.2621 4.18106 21.2539V21.3277C4.44318 21.385 4.67253 21.598 4.92646 21.6881C5.10667 21.7536 5.36059 21.77 5.53261 21.8929C5.7292 22.0403 5.49165 22.1714 5.98313 22.2942C6.17152 22.3434 6.15514 22.1468 6.36811 22.2369C6.45003 22.2697 6.62204 22.4171 6.69576 22.4662L7.02341 22.6874L6.87597 22.9823C7.01522 23.0724 6.90873 23.0642 7.09713 23.0888C7.30191 23.1133 7.24457 23.0396 7.35106 23.2034C7.27734 23.3017 7.26096 23.3099 7.09713 23.3099C7.15447 23.5311 7.52307 23.5065 7.57222 23.7113C7.1299 23.7113 7.28553 23.654 6.98245 23.5639C6.41726 23.3918 6.71214 23.6048 6.83501 23.6376C6.79406 23.6622 6.83501 23.6622 6.76129 23.6703C6.72853 23.6785 6.68757 23.6703 6.65481 23.6703C6.70395 23.8587 7.01522 23.8751 7.19543 23.9325L7.23638 23.9407C7.38382 23.9734 7.48212 24.1045 7.63775 24.0717C7.78519 24.039 7.72785 24.0389 7.75243 23.9652C8.28486 24.3256 7.9654 24.1209 8.34219 24.2273C8.49783 24.2683 8.49783 24.3093 8.79271 24.3666C9.25142 24.4485 9.29237 24.4731 9.65279 24.6533L10.6767 25.1775C11.1108 25.3332 10.8815 25.3659 11.1764 25.4478C11.3156 25.4888 11.3566 25.497 11.4712 25.5543C11.7006 25.669 11.8071 25.6936 11.9136 25.8902C11.4057 25.8492 10.8815 25.4888 10.4801 25.4888C10.5292 25.6772 10.7013 25.6444 10.8733 25.7181L11.8316 26.054C12.0119 26.1113 12.1593 26.1687 12.1757 26.3734C11.8153 26.5455 11.8153 26.2997 11.7006 26.185C11.6596 26.1441 11.5777 26.1031 11.5122 26.0786C11.3484 26.185 11.2337 26.398 11.3402 26.5373C11.4221 26.6438 11.3893 26.5455 11.5941 26.5782C11.7743 26.611 11.9136 26.742 12.1183 26.7912C12.233 26.8158 12.2412 26.7666 12.4214 26.783L14.5511 27.3072C15.1081 27.4711 14.6167 27.1926 15.2228 27.4055L15.3703 27.4793H15.2965C15.3129 27.7168 15.5013 27.684 15.575 27.6431C15.6569 27.6021 15.6242 27.6185 15.5914 27.553C16.173 27.5694 17.0003 27.9543 17.5409 28.1837L18.6713 28.6752C18.8843 28.8144 18.6222 28.7161 19.0972 28.9127C19.2529 28.9783 19.2365 28.9127 19.2775 29.0602C19.1546 29.0274 19.1136 28.9701 18.9334 28.9209C18.7368 28.8718 18.7041 28.8963 18.5648 28.7735L18.4583 28.6997C18.3764 28.667 18.3682 28.6916 18.2536 28.6424C17.7703 28.4294 18.1471 28.6588 17.5327 28.3721C17.4099 28.3148 17.2788 28.2656 17.1723 28.2165C16.902 28.11 16.6563 27.9543 16.4433 27.9543C16.4924 28.0199 16.5416 28.0772 16.5907 28.1427C16.8365 28.4786 16.4433 28.3066 16.3122 28.2738C16.1894 28.241 16.1075 28.2656 15.9928 28.2247C15.5095 28.0772 15.8453 28.1755 15.403 28.1182C15.0016 28.0608 15.0754 27.9134 14.8296 28.0281C14.9197 28.1509 15.1573 28.2165 15.3457 28.2902C15.4767 28.3393 15.8371 28.3557 16.0092 28.3967C16.5006 28.5195 16.0419 28.4786 16.6727 28.5032C16.9348 28.5114 16.7054 28.5441 17.0986 28.6096C17.2133 28.626 17.074 28.6342 17.2624 28.6506C17.2297 28.5441 17.246 28.5933 17.1887 28.5032C17.4262 28.5605 17.3198 28.5032 17.4099 28.6834C17.6556 28.6834 17.5819 28.6834 17.7457 28.7571C17.8522 28.8062 17.9669 28.8226 18.0733 28.8718L19.2529 29.3878C19.8426 29.6499 19.8672 29.7073 20.3833 29.953C20.4734 29.994 20.8666 30.0595 21.014 30.1742C21.1369 30.2725 21.0631 30.3134 21.0304 30.4199C20.9648 30.6165 21.0959 30.4527 21.1696 30.4117C21.3335 30.3216 21.6529 30.4854 21.8741 30.4854L21.7266 30.5592C21.743 30.7394 21.8167 30.7148 21.9068 30.854C22.2017 31.3127 22.1526 31.0261 22.3737 31.0506C22.5621 31.0752 22.4393 31.1325 22.644 31.1489C22.6522 31.0261 22.6686 31.0179 22.7178 30.9278C22.9635 30.9278 23.414 31.0916 23.5778 31.2472C23.8482 31.5175 23.758 31.2063 24.2086 31.4274C24.3232 31.4848 24.2413 31.4848 24.397 31.5257C24.7328 31.624 24.4215 31.4848 24.7738 31.6732C24.8966 31.7387 24.8639 31.7141 24.9949 31.7469L25.642 31.9844C25.9451 32.1319 25.814 32.1892 25.9615 32.2957L26.1663 32.2793C26.3301 32.2465 26.2973 32.2465 26.4284 32.3039C26.6741 32.4104 26.625 32.4267 26.9117 32.4841C27.1656 32.5332 27.2065 32.5906 27.3949 32.6643L27.9028 32.8527C27.911 32.8527 27.9192 32.8609 27.9274 32.8609L29.1724 33.3442C29.369 33.4506 29.0987 33.3769 29.4919 33.68C29.5328 33.7128 29.5574 33.7373 29.5902 33.7619C29.4427 33.7537 29.3772 33.6882 29.2216 33.6554C28.9185 33.5899 28.7055 33.5817 28.427 33.4588C28.2632 33.3851 28.1895 33.4097 28.0257 33.3442C27.8782 33.2868 27.8618 33.2459 27.6898 33.2049L26.9608 32.9428C26.7315 32.8199 26.7396 32.9182 26.5758 32.9346C26.1417 32.9756 26.0024 32.525 25.511 32.5496C25.2652 32.566 25.4045 32.6643 25.1096 32.5906C24.954 32.5496 24.8229 32.566 24.7082 32.566C24.5198 32.5578 24.4953 32.4677 24.3314 32.4431C24.0857 32.4104 24.1267 32.4841 23.9464 32.353C23.84 32.2711 23.6925 32.1482 23.6352 32.3694C23.414 32.353 23.4714 32.222 23.3075 32.0991C23.201 32.0172 23.2256 32.0663 23.1191 32.0581L22.4065 31.8943C21.9724 31.8288 22.2099 31.9353 21.9396 31.9598C21.8905 31.8697 21.8741 31.7878 21.8331 31.7059C21.7676 31.7387 21.5956 31.8452 21.5382 31.8534C21.3744 31.8616 21.3908 31.7305 21.358 31.5994C21.186 31.6404 21.2188 31.665 21.1041 31.7469L20.8993 31.6568C20.801 31.6404 20.8502 31.6568 20.7846 31.6568C20.4734 31.6568 20.6044 31.5093 20.4652 31.4684L20.416 31.4602C20.1293 31.4356 20.2932 31.5912 20.0556 31.5093C19.9328 31.4684 19.9164 31.3865 19.728 31.3455C19.5478 31.3046 19.5232 31.3537 19.4003 31.4602C19.2447 31.3783 18.9826 31.2308 18.8106 31.3127C18.958 31.5339 19.3921 31.4602 19.6461 31.5831L19.3348 31.5912C19.2119 31.5749 19.2037 31.5503 19.1464 31.5339C18.999 31.4848 18.6795 31.5175 18.573 31.3537C18.5484 31.3127 18.5812 31.1571 18.2945 31.1407C18.3109 31.3127 18.3273 31.239 18.401 31.3619C18.229 31.3209 18.2044 31.2144 18.0324 31.1735L17.7129 31.0834C17.6146 31.0424 17.6638 31.067 17.6228 31.0261C17.5082 31.108 17.5655 31.0015 17.5491 31.1735C17.4181 31.108 17.2378 31.108 17.0986 31.067C16.9921 31.0424 16.9757 31.0261 16.8692 31.0097C16.7136 30.9933 16.8201 31.0342 16.6563 31.0015L16.1894 30.8786C15.575 30.7803 14.5921 30.5428 13.9286 30.3708L12.9784 30.1742C12.79 30.1414 12.6672 30.125 12.4788 30.0841L10.1443 29.5844C10.3408 29.6008 10.1852 29.6254 10.3572 29.6417C10.9224 29.7073 10.8979 29.4697 10.6439 29.4124C10.5292 29.3878 10.5784 29.4288 10.4228 29.4042C10.2426 29.3714 10.3572 29.3387 10.2098 29.396C9.7347 29.5926 10.0787 29.4124 9.80023 29.6172C9.62002 29.568 9.71013 29.4697 9.32514 29.4697C9.34971 29.2158 9.7347 29.1011 9.03026 29.1011C8.96473 29.2404 9.03026 29.2076 8.99749 29.2731C8.94015 29.4042 8.75995 29.3796 8.66165 29.3632C8.65346 29.3632 8.57974 29.3469 8.57974 29.3469C8.50602 29.3387 8.57974 29.355 8.48145 29.3387C8.39134 29.3223 8.39953 29.2977 8.29305 29.2895C8.18656 29.2895 8.02274 29.3223 7.88349 29.2486C7.777 29.1912 7.777 29.2158 7.777 29.0602C7.58041 29.1175 7.67871 29.224 7.4084 29.2486C7.02341 29.2895 7.14628 29.2076 7.15447 28.9864H7.04798C7.00703 29.1503 6.91692 29.2076 6.76129 29.1339C6.61385 29.0684 6.76129 29.0765 6.57289 29.0602C6.27801 29.0356 6.2862 29.2404 5.90941 29.1421C5.77016 29.1011 5.66367 29.1421 5.43432 29.1421C5.48346 29.3223 5.58176 29.2568 5.70463 29.2813C5.90941 29.3223 5.84388 29.396 5.9176 29.5434C6.08142 29.437 6.26982 29.1503 6.43364 29.396C6.34354 29.437 6.35992 29.4124 6.26163 29.4451C6.03227 29.5271 6.22886 29.4451 6.10599 29.5516C5.9176 29.7073 5.59814 29.5598 5.3524 29.568C5.01656 29.5762 5.18858 29.3305 4.80359 29.4288C4.67253 29.4615 4.7053 29.396 4.66434 29.5516C4.38584 29.5516 4.52509 29.4779 3.74693 29.4779C3.56672 29.7482 3.55853 29.6417 3.41109 29.7728C3.20631 29.953 3.55853 29.8547 3.65682 29.8547C3.86979 29.8465 3.85341 29.9039 4.00905 29.9202C4.21383 29.9366 4.1401 29.8547 4.36127 29.9366C4.59062 30.0267 4.50052 30.0513 4.63158 30.1496C4.71349 30.0923 4.68072 30.1414 4.7053 30.0431H4.81178C4.81178 30.4772 5.04933 29.9694 4.94284 30.4772C4.92646 30.5592 5.00018 30.5182 4.8855 30.6247C4.7053 30.7967 4.28755 30.6411 4.11553 30.5592C3.97628 30.4936 3.90256 30.4936 3.76331 30.4363C3.61587 30.3708 3.63225 30.338 3.44385 30.2807C3.29641 30.2397 3.15716 30.2479 3.03429 30.2151C2.90323 30.1742 2.84589 30.0595 2.68207 30.125C2.88685 30.4035 3.76331 30.4936 4.00905 30.8213C3.81246 30.7721 3.86979 30.7557 3.71416 30.854C3.79607 30.9687 3.85341 30.9114 3.89437 31.0342C3.86979 31.0424 3.82884 31.0588 3.81246 31.067C3.74693 31.0998 3.77969 31.0834 3.74693 31.108C3.5831 31.0506 3.73874 31.0179 3.52576 31.0015C3.5831 31.2063 3.64044 31.1325 3.81246 31.1899C3.8616 31.2063 3.88618 31.2226 3.92713 31.2554C4.01724 31.3209 4.02543 31.3619 4.13191 31.4192C4.27116 31.4929 4.32031 31.4602 4.44318 31.5175L4.32031 31.6486C4.32031 31.6486 4.30393 31.6568 4.29574 31.665C3.85341 31.4274 3.71416 31.7715 3.00972 31.6568C2.85408 31.6322 2.71483 31.5503 2.5592 31.624C2.61654 31.8288 2.66569 31.6568 2.66569 31.9189C2.87047 31.8616 2.76398 31.7796 3.03429 31.8452C3.09982 31.9844 3.06706 32.0172 3.15716 32.1237L3.25545 32.3203C3.41928 32.2793 3.3947 32.222 3.50119 32.2302C3.57491 32.2302 3.70597 32.3121 3.77969 32.3448L4.25478 32.4595C4.4268 32.5087 4.33669 32.4186 4.38584 32.5496C4.19744 32.6397 3.91075 32.5332 3.69778 32.5005L3.25545 32.394C3.07525 32.3448 3.17354 32.3121 2.82132 32.2383C2.6575 32.2056 2.69026 32.2547 2.6575 32.1073H2.47729C2.50186 32.2302 2.53463 32.2138 2.39538 32.2465C2.10869 32.3203 1.84657 32.1319 1.59264 32.0745C1.55987 32.181 1.57626 32.1319 1.51892 32.222C1.32233 32.222 1.29776 32.1974 1.15031 32.1892C1.19127 32.353 1.49434 32.4841 1.6336 32.5906C1.80561 32.7216 2.02677 32.8281 2.14145 33.0001C1.95305 32.9838 1.92848 32.9264 1.78104 32.8773C1.64998 32.8281 1.52711 32.8281 1.40424 32.779C1.10117 32.6479 0.978298 32.6397 0.560547 32.6315V32.7052C0.658841 32.7298 0.634268 32.7298 0.71618 32.7708L0.994681 32.9018C1.00287 32.9018 1.01106 32.91 1.01925 32.91L1.37967 33.0657C1.46977 33.1066 1.46977 33.1066 1.56807 33.1394C1.70732 33.1885 1.76465 33.2213 1.92029 33.2704L2.42814 33.4588C2.53463 33.5326 2.41995 33.508 2.59197 33.5489C2.68207 33.5735 2.68207 33.5571 2.77217 33.5899C2.81313 33.6063 2.91142 33.6472 2.95238 33.6636C3.32098 33.8356 4.28755 34.2534 4.52509 34.4827C4.86093 34.8022 5.15581 34.5728 5.49985 34.8677L5.76196 35.0807C5.77015 35.0807 5.77835 35.0889 5.78654 35.0971C5.24592 35.138 5.62271 35.1053 5.09848 35.0397C4.8855 35.0152 4.95103 35.0807 4.77083 35.0397L4.55786 34.9742C4.48414 34.966 4.54966 34.9578 4.50052 34.9824C4.49233 35.007 4.39403 34.9414 4.52509 35.0643L4.92646 35.2937C5.15581 35.4083 5.33602 35.3838 5.56537 35.4657C5.83568 35.564 5.6391 35.5722 6.16333 35.6787C6.39269 35.7278 6.59747 35.777 6.82682 35.8261C6.76948 36.0718 6.78587 36.0391 7.03979 36.0882C7.28553 36.1374 7.17085 36.2275 7.49031 36.2275C7.44116 35.9981 7.50669 36.1783 7.56403 35.9735C7.67871 35.9735 7.84253 36.0145 7.93263 36.0473C8.07188 36.0964 8.07188 36.1374 8.2439 36.1783C8.46506 36.2275 8.39953 36.1701 8.57974 36.2848C8.8992 36.506 9.12855 36.5879 9.47258 36.7517C10.0132 37.0138 10.0869 37.0056 10.6931 37.3415L11.8972 37.9394C12.2003 38.0541 12.2084 37.9968 12.5033 38.2507L11.3402 37.792C10.9634 37.6691 11.1927 37.6773 10.775 37.5463L10.2098 37.3005C9.8248 37.1449 10.0951 37.2432 9.78385 37.1776C9.63641 37.1449 9.53811 37.022 9.40705 37.0794C9.48077 37.1858 11.0944 38.0541 11.3811 38.1934C11.6269 38.3162 12.4788 38.7504 12.577 38.8814C12.3968 38.865 11.3402 38.308 11.1764 38.2179L10.3327 37.7756C10.2507 37.7428 10.2098 37.7347 10.1443 37.7101L9.76746 37.5299C9.7347 37.5135 9.72651 37.5135 9.68555 37.4971L8.40772 36.7763C8.03912 36.5961 7.67871 36.4568 7.29372 36.3421L6.89235 36.1947C6.90873 36.4322 6.99884 36.293 7.17904 36.4159C7.24457 36.465 7.27734 36.4978 7.35925 36.5305L8.44049 37.0384C8.7108 37.1695 9.00568 37.2759 9.27599 37.4152C9.58726 37.5872 10.177 38.0213 10.4228 38.1114L10.8487 38.308C11.4139 38.6193 12.2985 38.9715 12.6917 39.2255C12.8228 39.3074 12.9948 39.3401 13.1341 39.4138L15.0262 40.3231C15.2064 40.4377 15.2801 40.4132 15.4358 40.4951L15.5259 40.5524L15.8371 40.7244C16.0583 40.8391 16.2549 40.8965 16.4597 41.0275L17.287 41.4125C17.3689 41.4616 17.4426 41.4535 17.5409 41.4862C17.6802 41.5272 17.7785 41.6337 17.9423 41.7156C18.1307 41.8057 18.2044 41.7893 18.3682 41.9122C18.5402 42.0432 18.6304 42.0187 18.8024 42.1088C19.0972 42.2644 19.3102 42.4118 19.6461 42.5183L19.9246 42.6821C19.9983 42.7559 19.9655 42.6494 19.9819 42.8132L19.4822 42.6494C19.3758 42.6002 19.3676 42.5838 19.2775 42.5183C19.0972 42.3873 18.7123 42.3873 18.5239 42.2398C18.4583 42.1907 18.401 42.1088 18.3519 42.076C18.2372 42.0023 18.1962 42.0432 18.0652 41.9941L16.861 41.4698C16.4761 41.306 16.2549 41.134 15.8617 40.9948C15.8535 40.9948 15.8453 40.9866 15.8371 40.9866C15.829 40.9866 15.8208 40.9784 15.8126 40.9784C15.7798 40.9702 15.7634 40.962 15.7225 40.9538L15.3621 40.7982C15.2801 40.7654 15.3047 40.7818 15.231 40.749C14.9935 40.6343 14.8214 40.4951 14.5593 40.4296C14.2644 40.3558 14.1661 40.1429 13.6583 40.02C13.5272 39.9872 13.56 39.9463 13.4535 39.8807C13.2487 39.7579 13.1095 39.8398 12.9457 39.6923C12.7409 39.504 12.8146 39.4958 12.4378 39.4958C12.4214 39.291 12.274 39.3156 12.1429 39.2009C11.8644 39.3483 11.9299 39.2664 11.8153 39.3074C11.9545 39.5203 12.2412 39.5777 12.3641 39.7497C12.2494 39.7251 12.3067 39.7087 12.2166 39.7497C12.3641 40.0364 12.6344 39.9627 12.9293 40.2166C13.1095 40.3722 13.7975 40.6589 14.1088 40.8064L16.5498 41.904C16.7136 41.9695 16.7955 42.035 16.9348 42.1088C17.074 42.1825 17.1723 42.2398 17.3116 42.3217C17.4017 42.3709 17.3935 42.3791 17.5 42.4282L18.0979 42.7149C18.4256 42.8951 18.7532 43.0835 19.1136 43.2146L20.1293 43.6733C20.285 43.7634 20.4324 43.7716 20.5553 43.8371L23.7007 45.2951C23.8891 45.377 24.0284 45.4016 24.2168 45.5163L25.0195 45.9259C25.1506 45.9832 25.3226 46.0323 25.4372 46.0979C25.683 46.2535 25.9861 46.3436 26.24 46.4747C26.3301 46.5156 26.3465 46.532 26.4448 46.5648L27.8536 47.2201C27.9929 47.2774 28.1977 47.3184 28.3124 47.3839C28.5417 47.5068 28.8939 47.6214 29.1151 47.7607C29.6229 48.072 30.2455 48.1866 30.7533 48.4815C30.8762 48.547 30.9909 48.6371 31.1219 48.7027L32.0475 49.1368C32.5554 49.358 33.0141 49.6037 33.4646 49.9314C33.7022 50.1034 33.9889 50.2017 34.21 50.3655C34.4066 50.5047 34.6524 50.5047 34.8735 50.6276C35.1274 50.7669 35.4469 50.8897 35.6517 51.029C36.0694 51.3239 36.5609 51.4549 36.9541 51.7908" fill="#FFCF00"/>
<path fill-rule="evenodd" clip-rule="evenodd" d="M20.7681 9.51581C20.6698 9.46666 20.5633 9.40113 20.4487 9.3356C19.8343 8.967 20.0964 9.25369 19.5312 8.9588L19.048 8.74583C18.966 8.70488 18.9005 8.6885 18.8186 8.64754C18.7367 8.60658 18.6548 8.55744 18.5811 8.51648C18.622 8.66392 18.7121 8.6803 18.8596 8.75402C19.0398 8.83594 19.7688 9.1472 19.8343 9.32741C19.7033 9.31922 19.5476 9.28645 19.4575 9.22092C19.2937 9.10625 19.3756 9.10625 19.0971 9.10625C19.1462 9.31103 19.5476 9.47485 19.736 9.57315C19.949 9.67963 20.0063 9.50762 19.9818 9.84346C20.0964 9.81888 20.2275 9.7124 20.1783 9.88441C20.1456 9.99909 20.1374 9.90079 20.1128 10.0319C20.0964 10.1056 20.121 10.1138 20.1292 10.2448C19.9162 10.2366 19.949 10.2203 19.9818 10.0646C19.6623 10.0892 19.7196 10.2448 19.3838 10.0319C19.2609 9.95813 18.9415 9.87622 18.7613 9.87622C18.8022 10.0319 18.8759 10.0319 19.0316 10.0892C19.2527 10.1711 19.1872 10.1138 19.351 10.253C19.4493 10.3349 19.5149 10.4168 19.6377 10.4086C19.9408 10.4086 19.7606 10.3841 19.9572 10.5315L20.6125 10.8346C20.7681 10.8674 20.8091 10.9165 20.9401 10.9902C21.1531 11.1049 21.0876 11.0066 21.3087 10.9902C21.3169 10.9984 21.3333 11.023 21.3415 11.0312C21.448 11.1704 21.579 11.1704 21.7265 11.2687C22.1442 11.5472 21.9722 11.4407 22.0459 11.6128C22.2589 11.4735 22.2016 11.6046 22.4883 11.539C22.5456 11.752 22.7176 11.6619 22.7831 11.9076C22.8978 11.8994 22.9142 11.8667 23.0371 11.8749C23.2009 11.8831 23.2419 11.9486 23.3893 11.8913C23.5122 11.8339 23.5941 11.8339 23.7006 11.9896C23.5204 11.9486 23.6268 11.924 23.5941 12.0223C23.6924 12.1616 23.9053 12.2025 24.061 12.2517C24.2412 12.309 24.3313 12.481 24.5524 12.4974C24.6098 12.2435 24.577 12.4564 24.5197 12.2435C24.8801 12.3254 24.5279 12.3418 24.7654 12.4728C24.7982 12.4892 24.9374 12.5384 24.9784 12.5547C25.2405 12.653 25.8221 12.9971 25.9613 13.0135C25.9368 12.9315 25.904 12.9152 25.9286 12.866C26.0924 12.9889 25.9122 13.0872 26.2235 13.1609C26.4446 13.21 26.4692 13.2592 26.6494 13.3657C26.8296 13.4804 26.9197 13.4558 27.0999 13.5459C27.3293 13.6606 27.2228 13.6687 27.5504 13.7261C27.7143 13.7507 27.8125 13.849 27.9436 13.9227C28.2876 14.0947 28.5743 14.0783 28.8774 14.2339L29.8849 14.7418C29.9914 14.7909 30.0487 14.7909 30.1388 14.8237C30.2535 14.8647 30.3518 14.9793 30.6303 15.1022L30.9334 15.2824C31.1382 15.438 31.0972 15.2988 31.3511 15.4135C31.4986 15.479 31.6133 15.5855 31.7607 15.6264C31.9 15.6674 32.6208 15.9787 32.5471 16.1015C32.4324 16.2899 33.1123 16.3227 33.1532 16.3391C33.2925 16.3882 33.4071 16.6094 33.5955 16.6995C33.8577 16.8224 34.1443 16.8797 34.4065 17.0353L35.414 17.576C35.5614 17.6333 35.627 17.7971 35.8399 17.9282C35.9628 18.0019 36.2167 18.1411 36.3887 18.1575L36.2003 17.9446C36.5608 17.9364 37.0113 18.2886 37.3389 18.4606C37.7403 18.6654 38.24 19.0094 38.3792 19.0749L39.0591 19.4681C39.0673 19.4681 39.0755 19.4763 39.0836 19.4845C39.1983 19.4026 39.141 19.5091 39.1574 19.3371C39.2475 19.3862 39.3048 19.419 39.4113 19.4436C39.3785 19.3534 39.4031 19.3862 39.2884 19.3125C39.1082 19.1978 38.8707 19.1405 38.715 19.0012C38.928 19.0012 38.9116 19.0258 39.0509 19.0995L39.657 19.378C39.8454 19.4517 39.7963 19.4436 39.9437 19.5337L40.5171 19.8449C40.64 19.9104 40.6973 19.9186 40.812 19.9924C40.9021 20.0497 41.2707 20.2545 41.0086 19.9842C40.7956 19.763 40.771 19.6565 41.1806 19.6565V19.5828C41.369 19.7221 41.0905 19.591 41.4755 19.804C41.6475 19.9023 41.5246 19.8941 41.6966 19.9104C41.6803 19.6975 41.3608 19.3698 41.197 19.2715C41.0168 19.1569 40.9349 19.3616 40.3779 18.9848C40.3123 18.9439 40.2714 18.9029 40.1977 18.8702C40.0748 18.8046 40.1075 18.8374 39.9765 18.7964L39.5751 18.608C39.2475 18.4442 39.1738 18.3132 39.0427 18.2804C38.9034 18.2476 39.1082 18.3214 38.9526 18.264C38.8543 18.2313 38.9034 18.2476 38.8625 18.2149H38.9362C38.9034 18.0838 38.9198 18.1002 38.7888 18.0674C38.8215 18.1739 38.8051 18.1248 38.8625 18.2149C38.5758 18.1903 38.8297 18.1575 38.6905 18.0183C38.5758 17.9118 38.543 18.0429 38.3382 17.9691L38.0106 17.8135C37.8468 17.7234 37.9041 17.6988 37.9041 17.5104C37.4045 17.3957 37.0358 16.9288 36.5034 16.8879C36.5689 17.1254 36.7573 17.0108 36.9048 17.2155C36.5608 17.1336 36.3068 16.8879 35.9956 16.765C35.9055 16.7323 35.8317 16.7159 35.758 16.6749C35.6761 16.634 35.6433 16.593 35.5532 16.5439C35.3894 16.4538 35.2174 16.4128 35.0618 16.3309C34.988 16.2899 34.9471 16.2572 34.8488 16.208L33.6938 15.6674C33.6119 15.6346 33.571 15.5937 33.4809 15.5445L33.0058 15.3234C32.8911 15.266 32.9157 15.2497 32.7928 15.2087C32.7518 15.1923 32.7273 15.1841 32.6863 15.1677L32.5553 15.1186C32.4488 15.0776 32.5225 15.1104 32.4324 15.0613C32.3505 15.0203 32.3914 15.0367 32.3095 15.0039C32.1621 14.9384 32.0064 14.8729 31.8672 14.7828C31.7279 14.7008 31.5641 14.6271 31.4167 14.537C31.1873 14.3978 31.1136 14.4551 30.7286 14.2258C30.6631 14.1848 30.6631 14.193 30.5976 14.1684C30.4993 14.1356 30.5484 14.152 30.4665 14.1193L29.1068 13.4558C29.033 13.4148 28.9593 13.3821 28.8856 13.3493C28.6562 13.251 28.4351 13.1036 28.2139 12.9889C27.4521 12.5957 26.6412 12.2926 25.8712 11.9076C25.5026 11.7274 25.1258 11.5308 24.8228 11.2605C24.5443 11.0066 24.7818 11.2196 24.3722 11.0476C24.2739 11.0066 24.2084 10.9575 24.1265 10.9247C24.0364 10.8919 23.9627 10.8919 23.8808 10.8428L22.4145 10.081L22.4063 10.0646L22.3982 10.0482L22.39 10.0155C22.1606 10.0728 22.136 10.1793 21.8985 9.9909C21.62 9.76154 21.5381 9.94175 20.7681 9.51581Z" fill="#FFCF00"/>
<path fill-rule="evenodd" clip-rule="evenodd" d="M24.7248 14.9631L24.2334 15.1597C23.9549 15.2498 24.0531 15.2498 23.8484 15.3317L23.7419 15.3726C23.6026 15.4218 23.5371 15.5201 23.4224 15.5365C23.2586 15.561 23.2095 15.4627 23.103 15.4054C22.3903 14.9877 21.7432 14.4716 21.0142 14.0948C20.7603 13.9556 18.6469 12.8416 18.5077 12.6859C18.3357 12.4893 17.5084 11.7603 17.3118 11.5801C16.4107 10.7364 15.6244 9.52412 14.666 8.83605C14.3793 8.59851 14.0926 8.36916 13.8141 8.13161C13.7404 8.06608 13.6995 8.03332 13.6175 7.9596C13.5684 7.91045 13.552 7.90226 13.5193 7.85311C13.4865 7.79577 13.4701 7.7712 13.4619 7.71386C15.1083 7.45174 18.0981 9.49135 19.3923 10.3678C19.8511 10.6873 20.3098 10.974 20.7603 11.3344C21.9316 12.1863 23.2586 13.2511 24.3235 14.1931C24.4873 14.3078 24.7412 14.6682 24.7248 14.9631ZM31.0566 20.3611C30.9338 20.443 30.7454 20.484 30.6143 20.5577C30.3686 20.6887 30.4259 20.6232 30.1966 20.7543C29.9344 20.9263 28.8204 21.3686 29.0498 21.901L29.0907 22.0239C29.3201 22.8103 29.1727 23.6785 28.6976 23.2608C28.3699 22.9987 27.4935 22.2123 27.2068 22.2123C25.9207 22.3679 26.1583 22.155 25.2573 23.056L24.9624 23.4164C24.8231 23.5229 24.6265 23.3673 24.5446 23.269C24.4136 23.1297 24.2661 22.9167 24.0777 22.7447C23.4961 22.2123 23.6026 22.155 22.8245 22.2369C22.4149 22.2778 21.5139 22.9905 20.9978 23.2198C20.9241 23.2526 20.8012 23.2526 20.7193 23.228C20.5637 23.1789 20.277 22.7038 20.4408 22.2533C20.6702 21.8519 20.6948 21.4259 20.1869 21.3276C19.892 21.2703 18.0654 21.3604 17.6312 21.172C17.6312 21.0983 17.6149 20.9836 17.6312 20.9181C17.664 20.787 18.0654 20.5167 18.1555 20.4594C18.4422 20.2628 18.8845 20.1809 19.4087 20.1727C19.2613 20.1153 19.2367 20.1317 18.9746 20.0416C18.8435 19.9925 18.8927 19.9761 18.6224 19.9351C18.4422 19.9106 17.9589 19.8696 17.8606 19.7713C17.6312 19.542 18.1309 19.4191 18.2538 19.3372C18.6551 19.0833 19.3678 19.0341 19.8101 19.0751C19.9821 19.0914 20.0558 19.0587 20.2197 19.0669C20.3507 19.0751 20.5064 19.0833 20.6538 19.0914C20.9159 19.1078 21.2108 19.1897 21.4729 19.2225C21.8333 19.2717 21.8415 19.3699 22.0709 19.542L22.4477 19.8532C22.7016 20.0007 22.6279 19.9761 22.849 20.1399L23.2996 20.5003C23.4798 20.5003 23.6272 20.4758 23.7255 20.4266C23.7665 20.4102 23.8074 20.3857 23.8402 20.3693C22.8245 19.0013 22.0381 17.7481 23.6927 16.1672C24.2497 15.6348 24.3972 14.9549 24.8641 15.7494L25.4538 16.5194C25.9535 17.1419 26.3794 17.8464 26.5433 18.6327C26.6907 18.9604 26.658 19.6894 26.7562 20.1072C26.7481 19.8942 26.7644 19.673 26.8382 19.5665C27.4525 18.7802 27.6491 18.5836 28.7139 18.387C29.0006 18.3379 29.2873 18.2559 29.574 18.215C29.7624 18.1904 30.2293 18.0757 30.4341 18.0102C30.6716 17.9283 31.9331 17.5597 32.0969 17.5925L32.1215 17.6744L30.9174 18.5508C30.7617 18.6491 30.0245 19.4273 29.8525 19.5911C29.6559 19.7713 29.5494 19.9188 29.4675 20.0416C29.8034 20.0171 30.1638 20.0089 30.5488 20.0416C30.8027 20.0662 30.8355 20.058 31.0648 20.1153L31.0566 20.3611ZM25.503 14.1521C24.9378 13.0955 25.8388 11.2197 26.3139 10.2449C27.5016 8.22991 28.3617 7.9596 30.2867 6.96027C30.5488 6.79644 32.7113 5.61691 32.916 5.73978C33.0881 5.83807 30.9665 8.68861 30.8273 9.33572C30.3604 10.2941 28.1406 11.4818 27.4197 12.2436C27.1904 12.4893 25.7078 14.2832 25.503 14.1521ZM25.0443 10.376C25.0443 10.6545 24.5692 13.2184 24.1678 12.9562L23.5535 12.4811C23.234 12.219 22.6852 11.8668 22.333 11.5637C21.8333 11.1296 21.7023 10.9166 21.3746 10.3269C21.3582 10.3023 21.3419 10.2777 21.3337 10.2531C20.9159 9.40944 20.3261 8.65585 19.7855 7.88588C19.2449 7.23877 18.7862 6.61624 18.221 5.96094C18.1391 5.84626 17.9671 5.69063 17.9507 5.55957C17.9343 5.42032 18.008 5.30564 18.1391 5.28107C18.434 5.23192 18.8353 5.57595 19.0811 5.70701C19.5889 5.98552 20.1132 6.39508 20.5883 6.73092C20.5965 6.73911 25.0443 9.76985 25.0443 10.376ZM26.7562 18.0266C26.6498 17.6744 27.0839 17.0682 27.2395 16.7324C27.5754 16.0116 32.2607 13.7016 33.17 13.4887C33.7925 13.3412 36.1106 12.8743 36.5038 13.2184C36.6758 13.3658 33.7188 14.5208 33.4075 14.6109C31.6136 15.6102 29.189 17.1911 27.0347 17.8873C26.9856 17.9283 26.8463 18.0348 26.7562 18.0266ZM22.1937 17.8382C21.9644 17.8382 21.2026 17.5105 21.0224 17.3959C20.9323 17.3303 20.9241 17.2812 20.8176 17.1993L19.5398 16.1754C19.507 16.1508 19.4988 16.1426 19.4743 16.1262L17.5493 15.0204C17.4592 14.9713 17.492 14.9958 17.3937 14.9713L16.6073 14.5453L14.8462 13.8818C14.5104 13.7999 14.2237 13.7098 13.8715 13.6525C13.6995 13.6279 13.6503 13.6115 13.6175 13.4477C13.9698 13.3003 14.0353 13.4477 14.3466 13.4559C14.5186 13.4641 14.5923 13.4395 14.7807 13.4641C15.051 13.4969 15.6899 13.4313 15.8456 13.4477C15.9684 13.4559 15.9111 13.4641 16.034 13.4969L16.7712 13.6443C17.0251 13.6934 17.2463 13.759 17.5002 13.8245C17.6149 13.8491 17.7213 13.8736 17.8442 13.9146C18.3521 14.0784 18.3603 14.1112 18.8353 14.275C19.8838 14.6272 19.7446 14.6027 20.7603 15.0532C20.9405 15.1351 21.1616 15.2662 21.3419 15.3644C21.4483 15.4218 21.5548 15.4627 21.6531 15.5201L22.0545 15.7822C22.374 15.987 22.2347 15.9214 22.4477 16.0771C23.0129 16.4866 22.7835 16.4457 22.4722 17.1993C22.3985 17.3959 22.3002 17.6989 22.1937 17.8382ZM26.0436 35.0233C25.9945 34.8513 26.0928 34.7367 26.1665 34.6466C26.5515 34.1797 26.9365 33.7046 27.3214 33.2377C27.5016 33.0575 27.731 32.7626 28.0095 32.9837L29.5576 35.5312C29.5167 35.6131 29.4757 35.6377 29.4348 35.695L27.9604 37.6445C27.8457 37.6691 27.7064 37.792 27.5754 37.7428C27.518 37.7183 27.3624 37.5135 27.3132 37.4561C26.9201 37.0384 26.1992 35.5885 26.0436 35.0233ZM22.9801 38.2589C22.931 38.0869 23.0292 37.9722 23.103 37.8821C23.3323 37.6036 24.4791 35.8425 24.946 36.2193C25.6914 36.8336 26.06 37.9067 26.4941 38.7667L24.5119 40.9784C24.1023 40.8145 23.103 38.6848 22.9801 38.2589ZM21.6122 37.6363C21.3419 37.3169 20.9978 36.7025 20.8176 36.3094C20.6784 36.0145 20.1787 35.1872 20.1459 34.8759C20.1296 34.6957 20.2197 34.6466 20.277 34.5564L21.4811 33.0575C21.5466 32.9837 21.7023 32.8281 21.7596 32.8199C21.8743 32.7953 21.9972 32.951 22.0627 33.0165C22.2429 33.2131 22.7344 33.6882 22.849 33.8438C23.0784 34.1551 23.3323 34.3762 23.619 34.8022C23.7419 34.9824 23.832 35.0152 23.6272 35.2036C23.4798 35.3346 23.3405 35.5803 23.1685 35.8097C23.0948 35.908 23.0948 35.9899 22.8572 36.2766C22.7507 36.4077 22.7426 36.465 22.6524 36.5961L22.4395 36.9319C22.3903 37.0056 22.3903 36.981 22.333 37.0793C22.3002 37.1367 22.2675 37.194 22.2347 37.2432C22.12 37.4398 21.8661 37.6445 21.6122 37.6363ZM26.6498 31.5339C26.6252 31.665 26.2893 32.1482 26.1829 32.2957L25.9044 32.7134C25.5685 33.2295 25.4538 33.3278 25.0525 33.7947C24.8477 34.0322 24.7822 33.8356 24.6511 33.6636C24.5938 33.5981 24.5938 33.6063 24.5364 33.5489L23.6764 32.5086C23.0702 31.8042 22.8654 31.7714 23.2095 31.3455C23.4552 31.0424 24.1187 30.3216 24.3808 30.0922C24.4873 30.0021 24.7412 29.6745 25.0115 29.8465L25.2818 30.0677C25.3965 30.1823 25.4293 30.2315 25.5276 30.3052C25.8962 30.5919 26.1829 30.9359 26.4941 31.2472C26.5597 31.3209 26.6743 31.4274 26.6498 31.5339ZM19.6463 41.1504C19.3923 41.1422 19.4251 41.0766 19.3268 40.921C19.122 40.6261 18.8681 40.3558 18.6797 40.0691C18.6142 39.9626 18.5405 39.8398 18.4749 39.7497C18.262 39.4712 18.1227 39.1271 17.8442 38.8896C17.8524 38.8241 18.0326 38.308 18.0736 38.2179L18.8108 36.9401C18.8353 36.8991 18.8517 36.8418 18.8845 36.8008C18.9582 36.6862 19.0074 36.6452 19.1138 36.6124C19.1876 36.6206 19.72 37.2514 19.7937 37.3415C19.8674 37.4479 19.9248 37.5053 19.9985 37.6036L20.4163 38.1442C20.5801 38.3817 20.9978 38.7503 20.8012 39.0698C20.5227 39.5449 20.277 40.0773 19.9821 40.5524L19.6463 41.1504ZM20.5064 28.6014C20.4408 28.2902 20.621 28.1837 20.7603 28.0117C20.8258 27.9298 20.8831 27.8642 20.9569 27.7741L21.0879 27.6431C21.0961 27.6349 21.0961 27.6349 21.1043 27.6267L21.432 27.3482C21.7268 27.1024 21.9726 26.8649 22.292 26.9304C22.4559 26.9632 22.4722 27.0451 22.5623 27.1352L23.6764 28.2083C23.832 28.3639 24.0286 28.4622 23.8729 28.7243C23.7992 28.8554 23.6927 28.8799 23.5289 29.0765C23.4634 29.1503 23.4961 29.1257 23.447 29.1912L22.7835 29.8629C22.718 29.9284 22.6525 30.0103 22.5787 30.084C22.4886 30.1742 22.2101 30.4608 22.12 30.4936C21.8579 30.5837 21.6531 30.3462 21.5057 30.2233C21.4483 30.1742 21.3173 30.0677 21.2763 30.0185C21.2108 29.9448 21.2354 29.953 21.1944 29.8711C21.178 29.8383 21.1535 29.7892 21.1207 29.74C20.9077 29.3468 20.5719 28.9291 20.5064 28.6014ZM28.8368 39.1517C28.8778 39.0288 28.8614 39.1108 28.9269 39.0043C29.189 38.5865 29.7051 37.9558 30.0082 37.5462C30.0983 37.4234 30.3358 37.0793 30.4177 37.0548C30.688 36.9565 30.8682 37.3578 30.9338 37.4479L31.6382 38.5865C31.7938 38.8486 31.9904 38.8896 31.802 39.1599C31.7447 39.2418 31.7037 39.3647 31.6628 39.4876L31.286 40.0282C31.0976 40.2575 30.9747 40.364 30.8682 40.5278L30.4669 41.0439C30.385 41.1504 30.3358 41.134 30.2375 41.2487C30.131 41.3797 30.0573 41.4043 29.959 41.2405C29.6559 40.7408 29.1727 39.9626 28.9843 39.4466C28.9187 39.2828 28.8532 39.3565 28.8368 39.1517ZM28.8532 31.6568C28.7795 31.5093 28.8368 31.4274 28.9187 31.3291L29.7215 30.2888C29.9754 30.0513 30.1392 29.527 30.4505 29.7974L31.5235 31.0015C31.974 31.5585 32.0232 31.4602 31.802 31.8206C31.7447 31.9107 31.7201 32.0336 31.6546 32.14L31.1467 33.0165C31.0648 33.1476 30.729 33.8438 30.6307 33.893C30.3931 34.024 30.2785 33.6964 30.1556 33.5244C29.8443 33.1066 29.5576 32.6397 29.2136 32.1892L28.8532 31.6568ZM27.6081 40.151C27.6819 40.192 27.8047 40.2821 27.8866 40.3394C28.0095 40.4295 28.3617 40.9538 28.4682 41.1094C28.5993 41.2978 28.7139 41.4207 28.845 41.6255C28.9433 41.7811 29.2054 42.0023 29.0989 42.1907L28.6484 42.6576C28.501 42.8623 27.6655 43.5668 27.5016 43.7634C27.3952 43.8862 27.4279 43.9108 27.1904 43.9108C26.8791 43.4685 26.3385 42.8787 25.9699 42.4855C25.5521 42.0514 25.7733 42.1415 26.3057 41.4698C26.5433 41.1586 27.4197 40.2084 27.6081 40.151ZM20.5473 31.9107C20.4163 32.1564 20.4572 31.9844 20.3507 32.1564C20.2115 32.394 20.2934 32.2383 20.1541 32.394C20.1132 32.4431 20.105 32.4513 20.064 32.5086L19.6545 32.9592C19.5889 33.0493 19.6463 33.0083 19.5644 33.0984C19.1384 33.5653 19.0565 33.8192 18.778 33.3605L18.1555 32.2547C17.8852 31.8042 17.7377 31.6731 17.9425 31.4192L19.2859 29.7318C19.4906 29.5762 19.6463 29.9202 19.7691 30.0431L20.5473 30.9933C20.6292 31.0752 20.662 31.1489 20.7357 31.2308C20.8012 31.3127 20.8913 31.3701 20.8176 31.5339L20.5473 31.9107ZM17.0005 32.8691C17.1725 32.9264 17.2872 33.2131 17.3855 33.3687L17.877 34.237C18.0408 34.5564 18.3357 34.9251 18.2538 35.1216C18.0981 35.4902 17.7787 36.0309 17.6722 36.3094C17.6312 36.4159 17.6476 36.3831 17.5985 36.465C17.4592 36.7107 17.4101 37.0957 17.0415 37.4398C16.8121 37.6527 16.7957 37.1776 16.6893 37.0302C16.3862 36.5961 16.4189 36.6698 16.2224 36.1374C16.1896 36.0472 16.1404 35.908 16.0995 35.8261L15.8374 35.2199C15.7882 35.0152 15.9111 34.6875 16.0012 34.5073L16.2879 33.9257C16.4026 33.7046 16.5172 33.5571 16.6237 33.3687C16.6974 33.2868 16.9268 32.91 17.0005 32.8691ZM29.2791 28.4786C29.1972 28.667 29.0006 28.7816 28.886 28.9455C28.8286 29.0356 28.7631 29.1421 28.7139 29.2076C28.5501 29.4451 28.3453 29.7892 28.1897 29.9776C28.0341 30.1578 28.116 30.125 28.0259 30.2479C27.9849 30.3052 27.903 30.4199 27.8375 30.4854C27.6327 30.5018 27.5262 30.3625 27.4197 30.2479L26.5187 29.2485C26.3385 29.0356 25.9699 28.6997 26.06 28.5195C26.1173 28.4049 26.5187 28.0444 26.658 27.8478C26.7562 27.7086 26.8545 27.5939 26.9528 27.4792C27.2231 27.1516 27.4115 26.8076 27.6245 26.955L28.6894 27.7987C28.8286 27.9216 29.2054 28.2984 29.2791 28.4786ZM20.5801 42.035C20.4408 41.7811 20.8995 41.265 21.1043 41.0029L21.6531 40.3394C21.9562 39.979 22.0545 40.2411 22.3658 40.536L23.5862 41.7319C23.791 41.9777 23.7665 42.0186 23.5699 42.2562C23.2586 42.633 23.0702 42.7313 22.7016 43.0016C22.0954 43.4439 22.0053 43.6077 21.7268 43.3128C21.4893 43.0589 21.4156 43.0262 21.3091 42.9197C21.1698 42.7722 20.6538 42.1825 20.5801 42.035ZM31.7283 35.2281C31.7037 35.1134 31.6792 34.9742 31.7365 34.8595L32.0641 34.3189C32.1215 34.2206 32.1461 34.1633 32.2034 34.0568L32.531 33.5489C32.6048 33.3933 32.7194 33.0575 32.9324 33.3687C33.17 33.7046 33.3747 34.237 33.5877 34.622C33.6123 34.6711 33.6287 34.7121 33.6532 34.7612C33.9809 35.392 33.9973 35.0315 33.7106 35.8015C33.6942 35.8507 33.686 35.8998 33.6614 35.9571L33.4075 36.5633C33.3747 36.6534 33.3502 36.7681 33.301 36.8664C33.0553 37.3906 32.9488 38.0623 32.6457 37.6691C32.4 37.3497 32.1051 36.9892 32.0396 36.6124C31.9986 36.3913 31.9413 36.1537 31.8839 35.9244L31.7283 35.2281ZM24.8559 27.4874C24.5528 27.7168 24.4709 27.5612 24.3644 27.4383L23.4716 26.4799C23.0702 25.9803 23.1931 25.9639 23.6108 25.6362C23.6927 25.5707 23.7091 25.5461 23.8074 25.4888L24.2415 25.1693C24.7084 24.768 24.6101 24.7925 24.9132 24.9645C25.5358 25.3086 25.1344 24.8826 25.6259 25.3495C25.7733 25.4888 26.2812 25.9229 26.3713 26.0704L24.8559 27.4874ZM23.2668 44.648C23.2013 44.5661 23.4224 44.304 23.4961 44.2303C23.5535 44.1729 23.619 44.1156 23.6682 44.0582C23.7419 43.9763 23.7337 43.9518 23.8238 43.8617C23.9057 43.7879 23.9467 43.7552 24.0204 43.6815C24.561 43.0671 24.4463 43.1245 24.8395 43.2309C25.0525 43.2883 25.1098 43.4357 25.3883 43.7142L25.716 44.0746C25.7897 44.1483 25.8061 44.1893 25.8798 44.2548C25.9781 44.3449 25.9699 44.3368 26.0436 44.435C26.3549 44.8282 26.3549 44.7054 25.8143 45.1804C25.6259 45.3443 25.2573 45.7129 24.9624 45.7456C24.8395 45.762 24.4054 45.7211 24.3153 45.6637C24.217 45.6064 24.2252 45.5654 24.1514 45.4835C23.8811 45.1968 23.5371 44.9839 23.2668 44.648ZM18.6388 28.3393C18.6224 28.4049 18.6224 28.3066 18.5814 28.454C18.565 28.5031 18.5732 28.5359 18.5487 28.5932L17.8114 29.7892C17.7787 29.8465 17.7869 29.8465 17.7459 29.8957C17.7377 29.9038 17.705 29.953 17.6804 29.9776C17.5657 30.1332 17.5002 30.2888 17.3445 30.297C17.1807 30.3052 17.0824 30.1332 16.9923 30.0267C16.6565 29.6335 16.6647 29.6909 16.6974 29.0601C16.7302 28.4786 16.6401 28.3885 16.9514 28.0117L17.4019 27.4874C17.6476 27.2089 17.7541 27.0123 17.9589 27.0943C18.0572 27.1352 18.4504 27.7168 18.5077 27.8478C18.5405 27.8806 18.6469 28.3147 18.6388 28.3393ZM32.7113 30.3871C32.4573 30.3789 32.228 29.8383 32.0478 29.6417C31.8102 29.3878 31.9331 29.5189 31.7529 29.2404C31.6546 29.0929 31.5891 28.9782 31.4908 28.8144L31.1959 28.413C31.1385 28.3475 31.1058 28.2656 31.1467 28.1509C31.1877 28.0362 31.2368 28.0362 31.2942 27.9461C31.3761 27.8069 31.458 27.6267 31.5399 27.4956C31.7611 27.1352 31.7856 26.7093 32.1952 27.2171L32.8341 27.9625C33.2109 28.454 33.3911 28.3803 33.2437 28.8062L32.7113 30.3871ZM21.4811 44.5088C21.4483 44.6234 21.1125 45.074 20.9978 45.1886C20.7275 45.4508 20.6784 45.803 20.0968 45.5409C19.892 45.4508 19.4906 44.9101 19.3268 44.6972C19.1712 44.4924 18.9582 44.3777 19.0565 44.091C19.122 43.878 19.2859 43.6487 19.3923 43.4439C19.7937 42.6166 19.7773 42.9033 20.5309 43.5586C20.6128 43.6323 20.6292 43.6405 20.6948 43.7142C20.8012 43.8289 20.8012 43.7797 21.0224 44.0255C21.0715 44.0828 21.1289 44.1238 21.178 44.1811C21.2681 44.2712 21.391 44.4023 21.4811 44.5088ZM32.4246 40.6589C32.5802 40.7572 32.5802 40.9538 32.6293 41.134C32.6785 41.3142 32.744 41.4862 32.7932 41.6418C32.8423 41.8139 32.8751 42.0023 32.9324 42.1661C32.9898 42.3381 33.0881 42.5183 32.8997 42.6576C32.785 42.7395 32.7276 42.8623 32.5392 43.0507L32.0641 43.5832C31.7447 43.8944 31.7119 44.0992 31.417 43.5995C31.2041 43.2391 30.8027 42.805 30.9092 42.461L31.7856 41.347C31.9249 41.1586 32.2116 40.7244 32.4246 40.6589ZM16.722 41.5681C16.6237 41.3633 16.7548 41.2159 16.7875 41.0111C16.8121 40.8883 16.8203 40.8391 16.8449 40.7326C16.8858 40.5688 17.0497 40.0855 17.2299 40.151C17.3445 40.192 17.7787 40.749 17.8606 40.8801C17.9507 41.0111 18.0818 41.1012 18.1801 41.2241C18.6142 41.7565 18.7616 41.6746 18.6961 41.9613C18.6469 42.1825 18.3029 43.3702 18.1391 43.4603C17.9015 43.5914 17.7951 43.3456 17.7213 43.2473C17.623 43.1163 17.5248 42.9688 17.451 42.8214C17.3691 42.6494 17.2872 42.5838 17.1889 42.42C17.1316 42.3217 17.1316 42.2971 17.066 42.1988C17.0251 42.1415 16.9759 42.0678 16.9432 42.0023C16.8858 41.904 16.8695 41.8958 16.8285 41.7729C16.7794 41.6582 16.763 41.6664 16.722 41.5681ZM29.3119 24.8417C29.4921 24.8826 29.5986 24.9727 29.7215 25.071L30.729 25.9639C31.1385 26.3489 30.6962 26.5864 30.5078 26.8403C30.4177 26.9632 30.4832 26.9222 30.303 27.1024C29.9181 27.4874 29.9099 27.4301 29.574 27.1434C29.4184 27.0123 29.361 26.9222 29.2464 26.8321C29.0744 26.7011 28.6812 26.2751 28.5993 26.2096C28.1569 25.8656 28.4846 25.8738 28.7303 25.497L29.3119 24.8417ZM34.4396 37.1776C34.5543 37.2677 34.5051 37.2923 34.5707 37.4316C34.6116 37.5299 34.6444 37.5872 34.6853 37.7019C34.7181 37.792 34.7345 37.8903 34.7672 37.9968C34.8 38.1032 34.841 38.1442 34.8655 38.2425C35.0212 38.7503 35.1031 38.7667 34.9884 39.0944C34.9393 39.2418 34.972 39.2091 34.8492 39.2992C34.841 39.6923 34.8328 39.594 34.7181 39.8971L34.3085 40.8964C34.2676 40.9702 34.2348 41.0357 34.1939 41.1258C34.1447 41.2323 34.1201 41.2896 33.9973 41.2487C33.9236 41.2159 33.9236 41.1504 33.899 40.9947C33.8335 40.577 33.5058 39.2009 33.5795 39.0125C33.6123 38.9224 33.6696 38.865 33.7024 38.7913C33.7515 38.693 33.7352 38.6193 33.7761 38.521L34.1857 37.6036C34.2758 37.4398 34.2922 37.235 34.4396 37.1776ZM33.6532 31.5503C33.5304 31.2636 33.7761 30.9605 33.9154 30.5591L34.0218 30.3134C34.1857 29.9776 34.2594 30.0103 34.4642 30.3789C34.9065 31.1489 35.3161 31.3045 35.1358 32.2056C35.0621 32.5742 34.972 32.8936 34.8901 33.254C34.8573 33.4097 34.8082 33.639 34.669 33.6964C34.3905 33.811 34.3004 33.2704 34.1857 32.9428C33.9891 32.353 33.9072 32.1155 33.6532 31.5503ZM30.5078 44.8528C30.4751 44.9429 29.3283 45.8931 29.2218 45.9504C29.0744 46.0487 28.9843 46.147 28.8532 45.934C28.7549 45.7784 28.6894 45.7293 28.6075 45.5736L28.4027 45.1723C28.1488 44.7545 28.2962 44.7791 28.6075 44.4596L28.8942 44.1484C29.0006 44.0419 29.0907 43.9518 29.1972 43.8453C29.2791 43.7716 29.6641 43.2719 29.9181 43.6569C29.9754 43.747 30.0983 43.9354 30.1474 44.0255C30.2457 44.2221 30.5815 44.6398 30.5078 44.8528ZM21.3091 25.9147C21.2927 25.9721 20.7849 26.357 20.6538 26.4799C20.5555 26.57 20.6292 26.5618 20.5064 26.6519C20.4326 26.7093 20.4982 26.6355 20.4244 26.7175C20.3917 26.7502 20.3999 26.7584 20.3589 26.7994C20.2606 26.8977 20.2524 26.8485 20.1132 26.9878L19.761 27.2417C19.7446 27.2581 19.6954 27.2827 19.6627 27.2827C19.3842 27.3154 18.8845 26.2833 18.8845 26.2833C18.8435 26.054 18.9746 25.9721 19.0893 25.882L19.72 25.3004C19.8347 25.2103 19.9166 25.1366 20.0476 25.0546C20.4572 24.8171 20.4163 24.8662 20.7603 25.2512C20.9323 25.4233 21.3419 25.7837 21.3091 25.9147ZM15.993 40.5278C15.7309 40.5606 15.6899 40.4377 15.6244 40.2411L15.0756 38.8323C15.0182 38.7012 14.9036 38.5046 14.9527 38.3408C15.1903 37.4152 15.2066 36.0391 15.5834 36.9401C15.78 37.3906 16.1241 37.9886 16.206 38.2834C16.3534 38.8568 16.2715 38.8978 16.1978 39.4548C16.1732 39.6596 16.0503 40.4295 15.993 40.5278ZM29.7952 3.99505C29.8689 4.10973 29.4266 6.3705 28.8696 6.68996C27.3296 7.7712 28.0505 5.60053 28.1406 5.46947C28.3945 5.19916 29.3774 4.10154 29.7952 3.99505ZM23.0702 24.8417C23.0129 24.8908 23.0538 24.8581 23.0129 24.899C22.9146 24.9973 22.7917 25.0465 22.677 25.112C22.3494 25.2758 22.1692 24.9564 22.0381 24.7761C21.9726 24.686 21.5958 24.2519 21.5712 24.1782C21.4893 23.9161 22.0873 23.6376 22.2593 23.5065C22.3166 23.4574 22.3412 23.4328 22.4067 23.3918C22.5214 23.3181 22.4886 23.3427 22.5705 23.269C22.9719 22.9331 23.0866 23.2608 23.3979 23.5065C23.5043 23.5884 23.5862 23.6458 23.6927 23.7604C23.7501 23.8178 23.8811 23.998 23.8484 24.1045L23.0702 24.8417ZM26.2156 46.2043C26.2812 46.1634 26.2975 46.147 26.3713 46.0979C27.1412 45.5736 26.9446 45.3443 27.6327 46.0405C28.2634 46.6712 28.1733 46.4337 27.8703 46.8678C27.8129 46.9579 27.4279 47.1873 27.3051 47.2774C27.2887 47.2856 27.2723 47.302 27.2559 47.3184L27.1658 47.3921C26.658 47.7771 26.7481 47.7771 26.2484 47.2201C26.0764 47.0317 25.7815 46.7532 25.7733 46.6057L26.2156 46.2043ZM15.4442 33.3687C15.3459 33.2786 15.0674 31.7469 15.0019 31.4847C14.8872 31.0342 14.9118 30.9277 15.1247 30.6001C15.2394 30.4281 15.4688 30.0103 15.5916 29.912C15.7063 29.9366 15.7063 29.953 15.7555 30.0677L16.0012 30.7475C16.0585 30.8622 16.034 30.8786 16.0749 30.9851C16.1241 31.1243 16.2797 31.5667 16.2469 31.7141L15.8701 32.5824C15.7964 32.7134 15.5589 33.336 15.4442 33.3687ZM23.0456 47.3511C22.7999 47.3675 22.8327 47.3511 22.6524 47.2856C22.5132 47.2364 22.292 46.9989 22.161 46.9088C21.3173 46.2535 21.4483 46.4337 22.1446 45.5572C22.3903 45.246 22.6033 45.5245 22.677 45.5818L23.3569 46.1388C23.6272 46.3764 23.6927 46.4173 23.6682 46.6385L23.0456 47.3511ZM23.1357 6.65719C22.3903 7.22239 21.8415 6.03466 21.7514 5.51043C21.735 5.40394 21.6613 4.29813 21.7187 4.18345C22.0299 4.10973 22.9801 5.51042 23.062 5.78073C23.1685 6.12477 23.1521 6.32955 23.1357 6.65719ZM31.4908 25.071C30.9665 25.1038 31.1467 25.1693 30.7699 24.8908L30.2867 24.4239C29.7788 23.9161 29.5986 23.8587 30.0491 23.3181C30.2539 23.0806 30.2867 23.1133 30.6635 23.3427C30.7699 23.4082 30.8518 23.4737 30.9583 23.5393C31.0648 23.5966 31.1549 23.654 31.245 23.7113C31.6136 23.9406 31.6382 24.0062 31.6218 24.2601C31.5972 24.7598 31.6382 24.6369 31.4908 25.071ZM27.0593 25.0956C26.9692 24.9482 26.789 24.9318 26.6416 24.7434C26.6416 24.7352 26.6334 24.727 26.6334 24.727L26.5597 24.6615C26.3057 24.5058 26.445 24.555 26.2484 24.4239C26.1501 24.3502 26.2074 24.3994 26.1501 24.3256C26.0354 24.1864 25.6422 24.0307 25.9371 23.7932C26.1255 23.6458 26.404 23.3755 26.6498 23.4246C26.7235 23.441 26.83 23.5147 26.8955 23.5475C26.9774 23.5884 27.0511 23.6212 27.133 23.6621L28.0914 24.17C28.1078 24.3748 28.0341 24.4075 27.9358 24.5222C27.6819 24.8089 27.9112 24.4239 27.5344 24.8662L27.2723 25.0874C27.1822 25.112 27.1576 25.0956 27.0593 25.0956ZM33.7925 27.4547C33.6123 27.4792 33.5795 27.4219 33.473 27.3236C33.2109 27.0615 32.4409 26.2506 32.3836 25.9639C32.3508 25.8328 32.3754 25.1284 32.4328 25.0465C32.572 24.8253 32.957 25.325 32.9816 25.3659C33.2191 25.7345 33.2191 25.6035 33.4321 25.8983C33.6041 26.1277 33.5959 26.3243 33.7188 26.5946C33.8089 26.8321 33.8171 27.168 33.7925 27.4547ZM19.5152 23.3017C19.5971 23.3836 19.7937 23.785 19.7937 23.8997C19.7855 24.0226 19.6872 24.0799 19.6053 24.1372C19.4579 24.2355 19.4087 24.3256 19.3104 24.3912C19.1138 24.5304 19.2367 24.4649 19.1384 24.5632C19.0811 24.6205 19.0729 24.5959 19.0074 24.6615L18.6961 24.9809C18.6142 25.0383 18.6224 24.9973 18.5487 25.0628C18.4586 25.1448 18.5814 25.112 18.4504 25.1693C18.3193 25.0219 18.2947 24.7352 18.2538 24.5058C18.1882 24.1045 18.2538 24.1618 18.4995 23.9734C18.7207 23.8014 19.2531 23.3181 19.5152 23.3017ZM18.778 45.4835C18.991 45.4753 18.9582 45.5163 19.0729 45.6064L19.5234 45.934C19.6299 46.0078 19.6381 46.0159 19.7282 46.106C19.9494 46.3026 20.0722 46.2944 20.0395 46.5566C20.0231 46.6631 19.9248 47.0726 19.8511 47.1136C19.7528 47.1627 19.6872 47.0726 19.4906 46.9497C19.4825 46.9497 19.4825 46.9416 19.4743 46.9416L19.2531 46.7859C18.8517 46.4665 18.565 46.4419 18.6388 46.106C18.6961 45.9013 18.7289 45.6555 18.778 45.4835ZM16.337 27.2908C16.2305 27.1926 16.2142 26.7748 16.206 26.6028C16.165 26.1359 16.3125 26.2096 16.8367 25.628C16.9104 25.5461 16.9678 25.5134 17.0497 25.4396C17.5002 25.0383 17.5329 25.8983 17.4592 25.9966C17.451 26.0048 17.3691 26.0785 17.3527 26.0949C17.1152 26.3079 16.894 26.742 16.7302 26.8895C16.6565 26.955 16.6893 26.8977 16.6073 26.9714C16.5582 27.0205 16.5746 27.0451 16.4763 27.1598C16.378 27.2827 16.4435 27.2581 16.337 27.2908ZM31.0157 46.6712C30.9338 46.7204 30.8764 46.7286 30.8027 46.8105C30.7208 46.9006 30.7617 46.9006 30.6307 46.9825C30.557 47.0235 30.4914 47.0562 30.4095 47.1136C30.0409 47.3757 29.5003 47.9491 29.5904 47.302C29.6232 47.0808 29.4757 46.917 29.6559 46.7695L30.2539 46.36C30.3194 46.3272 30.4095 46.319 30.4996 46.2863C30.6962 46.2125 31.0812 45.6801 31.0157 46.6712ZM34.243 43.6405C34.2184 43.5258 34.2348 43.0262 34.2348 42.8705C34.2348 42.5838 34.3249 42.5101 34.3905 42.2726C34.3986 42.2398 34.4887 41.9941 34.4969 41.9777C34.7099 41.5927 34.669 41.5354 34.841 41.4125C34.841 41.4125 34.8492 41.4043 34.8574 41.4043C34.8655 41.3961 34.8574 41.3551 34.9229 41.3388C34.9638 41.4289 34.9884 41.9285 34.9884 42.0596C34.9802 42.2889 34.9229 42.4937 34.9065 42.7477C34.8819 43.1818 34.8492 43.149 34.6771 43.3128C34.5788 43.4193 34.4314 43.6569 34.243 43.6405ZM24.7576 47.3511C24.8805 47.3921 25.0361 47.5559 25.1426 47.6378C25.4866 47.8835 25.8552 48.1457 25.4211 48.2931C25.1917 48.3668 25.1016 48.3341 24.8641 48.2931C24.7494 48.2767 24.6675 48.2767 24.5528 48.2685C24.4218 48.2521 24.4136 48.2194 24.3071 48.1948C24.1596 48.162 24.1678 48.203 24.045 48.1047C23.9385 48.031 23.8893 47.9655 24.045 47.8016C24.1514 47.6951 24.6593 47.3593 24.7576 47.3511ZM17.7623 45.2951C17.623 45.3279 17.5985 45.246 17.5411 45.1559C17.3609 44.8774 17.1971 44.7463 16.9923 44.5497C16.6073 44.1565 16.6155 43.96 16.7548 43.403C16.894 43.4521 17.0005 43.6159 17.1643 43.7716L17.5329 44.132C17.7295 44.304 17.6968 44.3777 17.6804 44.689C17.664 44.9347 17.7869 45.0985 17.7623 45.2951ZM32.8669 45.2214C32.6867 45.3279 32.7276 45.377 32.5147 45.5572C32.3017 45.7374 32.2935 45.8439 32.1133 45.8194C32.0478 45.631 32.056 45.3606 32.0969 45.1641C32.1215 45.0248 32.1543 45.0248 32.2116 44.9347C32.2853 44.8282 32.2689 44.7955 32.3427 44.7217C32.4409 44.6316 32.6212 44.5088 32.7276 44.4187C32.9078 44.2712 32.9816 44.0255 33.1044 44.1565C33.17 44.2303 33.0471 44.5907 33.0307 44.6972C32.9816 45.074 33.0635 45.0985 32.8669 45.2214ZM35.5782 37.1039C35.5045 36.8582 35.5126 36.637 35.2669 36.2684C35.1031 36.0145 35.2423 35.867 35.3324 35.3756C35.3734 35.1626 35.3243 34.8923 35.529 34.8268C35.7338 35.138 35.783 35.5066 35.783 35.8834C35.783 36.0964 35.7993 36.981 35.7584 37.1039H35.5782ZM15.608 42.764C15.4606 42.764 15.3377 42.4855 15.2722 42.4036L14.9691 42.0104C14.838 41.8139 14.879 41.6664 14.879 41.3879C14.879 41.2978 14.8872 40.79 14.9118 40.7408C15.0182 40.5688 15.264 41.2732 15.4278 41.5435C15.5752 41.7811 15.6653 42.5511 15.608 42.764ZM14.5841 34.5155C14.6169 34.581 14.6496 34.8923 14.6742 34.9906C14.7234 35.1708 14.7234 35.3264 14.6906 35.5148C14.6496 35.7769 14.6169 36.3831 14.5186 36.4322C14.4285 36.3831 14.2892 35.5312 14.281 35.4329C14.2647 35.2036 14.3056 35.0971 14.3711 34.9087C14.5022 34.5564 14.4367 34.5237 14.5841 34.5155ZM28.1979 48.1784C28.0177 48.2276 27.5836 48.3259 27.4197 48.3013C27.3706 48.1211 27.5016 48.0883 27.6081 48.0228C27.9112 47.8344 28.1979 47.5641 28.5337 47.5395C28.6238 47.6951 28.6238 47.646 28.6894 47.7361C28.6812 47.7443 28.5993 47.8754 28.5993 47.8754C28.5092 48.0638 28.6812 48.0474 28.1979 48.1784ZM22.0545 47.7934C21.9644 47.9491 21.8825 47.8835 21.735 47.8508C21.35 47.7525 20.7521 47.8344 20.9733 47.2856C21.0142 47.1709 21.1125 47.0972 21.2354 47.1955L21.9398 47.6706C22.0135 47.7279 22.0217 47.7197 22.0545 47.7934ZM26.8054 0.677612H26.445C25.8552 1.48854 25.1508 4.10154 24.946 4.62577C24.6675 5.46947 24.3153 6.31316 24.0368 7.17324C23.7665 7.85311 25.2081 9.58146 25.5685 9.67156C26.273 9.22923 27.2805 8.00874 27.1167 7.09133C26.9201 6.01009 26.8955 1.75066 26.8054 0.677612ZM36.5939 8.17257C36.684 8.26267 36.6103 8.28724 36.5857 8.38554C36.3727 9.18828 33.5959 11.834 32.7932 12.5467L30.901 13.8491C29.8935 14.6354 27.6819 15.5692 26.3794 16.2081C26.1419 16.2982 26.1419 16.2163 26.0108 16.0771C25.7405 15.7904 25.7242 15.7412 26.019 15.3317C27.3624 13.4805 28.2307 12.7678 30.0819 11.3835C30.9747 10.7118 30.8109 10.9412 31.7775 10.4006C32.3672 10.0729 34.7099 9.08179 35.0376 8.87701C35.185 8.81148 36.471 8.15619 36.4792 8.15619C36.6185 8.11523 36.5611 8.1398 36.5939 8.17257Z" fill="black"/>
<g filter="url(#filter0_d_865_397)">
<path fill-rule="evenodd" clip-rule="evenodd" d="M56.2442 19.223H171.816C173.322 19.223 174.5 20.4671 174.5 21.9077V35.6584C174.5 37.1644 173.256 38.343 171.816 38.343H56.2442C54.7382 38.343 53.5596 37.0989 53.5596 35.6584V21.9077C53.5596 20.4671 54.8037 19.223 56.2442 19.223Z" fill="white"/>
</g>
<path d="M161.994 27.9973C161.994 26.9496 161.797 26.0984 161.47 25.509C161.077 24.7888 160.357 24.3959 159.44 24.3959C158.523 24.3959 157.803 24.7888 157.279 25.509C156.821 26.1638 156.559 27.0151 156.559 27.9973H161.994ZM163.107 32.7118C162.583 33.1047 161.994 33.3666 161.404 33.6285C160.815 33.8249 160.226 33.9559 159.571 33.9559C158.13 33.9559 156.952 33.4975 156.035 32.5808C155.118 31.6641 154.726 30.42 154.726 28.8485C154.726 27.3425 155.118 26.1638 155.904 25.2471C156.755 24.2649 157.934 23.8066 159.44 23.8066C160.684 23.8066 161.666 24.1994 162.387 25.0507C163.238 25.9674 163.631 27.2115 163.631 28.914L159.44 28.8485H156.559C156.559 30.0926 156.821 31.0748 157.41 31.7951C158.065 32.6463 158.916 33.0392 160.095 33.0392C160.75 33.0392 161.339 32.9082 161.928 32.5808C162.321 32.3844 162.714 32.057 163.172 31.6641L163.107 32.7118ZM144.118 23.872L144.969 23.9375L145.82 23.872V25.771C146.148 25.1162 146.672 24.6578 147.195 24.3304C147.785 24.003 148.374 23.8066 149.094 23.8066C150.273 23.8066 151.124 24.134 151.648 24.7888C152.172 25.4436 152.434 26.4257 152.434 27.8663V33.8249L151.582 33.7595L150.731 33.8249V28.3247C150.731 27.2115 150.6 26.4257 150.338 25.9019C150.011 25.2471 149.356 24.9197 148.439 24.9197C147.392 24.9197 146.672 25.3126 146.279 26.0329C145.951 26.6877 145.755 27.6699 145.755 29.0449V33.8249L144.904 33.7595L144.052 33.8249V23.872H144.118ZM133.641 29.0449C133.641 30.2236 133.903 31.1403 134.361 31.926C134.951 32.8427 135.736 33.2356 136.85 33.2356C137.963 33.2356 138.749 32.7118 139.338 31.5986C139.796 30.7474 139.993 29.7652 139.993 28.7175C139.993 27.6044 139.796 26.6222 139.403 25.9019C138.879 24.9197 138.094 24.4614 137.046 24.4614C135.867 24.4614 134.951 24.9852 134.361 25.9674C133.838 26.6877 133.641 27.7353 133.641 29.0449ZM137.046 23.7411C138.487 23.7411 139.6 24.1994 140.516 25.1162C141.433 26.0329 141.826 27.277 141.826 28.783C141.826 30.1581 141.368 31.3367 140.516 32.3189C139.6 33.3666 138.29 33.8904 136.653 33.8904C135.213 33.8904 134.099 33.4321 133.183 32.4499C132.266 31.5332 131.808 30.289 131.808 28.7175C131.808 27.277 132.332 26.0984 133.314 25.1162C134.296 24.1994 135.54 23.7411 137.046 23.7411ZM128.272 31.4022C128.599 31.4022 128.861 31.5332 129.123 31.7951C129.385 32.057 129.516 32.3189 129.516 32.6463C129.516 32.9737 129.385 33.2356 129.188 33.4975C128.927 33.7595 128.665 33.8904 128.337 33.8904C128.01 33.8904 127.682 33.7595 127.421 33.563C127.159 33.3011 127.028 33.0392 127.028 32.6463C127.028 32.3189 127.159 32.057 127.421 31.7951C127.617 31.5332 127.944 31.4022 128.272 31.4022ZM118.843 31.7296C119.105 32.1879 119.432 32.5153 119.89 32.8427C120.283 33.1047 120.742 33.3011 121.2 33.3011C121.724 33.3011 122.182 33.1047 122.575 32.7773C122.968 32.4499 123.164 31.9915 123.164 31.4677C123.164 30.6164 122.379 29.9616 120.742 29.5033C119.105 29.0449 118.319 28.1937 118.319 26.8841C118.319 25.9019 118.646 25.1816 119.236 24.6578C119.89 24.134 120.676 23.872 121.658 23.872C122.117 23.872 122.575 23.9375 123.033 24.0685C123.492 24.1994 123.754 24.3304 124.016 24.3959C123.819 24.8542 123.623 25.3781 123.492 25.8364H123.295C123.164 25.509 122.902 25.1816 122.575 24.9197C122.248 24.6578 121.92 24.5268 121.527 24.5268C121.004 24.5268 120.545 24.6578 120.218 24.9852C119.89 25.3126 119.694 25.7055 119.694 26.2293C119.694 27.0805 120.48 27.7353 122.117 28.2592C123.754 28.783 124.539 29.6342 124.539 30.7474C124.539 31.7951 124.147 32.5808 123.295 33.1701C122.575 33.694 121.724 33.9559 120.742 33.9559C120.349 33.9559 119.89 33.8904 119.367 33.7595C118.908 33.6285 118.515 33.4975 118.122 33.3011C118.188 33.0392 118.319 32.7773 118.384 32.5808C118.45 32.3189 118.515 32.057 118.581 31.8605H118.843V31.7296ZM113.932 28.5866L113.211 28.7175C112.033 28.9795 111.247 29.1104 110.92 29.2414C110.068 29.6342 109.676 30.2236 109.676 31.0093C109.676 31.6641 109.872 32.1225 110.199 32.4499C110.527 32.7773 111.051 32.9737 111.705 32.9737C111.967 32.9737 112.229 32.9082 112.557 32.7118C112.884 32.5808 113.146 32.3844 113.342 32.1879C113.473 32.1225 113.604 31.9915 113.735 31.8605C113.866 31.7296 113.932 31.5986 113.932 31.5332V28.5866ZM115.569 31.9915C115.569 32.1879 115.569 32.3844 115.569 32.5808C115.634 32.8427 115.765 33.0392 116.093 33.0392C116.289 33.0392 116.485 33.0392 116.682 32.9737V33.4321C116.616 33.4321 116.485 33.4975 116.355 33.563C116.224 33.6285 116.093 33.6285 115.896 33.694C115.765 33.694 115.569 33.7595 115.307 33.7595C114.914 33.7595 114.587 33.694 114.325 33.4975C114.063 33.3011 113.932 32.9737 113.866 32.5153L113.801 32.5808C112.95 33.4321 111.902 33.8904 110.723 33.8904C109.938 33.8904 109.348 33.6285 108.759 33.1701C108.235 32.7118 107.973 32.1225 107.973 31.3367C107.973 30.289 108.366 29.5688 109.152 29.1104C109.61 28.8485 110.527 28.5866 111.771 28.3901C112.688 28.2592 113.211 28.1282 113.473 27.9973C113.801 27.8008 113.997 27.4734 113.997 27.0151C113.997 26.2293 113.801 25.64 113.342 25.2471C112.95 24.8542 112.36 24.5923 111.575 24.5923C110.92 24.5923 110.33 24.7888 109.872 25.1162C109.479 25.3781 109.217 25.7055 109.152 26.0329H108.955V24.9197C109.479 24.5268 110.003 24.2649 110.592 24.0685C111.116 23.872 111.705 23.8066 112.295 23.8066C114.521 23.8066 115.634 24.9852 115.634 27.277V31.9915H115.569ZM97.2345 23.872L98.0857 23.9375L98.937 23.872V25.771C99.2644 25.1162 99.7882 24.6578 100.312 24.3304C100.901 24.003 101.491 23.8066 102.211 23.8066C103.39 23.8066 104.241 24.134 104.765 24.7888C105.288 25.4436 105.55 26.4257 105.55 27.8663V33.8249L104.634 33.6285L103.782 33.694V28.1937C103.782 27.0805 103.651 26.2948 103.39 25.771C103.062 25.1162 102.407 24.7888 101.491 24.7888C100.443 24.7888 99.7227 25.1816 99.3298 25.9019C99.0024 26.5567 98.806 27.5389 98.806 28.914V33.694L98.0202 33.6285L97.169 33.694V23.872H97.2345ZM92.1926 28.5866L91.4723 28.7175C90.2937 28.9795 89.5079 29.1104 89.1805 29.2414C88.3293 29.6342 87.9364 30.2236 87.9364 31.0093C87.9364 31.6641 88.1328 32.1225 88.4602 32.4499C88.7876 32.7773 89.3115 32.9737 89.9663 32.9737C90.2282 32.9737 90.4901 32.9082 90.8175 32.7118C91.1449 32.5808 91.4068 32.3844 91.6033 32.1879C91.7342 32.1225 91.8652 31.9915 91.9961 31.8605C92.1271 31.7296 92.1926 31.5986 92.1926 31.5332V28.5866ZM93.8296 31.9915C93.8296 32.1879 93.8296 32.3844 93.8296 32.5808C93.895 32.8427 94.026 33.0392 94.3534 33.0392C94.5498 33.0392 94.7463 33.0392 94.9427 32.9737V33.4321C94.8772 33.4321 94.7463 33.4975 94.6153 33.563C94.4844 33.6285 94.3534 33.6285 94.157 33.694C94.026 33.694 93.8296 33.7595 93.5676 33.7595C93.1748 33.7595 92.8474 33.694 92.5854 33.4975C92.3235 33.3011 92.1926 32.9737 92.1271 32.5153L91.9307 32.7118C91.0794 33.563 90.0317 34.0214 88.8531 34.0214C88.0674 34.0214 87.478 33.7595 86.8887 33.3011C86.3649 32.8427 86.103 32.2534 86.103 31.4677C86.103 30.42 86.4958 29.6997 87.2816 29.2414C87.74 28.9795 88.6567 28.7175 89.9008 28.5211C90.8175 28.3901 91.3413 28.2592 91.6033 28.1282C91.9307 27.9318 92.1271 27.6044 92.1271 27.146C92.1271 26.3603 91.9307 25.771 91.4723 25.3781C91.0794 24.9852 90.4901 24.7233 89.7043 24.7233C89.0496 24.7233 88.4602 24.9197 88.0019 25.2471C87.609 25.509 87.3471 25.8364 87.2816 26.1638H87.0852V24.9197C87.609 24.5268 88.1328 24.2649 88.7222 24.0685C89.246 23.872 89.8353 23.8066 90.4246 23.8066C92.6509 23.8066 93.7641 24.9852 93.7641 27.277V31.9915H93.8296ZM75.4953 23.872L76.3465 23.9375L77.1323 23.872V25.771C77.4597 25.1162 77.9835 24.6578 78.5073 24.3304C79.0967 23.9375 79.7515 23.7411 80.4063 23.7411C81.5849 23.7411 82.4361 24.0685 82.96 24.7233C83.4838 25.3781 83.7457 26.3603 83.7457 27.8008V33.7595L82.8945 33.6285L82.0432 33.694V28.1937C82.0432 27.0805 81.9123 26.2948 81.6504 25.771C81.323 25.1162 80.6682 24.7888 79.7515 24.7888C78.7038 24.7888 77.9835 25.1816 77.5906 25.9019C77.2632 26.5567 77.0668 27.5389 77.0668 28.914V33.694L76.281 33.6285L75.4298 33.694V23.872H75.4953ZM70.4534 28.5866L69.7331 28.7175C68.5545 28.9795 67.7687 29.1104 67.4413 29.2414C66.5901 29.6342 66.1972 30.2236 66.1972 31.0093C66.1972 31.6641 66.3936 32.1225 66.721 32.4499C67.0484 32.7773 67.5723 32.9737 68.2271 32.9737C68.489 32.9737 68.7509 32.9082 69.0783 32.7118C69.4057 32.5808 69.6676 32.3844 69.864 32.1879C69.995 32.1225 70.126 31.9915 70.2569 31.8605C70.3879 31.7296 70.4534 31.5986 70.4534 31.5332V28.5866ZM72.0904 31.9915C72.0904 32.1879 72.0904 32.3844 72.0904 32.5808C72.1558 32.8427 72.2868 33.0392 72.6142 33.0392C72.8106 33.0392 73.0071 33.0392 73.2035 32.9737V33.4321C73.138 33.4321 73.0071 33.4975 72.8761 33.563C72.7451 33.6285 72.6142 33.6285 72.4178 33.694C72.2868 33.694 72.0904 33.7595 71.8284 33.7595C71.4356 33.7595 71.1082 33.694 70.8462 33.4975C70.5843 33.3011 70.4534 32.9737 70.3879 32.5153L70.1914 32.7118C69.3402 33.563 68.2925 34.0214 67.1139 34.0214C66.3282 34.0214 65.7388 33.7595 65.1495 33.3011C64.6257 32.8427 64.3638 32.2534 64.3638 31.4677C64.3638 30.42 64.7566 29.6997 65.5424 29.2414C66.0008 28.9795 66.9175 28.7175 68.1616 28.5211C69.0783 28.3901 69.6021 28.2592 69.864 28.1282C70.1914 27.9318 70.3879 27.6044 70.3879 27.146C70.3879 26.3603 70.1914 25.771 69.7331 25.3781C69.3402 24.9852 68.7509 24.7233 67.9651 24.7233C67.3103 24.7233 66.721 24.9197 66.2627 25.2471C65.8698 25.509 65.6079 25.8364 65.5424 26.1638H65.346V24.9197C65.8698 24.5268 66.3936 24.2649 66.983 24.0685C67.5068 23.872 68.0961 23.8066 68.6854 23.8066C70.9117 23.8066 72.0249 24.9852 72.0249 27.277V31.9915H72.0904Z" fill="black"/>
<path fill-rule="evenodd" clip-rule="evenodd" d="M166.643 28.7175L174.304 34.1523L170.899 34.3488L173.518 39.1943L170.964 40.5038L168.541 35.7893L166.708 38.343L166.643 28.7175Z" fill="black"/>
<defs>
<filter id="filter0_d_865_397" x="48.5596" y="14.223" width="130.94" height="29.12" filterUnits="userSpaceOnUse" color-interpolation-filters="sRGB">
<feFlood flood-opacity="0" result="BackgroundImageFix"/>
<feColorMatrix in="SourceAlpha" type="matrix" values="0 0 0 0 0 0 0 0 0 0 0 0 0 0 0 0 0 0 127 0" result="hardAlpha"/>
<feOffset/>
<feGaussianBlur stdDeviation="2.5"/>
<feColorMatrix type="matrix" values="0 0 0 0 0 0 0 0 0 0 0 0 0 0 0 0 0 0 0.25 0"/>
<feBlend mode="normal" in2="BackgroundImageFix" result="effect1_dropShadow_865_397"/>
<feBlend mode="normal" in="SourceGraphic" in2="effect1_dropShadow_865_397" result="shape"/>
</filter>
</defs>
</svg>
