<svg width="24" height="24" viewBox="0 0 24 24" fill="none" xmlns="http://www.w3.org/2000/svg">
<path d="M6 9.75H7.5C7.5006 9.15345 7.73784 8.5815 8.15967 8.15967C8.5815 7.73784 9.15345 7.5006 9.75 7.5V6C8.7558 6.00119 7.80267 6.39666 7.09966 7.09966C6.39666 7.80267 6.00119 8.7558 6 9.75Z" fill="#FFFDFA"/>
<path d="M3 9.75H4.5C4.50159 8.3581 5.05522 7.02367 6.03944 6.03944C7.02367 5.05522 8.3581 4.50159 9.75 4.5V3C7.9604 3.00199 6.24466 3.71378 4.97922 4.97922C3.71378 6.24466 3.00199 7.9604 3 9.75Z" fill="#FFFDFA"/>
<path d="M4.49997 21.75H4.62747C19.365 20.9025 21.4575 8.4675 21.75 4.6725C21.7957 4.07756 21.6032 3.48883 21.2149 3.03579C20.8265 2.58276 20.2742 2.30253 19.6792 2.25675C19.6197 2.25225 19.56 2.25 19.5 2.25H15.5475C15.2471 2.24971 14.9535 2.33963 14.7048 2.50812C14.456 2.67661 14.2636 2.9159 14.1525 3.195L13.0125 6C12.9027 6.27266 12.8755 6.57156 12.9341 6.85957C12.9928 7.14758 13.1348 7.412 13.3425 7.62L14.94 9.2325C14.6915 10.651 14.0127 11.9587 12.9957 12.9784C11.9788 13.998 10.6728 14.6802 9.25497 14.9325L7.62747 13.32C7.41635 13.1146 7.14943 12.9759 6.86001 12.9213C6.57059 12.8666 6.27148 12.8983 5.99997 13.0125L3.17247 14.145C2.89758 14.2597 2.66306 14.4536 2.49877 14.702C2.33448 14.9504 2.24787 15.2422 2.24998 15.54V19.5C2.24998 20.0967 2.48703 20.669 2.90898 21.091C3.33094 21.5129 3.90324 21.75 4.49997 21.75ZM19.5 3.75C19.5985 3.7497 19.6961 3.76881 19.7872 3.80623C19.8783 3.84365 19.9611 3.89864 20.031 3.96808C20.1008 4.03751 20.1563 4.12003 20.1943 4.21091C20.2322 4.30179 20.2519 4.39926 20.2522 4.49775C20.2522 4.51875 20.2515 4.5395 20.25 4.56C19.905 9 17.6925 19.5 4.54497 20.25C4.34647 20.2619 4.15137 20.1945 4.00257 20.0625C3.85376 19.9306 3.76345 19.745 3.75147 19.5465L3.74998 19.5V15.54L6.57747 14.4075L8.72997 16.545L9.08997 16.5C15.615 15.6825 16.5 9.1575 16.5 9.09L16.545 8.73L14.415 6.5775L15.54 3.75H19.5Z" fill="#FFFDFA"/>
</svg>
