<svg width="80" height="80" viewBox="0 0 80 80" fill="none" xmlns="http://www.w3.org/2000/svg">
<path d="M40 0.625C18.2559 0.625 0.625 18.2559 0.625 40C0.625 61.7441 18.2559 79.375 40 79.375C61.7441 79.375 79.375 61.7441 79.375 40C79.375 18.2559 61.7441 0.625 40 0.625ZM52.665 40.6064L33.4697 54.5723C33.3645 54.6479 33.2404 54.693 33.1112 54.7027C32.982 54.7125 32.8526 54.6864 32.7372 54.6273C32.6219 54.5683 32.525 54.4786 32.4573 54.3681C32.3897 54.2576 32.3537 54.1306 32.3535 54.001V26.0869C32.3531 25.9571 32.3886 25.8296 32.4562 25.7188C32.5238 25.6079 32.6207 25.5179 32.7363 25.4587C32.8519 25.3995 32.9816 25.3735 33.111 25.3836C33.2405 25.3936 33.3647 25.4393 33.4697 25.5156L52.665 39.4727C52.7557 39.5368 52.8297 39.6217 52.8808 39.7204C52.9318 39.819 52.9585 39.9285 52.9585 40.0396C52.9585 40.1506 52.9318 40.2601 52.8808 40.3587C52.8297 40.4574 52.7557 40.5423 52.665 40.6064Z" fill="#B0855F"/>
</svg>
