<svg width="28" height="40" viewBox="0 0 28 40" fill="none" xmlns="http://www.w3.org/2000/svg">
<path fill-rule="evenodd" clip-rule="evenodd" d="M2.82031 4.5791H24.7771L24.1729 7.16746H15.3095L13.8995 5.77374L12.4894 7.16746H3.62606L2.82031 4.5791Z" fill="#F5EAE5"/>
<path fill-rule="evenodd" clip-rule="evenodd" d="M2.82031 3.38477H24.9786V2.58835V1.19462V0H21.7556V1.19462H18.5326V0H15.3095V1.19462H12.4894V0H9.26635V1.19462H6.04335V0H2.82031V1.19462V2.58835V3.38477Z" fill="#F5EAE5"/>
<path fill-rule="evenodd" clip-rule="evenodd" d="M17.7266 12.7226V33.2303C17.7266 36.8142 18.1295 36.6151 21.554 37.0133H21.7554L22.1583 37.4115V39.6016L21.7554 39.9999H6.44604L6.04317 39.6016V37.4115L6.44604 37.0133H6.64746C10.0719 36.8142 10.2734 36.8142 10.2734 33.2303V12.7226H9.46762C8.05755 12.7226 5.84172 12.7226 4.83452 13.7181C4.02877 14.5145 3.42446 16.9038 3.02158 17.8993V18.0984L2.61868 18.2975H0.402872L0 17.8993V17.7002C0.201439 14.7136 0.402853 11.7271 0.604292 8.9396V8.7405L1.00719 8.34229H2.61868L2.82013 8.54139V8.7405C3.42445 9.53691 3.82733 9.53691 4.83452 9.53691H23.1655C24.1727 9.53691 24.5755 9.33781 25.3813 8.7405V8.54139L25.5827 8.34229H27.1943L27.5971 8.7405V8.9396C27.5971 11.7271 27.7986 14.7136 28 17.7002V17.8993L27.5971 18.2975L25.3813 18.4966L24.9784 18.0984V17.8993C24.5755 16.5056 24.1727 14.5145 23.1655 13.519C22.3597 12.5235 20.1439 12.7226 19.1367 12.7226H17.7266ZM12.4892 12.7226H11.6834V33.2303C11.6834 34.624 11.482 35.8187 11.2806 36.6151H12.8921C12.6906 35.8187 12.4892 34.624 12.4892 33.2303V12.7226ZM2.01439 9.73602L1.41007 9.33781L1.00719 17.302L1.81294 17.1029L2.01439 9.73602Z" fill="#F5EAE5"/>
</svg>
