<svg width="24" height="24" viewBox="0 0 24 24" fill="none" xmlns="http://www.w3.org/2000/svg">
<g clip-path="url(#clip0)">
<path d="M12.9375 23.0625L12.9375 3.20824L16.2105 6.49717C16.5758 6.86416 17.1693 6.86556 17.5363 6.50031C17.9033 6.13506 17.9047 5.54144 17.5395 5.17445L12.6645 0.27583C12.6642 0.275502 12.6639 0.275268 12.6636 0.274987C12.2984 -0.0910601 11.7029 -0.0922319 11.3364 0.274893C11.3361 0.275221 11.3358 0.275456 11.3355 0.275737L6.4605 5.17436C6.09535 5.5413 6.09661 6.13492 6.46369 6.50022C6.83068 6.86547 7.42425 6.86406 7.7895 6.49708L11.0625 3.20824L11.0625 23.0625C11.0625 23.5803 11.4822 24 12 24C12.5178 24 12.9375 23.5803 12.9375 23.0625Z" fill="white"/>
</g>
<defs>
<clipPath id="clip0">
<rect width="24" height="24" fill="white" transform="matrix(-1 -8.74228e-08 -8.74228e-08 1 24 0)"/>
</clipPath>
</defs>
</svg>
