<svg width="24" height="24" viewBox="0 0 24 24" fill="none" xmlns="http://www.w3.org/2000/svg">
<g clip-path="url(#clip0)">
<path d="M11.0625 0.937486L11.0625 20.7918L7.7895 17.5028C7.42425 17.1358 6.83067 17.1344 6.46368 17.4997C6.09665 17.8649 6.09529 18.4586 6.4605 18.8255L11.3355 23.7242C11.3358 23.7245 11.3361 23.7247 11.3364 23.725C11.7016 24.0911 12.2971 24.0922 12.6636 23.7251C12.6639 23.7248 12.6642 23.7245 12.6645 23.7243L17.5395 18.8256C17.9047 18.4587 17.9034 17.8651 17.5363 17.4998C17.1693 17.1345 16.5757 17.1359 16.2105 17.5029L12.9375 20.7918L12.9375 0.937486C12.9375 0.419704 12.5178 -1.36281e-05 12 -1.36055e-05C11.4822 -1.35829e-05 11.0625 0.419704 11.0625 0.937486Z" fill="#202020"/>
</g>
<defs>
<clipPath id="clip0">
<rect width="24" height="24" fill="white" transform="matrix(-1 -8.74228e-08 -8.74228e-08 1 24 0)"/>
</clipPath>
</defs>
</svg>
