<svg width="24" height="24" viewBox="0 0 24 24" fill="none" xmlns="http://www.w3.org/2000/svg">
<g clip-path="url(#clip0)">
<path d="M23.8991 5.87691C22.8652 7.92483 21.2266 9.65972 19.1595 10.8963L21.6972 13.434C22.0633 13.8001 22.0633 14.3937 21.6972 14.7599C21.3311 15.126 20.7375 15.126 20.3714 14.7599L17.3943 11.7827C15.9911 12.3634 14.485 12.7127 12.9375 12.8133V17.0625C12.9375 17.5803 12.5177 18 12 18C11.4822 18 11.0625 17.5803 11.0625 17.0625V12.8133C9.51489 12.7128 8.0088 12.3635 6.60564 11.7827L3.62857 14.7599C3.26243 15.126 2.6688 15.126 2.30271 14.7599C1.93666 14.3938 1.93666 13.8002 2.30276 13.4341L4.84043 10.8964C2.77333 9.65977 1.13477 7.92488 0.100806 5.87695C-0.132537 5.41472 0.0529939 4.85091 0.515181 4.61752C0.977227 4.38412 1.54127 4.56961 1.77457 5.03184C3.51354 8.47608 7.38888 10.9688 12 10.9688C16.6146 10.9688 20.488 8.47308 22.2254 5.0318C22.4592 4.56881 23.0233 4.38445 23.4848 4.61747C23.947 4.85086 24.1326 5.41472 23.8991 5.87691Z" fill="#202020"/>
</g>
<defs>
<clipPath id="clip0">
<rect width="24" height="24" fill="white"/>
</clipPath>
</defs>
</svg>
