<svg width="24" height="24" viewBox="0 0 24 24" fill="none" xmlns="http://www.w3.org/2000/svg">
<g clip-path="url(#clip0)">
<path d="M22.6837 6.54569C20.6938 2.66449 16.6534 0 12 0C7.34511 0 3.30418 2.66551 1.31479 6.54951C1.3069 6.56505 1.29747 6.57906 1.29136 6.59536C0.467476 8.22096 0 10.0565 0 12C0 13.944 0.467476 15.7796 1.29136 17.4046C1.29747 17.4209 1.3069 17.435 1.31479 17.4505C3.30367 21.3345 7.34511 24 12 24C16.6534 24 20.6938 21.336 22.6837 17.4543C22.6926 17.437 22.703 17.4214 22.7097 17.4031C23.533 15.778 24 13.943 24 12C24 10.057 23.533 8.22198 22.7097 6.59689C22.7025 6.57855 22.6926 6.56301 22.6837 6.54569ZM21.8843 16.6957H17.2981C17.5529 15.4102 17.7042 14.0044 17.7328 12.5217H22.93C22.8595 14.0103 22.4931 15.4196 21.8843 16.6957ZM12 22.9565C10.3497 22.9565 8.86957 20.8408 8.03015 17.7391H15.9699C15.1304 20.8408 13.6503 22.9565 12 22.9565ZM7.78074 16.6957C7.51095 15.4127 7.34766 14.0019 7.31632 12.5217H16.6842C16.6523 14.0019 16.489 15.4127 16.2198 16.6957H7.78074ZM1.06997 12.5217H6.26724C6.29628 14.0044 6.4471 15.4102 6.70185 16.6957H2.11574C1.50688 15.4196 1.14054 14.0103 1.06997 12.5217ZM2.11574 7.30435H6.70185C6.4471 8.58984 6.29577 9.99558 6.26724 11.4783H1.06997C1.14054 9.98973 1.50688 8.58042 2.11574 7.30435ZM12 1.04348C13.6503 1.04348 15.1304 3.15922 15.9699 6.26087H8.03015C8.86957 3.15922 10.3497 1.04348 12 1.04348ZM16.2193 7.30435C16.489 8.58679 16.6523 9.99813 16.6837 11.4783H7.31581C7.34766 9.99813 7.51095 8.58679 7.78023 7.30435H16.2193ZM17.7328 11.4783C17.7037 9.99558 17.5529 8.58984 17.2981 7.30435H21.8843C22.4931 8.58042 22.8595 9.98973 22.93 11.4783H17.7328ZM21.3151 6.26087H17.062C16.5339 4.19073 15.7243 2.50221 14.7323 1.40243C17.5032 2.11778 19.847 3.88655 21.3151 6.26087ZM9.26724 1.40243C8.27573 2.50221 7.46612 4.19073 6.9375 6.26087H2.68436C4.15302 3.88655 6.49677 2.11778 9.26724 1.40243ZM2.68487 17.7391H6.9375C7.46561 19.8093 8.27522 21.4978 9.26724 22.5976C6.49677 21.8822 4.15302 20.1129 2.68487 17.7391ZM14.7328 22.5976C15.7243 21.4978 16.5339 19.8093 17.0625 17.7391H21.3151C19.847 20.1129 17.5032 21.8822 14.7328 22.5976Z" fill="#202020"/>
</g>
<defs>
<clipPath id="clip0">
<rect width="24" height="24" fill="white"/>
</clipPath>
</defs>
</svg>
