<svg width="24" height="24" viewBox="0 0 24 24" fill="none" xmlns="http://www.w3.org/2000/svg">
<g clip-path="url(#clip0)">
<path fill-rule="evenodd" clip-rule="evenodd" d="M11.9917 2.74076e-06C15.0068 -0.00201288 17.7626 1.10785 19.8715 2.94225C20.2143 3.24038 20.2315 3.76852 19.9102 4.0898L17.6822 6.31782C17.3988 6.60117 16.9474 6.62457 16.6386 6.36914C15.3771 5.32552 13.762 4.69571 12.0001 4.69566C9.58322 4.69561 7.44295 5.88282 6.11259 7.69753L2.02158 5.3355C4.18481 2.10867 7.86665 0.00276837 11.9917 2.74076e-06ZM1.23717 6.68987L5.32486 9.04988C4.92333 9.95358 4.6957 10.9504 4.69566 11.9999C4.69561 13.0495 4.92309 14.0466 5.32458 14.9506L1.25409 17.3007C0.452109 15.6904 0 13.8872 0 11.9999C4.6875e-05 10.0861 0.447328 8.28601 1.23717 6.68987ZM23.9178 10.6116C23.8711 10.2143 23.5371 9.91359 23.1372 9.91359L13.3044 9.91308C12.8722 9.91308 12.5218 10.2635 12.5218 10.6957V13.8235C12.5218 14.2557 12.8721 14.6062 13.3044 14.6062H18.8144C18.3069 15.927 17.4254 17.0625 16.3031 17.888L18.6435 21.9417C20.9992 20.3453 22.7904 17.9317 23.5793 15.0824C24.0082 13.5332 24.0854 12.0352 23.9178 10.6116ZM12.0001 19.3044C13.0509 19.3043 14.0473 19.0762 14.9498 18.6741L17.2917 22.7304C15.6846 23.5385 13.8878 24 12 24C7.82414 24 4.18355 21.8502 2.03845 18.6551L6.11203 16.3032C7.44145 18.1172 9.5805 19.3044 12.0001 19.3044Z" fill="#202020"/>
</g>
<defs>
<clipPath id="clip0">
<rect width="24" height="24" fill="white"/>
</clipPath>
</defs>
</svg>
