<svg width="24" height="24" viewBox="0 0 24 24" fill="none" xmlns="http://www.w3.org/2000/svg">
<path d="M12.0112 9.42188C10.5826 9.42188 9.4442 10.5826 9.4442 11.9888C9.4442 13.4174 10.5826 14.5558 12.0112 14.5558C13.4174 14.5558 14.5781 13.4174 14.5781 11.9888C14.5781 10.5826 13.4174 9.42188 12.0112 9.42188ZM12.0112 13.6629C11.096 13.6629 10.3371 12.9263 10.3371 11.9888C10.3371 11.0737 11.0737 10.3371 12.0112 10.3371C12.9263 10.3371 13.6629 11.0737 13.6629 11.9888C13.6629 12.9263 12.9263 13.6629 12.0112 13.6629ZM15.2701 9.33259C15.2701 8.99777 15.0022 8.72991 14.6674 8.72991C14.3326 8.72991 14.0647 8.99777 14.0647 9.33259C14.0647 9.66741 14.3326 9.93527 14.6674 9.93527C15.0022 9.93527 15.2701 9.66741 15.2701 9.33259ZM16.9665 9.93527C16.9219 9.1317 16.7433 8.41741 16.1629 7.83705C15.5826 7.2567 14.8683 7.07812 14.0647 7.03348C13.2388 6.98884 10.7612 6.98884 9.93527 7.03348C9.1317 7.07812 8.43973 7.2567 7.83705 7.83705C7.2567 8.41741 7.07812 9.1317 7.03348 9.93527C6.98884 10.7612 6.98884 13.2388 7.03348 14.0647C7.07812 14.8683 7.2567 15.5603 7.83705 16.1629C8.43973 16.7433 9.1317 16.9219 9.93527 16.9665C10.7612 17.0112 13.2388 17.0112 14.0647 16.9665C14.8683 16.9219 15.5826 16.7433 16.1629 16.1629C16.7433 15.5603 16.9219 14.8683 16.9665 14.0647C17.0112 13.2388 17.0112 10.7612 16.9665 9.93527ZM15.8951 14.9353C15.7388 15.3817 15.3817 15.7165 14.9576 15.8951C14.2879 16.1629 12.7254 16.096 12.0112 16.096C11.2746 16.096 9.71205 16.1629 9.06473 15.8951C8.6183 15.7165 8.28348 15.3817 8.10491 14.9353C7.83705 14.2879 7.90402 12.7254 7.90402 11.9888C7.90402 11.2746 7.83705 9.71205 8.10491 9.04241C8.28348 8.6183 8.6183 8.28348 9.06473 8.10491C9.71205 7.83705 11.2746 7.90402 12.0112 7.90402C12.7254 7.90402 14.2879 7.83705 14.9576 8.10491C15.3817 8.26116 15.7165 8.6183 15.8951 9.04241C16.1629 9.71205 16.096 11.2746 16.096 11.9888C16.096 12.7254 16.1629 14.2879 15.8951 14.9353Z" fill="#202020"/>
</svg>
