<svg width="24" height="24" viewBox="0 0 24 24" fill="none" xmlns="http://www.w3.org/2000/svg">
<path d="M17.6237 8.17526L18.6316 7.21105V7H15.14L12.6516 13.1937L9.82053 7H6.15947V7.21105L7.33684 8.62842C7.45158 8.73316 7.51158 8.88632 7.49632 9.04053V14.6105C7.53263 14.8111 7.46737 15.0174 7.32632 15.1632L6 16.7705V16.9789H9.76053V16.7679L8.43421 15.1632C8.29053 15.0168 8.22263 14.8142 8.25158 14.6105V9.79263L11.5526 16.9816H11.9363L14.7747 9.79263V15.5195C14.7747 15.6705 14.7747 15.7016 14.6758 15.8005L13.6547 16.7884V17H18.6084V16.7889L17.6242 15.8253C17.5379 15.76 17.4932 15.6505 17.5116 15.5442V8.45632C17.4932 8.34947 17.5374 8.24 17.6237 8.17526Z" fill="#202020"/>
</svg>
