<svg width="24" height="24" viewBox="0 0 24 24" fill="none" xmlns="http://www.w3.org/2000/svg">
<g clip-path="url(#clip0)">
<path d="M0.584018 13.6687C0.829531 13.6073 1.07505 13.6687 1.28987 13.8222C2.0878 14.4973 3.00848 15.0497 4.02123 15.418C4.9726 15.7863 6.01603 15.9704 7.12085 15.9704C9.60669 15.9704 11.8777 14.9577 13.5042 13.3311C15.1308 11.7046 16.1435 9.43358 16.1435 6.94774C16.1435 5.9043 15.9594 4.89155 15.6525 3.97087C15.3149 2.98881 14.8239 2.09882 14.1794 1.33159C13.9032 0.994005 13.9646 0.502975 14.3022 0.226771C14.517 0.0733244 14.7625 0.0119457 15.008 0.0733244C17.6166 0.77918 19.8876 2.34434 21.5142 4.43121C23.0793 6.4874 24 9.03462 24 11.7967C24 15.1418 22.6497 18.18 20.44 20.3897C18.2304 22.5993 15.2228 23.9497 11.847 23.9497C9.02359 23.9497 6.415 22.9676 4.32812 21.3411C2.21055 19.6838 0.676087 17.3207 0.0316092 14.6201C-0.0911477 14.1904 0.154366 13.7608 0.584018 13.6687Z" fill="#202020"/>
</g>
<defs>
<clipPath id="clip0">
<rect width="24" height="24" fill="white" transform="matrix(-1 -8.74228e-08 -8.74228e-08 1 24 0)"/>
</clipPath>
</defs>
</svg>
