<svg width="24" height="24" viewBox="0 0 24 24" fill="none" xmlns="http://www.w3.org/2000/svg">
<g clip-path="url(#clip0)">
<path d="M11.9999 12.8438C9.67374 12.8438 7.78125 14.7363 7.78125 17.0625C7.78125 19.3887 9.67374 21.2812 11.9999 21.2812C14.3261 21.2812 16.2186 19.3887 16.2186 17.0625C16.2186 14.7363 14.3261 12.8438 11.9999 12.8438ZM11.9999 19.4062C10.7076 19.4062 9.65621 18.3548 9.65621 17.0625C9.65621 15.7702 10.7076 14.7188 11.9999 14.7188C13.2923 14.7188 14.3436 15.7702 14.3436 17.0625C14.3436 18.3548 13.2923 19.4062 11.9999 19.4062Z" fill="#202020"/>
<path d="M23.8991 14.8418C22.8652 12.7939 21.2266 11.059 19.1595 9.82242L21.6972 7.2847C22.0633 6.91861 22.0633 6.32503 21.6972 5.95889C21.3311 5.5928 20.7375 5.5928 20.3714 5.95889L17.3943 8.93606C15.9911 8.35533 14.485 8.00602 12.9375 7.90547V3.65625C12.9375 3.13847 12.5177 2.71875 12 2.71875C11.4822 2.71875 11.0625 3.13847 11.0625 3.65625V7.90542C9.51489 8.00597 8.0088 8.35528 6.60564 8.93602L3.62857 5.95884C3.26243 5.5927 2.6688 5.5927 2.30271 5.95884C1.93666 6.32494 1.93666 6.91852 2.30276 7.28466L4.84043 9.82238C2.77333 11.059 1.13477 12.7939 0.100806 14.8418C-0.132537 15.304 0.0529939 15.8678 0.515181 16.1012C0.977227 16.3346 1.54127 16.1491 1.77457 15.6869C3.51354 12.2427 7.38888 9.75 12 9.75C16.6146 9.75 20.488 12.2457 22.2254 15.687C22.4592 16.1499 23.0233 16.3343 23.4848 16.1013C23.947 15.8679 24.1326 15.304 23.8991 14.8418Z" fill="#202020"/>
</g>
<defs>
<clipPath id="clip0">
<rect width="24" height="24" fill="white"/>
</clipPath>
</defs>
</svg>
