<svg width="24" height="24" viewBox="0 0 24 24" fill="none" xmlns="http://www.w3.org/2000/svg">
<path d="M17.7723 11.5909C17.5601 11.3788 17.3026 11.2728 16.9995 11.2728H16.636V9.09085C16.636 7.69693 16.1362 6.50007 15.1361 5.50007C14.1362 4.50002 12.9394 4 11.5453 4C10.1512 4 8.95425 4.50002 7.95436 5.50003C6.95432 6.50007 6.45446 7.69689 6.45446 9.09085V11.2728H6.09087C5.78794 11.2728 5.53031 11.3788 5.31817 11.5909C5.10603 11.8029 5 12.0605 5 12.3637V18.9091C5 19.2121 5.10607 19.4698 5.31817 19.6819C5.53031 19.8939 5.78794 20 6.09087 20H16.9997C17.3029 20 17.5603 19.894 17.7726 19.6819C17.9845 19.4698 18.0907 19.2121 18.0907 18.9091V12.3636C18.0909 12.0607 17.9845 11.8031 17.7723 11.5909ZM14.4543 11.2728H8.63628V9.09085C8.63628 8.28786 8.92042 7.60221 9.48858 7.03412C10.0568 6.46596 10.7424 6.18194 11.5454 6.18194C12.3486 6.18194 13.034 6.46592 13.6022 7.03412C14.1702 7.60217 14.4543 8.28786 14.4543 9.09085V11.2728Z" fill="#202020"/>
</svg>
