<svg width="24" height="24" viewBox="0 0 24 24" fill="none" xmlns="http://www.w3.org/2000/svg">
<path d="M16.2455 9.29911C16.692 8.96429 17.0938 8.5625 17.4062 8.09375C17.0045 8.27232 16.5357 8.40625 16.067 8.45089C16.558 8.16071 16.9152 7.71429 17.0938 7.15625C16.6473 7.42411 16.1339 7.625 15.6205 7.73661C15.1741 7.26786 14.5714 7 13.9018 7C12.6071 7 11.558 8.04911 11.558 9.34375C11.558 9.52232 11.5804 9.70089 11.625 9.87946C9.68304 9.76786 7.94196 8.83036 6.78125 7.42411C6.58036 7.75893 6.46875 8.16071 6.46875 8.60714C6.46875 9.41071 6.87054 10.125 7.51786 10.5491C7.13839 10.5268 6.75893 10.4375 6.44643 10.2589V10.2812C6.44643 11.4196 7.25 12.3571 8.32143 12.5804C8.14286 12.625 7.91964 12.6696 7.71875 12.6696C7.5625 12.6696 7.42857 12.6473 7.27232 12.625C7.5625 13.5625 8.43304 14.2321 9.45982 14.2545C8.65625 14.8795 7.65179 15.2589 6.55804 15.2589C6.35714 15.2589 6.17857 15.2366 6 15.2143C7.02679 15.8839 8.25446 16.2634 9.59375 16.2634C13.9018 16.2634 16.2455 12.7143 16.2455 9.61161C16.2455 9.5 16.2455 9.41071 16.2455 9.29911Z" fill="#202020"/>
</svg>
