<svg width="24" height="24" viewBox="0 0 24 24" fill="none" xmlns="http://www.w3.org/2000/svg">
<g clip-path="url(#clip0)">
<path d="M21.635 4.24935C21.5057 2.57987 20.1069 1.26074 18.4048 1.26074H3.24103C1.45392 1.26074 0 2.71466 0 4.50177V19.4973C0 21.2844 1.45392 22.7383 3.24103 22.7383H20.759C22.5461 22.7383 24 21.2844 24 19.4973V7.36907C24 5.88557 22.9977 4.6326 21.635 4.24935ZM3.24103 2.7748H18.4049C19.2288 2.7748 19.9193 3.35492 20.0907 4.12808H3.24103C2.6065 4.12808 2.01445 4.31209 1.51406 4.62853V4.50177C1.51406 3.54953 2.28878 2.7748 3.24103 2.7748ZM20.759 21.2243H3.24103C2.28878 21.2243 1.51406 20.4495 1.51406 19.4973V7.36907C1.51406 6.41682 2.28878 5.6421 3.24103 5.6421H20.759C21.7113 5.6421 22.486 6.41682 22.486 7.36907V10.011H17.6587C15.7458 10.011 14.1895 11.5673 14.1895 13.4802C14.1895 15.3932 15.7458 16.9495 17.6587 16.9495H22.4859V19.4973C22.4859 20.4495 21.7112 21.2243 20.759 21.2243ZM22.4859 15.4354H17.6587C16.5806 15.4354 15.7036 14.5583 15.7036 13.4802C15.7036 12.4021 16.5806 11.5251 17.6587 11.5251H22.4859V15.4354Z" fill="#202020"/>
<path d="M17.9395 14.3263C18.3748 14.3263 18.7277 13.9734 18.7277 13.5382C18.7277 13.1029 18.3748 12.75 17.9395 12.75C17.5042 12.75 17.1514 13.1029 17.1514 13.5382C17.1514 13.9734 17.5042 14.3263 17.9395 14.3263Z" fill="#202020"/>
</g>
<defs>
<clipPath id="clip0">
<rect width="24" height="24" fill="white"/>
</clipPath>
</defs>
</svg>
