<svg width="16" height="16" viewBox="0 0 16 16" fill="none" xmlns="http://www.w3.org/2000/svg">
<path d="M16 11.923C16 12.8004 15.3032 13.4198 14.4516 13.4198H1.54839C0.696774 13.4198 0 12.8004 0 11.923V4.07783C0 3.20041 0.696774 2.58105 1.54839 2.58105H14.4516C15.3032 2.58105 16 3.20041 16 4.07783V11.923Z" fill="#DC3027"/>
<path d="M1.54834 2.58105H14.4516C15.3032 2.58105 16 3.20041 16 4.07783V11.923C16 12.8004 15.1741 13.4198 14.3225 13.4198" fill="#CE2420"/>
<path d="M1.54834 2.58105H14.4516C15.3032 2.58105 16 3.20041 16 4.07783V6.96815" fill="#B50808"/>
<path d="M16 11.8969C16 12.8517 15.3032 13.4195 14.4516 13.4195H1.54839C0.696774 13.4195 0 12.7485 0 11.8711" fill="#B50808"/>
<path d="M2.78687 4.20605L3.17396 5.41896H4.43848L3.43203 6.14154L3.81912 7.32864L2.78687 6.58025L1.78042 7.30283L2.16751 6.14154L1.13525 5.41896H2.39977L2.78687 4.20605Z" fill="#F8D12E"/>
<path d="M5.72891 3.4834L5.62568 3.8963L5.98697 4.15437H5.54826L5.41923 4.59308L5.26439 4.15437L4.82568 4.18017L5.18697 3.92211L5.03213 3.5092L5.39343 3.74146L5.72891 3.4834Z" fill="#F7B92F"/>
<path d="M5.72891 7.25195L5.62568 7.66486L5.98697 7.92292L5.54826 7.94873L5.41923 8.36163L5.26439 7.94873H4.82568L5.18697 7.69066L5.03213 7.27776L5.39343 7.51002L5.72891 7.25195Z" fill="#F8D12E"/>
<path d="M6.81289 4.61914L6.68386 5.05785L7.04515 5.29011L6.60644 5.31592L6.47741 5.72882L6.34838 5.31592L5.90967 5.34172L6.24515 5.05785L6.09031 4.64495L6.4516 4.90301L6.81289 4.61914Z" fill="#F7B92F"/>
<path d="M6.81289 6.16797L6.68386 6.58087L7.04515 6.83894H6.60644L6.47741 7.27765L6.34838 6.86474H5.90967L6.24515 6.60668L6.09031 6.19378L6.4516 6.42603L6.81289 6.16797Z" fill="#F8D12E"/>
</svg>
