<svg width="16" height="16" viewBox="0 0 16 16" fill="none" xmlns="http://www.w3.org/2000/svg">
<g clip-path="url(#clip0)">
<path d="M16 11.923C16 12.8004 15.3032 13.4198 14.4516 13.4198H1.54839C0.696774 13.4198 0 12.8004 0 11.923V4.07783C0 3.20041 0.696774 2.58105 1.54839 2.58105H14.4516C15.3032 2.58105 16 3.20041 16 4.07783V11.923Z" fill="#29337A"/>
<path d="M1.54834 2.58105H14.4516C15.3032 2.58105 16 3.20041 16 4.07783V11.923C16 12.8004 15.1741 13.4198 14.3225 13.4198" fill="#1B265B"/>
<path d="M1.54834 2.58105H14.4516C15.3032 2.58105 16 3.20041 16 4.07783V6.96815" fill="#111D49"/>
<path d="M16 11.8969C16 12.7743 15.3032 13.4195 14.4516 13.4195H1.54839C0.696774 13.4195 0 12.7485 0 11.8711" fill="#111D49"/>
<path d="M8.77416 8.00041L14.2709 2.58105H12.7226L7.99997 7.30364L3.27739 2.58105H1.729L7.22578 8.00041L1.729 13.4198H3.27739L7.99997 8.69718L12.7226 13.4198H14.2709L8.77416 8.00041Z" fill="white"/>
<path d="M3.30319 11.8711L1.729 13.4195H3.27739L4.82577 11.8711H3.30319Z" fill="#D9ECED"/>
<path d="M11.1743 11.8711L12.7227 13.4195H14.2711L12.6969 11.8711H11.1743Z" fill="#D9ECED"/>
<path d="M13.2645 12.4649L8.77416 8.05202L14.2709 2.58105H12.7226L7.99997 7.30364L3.27739 2.58105H1.729L2.76126 3.5617L13.2645 12.4649Z" fill="#D9ECED"/>
<path d="M16 6.96815H9.03226V2.58105H6.96774V6.96815H0V9.03267H6.96774V13.4198H9.03226V9.03267H16V6.96815Z" fill="white"/>
<path d="M9.03229 11.8711H6.96777V13.4195H9.03229V11.8711Z" fill="#D9ECED"/>
<path d="M9.03227 2.58105H6.96775V6.96815H6.78711L9.21292 9.03267H16V6.96815H9.03227V2.58105Z" fill="#D9ECED"/>
<path d="M16 7.48428H8.51613H8.82581L13.9613 2.58105H13.4452L8.51613 7.48428V2.58105H7.48387V7.48428L2.50323 2.58105H2.03871L6.96774 7.48428H0V8.51654H6.99355L2.16774 13.4198H2.63226L7.48387 8.51654V13.4198H8.51613V8.56815L13.4968 13.4198H13.9613L9.03226 8.51654H16V7.48428Z" fill="#E51D35"/>
<path d="M8.51615 11.8711H7.48389V13.4195H8.51615V11.8711Z" fill="#AF0026"/>
<path d="M3.69006 11.8711L2.16748 13.4195H2.632L4.18038 11.8711H3.69006Z" fill="#AF0026"/>
<path d="M11.9224 11.8711L13.4966 13.4195H13.9611L12.3869 11.8711H11.9224Z" fill="#AF0026"/>
<path d="M8.98051 7.48428L13.9612 2.58105H13.445L8.51599 7.48428V2.58105H7.48374V7.48428L2.50309 2.58105H2.03857L4.87728 5.39396L11.0708 10.6069L9.03212 8.51654H15.9999V7.48428H8.51599H8.98051Z" fill="#AF0026"/>
</g>
<defs>
<clipPath id="clip0">
<rect width="16" height="16" fill="white"/>
</clipPath>
</defs>
</svg>
